<svg xmlns="http://www.w3.org/2000/svg" viewBox="0 0 118.56 20.37"><defs><style>
  .cls-1{fill:#bf0811;}
  .cls-2{fill:#001d7e;fill-rule:evenodd;}
</style>
</defs>
<title>Ativo 2</title>
<g id="Camada_2" data-name="Camada 2">
  <g id="Camada_1-2" data-name="Camada 1">
    <path class="cls-1" d="M19.56,19.74,30.75.52h7.7l.27,19.23H32l.17-2.42H27.5l-1.26,2.42Zm32.76,0L58.1.52h6.32L58.64,19.74Zm33,0L91.06.52h11.58l-1.57,5.21H95.6L95,7.58h5l-1.48,4.93h-5l-.61,2h5.61L97,19.74Zm13.38,0L104.43.54h5a22.68,22.68,0,0,1,4,.3,6.3,6.3,0,0,1,2.48.91,5.92,5.92,0,0,1,2.4,3.47,9.21,9.21,0,0,1-.29,4.93,13.4,13.4,0,0,1-2.67,4.91,14.1,14.1,0,0,1-4.5,3.47,10.92,10.92,0,0,1-3.06.92,29.78,29.78,0,0,1-4.61.29Zm7.93-5.86a5.67,5.67,0,0,0,3.35-.91,5.16,5.16,0,0,0,1.81-2.81,3.23,3.23,0,0,0-.09-2.79,3,3,0,0,0-2.57-.92h-.27ZM60.07,19.76,65.86.51H76.11l-1.74,11L79.2.52,89.4.5,83.61,19.76H77.28l0-.08h-.1l3.92-13-6.22,13H69L70.32,7,66.49,19.67h-.07l0,.08Zm-7-7-2.06,7a10.62,10.62,0,0,1-1.73.49,9.19,9.19,0,0,1-1.67.16,8.23,8.23,0,0,1-3.11-.57,7,7,0,0,1-4.18-4.69A9.65,9.65,0,0,1,40,11.28a13.73,13.73,0,0,1,1.11-4.06A12.7,12.7,0,0,1,43.4,3.8,11.55,11.55,0,0,1,47.28,1a11.25,11.25,0,0,1,4.64-1,9.89,9.89,0,0,1,2.39.28,8.41,8.41,0,0,1,2.1.83l-1.9,6.48a7.54,7.54,0,0,0-1.73-.85,5.46,5.46,0,0,0-1.73-.28,4.17,4.17,0,0,0-3,1.16,4.68,4.68,0,0,0-1.45,3A3.06,3.06,0,0,0,47.23,13a2.71,2.71,0,0,0,2.21.9,5.63,5.63,0,0,0,1.74-.31A8.6,8.6,0,0,0,53,12.71ZM5.39,20.24,11.33.59H28.57l-3.09,5.3-8,.1-.72,2.35h7.4l-3,5.14H15.18l-2.05,6.76Zm24.52-7.49H32.5l.69-6.41Z"/><path class="cls-2" d="M17.06,7.24A39.65,39.65,0,0,1,22.44,7a27.86,27.86,0,0,0-5.58.86Zm-.46,6.61c5.44-.29,4.78,1.61,4.29,2.24C18.77,18.25.47,18.17,0,12.89-.21,10.43,4.08,9,9.09,8.18L8.57,9.77C5,10.87,5,12.11,5.06,12.34c0,1.14,1,3,8.73,3.82C22.16,17,22.43,13.85,16.6,13.85Z"/>
  </g>
  </g>
  </svg>
