<?xml version="1.0" encoding="utf-8"?>
<!-- Generator: Adobe Illustrator 16.0.0, SVG Export Plug-In . SVG Version: 6.00 Build 0)  -->
<!DOCTYPE svg PUBLIC "-//W3C//DTD SVG 1.1//EN" "http://www.w3.org/Graphics/SVG/1.1/DTD/svg11.dtd" [
	<!ENTITY ns_flows "http://ns.adobe.com/Flows/1.0/">
	<!ENTITY ns_extend "http://ns.adobe.com/Extensibility/1.0/">
	<!ENTITY ns_ai "http://ns.adobe.com/AdobeIllustrator/10.0/">
	<!ENTITY ns_graphs "http://ns.adobe.com/Graphs/1.0/">
	<!ENTITY ns_vars "http://ns.adobe.com/Variables/1.0/">
	<!ENTITY ns_imrep "http://ns.adobe.com/ImageReplacement/1.0/">
	<!ENTITY ns_sfw "http://ns.adobe.com/SaveForWeb/1.0/">
	<!ENTITY ns_custom "http://ns.adobe.com/GenericCustomNamespace/1.0/">
	<!ENTITY ns_adobe_xpath "http://ns.adobe.com/XPath/1.0/">
]>
<svg version="1.1" id="Layer_1" xmlns:x="&ns_extend;" xmlns:i="&ns_ai;" xmlns:graph="&ns_graphs;"
	 xmlns="http://www.w3.org/2000/svg" xmlns:xlink="http://www.w3.org/1999/xlink" xmlns:a="http://ns.adobe.com/AdobeSVGViewerExtensions/3.0/"
	 x="0px" y="0px" width="500px" height="400px" viewBox="0 0 500 400" style="enable-background:new 0 0 500 400;"
	 xml:space="preserve">
<style type="text/css">
<![CDATA[
	.st0{fill:#FFFFFF;}
]]>
</style>
<metadata>
	<sfw  xmlns="&ns_sfw;">
		<slices></slices>
		<sliceSourceBounds  width="136.811" height="55.118" y="-229.421" x="184.009" bottomLeftOrigin="true"></sliceSourceBounds>
	</sfw>
</metadata>
<g>
	<path class="st0" d="M272.08,182.967c-0.123-1.348-0.3-2.553-0.527-3.615c-0.261-1.192-0.829-2.198-1.703-3.014
		c-0.875-0.816-1.892-1.29-3.051-1.422c-3.629-0.408-9.11-0.612-16.446-0.612s-12.817,0.204-16.444,0.612
		c-1.161,0.132-2.173,0.606-3.039,1.422s-1.43,1.822-1.691,3.014c-0.245,1.062-0.429,2.267-0.551,3.615
		c-0.124,1.349-0.192,2.464-0.208,3.346c-0.017,0.883-0.025,2.108-0.025,3.676s0.009,2.793,0.025,3.677
		c0.016,0.882,0.084,1.997,0.208,3.345c0.122,1.349,0.297,2.553,0.526,3.615c0.262,1.193,0.829,2.197,1.703,3.015
		c0.874,0.816,1.891,1.289,3.052,1.422c3.627,0.408,9.108,0.611,16.444,0.611s12.817-0.203,16.446-0.611
		c1.159-0.133,2.173-0.605,3.038-1.422c0.865-0.818,1.429-1.822,1.691-3.015c0.245-1.063,0.429-2.267,0.552-3.615
		c0.122-1.348,0.191-2.463,0.208-3.345c0.016-0.884,0.024-2.108,0.024-3.677s-0.009-2.793-0.024-3.676
		C272.271,185.431,272.202,184.315,272.08,182.967 M259.028,191.311l-12.547,7.844c-0.229,0.163-0.506,0.246-0.834,0.246
		c-0.244,0-0.498-0.067-0.76-0.197c-0.539-0.294-0.809-0.752-0.809-1.373v-15.684c0-0.621,0.27-1.079,0.809-1.375
		c0.555-0.293,1.088-0.276,1.594,0.05l12.547,7.844c0.491,0.275,0.736,0.719,0.736,1.322
		C259.765,190.594,259.52,191.036,259.028,191.311"/>
</g>
<g>
	<path class="st0" d="M184.021,226.508l2.713-7.715c0.066-0.191,0.139-0.318,0.217-0.379s0.209-0.094,0.393-0.102h0.363
		c0.203,0,0.343,0.031,0.419,0.096s0.151,0.193,0.226,0.385l2.701,7.717c0.016,0.027,0.023,0.053,0.023,0.076
		c0.004,0.023-0.002,0.049-0.018,0.076c-0.023,0.051-0.074,0.076-0.152,0.076h-0.791c-0.059,0-0.102-0.002-0.129-0.006
		s-0.056-0.02-0.085-0.047s-0.054-0.072-0.073-0.131l-0.598-1.773h-3.387l-0.598,1.773c-0.035,0.123-0.119,0.184-0.252,0.184h-0.82
		c-0.109,0-0.164-0.047-0.164-0.143C184.009,226.568,184.013,226.539,184.021,226.508z M186.13,223.82h2.783l-0.803-2.508
		l-0.563-1.764h-0.059l-0.545,1.705L186.13,223.82z"/>
	<path class="st0" d="M191.778,223.68c0-1.023,0.245-1.84,0.734-2.449s1.221-0.914,2.192-0.914c0.913,0,1.688,0.133,2.325,0.398
		c0.097,0.035,0.146,0.111,0.146,0.229v5.303c0,0.531-0.063,0.984-0.187,1.359c-0.125,0.375-0.32,0.684-0.586,0.926
		s-0.578,0.432-0.936,0.568c-0.357,0.137-0.794,0.242-1.312,0.316c-0.023,0.004-0.045,0.006-0.064,0.006
		c-0.035,0-0.061-0.006-0.076-0.018c-0.027-0.016-0.049-0.057-0.064-0.125l-0.088-0.66c0-0.094,0.045-0.146,0.135-0.158
		c0.729-0.102,1.262-0.281,1.6-0.537c0.337-0.258,0.506-0.668,0.506-1.232v-0.07c-0.573,0.176-1.107,0.264-1.603,0.264
		c-0.462,0-0.869-0.078-1.22-0.234c-0.351-0.156-0.635-0.379-0.853-0.668c-0.217-0.289-0.38-0.627-0.488-1.012
		S191.778,224.156,191.778,223.68z M192.856,223.604c0,0.777,0.154,1.365,0.462,1.766s0.741,0.602,1.299,0.602
		c0.507,0,1.012-0.08,1.515-0.24v-4.318c-0.406-0.137-0.87-0.205-1.392-0.205c-0.585,0-1.045,0.195-1.38,0.586
		S192.856,222.787,192.856,223.604z"/>
	<path class="st0" d="M198.722,223.873v-3.27c0-0.074,0.014-0.123,0.041-0.145s0.078-0.031,0.152-0.031h0.662
		c0.074,0,0.124,0.01,0.149,0.031s0.038,0.07,0.038,0.145v3.209c0,0.309,0.015,0.568,0.044,0.783
		c0.029,0.213,0.083,0.41,0.161,0.592s0.187,0.324,0.325,0.428s0.317,0.184,0.536,0.24s0.484,0.086,0.797,0.086
		c0.332,0,0.711-0.033,1.137-0.1v-5.238c0-0.074,0.013-0.123,0.038-0.145s0.077-0.031,0.155-0.031h0.662
		c0.074,0,0.124,0.01,0.149,0.031s0.038,0.07,0.038,0.145v5.244c0,0.516-0.252,0.82-0.756,0.914
		c-0.488,0.063-0.992,0.094-1.512,0.094c-1.031,0-1.759-0.225-2.183-0.674S198.722,224.963,198.722,223.873z"/>
	<path class="st0" d="M205.126,224.889c0-0.287,0.048-0.555,0.144-0.801s0.243-0.471,0.442-0.676s0.473-0.365,0.82-0.482
		s0.752-0.176,1.213-0.176h1.459v-0.266c0-0.209-0.019-0.385-0.056-0.525c-0.037-0.143-0.105-0.273-0.205-0.393
		c-0.1-0.121-0.245-0.209-0.437-0.266c-0.191-0.059-0.434-0.086-0.727-0.086c-0.277,0-0.574,0.023-0.891,0.07
		s-0.576,0.104-0.779,0.172c-0.066,0.027-0.119,0.035-0.158,0.025s-0.066-0.045-0.082-0.107l-0.141-0.523
		c-0.039-0.094-0.004-0.16,0.105-0.199c0.566-0.234,1.273-0.352,2.121-0.352c1.543,0,2.314,0.697,2.314,2.092v3.756
		c0,0.16-0.061,0.264-0.182,0.311c-0.615,0.273-1.41,0.41-2.385,0.41c-0.496,0-0.919-0.053-1.269-0.158s-0.616-0.254-0.8-0.445
		c-0.184-0.193-0.314-0.4-0.393-0.621C205.165,225.426,205.126,225.174,205.126,224.889z M206.169,224.889
		c0,0.756,0.508,1.135,1.523,1.135c0.602,0,1.102-0.078,1.5-0.23v-2.148h-1.389C206.714,223.645,206.169,224.059,206.169,224.889z"
		/>
	<path class="st0" d="M211.94,226.557v-5.279c0-0.297,0.051-0.512,0.15-0.643c0.102-0.131,0.302-0.219,0.602-0.266
		c0.397-0.043,0.705-0.064,0.924-0.064c0.973,0,1.777,0.277,2.414,0.832c0.035,0.035,0.053,0.068,0.053,0.1
		c0,0.027-0.014,0.057-0.041,0.088l-0.445,0.58c-0.012,0.016-0.022,0.027-0.032,0.037s-0.02,0.016-0.029,0.018
		s-0.019,0.004-0.026,0.006s-0.018,0.002-0.029-0.002s-0.021-0.008-0.026-0.01s-0.016-0.008-0.029-0.018s-0.024-0.016-0.032-0.02
		c-0.461-0.449-1.027-0.674-1.699-0.674c-0.223,0-0.459,0.023-0.709,0.07v5.244c0,0.074-0.014,0.123-0.041,0.146
		c-0.028,0.023-0.08,0.035-0.154,0.035h-0.67c-0.071,0-0.119-0.012-0.143-0.033S211.94,226.635,211.94,226.557z"/>
	<path class="st0" d="M216.323,223.691c0-0.457,0.059-0.887,0.176-1.287s0.29-0.758,0.519-1.074s0.532-0.566,0.911-0.75
		s0.813-0.275,1.301-0.275c0.547,0,1.021,0.059,1.424,0.18v-2.348c0-0.078,0.013-0.129,0.037-0.15
		c0.025-0.021,0.076-0.031,0.152-0.031h0.664c0.072,0,0.122,0.012,0.148,0.035c0.027,0.023,0.041,0.072,0.041,0.146v8.084
		c0,0.109-0.049,0.182-0.146,0.217c-0.644,0.291-1.463,0.436-2.456,0.436C217.247,226.873,216.323,225.813,216.323,223.691z
		 M217.401,223.691c0,0.813,0.161,1.398,0.483,1.754c0.322,0.357,0.786,0.537,1.392,0.537c0.211,0,0.449-0.02,0.715-0.059
		s0.486-0.094,0.662-0.16V221.4c-0.457-0.137-0.908-0.205-1.354-0.205c-0.578,0-1.039,0.205-1.383,0.615
		S217.401,222.848,217.401,223.691z"/>
	<path class="st0" d="M223.026,223.619c0-1.031,0.258-1.842,0.773-2.43c0.517-0.59,1.18-0.885,1.989-0.885
		c0.88,0,1.539,0.236,1.977,0.711c0.438,0.473,0.657,1.119,0.657,1.938c0,0.35-0.082,0.594-0.246,0.734
		c-0.164,0.139-0.384,0.209-0.657,0.209h-3.45c0,0.367,0.051,0.686,0.152,0.957s0.242,0.486,0.42,0.645s0.379,0.275,0.602,0.35
		s0.47,0.111,0.74,0.111c0.254,0,0.51-0.033,0.768-0.098c0.259-0.064,0.477-0.143,0.652-0.236c0.094-0.059,0.17-0.039,0.229,0.059
		l0.252,0.504c0.063,0.109,0.037,0.189-0.076,0.24c-0.493,0.297-1.129,0.445-1.906,0.445c-0.92,0-1.629-0.268-2.127-0.803
		C223.275,225.533,223.026,224.717,223.026,223.619z M224.11,223.047h3.328c0-1.234-0.546-1.852-1.638-1.852
		c-0.501,0-0.899,0.178-1.197,0.533S224.142,222.523,224.11,223.047z"/>
	<path class="st0" d="M232.712,223.592c0-1.027,0.261-1.832,0.782-2.414s1.196-0.873,2.024-0.873c0.896,0,1.584,0.285,2.064,0.857
		c0.479,0.572,0.719,1.371,0.719,2.395c0,1.074-0.242,1.895-0.725,2.463c-0.484,0.568-1.182,0.854-2.094,0.854
		c-0.906,0-1.595-0.277-2.065-0.832S232.712,224.67,232.712,223.592z M233.755,223.557c0,0.299,0.018,0.568,0.053,0.807
		c0.035,0.24,0.095,0.461,0.179,0.666c0.084,0.203,0.191,0.375,0.322,0.512c0.131,0.139,0.296,0.246,0.495,0.324
		s0.43,0.117,0.691,0.117s0.495-0.045,0.7-0.135s0.373-0.209,0.504-0.359c0.131-0.148,0.239-0.328,0.325-0.535
		c0.086-0.209,0.146-0.424,0.182-0.648c0.035-0.223,0.053-0.461,0.053-0.713c0-0.266-0.015-0.508-0.044-0.729
		c-0.029-0.223-0.083-0.439-0.161-0.65c-0.078-0.213-0.18-0.391-0.305-0.533c-0.125-0.145-0.291-0.262-0.498-0.352
		c-0.207-0.088-0.447-0.133-0.721-0.133c-0.391,0-0.723,0.109-0.996,0.328c-0.273,0.221-0.472,0.504-0.595,0.852
		S233.755,223.117,233.755,223.557z"/>
	<path class="st0" d="M242.257,220.557c-0.004-0.016-0.006-0.031-0.006-0.047c0-0.047,0.033-0.07,0.1-0.07h0.803
		c0.09,0,0.146,0.035,0.17,0.105l1.125,3.311l0.604,1.957h0.059l0.574-1.928l1.096-3.34c0.023-0.07,0.078-0.105,0.164-0.105h0.797
		c0.063,0,0.094,0.029,0.094,0.088c0,0.008,0,0.018,0,0.029l-1.934,5.713c-0.07,0.207-0.144,0.346-0.22,0.418
		s-0.202,0.109-0.378,0.109h-0.469c-0.156,0-0.278-0.035-0.366-0.104s-0.169-0.205-0.243-0.412L242.257,220.557z"/>
	<path class="st0" d="M249.065,226.557v-5.936c0-0.074,0.014-0.123,0.041-0.146s0.078-0.035,0.152-0.035h0.662
		c0.07,0,0.119,0.012,0.146,0.035s0.041,0.072,0.041,0.146v5.936c0,0.074-0.014,0.123-0.041,0.146s-0.076,0.035-0.146,0.035h-0.662
		c-0.074,0-0.125-0.012-0.152-0.035S249.065,226.631,249.065,226.557z M249.183,219.537c-0.008-0.02,0.006-0.066,0.041-0.141
		l0.791-1.852c0.039-0.086,0.115-0.125,0.229-0.117l0.826,0.217c0.117,0.031,0.143,0.094,0.076,0.188l-1.271,1.805
		c-0.039,0.063-0.074,0.098-0.105,0.107s-0.08,0.006-0.146-0.014l-0.34-0.135C249.224,219.576,249.19,219.557,249.183,219.537z"/>
	<path class="st0" d="M251.726,223.691c0-0.457,0.059-0.887,0.176-1.287s0.29-0.758,0.519-1.074s0.532-0.566,0.911-0.75
		s0.813-0.275,1.301-0.275c0.547,0,1.021,0.059,1.424,0.18v-2.348c0-0.078,0.013-0.129,0.037-0.15
		c0.025-0.021,0.076-0.031,0.152-0.031h0.664c0.072,0,0.122,0.012,0.148,0.035c0.027,0.023,0.041,0.072,0.041,0.146v8.084
		c0,0.109-0.049,0.182-0.146,0.217c-0.644,0.291-1.463,0.436-2.456,0.436C252.649,226.873,251.726,225.813,251.726,223.691z
		 M252.804,223.691c0,0.813,0.161,1.398,0.483,1.754c0.322,0.357,0.786,0.537,1.392,0.537c0.211,0,0.449-0.02,0.715-0.059
		s0.486-0.094,0.662-0.16V221.4c-0.457-0.137-0.908-0.205-1.354-0.205c-0.578,0-1.039,0.205-1.383,0.615
		S252.804,222.848,252.804,223.691z"/>
	<path class="st0" d="M258.429,223.619c0-1.031,0.258-1.842,0.773-2.43c0.517-0.59,1.18-0.885,1.989-0.885
		c0.88,0,1.539,0.236,1.977,0.711c0.438,0.473,0.657,1.119,0.657,1.938c0,0.35-0.082,0.594-0.246,0.734
		c-0.164,0.139-0.384,0.209-0.657,0.209h-3.45c0,0.367,0.051,0.686,0.152,0.957s0.242,0.486,0.42,0.645s0.379,0.275,0.602,0.35
		s0.47,0.111,0.74,0.111c0.254,0,0.51-0.033,0.768-0.098c0.259-0.064,0.477-0.143,0.652-0.236c0.094-0.059,0.17-0.039,0.229,0.059
		l0.252,0.504c0.063,0.109,0.037,0.189-0.076,0.24c-0.493,0.297-1.129,0.445-1.906,0.445c-0.92,0-1.629-0.268-2.127-0.803
		C258.678,225.533,258.429,224.717,258.429,223.619z M259.513,223.047h3.328c0-1.234-0.546-1.852-1.638-1.852
		c-0.501,0-0.899,0.178-1.197,0.533S259.544,222.523,259.513,223.047z"/>
	<path class="st0" d="M264.88,223.592c0-1.027,0.261-1.832,0.782-2.414s1.196-0.873,2.024-0.873c0.896,0,1.584,0.285,2.064,0.857
		c0.479,0.572,0.719,1.371,0.719,2.395c0,1.074-0.242,1.895-0.725,2.463c-0.484,0.568-1.182,0.854-2.094,0.854
		c-0.906,0-1.595-0.277-2.065-0.832S264.88,224.67,264.88,223.592z M265.923,223.557c0,0.299,0.018,0.568,0.053,0.807
		c0.035,0.24,0.095,0.461,0.179,0.666c0.084,0.203,0.191,0.375,0.322,0.512c0.131,0.139,0.296,0.246,0.495,0.324
		s0.43,0.117,0.691,0.117s0.495-0.045,0.7-0.135s0.373-0.209,0.504-0.359c0.131-0.148,0.239-0.328,0.325-0.535
		c0.086-0.209,0.146-0.424,0.182-0.648c0.035-0.223,0.053-0.461,0.053-0.713c0-0.266-0.015-0.508-0.044-0.729
		c-0.029-0.223-0.083-0.439-0.161-0.65c-0.078-0.213-0.18-0.391-0.305-0.533c-0.125-0.145-0.291-0.262-0.498-0.352
		c-0.207-0.088-0.447-0.133-0.721-0.133c-0.391,0-0.723,0.109-0.996,0.328c-0.273,0.221-0.472,0.504-0.595,0.852
		S265.923,223.117,265.923,223.557z"/>
	<path class="st0" d="M274.794,223.662c0-1.029,0.255-1.846,0.765-2.451c0.51-0.604,1.204-0.906,2.083-0.906
		c0.668,0,1.256,0.141,1.764,0.422c0.105,0.059,0.129,0.143,0.07,0.252l-0.252,0.492c-0.027,0.055-0.053,0.088-0.076,0.1
		s-0.074,0.002-0.152-0.029c-0.426-0.199-0.873-0.299-1.342-0.299c-0.309,0-0.582,0.064-0.82,0.197
		c-0.238,0.131-0.429,0.309-0.571,0.537c-0.143,0.227-0.249,0.482-0.319,0.766c-0.07,0.285-0.105,0.59-0.105,0.92
		c0,0.27,0.018,0.516,0.053,0.736c0.035,0.223,0.096,0.434,0.182,0.635s0.196,0.371,0.331,0.506s0.31,0.242,0.524,0.322
		s0.461,0.121,0.738,0.121c0.527,0,1.01-0.115,1.447-0.348c0.078-0.031,0.131-0.041,0.158-0.031s0.055,0.039,0.082,0.09l0.24,0.502
		c0.023,0.043,0.035,0.082,0.035,0.117c0,0.053-0.031,0.098-0.094,0.133c-0.527,0.285-1.203,0.428-2.027,0.428
		c-0.887,0-1.561-0.271-2.021-0.813C275.024,225.518,274.794,224.719,274.794,223.662z"/>
	<path class="st0" d="M280.524,224.889c0-0.287,0.048-0.555,0.144-0.801s0.243-0.471,0.442-0.676s0.473-0.365,0.82-0.482
		s0.752-0.176,1.213-0.176h1.459v-0.266c0-0.209-0.019-0.385-0.056-0.525c-0.037-0.143-0.105-0.273-0.205-0.393
		c-0.1-0.121-0.245-0.209-0.437-0.266c-0.191-0.059-0.434-0.086-0.727-0.086c-0.277,0-0.574,0.023-0.891,0.07
		s-0.576,0.104-0.779,0.172c-0.066,0.027-0.119,0.035-0.158,0.025s-0.066-0.045-0.082-0.107l-0.141-0.523
		c-0.039-0.094-0.004-0.16,0.105-0.199c0.566-0.234,1.273-0.352,2.121-0.352c1.543,0,2.314,0.697,2.314,2.092v3.756
		c0,0.16-0.061,0.264-0.182,0.311c-0.615,0.273-1.41,0.41-2.385,0.41c-0.496,0-0.919-0.053-1.269-0.158s-0.616-0.254-0.8-0.445
		c-0.184-0.193-0.314-0.4-0.393-0.621C280.563,225.426,280.524,225.174,280.524,224.889z M281.567,224.889
		c0,0.756,0.508,1.135,1.523,1.135c0.602,0,1.102-0.078,1.5-0.23v-2.148h-1.389C282.112,223.645,281.567,224.059,281.567,224.889z"
		/>
	<path class="st0" d="M287.339,226.557v-5.279c0-0.297,0.051-0.512,0.151-0.643s0.301-0.219,0.602-0.266
		c0.396-0.043,0.704-0.064,0.923-0.064c0.973,0,1.777,0.277,2.414,0.832c0.035,0.035,0.053,0.068,0.053,0.1
		c0,0.027-0.014,0.057-0.041,0.088l-0.445,0.58c-0.012,0.016-0.022,0.027-0.032,0.037s-0.02,0.016-0.029,0.018
		s-0.019,0.004-0.026,0.006s-0.018,0.002-0.029-0.002s-0.021-0.008-0.026-0.01s-0.016-0.008-0.029-0.018s-0.024-0.016-0.032-0.02
		c-0.461-0.449-1.027-0.674-1.699-0.674c-0.223,0-0.459,0.023-0.709,0.07v5.244c0,0.074-0.014,0.123-0.041,0.146
		c-0.028,0.023-0.079,0.035-0.154,0.035h-0.67c-0.071,0-0.118-0.012-0.143-0.033C287.351,226.684,287.339,226.635,287.339,226.557z"
		/>
	<path class="st0" d="M292.325,226.557v-5.279c0-0.297,0.051-0.512,0.151-0.643s0.301-0.219,0.602-0.266
		c0.396-0.043,0.704-0.064,0.923-0.064c0.973,0,1.777,0.277,2.414,0.832c0.035,0.035,0.053,0.068,0.053,0.1
		c0,0.027-0.014,0.057-0.041,0.088l-0.445,0.58c-0.012,0.016-0.022,0.027-0.032,0.037s-0.02,0.016-0.029,0.018
		s-0.019,0.004-0.026,0.006s-0.018,0.002-0.029-0.002s-0.021-0.008-0.026-0.01s-0.016-0.008-0.029-0.018s-0.024-0.016-0.032-0.02
		c-0.461-0.449-1.027-0.674-1.699-0.674c-0.223,0-0.459,0.023-0.709,0.07v5.244c0,0.074-0.014,0.123-0.041,0.146
		c-0.028,0.023-0.079,0.035-0.154,0.035h-0.67c-0.071,0-0.118-0.012-0.143-0.033C292.337,226.684,292.325,226.635,292.325,226.557z"
		/>
	<path class="st0" d="M296.708,223.619c0-1.031,0.258-1.842,0.773-2.43c0.517-0.59,1.18-0.885,1.989-0.885
		c0.88,0,1.539,0.236,1.977,0.711c0.438,0.473,0.657,1.119,0.657,1.938c0,0.35-0.082,0.594-0.246,0.734
		c-0.165,0.139-0.384,0.209-0.657,0.209h-3.45c0,0.367,0.051,0.686,0.152,0.957s0.242,0.486,0.42,0.645s0.379,0.275,0.602,0.35
		s0.47,0.111,0.739,0.111c0.255,0,0.511-0.033,0.77-0.098c0.258-0.064,0.476-0.143,0.651-0.236c0.094-0.059,0.17-0.039,0.229,0.059
		l0.252,0.504c0.063,0.109,0.037,0.189-0.076,0.24c-0.493,0.297-1.129,0.445-1.907,0.445c-0.919,0-1.628-0.268-2.126-0.803
		C296.957,225.533,296.708,224.717,296.708,223.619z M297.792,223.047h3.328c0-1.234-0.546-1.852-1.638-1.852
		c-0.501,0-0.9,0.178-1.197,0.533C297.987,222.084,297.823,222.523,297.792,223.047z"/>
	<path class="st0" d="M303.159,223.68c0-1.023,0.245-1.84,0.734-2.449c0.49-0.609,1.221-0.914,2.192-0.914
		c0.912,0,1.688,0.133,2.324,0.398c0.097,0.035,0.146,0.111,0.146,0.229v5.303c0,0.531-0.063,0.984-0.187,1.359
		s-0.319,0.684-0.586,0.926s-0.578,0.432-0.936,0.568s-0.795,0.242-1.313,0.316c-0.023,0.004-0.044,0.006-0.063,0.006
		c-0.035,0-0.061-0.006-0.076-0.018c-0.027-0.016-0.049-0.057-0.064-0.125l-0.088-0.66c0-0.094,0.045-0.146,0.135-0.158
		c0.729-0.102,1.263-0.281,1.6-0.537c0.337-0.258,0.506-0.668,0.506-1.232v-0.07c-0.573,0.176-1.107,0.264-1.603,0.264
		c-0.463,0-0.869-0.078-1.22-0.234s-0.635-0.379-0.853-0.668s-0.38-0.627-0.488-1.012
		C303.213,224.586,303.159,224.156,303.159,223.68z M304.237,223.604c0,0.777,0.154,1.365,0.462,1.766
		c0.309,0.4,0.741,0.602,1.299,0.602c0.507,0,1.012-0.08,1.515-0.24v-4.318c-0.405-0.137-0.869-0.205-1.392-0.205
		c-0.585,0-1.046,0.195-1.381,0.586S304.237,222.787,304.237,223.604z"/>
	<path class="st0" d="M309.862,224.889c0-0.287,0.048-0.555,0.144-0.801s0.243-0.471,0.442-0.676s0.473-0.365,0.82-0.482
		s0.752-0.176,1.213-0.176h1.459v-0.266c0-0.209-0.019-0.385-0.056-0.525c-0.037-0.143-0.105-0.273-0.205-0.393
		c-0.1-0.121-0.245-0.209-0.437-0.266c-0.191-0.059-0.434-0.086-0.727-0.086c-0.277,0-0.574,0.023-0.891,0.07
		s-0.576,0.104-0.779,0.172c-0.066,0.027-0.119,0.035-0.158,0.025s-0.066-0.045-0.082-0.107l-0.141-0.523
		c-0.039-0.094-0.004-0.16,0.105-0.199c0.566-0.234,1.273-0.352,2.121-0.352c1.543,0,2.314,0.697,2.314,2.092v3.756
		c0,0.16-0.061,0.264-0.182,0.311c-0.615,0.273-1.41,0.41-2.385,0.41c-0.496,0-0.919-0.053-1.269-0.158s-0.616-0.254-0.8-0.445
		c-0.184-0.193-0.314-0.4-0.393-0.621C309.901,225.426,309.862,225.174,309.862,224.889z M310.905,224.889
		c0,0.756,0.508,1.135,1.523,1.135c0.602,0,1.102-0.078,1.5-0.23v-2.148h-1.389C311.45,223.645,310.905,224.059,310.905,224.889z"/>
	<path class="st0" d="M316.677,226.557v-5.279c0-0.297,0.051-0.512,0.151-0.643s0.301-0.219,0.602-0.266
		c0.396-0.043,0.704-0.064,0.923-0.064c0.973,0,1.777,0.277,2.414,0.832c0.035,0.035,0.053,0.068,0.053,0.1
		c0,0.027-0.014,0.057-0.041,0.088l-0.445,0.58c-0.012,0.016-0.022,0.027-0.032,0.037s-0.02,0.016-0.029,0.018
		s-0.019,0.004-0.026,0.006s-0.018,0.002-0.029-0.002s-0.021-0.008-0.026-0.01s-0.016-0.008-0.029-0.018s-0.024-0.016-0.032-0.02
		c-0.461-0.449-1.027-0.674-1.699-0.674c-0.223,0-0.459,0.023-0.709,0.07v5.244c0,0.074-0.014,0.123-0.041,0.146
		c-0.028,0.023-0.079,0.035-0.154,0.035h-0.67c-0.071,0-0.118-0.012-0.143-0.033C316.688,226.684,316.677,226.635,316.677,226.557z"
		/>
</g>
<g>
</g>
<g>
</g>
<g>
</g>
<g>
</g>
<g>
</g>
<g>
</g>
<g>
</g>
<g>
</g>
<g>
</g>
<g>
</g>
<g>
</g>
<g>
</g>
<g>
</g>
<g>
</g>
<g>
</g>
</svg>
