<?xml version="1.0" encoding="utf-8"?>
<!-- Generator: Adobe Illustrator 16.0.0, SVG Export Plug-In . SVG Version: 6.00 Build 0)  -->
<!DOCTYPE svg PUBLIC "-//W3C//DTD SVG 1.1//EN" "http://www.w3.org/Graphics/SVG/1.1/DTD/svg11.dtd">
<svg version="1.1" id="Layer_1" xmlns="http://www.w3.org/2000/svg" xmlns:xlink="http://www.w3.org/1999/xlink" x="0px" y="0px"
	 width="170px" height="40px" viewBox="0 0 170 40" enable-background="new 0 0 170 40" xml:space="preserve">
<g>
	<g>
		<g>
			<g>
				<path fill="#E53332" d="M45.343,23.211h3.488l0.928-8.637L45.343,23.211z M12.285,33.305l8.008-26.499h23.241l-4.16,7.149
					l-10.828,0.132l-0.971,3.173h9.979l-4.097,6.934h-7.979l-2.765,9.111H12.285z M76.527,23.152l-2.773,9.442
					c-0.794,0.302-1.569,0.521-2.329,0.666c-0.759,0.14-1.51,0.214-2.258,0.214c-1.52,0-2.917-0.257-4.199-0.773
					c-1.287-0.52-2.402-1.274-3.36-2.262c-1.052-1.097-1.807-2.449-2.273-4.064c-0.461-1.609-0.583-3.327-0.368-5.148
					c0.23-1.951,0.726-3.772,1.492-5.474c0.766-1.693,1.788-3.236,3.065-4.613c1.509-1.657,3.259-2.925,5.236-3.803
					c1.978-0.884,4.063-1.322,6.263-1.322c1.148,0,2.224,0.127,3.229,0.377c1.004,0.25,1.948,0.622,2.837,1.121l-2.557,8.733
					c-0.785-0.511-1.563-0.896-2.332-1.151c-0.769-0.255-1.548-0.384-2.336-0.384c-1.554,0-2.883,0.519-3.995,1.561
					c-1.111,1.042-1.76,2.376-1.953,4.01c-0.161,1.364,0.099,2.454,0.779,3.266c0.676,0.812,1.668,1.213,2.976,1.213
					c0.713,0,1.496-0.141,2.352-0.42C74.871,24.061,75.707,23.663,76.527,23.152z M86.003,32.652L93.813,6.7l13.819,0.007
					l-2.341,14.789l6.514-14.778l13.74-0.023l-7.807,25.958h-8.529l0.035-0.112h-0.141l5.285-17.483l-8.385,17.483h-7.998
					l1.814-17.086L94.652,32.54h-0.086l-0.034,0.112H86.003L86.003,32.652z M148.719,24.729c1.896-0.012,3.398-0.422,4.518-1.23
					c1.111-0.803,1.928-2.068,2.445-3.79c0.506-1.685,0.465-2.939-0.117-3.767c-0.588-0.827-1.74-1.237-3.463-1.237h-0.363
					L148.719,24.729z M138.031,32.635l7.787-25.886h6.785c2.15,0,3.953,0.132,5.396,0.398c1.44,0.266,2.563,0.676,3.347,1.231
					c1.668,1.176,2.737,2.74,3.235,4.684c0.491,1.943,0.362,4.158-0.386,6.645c-0.745,2.48-1.945,4.684-3.598,6.615
					s-3.67,3.494-6.063,4.683c-1.153,0.568-2.533,0.984-4.129,1.242c-1.594,0.262-3.672,0.388-6.213,0.388H138.031z M119.991,32.635
					l7.8-25.925h15.607l-2.113,7.031h-7.379l-0.754,2.496h6.695l-2,6.643h-6.695l-0.817,2.726h7.571l-2.117,7.029H119.991z
					 M75.546,32.635L83.345,6.71h8.527l-7.799,25.925H75.546z M31.378,32.635L46.466,6.709h10.378l0.363,25.925h-9.023l0.229-3.257
					h-6.33l-1.699,3.257L31.378,32.635"/>
				<path fill="#3D458F" d="M27.395,24.686c7.337-0.393,6.444,2.166,5.784,3.024c-2.86,2.916-27.527,2.804-28.157-4.315
					c-0.293-3.317,5.493-5.238,12.241-6.351l-0.701,2.144c-4.832,1.479-4.746,3.151-4.735,3.467
					c0.052,1.533,1.313,4.103,11.775,5.148C34.885,28.934,35.25,24.686,27.395,24.686z M28.019,15.779
					c4.902-0.396,7.309-0.282,7.25-0.26c-1.99,0.018-4,0.403-7.527,1.167L28.019,15.779"/>
			</g>
		</g>
	</g>
</g>
</svg>
