<?xml version="1.0" encoding="utf-8"?>
<!-- Generator: Adobe Illustrator 16.0.0, SVG Export Plug-In . SVG Version: 6.00 Build 0)  -->
<!DOCTYPE svg PUBLIC "-//W3C//DTD SVG 1.1//EN" "http://www.w3.org/Graphics/SVG/1.1/DTD/svg11.dtd">
<svg version="1.1" id="Layer_1" xmlns="http://www.w3.org/2000/svg" xmlns:xlink="http://www.w3.org/1999/xlink" x="0px" y="0px"
	 width="170px" height="40px" viewBox="0 0 170 40" enable-background="new 0 0 170 40" xml:space="preserve">
<g id="Layer_2">
</g>
<g>
	<g>
		<g>
			<g>
				<path fill-rule="evenodd" clip-rule="evenodd" fill="#E53332" d="M44.343,25.211h3.488l0.928-8.637L44.343,25.211z
					 M11.285,35.304l8.008-26.498h23.241l-4.16,7.149l-10.828,0.132l-0.971,3.173h9.979l-4.097,6.934h-7.979l-2.765,9.11H11.285z
					 M75.527,25.152l-2.773,9.443c-0.794,0.301-1.569,0.52-2.329,0.666c-0.759,0.14-1.51,0.213-2.258,0.213
					c-1.52,0-2.917-0.256-4.199-0.773c-1.287-0.52-2.402-1.274-3.36-2.262c-1.052-1.096-1.807-2.449-2.273-4.064
					c-0.461-1.609-0.583-3.327-0.368-5.149c0.23-1.951,0.726-3.772,1.492-5.473c0.766-1.693,1.788-3.236,3.065-4.613
					c1.509-1.657,3.259-2.925,5.236-3.803c1.978-0.884,4.063-1.322,6.263-1.322c1.148,0,2.224,0.127,3.229,0.377
					c1.004,0.25,1.948,0.622,2.837,1.121l-2.557,8.733c-0.785-0.511-1.563-0.896-2.332-1.151c-0.769-0.255-1.548-0.384-2.336-0.384
					c-1.554,0-2.883,0.519-3.995,1.561c-1.111,1.042-1.76,2.376-1.953,4.01c-0.161,1.365,0.099,2.455,0.779,3.266
					c0.676,0.811,1.668,1.213,2.976,1.213c0.713,0,1.496-0.141,2.352-0.42C73.871,26.06,74.707,25.663,75.527,25.152z
					 M85.003,34.652L92.813,8.7l13.819,0.007l-2.341,14.789l6.513-14.778l13.741-0.023l-7.806,25.958h-8.53l0.035-0.113h-0.141
					l5.286-17.483l-8.385,17.483h-7.998l1.814-17.086l-5.167,17.086h-0.087l-0.034,0.113H85.003z M147.719,26.729
					c1.896-0.012,3.398-0.422,4.518-1.231c1.11-0.803,1.927-2.069,2.445-3.79c0.506-1.685,0.464-2.939-0.118-3.767
					c-0.588-0.827-1.74-1.237-3.463-1.237h-0.363L147.719,26.729z M137.032,34.635l7.787-25.886h6.784
					c2.151,0,3.953,0.132,5.396,0.398c1.441,0.266,2.563,0.676,3.346,1.231c1.669,1.176,2.738,2.74,3.236,4.684
					c0.492,1.943,0.363,4.158-0.385,6.645c-0.746,2.481-1.946,4.683-3.598,6.615c-1.653,1.932-3.671,3.494-6.063,4.683
					c-1.153,0.568-2.533,0.984-4.129,1.242c-1.593,0.262-3.671,0.388-6.212,0.388H137.032z M118.991,34.635l7.8-25.925h15.608
					l-2.114,7.031h-7.379l-0.754,2.496h6.695l-2,6.643h-6.694l-0.818,2.726h7.571l-2.117,7.029H118.991z M74.546,34.635
					l7.799-25.925h8.527l-7.799,25.925H74.546z M30.378,34.635L45.466,8.709h10.378l0.363,25.925h-9.023l0.229-3.257h-6.33
					l-1.699,3.257H30.378"/>
				<path fill-rule="evenodd" clip-rule="evenodd" fill="#3D458F" d="M26.395,26.685c7.337-0.392,6.444,2.167,5.784,3.025
					c-2.86,2.916-27.527,2.804-28.157-4.316c-0.293-3.317,5.493-5.238,12.241-6.35l-0.701,2.144
					c-4.832,1.479-4.746,3.151-4.735,3.466c0.052,1.534,1.313,4.103,11.775,5.149C33.885,30.934,34.25,26.685,26.395,26.685z
					 M27.019,17.779c4.902-0.396,7.309-0.282,7.25-0.26c-1.99,0.018-4,0.403-7.527,1.167L27.019,17.779"/>
			</g>
		</g>
	</g>
</g>
</svg>
