<?xml version="1.0" encoding="UTF-8" standalone="no"?>
<svg
   xmlns:dc="http://purl.org/dc/elements/1.1/"
   xmlns:cc="http://creativecommons.org/ns#"
   xmlns:rdf="http://www.w3.org/1999/02/22-rdf-syntax-ns#"
   xmlns:svg="http://www.w3.org/2000/svg"
   xmlns="http://www.w3.org/2000/svg"
   xmlns:sodipodi="http://sodipodi.sourceforge.net/DTD/sodipodi-0.dtd"
   xmlns:inkscape="http://www.inkscape.org/namespaces/inkscape"
   width="24"
   height="24"
   viewBox="0 0 19.2 19.2"
   version="1.1"
   id="svg3219"
   inkscape:version="0.48.4 r9939"
   sodipodi:docname="Mconf_IconBalloon-24x24.svg">
  <metadata
     id="metadata3413">
    <rdf:RDF>
      <cc:Work
         rdf:about="">
        <dc:format>image/svg+xml</dc:format>
        <dc:type
           rdf:resource="http://purl.org/dc/dcmitype/StillImage" />
        <dc:title></dc:title>
      </cc:Work>
    </rdf:RDF>
  </metadata>
  <defs
     id="defs3411" />
  <sodipodi:namedview
     pagecolor="#ffffff"
     bordercolor="#666666"
     borderopacity="1"
     objecttolerance="10"
     gridtolerance="10"
     guidetolerance="10"
     inkscape:pageopacity="0"
     inkscape:pageshadow="2"
     inkscape:window-width="1200"
     inkscape:window-height="846"
     id="namedview3409"
     showgrid="false"
     inkscape:zoom="15.419689"
     inkscape:cx="5.2532284"
     inkscape:cy="12.374176"
     inkscape:window-x="44"
     inkscape:window-y="75"
     inkscape:window-maximized="0"
     inkscape:current-layer="svg3219"
     fit-margin-top="0"
     fit-margin-left="0"
     fit-margin-right="0"
     fit-margin-bottom="0" />
  <path
     d="m 8.8518211,0.02601957 c 0.49589,-0.0336 0.99282,-0.0382 1.4887099,0.004 l 0,0.0294 c 0,0.46542 -0.003,0.93084 10e-4,1.39624993 -0.4896999,-0.005 -0.9799099,-0.015 -1.4696099,0.006 -0.016,0.50158 -0.004,1.00367 -0.006,1.50577 -0.005,0.47988 0.006,0.96027 -0.006,1.44015 l -0.002,0.0387 c -0.47781,0.009 -0.96028,-0.0434 -1.43396,0.0294 -0.0181,-0.0165 -0.0362,-0.0325 -0.0542,-0.0491 -0.016,-0.49228 -0.005,-0.98508 -0.008,-1.47787 0.48247,-0.0139 0.96493,0.003 1.44739,-0.007 0.032,-0.49021 -0.0129,-0.98249 0.0258,-1.4727 0.03,-0.47213993 0.004,-0.94529993 0.0155,-1.41794993 l 0,-0.0243 z"
     id="path3221"
     inkscape:connector-curvature="0"
     style="fill:#a8babd" />
  <path
     d="m 7.4028811,0.26053957 c 0.4742,-0.11364 0.95924,-0.21127 1.44894,-0.21024 -0.0119,0.47265 0.0145,0.94581 -0.0155,1.41794993 -0.4773,-0.0119 -0.95459,0.003 -1.43189,-0.009 -0.0124,-0.3993 -0.008,-0.79910993 -0.002,-1.19840993 z"
     id="path3223"
     inkscape:connector-curvature="0"
     style="fill:#e8edee" />
  <path
     d="m 10.340531,0.05907957 c 0.49021,-0.0129 0.97733,0.0919 1.45359,0.20094 -0.0145,0.34609 0.009,0.69322 -0.003,1.03930993 -0.008,0.0558 5.2e-4,0.1622 -0.0873,0.15032 -0.45302,0.0227 -0.9081,10e-4 -1.36215,0.006 -0.004,-0.46540993 -10e-4,-0.93082993 -10e-4,-1.39624993 z"
     id="path3225"
     inkscape:connector-curvature="0"
     style="fill:#e8edee" />
  <path
     d="m 5.9214011,0.72440957 c 0.48091,-0.19165 0.97267,-0.36366 1.48148,-0.46387 -0.006,0.3993 -0.0109,0.79910993 0.002,1.19840993 0.4773,0.0124 0.95459,-0.003 1.43189,0.009 -0.0387,0.49021 0.006,0.98249 -0.0258,1.4727 -0.48246,0.01 -0.96492,-0.007 -1.44739,0.007 0.003,0.49279 -0.008,0.98559 0.008,1.47787 -0.48298,0.007 -0.96647,0.002 -1.44997,0.004 0.008,-0.49279 0.001,-0.98559 0.008,-1.47838 0.47523,-0.0124 0.94995,0.002 1.42518,-0.0103 0.0232,-0.47678 0.0114,-0.9546 0.007,-1.4319 -0.49486,-0.0222 -0.99024,-5.1e-4 -1.4851,-0.009 -0.47058,-0.009 -0.94116,-0.005 -1.41226,-0.003 0.0186,-0.0165 0.0558,-0.0496 0.0744,-0.0661 l 0.015,0.002 c 0.45406,0.0532 0.91224,0.0232 1.36836,0.0212 0.007,-0.2433 0.007,-0.48658993 5.2e-4,-0.72936993 z"
     id="path3227"
     inkscape:connector-curvature="0"
     style="fill:#bdcbcd" />
  <path
     d="m 11.794121,0.26001957 c 0.51552,0.11003 1.01762,0.28049 1.50421,0.4835 l -0.002,0.0325 c -0.009,0.22831993 -0.01,0.45611993 -0.003,0.68443993 l -0.0227,0 c -0.49176,0 -0.98352,-0.003 -1.47528,10e-4 -0.007,0.46542 -0.0217,0.9329 0.004,1.3978 0.01,0.0155 0.03,0.047 0.0398,0.063 0.0754,0.0723 0.18802,0.0465 0.28255,0.0548 0.39155,-0.007 0.7831,0.002 1.17465,-0.009 -0.0139,0.4866 -0.0114,0.97371 -0.003,1.46031 -0.49486,5.2e-4 -0.98972,5.2e-4 -1.48458,0 -0.0129,-0.4866 0.0243,-0.97784 -0.014,-1.46082 -0.47988,-0.0398 -0.96854,0 -1.45152,-0.0155 -0.005,-0.49899 -0.001,-0.99798 -0.003,-1.49698 0.45405,-0.005 0.90913,0.0171 1.36215,-0.006 0.0878,0.0119 0.079,-0.0945 0.0873,-0.15032 0.0124,-0.34608993 -0.0114,-0.69321993 0.003,-1.03930993 z"
     id="path3229"
     inkscape:connector-curvature="0"
     style="fill:#d3dcde" />
  <path
     d="m 4.5525211,1.4325995 c 0.43339,-0.27739 0.89519,-0.50776993 1.36888,-0.70818993 0.006,0.24278 0.006,0.48606993 -5.2e-4,0.72936993 -0.45612,0.002 -0.9143,0.032 -1.36836,-0.0212 z"
     id="path3231"
     inkscape:connector-curvature="0"
     style="fill:#a8babd" />
  <path
     d="m 13.296781,0.77605957 c 0.12656,0.0227 0.24847,0.0646 0.36108,0.12604 0.33989,0.17665993 0.69735,0.32800993 1.00211,0.56355993 -0.45508,-0.01 -0.91068,0.004 -1.36577,-0.005 -0.007,-0.22832 -0.007,-0.45612 0.003,-0.68443993 z"
     id="path3233"
     inkscape:connector-curvature="0"
     style="fill:#e8edee" />
  <path
     d="m 8.8719611,1.4610095 c 0.4897,-0.0207 0.97991,-0.0108 1.4696099,-0.006 0.002,0.499 -0.003,0.99799 0.003,1.49698 0.48298,0.0155 0.97164,-0.0243 1.45152,0.0155 0.0382,0.48298 10e-4,0.97422 0.014,1.46082 -0.49383,0.49848 -0.98817,0.99695 -1.48975,1.48768 0.004,-0.50313 -0.002,-1.00677 10e-4,-1.50989 10e-4,-0.47937 0.007,-0.95873 -0.003,-1.4381 -0.4840099,-10e-4 -0.9674999,0.002 -1.4515199,-0.002 0.002,-0.5021 -0.0103,-1.00419 0.006,-1.50577 z"
     id="path3235"
     inkscape:connector-curvature="0"
     style="fill:#92a8ad" />
  <path
     d="m 11.796191,1.4615295 c 0.49176,-0.004 0.98352,-10e-4 1.47528,-10e-4 0.0444,0.50106 -5.1e-4,1.00522 0.0258,1.50782 -0.39155,0.0103 -0.7831,0.002 -1.17465,0.009 -0.0945,-0.008 -0.20714,0.0176 -0.28255,-0.0548 -0.01,-0.016 -0.03,-0.0475 -0.0398,-0.063 -0.0258,-0.4649 -0.0109,-0.93238 -0.004,-1.3978 z"
     id="path3237"
     inkscape:connector-curvature="0"
     style="fill:#a8babd" />
  <path
     d="m 13.271471,1.4604995 0.0227,0 c 0.45509,0.009 0.91069,-0.005 1.36577,0.005 0.0393,0.01 0.0785,0.0212 0.11778,0.0336 l -0.003,0.0227 c -0.0496,0.4773 -0.0124,0.95821 -0.0217,1.43757 0.50158,-0.003 1.00419,0.0103 1.50576,-0.0108 l -0.004,0.0506 c -0.49951,-0.0145 -0.99954,0.005 -1.49905,-0.015 -0.48556,-0.0294 -0.97267,-0.005 -1.45875,-0.016 -0.0263,-0.5026 0.0186,-1.00676 -0.0258,-1.50782 z"
     id="path3239"
     inkscape:connector-curvature="0"
     style="fill:#bdcbcd" />
  <path
     d="m 4.4089211,1.4966595 c 0.0139,0 0.0408,0 0.0542,0 0.4711,-0.002 0.94168,-0.006 1.41226,0.003 0.009,0.48401 0.002,0.96802 0.003,1.45255 -0.45767,-0.003 -0.91586,0.0124 -1.37301,-0.0119 -0.0315,0.032 -0.063,0.0635 -0.0951,0.0951 0.0279,0.4618 10e-4,0.92463 0.0186,1.38695 -0.48401,-0.0253 -0.96906,0.002 -1.45307,-0.016 -0.0181,-0.47833 0.002,-0.95718 -0.0119,-1.43551 0.4649,-5.2e-4 0.9298,-0.015 1.3947,0.009 0.0305,-0.03 0.0615,-0.061 0.0914,-0.0919 -0.0398,-0.45664 0.0243,-0.91689 -0.0382,-1.37146 l -0.003,-0.0201 z"
     id="path3241"
     inkscape:connector-curvature="0"
     style="fill:#e8edee" />
  <path
     d="m 5.8754211,1.4997595 c 0.49486,0.009 0.99024,-0.0129 1.4851,0.009 0.005,0.4773 0.0165,0.95512 -0.007,1.4319 -0.47523,0.0124 -0.94995,-0.002 -1.42518,0.0103 l -0.0506,10e-4 c -5.2e-4,-0.48453 0.007,-0.96854 -0.003,-1.45255 z"
     id="path3243"
     inkscape:connector-curvature="0"
     style="fill:#d3dcde" />
  <path
     d="m 2.6541811,2.9843395 c 0.51036,-0.5708 1.11886,-1.04809 1.75732,-1.46754 0.0625,0.45457 -0.002,0.91482 0.0382,1.37146 -0.03,0.031 -0.0609,0.062 -0.0914,0.0919 -0.4649,-0.0243 -0.9298,-0.01 -1.3947,-0.009 -0.10331,0.002 -0.20663,0.005 -0.30942,0.0134 z"
     id="path3245"
     inkscape:connector-curvature="0"
     style="fill:#92a8ad" />
  <path
     d="m 14.753471,2.9595395 c 0.009,-0.47936 -0.0279,-0.96027 0.0217,-1.43757 0.63071,0.40188 1.20667,0.88589 1.72994,1.41949 -0.0821,0.002 -0.16426,0.004 -0.24588,0.007 -0.50157,0.0212 -1.00418,0.008 -1.50576,0.0108 z"
     id="path3247"
     inkscape:connector-curvature="0"
     style="fill:#92a8ad" />
  <path
     d="m 4.4099511,3.0354795 c 0.032,-0.0315 0.0635,-0.063 0.0951,-0.0951 0.45715,0.0243 0.91534,0.009 1.37301,0.0119 l 0.0506,-10e-4 c -0.007,0.49279 5.2e-4,0.98559 -0.008,1.47838 -0.49744,-0.004 -0.9954,0.009 -1.49233,-0.007 -0.0176,-0.46232 0.009,-0.92515 -0.0186,-1.38695 z"
     id="path3249"
     inkscape:connector-curvature="0"
     style="fill:#a8babd" />
  <path
     d="m 8.8662811,2.9667795 c 0.48402,0.003 0.96751,5.1e-4 1.4515199,0.002 0.0103,0.47937 0.004,0.95873 0.003,1.4381 -0.4865899,0.008 -0.9736999,0.004 -1.4602999,5.1e-4 0.0119,-0.47988 5.2e-4,-0.96027 0.006,-1.44015 z"
     id="path3251"
     inkscape:connector-curvature="0"
     style="fill:#e8edee" />
  <path
     d="m 13.297301,2.9683195 c 0.48608,0.0109 0.97319,-0.0134 1.45875,0.016 -0.003,0.48143 -0.0238,0.96441 0.0119,1.44532 0.47679,0.047 0.95667,0 1.43448,0.0263 0.0181,0.48039 0.003,0.96131 0.009,1.4417 -0.48194,-0.002 -0.96389,0 -1.44584,-0.002 5.2e-4,-0.48918 -0.002,-0.97836 0.002,-1.46754 -0.49124,0.001 -0.98197,0 -1.4727,5.2e-4 -0.008,-0.4866 -0.0109,-0.97371 0.003,-1.46031 z"
     id="path3253"
     inkscape:connector-curvature="0"
     style="fill:#e8edee" />
  <path
     d="m 16.259231,2.9486995 c 0.0816,-0.003 0.16375,-0.005 0.24588,-0.007 0.41738,0.45871 0.82959,0.92929 1.14056,1.46857 -0.46335,-0.009 -0.9267,0.0134 -1.38954,-0.007 -0.008,-0.468 -0.0119,-0.936 -0.001,-1.40348 l 0.004,-0.0506 z"
     id="path3255"
     inkscape:connector-curvature="0"
     style="fill:#e8edee" />
  <path
     d="m 1.5027811,4.4224295 c 0.35125,-0.50313 0.7051,-1.01452 1.1514,-1.43809 0.10279,-0.008 0.20611,-0.0114 0.30942,-0.0134 0.0139,0.47833 -0.006,0.95718 0.0119,1.43551 0.48401,0.0181 0.96906,-0.009 1.45307,0.016 l 5.2e-4,0.0341 c -0.48557,-0.017 -0.97113,-0.0155 -1.45669,-0.002 -0.0238,0.48711 0.007,0.97525 -0.0176,1.46288 -0.0785,-0.48143 -0.008,-0.97525 -0.0362,-1.46133 -0.47162,-0.0238 -0.94685,0.0372 -1.41588,-0.0336 z"
     id="path3257"
     inkscape:connector-curvature="0"
     style="fill:#bdcbcd" />
  <path
     d="m 14.756051,2.9843395 c 0.49951,0.0201 0.99954,5.1e-4 1.49905,0.015 -0.0109,0.46748 -0.007,0.93548 0.001,1.40348 0.46284,0.0207 0.92619,-0.002 1.38954,0.007 0.0165,0.0217 0.0501,0.0656 0.0671,0.0873 0.004,0.46645 0.0109,0.93342 -0.005,1.39987 -0.49899,5.1e-4 -0.99746,5.1e-4 -1.49646,5.1e-4 -0.006,-0.48039 0.009,-0.96131 -0.009,-1.4417 -0.47781,-0.0263 -0.95769,0.0207 -1.43448,-0.0263 -0.0356,-0.48091 -0.015,-0.96389 -0.0119,-1.44532 z"
     id="path3259"
     inkscape:connector-curvature="0"
     style="fill:#d3dcde" />
  <path
     d="m 1.4759211,4.4926795 c 0.007,-0.0176 0.0201,-0.0527 0.0269,-0.0703 0.46903,0.0708 0.94426,0.01 1.41588,0.0336 0.0284,0.48608 -0.0424,0.9799 0.0362,1.46133 0.49176,0.002 0.98403,0.003 1.4758,-0.004 -0.002,0.47884 -0.001,0.95769 -5.2e-4,1.43706 -0.49848,0.003 -0.99695,-0.005 -1.49543,10e-4 -0.009,-0.47678 0.0289,-0.95615 -0.0217,-1.43138 -0.46076,-0.008 -0.92205,-0.004 -1.38333,-0.005 -0.0284,0.47678 -0.009,0.95459 -0.009,1.43189 l -0.0377,-0.0196 c -0.0191,-0.47626 -0.005,-0.95356 -0.006,-1.43034 0,-0.468 -0.009,-0.93652 -10e-4,-1.40452 z"
     id="path3261"
     inkscape:connector-curvature="0"
     style="fill:#d3dcde" />
  <path
     d="m 4.4285511,4.4224295 c 0.49693,0.016 0.99489,0.004 1.49233,0.007 0.4835,-0.002 0.96699,0.004 1.44997,-0.004 0.0181,0.0165 0.0362,0.0325 0.0542,0.0491 0.48246,0.468 0.95098,0.95046 1.42983,1.42259 l 0.0263,0.0269 c 0.23659,0.2402 0.47833,0.47524 0.71388,0.71698 0.23349,-0.23503 0.4674899,-0.46954 0.7025199,-0.70354 0.005,-0.005 0.0165,-0.016 0.0222,-0.0217 0.50158,-0.49073 0.99592,-0.9892 1.48975,-1.48768 0.49486,5.2e-4 0.98972,5.2e-4 1.48458,0 0.49073,-5.2e-4 0.98146,5.2e-4 1.4727,-5.2e-4 -0.004,0.48918 -0.001,0.97836 -0.002,1.46754 -5.1e-4,0.50106 -5.1e-4,1.0016 0,1.50266 0.003,0.98094 -0.007,1.9624 -10e-4,2.9438495 0.005,0.47368 -0.002,0.94737 0.005,1.42156 -0.0284,1.00212 0.004,2.00579 -0.009,3.00843 -0.49383,0 -0.98766,5.1e-4 -1.48097,0 -0.49228,0 -0.98456,-0.002 -1.47683,10e-4 l -5.2e-4,-0.0232 c -0.0129,-0.48814 -0.002,-0.9768 -0.005,-1.46547 0,-0.49796 5.2e-4,-0.99643 5.2e-4,-1.49439 0,-0.48195 5.2e-4,-0.96338 5.2e-4,-1.44533 0,-0.4933095 0.002,-0.9866195 0,-1.4804495 -0.48298,0.48918 -0.97268,0.97113 -1.45411,1.4618595 -0.0109,0.0119 -0.0331,0.0346 -0.0444,0.0465 -0.24175,0.22987 -0.4731699,0.47006 -0.7107799,0.70458 -0.2433,-0.23865 -0.47782,-0.48505 -0.72525,-0.71956 -0.006,-0.005 -0.017,-0.016 -0.0227,-0.0217 -0.47678,-0.4938195 -0.97009,-0.9721595 -1.45048,-1.4628795 -0.001,0.48917 0,0.97835 10e-4,1.4675295 0.001,0.48401 0.001,0.96751 0.001,1.45101 5.2e-4,0.49796 0.001,0.99592 0.002,1.49336 -0.002,0.49331 0.005,0.98662 -0.003,1.47993 -0.50468,0.015 -1.00987,0.003 -1.51454,0.007 -0.4835,0.001 -0.96648,-0.003 -1.44998,0.002 -0.009,-0.50055 -0.001,-1.00161 -0.004,-1.50215 0,-0.48505 5.1e-4,-0.97009 0.002,-1.45462 0.002,-0.49693 0.003,-0.99437 0.003,-1.4913 0,-0.4783295 0.001,-0.9566595 0.003,-1.4349895 0.001,-0.51346 0.001,-1.02691 0,-1.53985 -5.2e-4,-0.47937 -10e-4,-0.95822 5.2e-4,-1.43706 0.001,-0.48557 0.004,-0.97113 -0.002,-1.45721 l -5.2e-4,-0.0341 z"
     id="path3263"
     inkscape:connector-curvature="0"
     style="fill:#123b43" />
  <path
     d="m 8.8606011,4.4069295 c 0.4866,0.004 0.97371,0.008 1.4602999,-5.1e-4 -0.003,0.50312 0.003,1.00676 -10e-4,1.50989 -0.006,0.006 -0.017,0.0165 -0.0222,0.0217 -0.4710999,-0.0413 -0.9447799,-0.0207 -1.4163999,-0.0134 l -0.0263,-0.0269 c -0.0145,-0.48401 -0.0139,-0.96854 0.004,-1.45203 l 0.002,-0.0387 z"
     id="path3265"
     inkscape:connector-curvature="0"
     style="fill:#d3dcde" />
  <path
     d="m 2.9723811,4.4544595 c 0.48556,-0.0134 0.97112,-0.015 1.45669,0.002 0.006,0.48608 0.003,0.97164 0.002,1.45721 -0.49177,0.007 -0.98404,0.006 -1.4758,0.004 0.0248,-0.48763 -0.006,-0.97577 0.0176,-1.46288 z"
     id="path3267"
     inkscape:connector-curvature="0"
     style="fill:#a8babd" />
  <path
     d="m 7.4250911,4.4751195 c 0.47368,-0.0728 0.95615,-0.0207 1.43396,-0.0294 -0.0181,0.48349 -0.0186,0.96802 -0.004,1.45203 -0.47885,-0.47213 -0.94737,-0.95459 -1.42983,-1.42259 z"
     id="path3269"
     inkscape:connector-curvature="0"
     style="fill:#e8edee" />
  <path
     d="m 0.74396108,5.8909995 c 0.1999,-0.48711 0.44320002,-0.9577 0.73196002,-1.39832 -0.008,0.468 10e-4,0.93652 10e-4,1.40452 -0.24433,5.1e-4 -0.48866002,0 -0.73299002,-0.006 z"
     id="path3271"
     inkscape:connector-curvature="0"
     style="fill:#e8edee" />
  <path
     d="m 17.712821,4.4973295 c 0.27739,0.44424 0.54652,0.90346 0.71181,1.40297 -0.22573,-0.004 -0.45198,-0.004 -0.67772,-0.003 l -0.0393,0 c 0.016,-0.46645 0.009,-0.93342 0.005,-1.39987 z"
     id="path3273"
     inkscape:connector-curvature="0"
     style="fill:#e8edee" />
  <path
     d="m 0.27544108,7.2965495 c 0.12397,-0.47782 0.26706,-0.95356 0.46852,-1.40555 0.24433,0.006 0.48866002,0.007 0.73299002,0.006 0.002,0.47678 -0.0129,0.95408 0.006,1.43034 l 0.0377,0.0196 c 0.47058,0.0212 0.94219,0.006 1.41381,0.005 0.49848,-0.006 0.99695,0.002 1.49543,-0.001 0.001,0.51294 0.001,1.02639 0,1.53985 -0.48556,-0.008 -0.97164,-0.003 -1.4572,-0.002 l 0.002,-0.0532 c 0.0109,-0.48039 0.009,-0.96131 0.004,-1.4417 -0.50003,-0.006 -1.00005,-0.005 -1.50008,5.1e-4 -0.39103,-10e-4 -0.78310002,0.0171 -1.17413002,-0.006 -0.007,-0.0232 -0.0212,-0.0692 -0.0284,-0.0925 z"
     id="path3275"
     inkscape:connector-curvature="0"
     style="fill:#bdcbcd" />
  <path
     d="m 1.5296411,5.9152795 c 0.46128,0.002 0.92257,-0.003 1.38333,0.005 0.0506,0.47523 0.0124,0.9546 0.0217,1.43138 -0.47162,0.002 -0.94323,0.0165 -1.41381,-0.005 -5.2e-4,-0.4773 -0.0196,-0.95511 0.009,-1.43189 z"
     id="path3277"
     inkscape:connector-curvature="0"
     style="fill:#e8edee" />
  <path
     d="m 8.8812611,5.9245695 c 0.47162,-0.007 0.9453,-0.0279 1.4163999,0.0134 -0.23503,0.234 -0.4690299,0.46851 -0.7025199,0.70354 -0.23555,-0.24174 -0.47729,-0.47678 -0.71388,-0.71698 z"
     id="path3279"
     inkscape:connector-curvature="0"
     style="fill:#e8edee" />
  <path
     d="m 14.765351,5.8956495 c 0.48195,0.002 0.9639,5.1e-4 1.44584,0.002 0.01,0.49693 0.009,0.99437 5.2e-4,1.49182 -0.48195,0.0176 -0.96441,0.006 -1.44636,0.009 -5.1e-4,-0.50106 -5.1e-4,-1.0016 0,-1.50266 z"
     id="path3281"
     inkscape:connector-curvature="0"
     style="fill:#bdcbcd" />
  <path
     d="m 16.211191,5.8977095 c 0.499,0 0.99747,0 1.49646,-5.1e-4 l 0.0393,0 c -0.015,0.49744 -0.0108,0.9954 -5.1e-4,1.49336 l -0.048,-0.002 c -0.48247,-0.008 -0.96493,-0.007 -1.44739,-0.001 l -0.0393,0.002 c 0.008,-0.49745 0.009,-0.99489 -5.2e-4,-1.49182 z"
     id="path3283"
     inkscape:connector-curvature="0"
     style="fill:#92a8ad" />
  <path
     d="m 17.746911,5.8971995 c 0.22574,-5.2e-4 0.45199,-5.2e-4 0.67772,0.003 l 0.0258,0 c 0.18028,0.45818 0.34041,0.92515 0.45664,1.404 -0.008,0.0212 -0.0253,0.0635 -0.0336,0.0847 -0.37502,0.0269 -0.75159,0.0114 -1.12712,0.002 -0.0103,-0.49796 -0.0145,-0.99592 5.1e-4,-1.49336 z"
     id="path3285"
     inkscape:connector-curvature="0"
     style="fill:#a8babd" />
  <path
     d="m 0.03266108,8.8363995 c 0.0382,-0.51862 0.12087,-1.03414 0.24278,-1.53985 0.007,0.0232 0.0217,0.0692 0.0284,0.0925 0.39103,0.0227 0.78310002,0.005 1.17413002,0.006 -0.002,0.48092 -10e-4,0.96183 -10e-4,1.44274 -0.48143002,0.005 -0.96286002,0.004 -1.44429002,-10e-4 z"
     id="path3287"
     inkscape:connector-curvature="0"
     style="fill:#d3dcde" />
  <path
     d="m 18.907101,7.3042995 c 0.12191,0.52172 0.21282,1.05222 0.24278,1.58789 -0.46697,-0.005 -0.93393,-0.0124 -1.4009,0.003 -0.016,0.46645 -0.016,0.93341 0.002,1.3993495 0.46593,0.0176 0.93238,0.0129 1.39832,-10e-4 -0.0279,0.515 -0.11055,1.02691 -0.22884,1.52848 l -0.0269,0 c -0.3931,-0.008 -0.78671,-0.005 -1.17981,-0.003 0.007,-0.50881 0.0181,-1.01814 -0.007,-1.52643 -0.0227,-0.4695495 0,-0.9396095 -0.0139,-1.4091595 -0.47884,-0.0134 -0.95821,-0.0134 -1.43654,0.002 -0.0258,0.46851 0.008,0.93755 -0.0186,1.4060595 -0.0439,0.50778 -0.008,1.01762 -0.0233,1.52643 -0.4804,0.004 -0.96131,-0.009 -1.44119,0.008 -10e-4,-0.0155 -0.003,-0.0465 -0.004,-0.062 -0.007,-0.47419 5.1e-4,-0.94788 -0.005,-1.42156 l 0.0341,-0.0139 c 0.46697,-0.0139 0.93497,-0.002 1.40245,-0.004 0.0336,-0.4767795 -0.01,-0.9556295 0.0227,-1.4318895 0.002,-0.015 0.005,-0.0439 0.006,-0.0584 0.48814,0.0155 0.97732,0.007 1.46547,0.007 0.005,-0.48401 0,-0.96751 0.003,-1.45152 l 0.048,0.002 c 0.37553,0.01 0.7521,0.0253 1.12712,-0.002 0.008,-0.0212 0.0253,-0.0635 0.0336,-0.0847 z"
     id="path3289"
     inkscape:connector-curvature="0"
     style="fill:#bdcbcd" />
  <path
     d="m 1.4779811,7.3946895 c 0.50003,-0.006 1.00005,-0.006 1.50008,-5.1e-4 0.006,0.48039 0.007,0.96131 -0.004,1.4417 -0.49899,0.004 -0.9985,-0.003 -1.49749,0.002 0,-0.48091 -5.2e-4,-0.96182 0.001,-1.44274 z"
     id="path3291"
     inkscape:connector-curvature="0"
     style="fill:#a8babd" />
  <path
     d="m 14.765351,7.3983095 c 0.48195,-0.003 0.96441,0.009 1.44636,-0.009 l 0.0393,-0.002 c -0.015,0.48194 0.0238,0.96544 -0.0212,1.44584 -0.002,0.0145 -0.005,0.0434 -0.006,0.0584 -0.47213,-0.0139 -0.94478,-0.0181 -1.4164,-0.002 -0.0243,0.47885 -0.007,0.95873 -0.009,1.4380895 l -0.0341,0.0139 c -0.006,-0.9814495 0.004,-1.9629095 0.001,-2.9438495 z"
     id="path3293"
     inkscape:connector-curvature="0"
     style="fill:#d3dcde" />
  <path
     d="m 16.250971,7.3879795 c 0.48246,-0.006 0.96492,-0.007 1.44739,10e-4 -0.003,0.48401 0.002,0.96751 -0.003,1.45152 -0.48815,0 -0.97733,0.009 -1.46547,-0.007 0.0449,-0.4804 0.006,-0.9639 0.0212,-1.44584 z"
     id="path3295"
     inkscape:connector-curvature="0"
     style="fill:#e8edee" />
  <path
     d="m 0.03266108,8.8363995 c 0.48143,0.005 0.96286,0.006 1.44429002,10e-4 0.002,0.5021 -0.004,1.00367 0.003,1.5057595 -0.48246002,0.007 -0.96492002,5.2e-4 -1.44790002,0.006 -0.0429,-0.5031295 -0.0429,-1.0093495 10e-4,-1.5124795 z"
     id="path3297"
     inkscape:connector-curvature="0"
     style="fill:#bdcbcd" />
  <path
     d="m 1.4769511,8.8374295 c 0.49899,-0.004 0.9985,0.002 1.49749,-0.002 l -0.002,0.0532 c -0.008,0.4804 -0.0109,0.96183 0.003,1.4422195 l -0.031,0.002 c -0.48814,0.0181 -0.97629,0 -1.46495,0.0103 -0.006,-0.5020895 -10e-4,-1.0036595 -0.003,-1.5057595 z"
     id="path3299"
     inkscape:connector-curvature="0"
     style="fill:#92a8ad" />
  <path
     d="m 2.9729011,8.8890895 c 0.48556,-0.001 0.97164,-0.007 1.4572,0.002 -0.002,0.47833 -0.003,0.95666 -0.003,1.4349895 -0.48402,-0.007 -0.96855,-0.0165 -1.45204,0.006 -0.0134,-0.4803895 -0.0103,-0.9618195 -0.003,-1.4422195 z"
     id="path3301"
     inkscape:connector-curvature="0"
     style="fill:#d3dcde" />
  <path
     d="m 7.3910011,10.340609 c -0.001,-0.4891795 -0.002,-0.9783595 -0.001,-1.4675295 0.48039,0.49072 0.9737,0.96906 1.45048,1.4628795 -0.48298,0.007 -0.96647,0.003 -1.44945,0.005 z"
     id="path3303"
     inkscape:connector-curvature="0"
     style="fill:#a8babd" />
  <path
     d="m 10.343631,10.326149 c 0.48143,-0.4907295 0.97113,-0.9726795 1.45411,-1.4618595 0.002,0.49383 0,0.98714 0,1.4804495 -0.48453,0 -0.97061,0.0207 -1.45411,-0.0186 z"
     id="path3305"
     inkscape:connector-curvature="0"
     style="fill:#bdcbcd" />
  <path
     d="m 14.807191,8.8901195 c 0.47162,-0.016 0.94427,-0.0119 1.4164,0.002 -0.0325,0.47626 0.0109,0.95511 -0.0227,1.4318895 -0.46748,0.003 -0.93548,-0.01 -1.40245,0.004 0.002,-0.4793595 -0.0155,-0.9592395 0.009,-1.4380895 z"
     id="path3307"
     inkscape:connector-curvature="0"
     style="fill:#e8edee" />
  <path
     d="m 16.256131,8.8849595 c 0.47833,-0.015 0.9577,-0.015 1.43654,-0.002 0.0139,0.46955 -0.009,0.93961 0.0139,1.4091595 -0.48969,0.009 -0.97939,0.0139 -1.46908,-0.002 0.0263,-0.4685095 -0.007,-0.9375495 0.0186,-1.4060595 z"
     id="path3309"
     inkscape:connector-curvature="0"
     style="fill:#a8babd" />
  <path
     d="m 17.748981,8.8952895 c 0.46697,-0.0155 0.93393,-0.008 1.4009,-0.003 0.0449,0.46542 0.0486,0.93651 -0.001,1.4014195 -0.46594,0.0139 -0.93239,0.0186 -1.39832,10e-4 -0.0176,-0.4659395 -0.0176,-0.9328995 -0.002,-1.3993495 z"
     id="path3311"
     inkscape:connector-curvature="0"
     style="fill:#d3dcde" />
  <path
     d="m 16.237541,10.291019 c 0.48969,0.0155 0.97939,0.0103 1.46908,0.002 0.0248,0.50829 0.0134,1.01762 0.007,1.52643 -0.50003,-0.005 -0.99954,-0.002 -1.49905,-0.002 0.0155,-0.50881 -0.0207,-1.01865 0.0233,-1.52643 z"
     id="path3313"
     inkscape:connector-curvature="0"
     style="fill:#92a8ad" />
  <path
     d="m 0.03163108,10.348879 c 0.48298,-0.005 0.96544,10e-4 1.44790002,-0.006 0.03,0.48453 0.0207,0.97061 0.008,1.45566 -0.3962,-0.0109 -0.79240002,-0.0134 -1.18860002,-0.003 -0.006,0.0222 -0.0186,0.0666 -0.0248,0.0888 -0.12139,-0.50467 -0.20508,-1.01864 -0.24278,-1.53623 z"
     id="path3315"
     inkscape:connector-curvature="0"
     style="fill:#d3dcde" />
  <path
     d="m 1.4795311,10.343189 c 0.48866,-0.0103 0.97681,0.008 1.46495,-0.0103 0.006,0.49073 0.005,0.98146 0.002,1.4727 -0.48607,0.001 -0.97215,0.009 -1.45823,-0.007 0.0124,-0.48505 0.0217,-0.97113 -0.008,-1.45566 z"
     id="path3317"
     inkscape:connector-curvature="0"
     style="fill:#e8edee" />
  <path
     d="m 2.9444811,10.332859 0.031,-0.002 c 0.48349,-0.0222 0.96802,-0.0124 1.45204,-0.006 0,0.49693 -10e-4,0.99437 -0.003,1.4913 -0.48969,-0.003 -0.97887,-0.004 -1.46856,0 0.002,0.47316 -0.007,0.94633 0.004,1.41949 -0.0682,-0.46283 -0.005,-0.93083 -0.0393,-1.39573 -0.46438,-0.0114 -0.92877,-0.0119 -1.39315,-0.003 -0.0289,0.46903 0.0186,0.93961 -0.0284,1.40761 -0.25776,-0.007 -0.51553002,-0.007 -0.77277002,0.0129 l -0.01,5.1e-4 c -0.17305,-0.4494 -0.32957,-0.90604 -0.44269,-1.37404 0.006,-0.0222 0.0186,-0.0666 0.0248,-0.0888 0.3962,-0.0108 0.79240002,-0.008 1.18860002,0.003 0.48608,0.016 0.97216,0.008 1.45823,0.007 0.003,-0.49124 0.005,-0.98197 -0.002,-1.4727 z"
     id="path3319"
     inkscape:connector-curvature="0"
     style="fill:#a8babd" />
  <path
     d="m 7.3910011,10.340609 c 0.48298,-0.002 0.96647,0.003 1.44945,-0.005 0.006,0.006 0.0171,0.0165 0.0227,0.0217 -0.0269,0.47833 -0.007,0.95821 -0.0124,1.43706 -0.48608,-0.003 -0.97216,0.004 -1.45876,-0.003 0,-0.4835 0,-0.967 -0.001,-1.45101 z"
     id="path3321"
     inkscape:connector-curvature="0"
     style="fill:#e8edee" />
  <path
     d="m 10.299211,10.372639 c 0.0114,-0.0119 0.0336,-0.0346 0.0444,-0.0465 0.0243,0.48659 -0.006,0.97422 0.0155,1.46082 0.47936,0.009 0.95873,0.002 1.43809,0.003 0,0.49796 -5.2e-4,0.99643 -5.2e-4,1.49439 -0.48091,-0.004 -0.96131,0.007 -1.4417,-0.005 l -0.0382,-0.002 c 0.009,-0.48143 0.007,-0.96286 0.002,-1.44429 l 0,-0.0393 c -10e-4,-0.47368 0.016,-0.9484 -0.0191,-1.42156 z"
     id="path3323"
     inkscape:connector-curvature="0"
     style="fill:#a8babd" />
  <path
     d="m 10.343631,10.326149 c 0.4835,0.0393 0.96958,0.0186 1.45411,0.0186 0,0.48195 -5.2e-4,0.96338 -5.2e-4,1.44533 -0.47936,-0.001 -0.95873,0.006 -1.43809,-0.003 -0.0212,-0.4866 0.009,-0.97423 -0.0155,-1.46082 z"
     id="path3325"
     inkscape:connector-curvature="0"
     style="fill:#d3dcde" />
  <path
     d="m 8.8631811,10.357659 c 0.24743,0.23451 0.48195,0.48091 0.72525,0.71956 0.23761,-0.23452 0.4690299,-0.47471 0.7107799,-0.70458 0.0351,0.47316 0.0181,0.94788 0.0191,1.42156 -0.4891799,0.0155 -0.9783599,0.0134 -1.4675299,5.2e-4 0.005,-0.47885 -0.0145,-0.95873 0.0124,-1.43706 z"
     id="path3327"
     inkscape:connector-curvature="0"
     style="fill:#92a8ad" />
  <path
     d="m 7.3920311,11.791619 c 0.4866,0.007 0.97268,0 1.45876,0.003 0.48917,0.0129 0.97835,0.015 1.4675299,-5.2e-4 l 0,0.0393 c -0.4829799,-0.0139 -0.9669899,-0.0176 -1.4499699,5.2e-4 -0.005,0.48504 -0.003,0.96957 0.002,1.4541 -0.49227,-0.005 -0.98455,-0.002 -1.47683,-0.003 -5.2e-4,-0.49744 -0.001,-0.9954 -0.002,-1.49336 z"
     id="path3329"
     inkscape:connector-curvature="0"
     style="fill:#bdcbcd" />
  <path
     d="m 14.768971,11.763719 c 10e-4,0.0155 0.003,0.0465 0.004,0.062 0.0346,0.48298 0.002,0.96803 0.017,1.45204 0.002,0.48608 -0.0124,0.97216 0.004,1.45772 0.009,0.50158 -0.009,1.00315 0.007,1.50421 l -0.0377,-0.002 c -0.49435,-0.0212 -0.98921,-0.007 -1.48407,-0.0103 0.004,-0.48505 0.004,-0.97061 0,-1.45565 0.49331,5.1e-4 0.98714,0 1.48097,0 0.0124,-1.00264 -0.0196,-2.00631 0.009,-3.00843 z"
     id="path3331"
     inkscape:connector-curvature="0"
     style="fill:#a8babd" />
  <path
     d="m 1.5280911,11.838109 c 0.46438,-0.009 0.92877,-0.009 1.39315,0.003 0.0341,0.4649 -0.0289,0.9329 0.0393,1.39573 l 0.004,0.0418 -0.0217,10e-4 c -0.4711,0.031 -0.94272,-5.2e-4 -1.41382,0.0155 -0.0387,0.47161 0.0217,0.94529 -0.0294,1.41588 l -0.0584,-0.0212 0.006,-0.0289 c 0.0909,-0.46593 0.002,-0.94426 0.0532,-1.41485 0.047,-0.468 -5.2e-4,-0.93858 0.0284,-1.40761 z"
     id="path3333"
     inkscape:connector-curvature="0"
     style="fill:#bdcbcd" />
  <path
     d="m 2.9563711,11.816929 c 0.48969,-0.004 0.97887,-0.003 1.46856,0 -0.002,0.48453 -0.002,0.96957 -0.002,1.45462 -0.4866,10e-4 -0.97268,-0.0119 -1.45876,0.007 l -0.004,-0.0418 c -0.0109,-0.47316 -0.003,-0.94633 -0.004,-1.41949 z"
     id="path3335"
     inkscape:connector-curvature="0"
     style="fill:#e8edee" />
  <path
     d="m 8.8683511,11.833979 c 0.48298,-0.0181 0.96699,-0.0145 1.4499699,-5.2e-4 0.005,0.48143 0.008,0.96286 -0.002,1.44429 -0.4323599,-0.0155 -0.8662599,-0.0222 -1.2986199,-0.005 -0.15497,-0.0155 -0.17511,0.15342 -0.17253,0.2681 0,0.39878 -0.002,0.79808 0.0108,1.19686 -0.47833,0.0227 -0.95821,-0.0145 -1.43603,0.0263 l -0.0294,10e-4 c 0.008,-0.49331 5.2e-4,-0.98662 0.003,-1.47993 0.49228,0.001 0.98456,-0.002 1.47683,0.003 -0.005,-0.48453 -0.007,-0.96906 -0.002,-1.4541 z"
     id="path3337"
     inkscape:connector-curvature="0"
     style="fill:#e8edee" />
  <path
     d="m 14.773101,11.825709 c 0.47988,-0.0171 0.96079,-0.004 1.44119,-0.008 -0.0248,0.48091 0.032,0.96441 -0.0294,1.44274 -0.4649,0.0176 -0.93032,-0.009 -1.3947,0.0176 -0.0155,-0.48401 0.0176,-0.96906 -0.017,-1.45204 z"
     id="path3339"
     inkscape:connector-curvature="0"
     style="fill:#e8edee" />
  <path
     d="m 16.214291,11.817449 c 0.49951,-5.2e-4 0.99902,-0.003 1.49905,0.002 0.015,0.48349 -0.0181,0.96854 0.0212,1.45152 -0.50158,-0.008 -1.00264,-5.2e-4 -1.5037,-0.005 -0.0207,0.49021 -0.003,0.98094 -0.009,1.47115 -0.47574,0.002 -0.95149,0.002 -1.42724,-10e-4 -0.0165,-0.48556 -0.003,-0.97164 -0.004,-1.45772 0.46438,-0.0269 0.9298,0 1.3947,-0.0176 0.0615,-0.47833 0.005,-0.96183 0.0294,-1.44274 z"
     id="path3341"
     inkscape:connector-curvature="0"
     style="fill:#d3dcde" />
  <path
     d="m 17.713341,11.818999 c 0.3931,-0.002 0.78671,-0.005 1.17981,0.003 -0.0671,0.51243 -0.27274,0.99592 -0.44527,1.47994 -0.23503,-0.0491 -0.47523,-0.0356 -0.71336,-0.0315 -0.0393,-0.48298 -0.006,-0.96803 -0.0212,-1.45152 z"
     id="path3343"
     inkscape:connector-curvature="0"
     style="fill:#e8edee" />
  <path
     d="m 0.72691108,13.258639 c 0.25724,-0.0196 0.51501002,-0.0196 0.77277002,-0.0129 -0.0517,0.47059 0.0377,0.94892 -0.0532,1.41485 -0.27894,-0.44527 -0.52637002,-0.91275 -0.71956002,-1.40193 z"
     id="path3345"
     inkscape:connector-curvature="0"
     style="fill:#92a8ad" />
  <path
     d="m 1.5286011,13.294799 c 0.4711,-0.016 0.94272,0.0155 1.41382,-0.0155 0.0155,0.48659 -0.0134,0.97422 0.0155,1.45979 -0.48247,0.0248 -0.96596,-0.006 -1.44843,0.0201 l -0.0155,5.2e-4 c 0.001,-0.0119 0.004,-0.0367 0.005,-0.0491 0.0511,-0.47059 -0.009,-0.94427 0.0294,-1.41588 z"
     id="path3347"
     inkscape:connector-curvature="0"
     style="fill:#d3dcde" />
  <path
     d="m 2.9424211,13.279299 0.0217,-10e-4 c 0.48608,-0.0186 0.97216,-0.006 1.45876,-0.007 0.003,0.50054 -0.005,1.0016 0.004,1.50215 -0.48814,0.0139 -0.97629,-0.006 -1.46443,0.0145 -10e-4,-0.0124 -0.003,-0.0367 -0.004,-0.0491 -0.0289,-0.48557 0,-0.9732 -0.0155,-1.45979 z"
     id="path3349"
     inkscape:connector-curvature="0"
     style="fill:#92a8ad" />
  <path
     d="m 8.8456211,13.540679 c -0.003,-0.11468 0.0176,-0.28359 0.17253,-0.2681 0.43236,-0.017 0.86626,-0.0103 1.2986199,0.005 l 0.0382,0.002 c -0.003,0.48659 -0.004,0.97319 10e-4,1.45979 -0.5000299,-0.004 -0.9995399,-0.003 -1.4995599,-0.002 -0.0129,-0.39878 -0.0108,-0.79808 -0.0108,-1.19686 z"
     id="path3351"
     inkscape:connector-curvature="0"
     style="fill:#d3dcde" />
  <path
     d="m 10.355001,13.279299 c 0.48039,0.0124 0.96079,0.002 1.4417,0.005 0.003,0.48867 -0.008,0.97733 0.005,1.46547 l -0.0382,10e-4 c -0.46904,-0.0129 -0.93859,0 -1.40762,-0.0119 -0.005,-0.4866 -0.004,-0.9732 -10e-4,-1.45979 z"
     id="path3353"
     inkscape:connector-curvature="0"
     style="fill:#e8edee" />
  <path
     d="m 16.221521,14.736499 c 0.006,-0.49021 -0.0114,-0.98094 0.009,-1.47115 0.50106,0.005 1.00212,-0.003 1.5037,0.005 0.0114,0.45457 0,0.90965 0.0119,1.36474 -0.0258,0.0542 -0.0599,0.10383 -0.0919,0.15497 -0.47162,-0.0186 -0.94375,-0.0114 -1.41536,-0.008 -0.0155,0.46593 0.005,0.93187 -0.0124,1.3978 -0.0165,-0.48091 -0.006,-0.96234 -0.005,-1.44326 z"
     id="path3355"
     inkscape:connector-curvature="0"
     style="fill:#92a8ad" />
  <path
     d="m 17.734521,13.270519 c 0.23813,-0.004 0.47833,-0.0176 0.71336,0.0315 -0.20972,0.45612 -0.42254,0.91378 -0.70148,1.33323 -0.0119,-0.45509 -5.2e-4,-0.91017 -0.0119,-1.36474 z"
     id="path3357"
     inkscape:connector-curvature="0"
     style="fill:#a8babd" />
  <path
     d="m 1.5094911,14.759229 c 0.48247,-0.0263 0.96596,0.005 1.44843,-0.0201 10e-4,0.0124 0.003,0.0367 0.004,0.0491 0.0413,0.48711 0.01,0.97629 0.0165,1.46444 -0.10176,0.002 -0.20353,0.003 -0.30529,0.003 -0.42099,-0.47162 -0.83217,-0.95563 -1.1638,-1.49595 z"
     id="path3359"
     inkscape:connector-curvature="0"
     style="fill:#a8babd" />
  <path
     d="m 7.4204411,14.763879 c 0.47782,-0.0408 0.9577,-0.004 1.43603,-0.0263 0.50002,-10e-4 0.99953,-0.003 1.4995599,0.002 0.46903,0.0119 0.93858,-0.001 1.40762,0.0119 -0.48195,0.0331 -0.96545,10e-4 -1.44739,0.0222 -0.002,0.48556 -0.003,0.97112 5.1e-4,1.4572 0.49745,0.008 0.99541,0.006 1.49285,5.2e-4 0.48969,-0.007 0.97991,-0.002 1.4696,-0.003 0.49486,0.004 0.98972,-0.0109 1.48407,0.0103 l 10e-4,0.0382 c -0.48866,-0.007 -0.97784,-0.0145 -1.4665,0.004 -0.0232,0.47059 -0.003,0.94117 -0.0119,1.41227 0,0.009 -5.2e-4,0.0269 -5.2e-4,0.0356 -0.49538,5.2e-4 -0.99024,0.004 -1.4851,0 l -0.0346,-5.2e-4 c 0.009,-0.48298 0.0217,-0.96647 -0.005,-1.44894 -0.48092,-0.0248 -0.96235,0.007 -1.44275,-0.0181 -0.4829699,-0.0325 -0.9674999,-0.001 -1.4509999,-0.0207 0,-0.48969 0.002,-0.97939 -0.001,-1.46908 -0.48195,-0.0103 -0.96338,-0.005 -1.44533,-0.007 z"
     id="path3361"
     inkscape:connector-curvature="0"
     style="fill:#bdcbcd" />
  <path
     d="m 11.763651,14.750969 0.0382,-10e-4 5.2e-4,0.0232 c 0.016,0.48556 0.003,0.97164 0.007,1.45772 -0.49744,0.006 -0.9954,0.008 -1.49285,-5.2e-4 -0.004,-0.48608 -0.002,-0.97164 -5.1e-4,-1.4572 0.48194,-0.0212 0.96544,0.0109 1.44739,-0.0222 z"
     id="path3363"
     inkscape:connector-curvature="0"
     style="fill:#92a8ad" />
  <path
     d="m 14.794281,14.735469 c 0.47575,0.003 0.9515,0.003 1.42724,10e-4 -5.1e-4,0.48092 -0.0114,0.96235 0.005,1.44326 0.017,-0.46593 -0.003,-0.93187 0.0124,-1.3978 0.47161,-0.003 0.94374,-0.0103 1.41536,0.008 -0.34248,0.51603 -0.71646,1.02484 -1.16225,1.45255 -0.0821,-0.005 -0.16375,-0.0139 -0.24485,-0.0227 -0.004,0.50158 -0.003,1.00264 0.005,1.5037 0.005,0.48711 -0.002,0.9737 0.005,1.4603 -0.49538,0.004 -0.99024,10e-4 -1.48562,0.002 0.005,-0.49745 0.008,-0.99489 -0.002,-1.49182 0.47885,5.2e-4 0.95822,0.009 1.43706,-0.005 0.008,-0.48143 0.0165,-0.96389 -0.004,-1.44532 -0.46697,-5.2e-4 -0.93445,0.01 -1.40142,-0.005 -0.0155,-0.50106 0.002,-1.00263 -0.007,-1.50421 z"
     id="path3365"
     inkscape:connector-curvature="0"
     style="fill:#bdcbcd" />
  <path
     d="m 2.9620511,14.788159 c 0.48814,-0.0202 0.97629,-5.2e-4 1.46443,-0.0145 0.0263,0.3807 0.007,0.76192 0.017,1.14262 -0.008,0.094 0.0181,0.20507 -0.0517,0.28152 -0.062,0.0589 -0.15031,0.0455 -0.22831,0.0511 -0.39517,-0.001 -0.78982,-0.01 -1.18498,0.004 -0.007,-0.48815 0.0248,-0.97733 -0.0165,-1.46444 z"
     id="path3367"
     inkscape:connector-curvature="0"
     style="fill:#bdcbcd" />
  <path
     d="m 4.4264811,14.773699 c 0.4835,-0.005 0.96648,-0.001 1.44998,-0.002 0.007,0.48556 0.002,0.97061 0.003,1.45617 -0.47988,0.015 -0.96493,-0.0238 -1.44171,0.0155 -0.0279,0.077 -0.0171,0.16065 -0.0196,0.24123 0.0124,0.39568 -0.003,0.79188 0.007,1.18704 -0.44837,-0.27945 -0.87711,-0.59403 -1.25988,-0.95976 -0.16788,-0.14773 -0.35487,-0.27687 -0.49176,-0.45663 0.10176,0 0.20353,-10e-4 0.30529,-0.003 0.39516,-0.0134 0.78981,-0.005 1.18498,-0.004 0.078,-0.006 0.16633,0.008 0.22831,-0.0511 0.0697,-0.0765 0.0439,-0.18751 0.0517,-0.28152 -0.01,-0.3807 0.009,-0.76192 -0.017,-1.14262 z"
     id="path3369"
     inkscape:connector-curvature="0"
     style="fill:#e8edee" />
  <path
     d="m 5.8764611,14.771629 c 0.50467,-0.004 1.00986,0.008 1.51454,-0.007 -0.0351,0.48608 -0.002,0.97371 -0.0191,1.46031 -0.48298,-0.006 -0.96545,-0.007 -1.44843,0.002 l -0.0439,5.2e-4 c -10e-4,-0.48556 0.004,-0.97061 -0.003,-1.45617 z"
     id="path3371"
     inkscape:connector-curvature="0"
     style="fill:#d3dcde" />
  <path
     d="m 7.3910011,14.764909 0.0294,-10e-4 c 0.48195,0.002 0.96338,-0.004 1.44533,0.007 0.003,0.48969 0.001,0.97939 0.001,1.46908 l 0,0.0367 c -0.49899,-0.0109 -0.99799,-0.0109 -1.49646,0 l 0.002,-0.0511 c 0.017,-0.4866 -0.016,-0.97423 0.0191,-1.46031 z"
     id="path3373"
     inkscape:connector-curvature="0"
     style="fill:#92a8ad" />
  <path
     d="m 11.802391,14.773179 c 0.49227,-0.003 0.98455,-0.001 1.47683,-0.001 0.004,0.48504 0.004,0.9706 0,1.45565 -0.48969,0.002 -0.97991,-0.004 -1.4696,0.003 -0.004,-0.48608 0.009,-0.97216 -0.007,-1.45772 z"
     id="path3375"
     inkscape:connector-curvature="0"
     style="fill:#e8edee" />
  <path
     d="m 4.4378511,16.243299 c 0.47678,-0.0393 0.96183,-5.2e-4 1.44171,-0.0155 l 0.0439,-5.2e-4 c -0.0201,0.48195 0.0124,0.96493 -0.0176,1.44636 -0.001,0.0134 -0.003,0.0398 -0.005,0.0532 -0.46025,-0.0165 -0.92102,-0.0103 -1.38127,-10e-4 -0.0238,-0.0134 -0.0713,-0.0403 -0.095,-0.0542 -0.01,-0.39516 0.006,-0.79136 -0.007,-1.18704 0.003,-0.0806 -0.008,-0.16427 0.0196,-0.24123 z"
     id="path3377"
     inkscape:connector-curvature="0"
     style="fill:#92a8ad" />
  <path
     d="m 5.9234611,16.227279 c 0.48298,-0.009 0.96545,-0.008 1.44843,-0.002 l -0.002,0.0511 c -0.0207,0.46541 0.004,0.93135 -0.0124,1.39676 -0.48401,0.009 -0.96803,0.003 -1.45204,5.2e-4 0.03,-0.48143 -0.003,-0.96441 0.0176,-1.44636 z"
     id="path3379"
     inkscape:connector-curvature="0"
     style="fill:#bdcbcd" />
  <path
     d="m 8.8668011,16.239679 c 0.4835,0.0196 0.96803,-0.0119 1.4509999,0.0207 -0.007,0.46904 0.004,0.93859 -0.0103,1.40762 -0.4798799,0.0145 -0.9602699,0.002 -1.4406699,0.008 -0.003,-0.46645 -0.002,-0.9329 0,-1.39935 l 0,-0.0367 z"
     id="path3381"
     inkscape:connector-curvature="0"
     style="fill:#e8edee" />
  <path
     d="m 14.763291,16.238129 0.0377,0.002 c 0.46697,0.0145 0.93445,0.004 1.40142,0.005 0.0207,0.48143 0.0119,0.96389 0.004,1.44532 -0.47884,0.0134 -0.95821,0.005 -1.43706,0.005 10e-4,-0.47265 0.0109,-0.94529 -0.005,-1.41794 l -10e-4,-0.0382 z"
     id="path3383"
     inkscape:connector-curvature="0"
     style="fill:#e8edee" />
  <path
     d="m 16.247351,16.220049 c 0.0811,0.009 0.16272,0.0176 0.24485,0.0227 -0.0233,0.0356 -0.0697,0.10641 -0.0925,0.14205 0.43803,0.44114 0.88486,0.87402 1.31566,1.32239 -0.48711,0.0331 -0.97577,0.005 -1.4634,0.0165 -0.008,-0.50106 -0.009,-1.00212 -0.005,-1.5037 z"
     id="path3385"
     inkscape:connector-curvature="0"
     style="fill:#a8babd" />
  <path
     d="m 7.3703411,16.276359 c 0.49847,-0.0109 0.99747,-0.0109 1.49646,0 -0.002,0.46645 -0.003,0.9329 0,1.39935 l 0,0.047 -0.0429,0 c -0.47213,0.003 -0.94426,-0.008 -1.41639,0.004 -0.017,0.40239 0.003,0.80479 -0.0134,1.20719 -0.51656,-0.11933 -1.0233,-0.28153 -1.51041,-0.48866 0.004,-0.23969 -0.006,-0.47989 0.0176,-0.71853 0.002,-0.0134 0.004,-0.0398 0.005,-0.0532 0.48401,0.002 0.96803,0.009 1.45204,-5.2e-4 0.0165,-0.46541 -0.008,-0.93135 0.0124,-1.39676 z"
     id="path3387"
     inkscape:connector-curvature="0"
     style="fill:#a8babd" />
  <path
     d="m 10.317801,16.260339 c 0.4804,0.0253 0.96183,-0.007 1.44275,0.0181 0.0269,0.48247 0.0139,0.96596 0.005,1.44894 -0.46593,-0.002 -0.93238,-0.0109 -1.39832,0.005 -0.0139,0.47627 0.0145,0.95408 -0.0139,1.42983 l -0.0253,0.0377 c -0.0202,-0.49176 0.01,-0.98404 -0.016,-1.47529 -0.4819399,-0.0139 -0.9633699,-0.008 -1.4453199,-0.002 l 0,-0.047 c 0.4804,-0.006 0.96079,0.007 1.4406699,-0.008 0.0145,-0.46903 0.003,-0.93858 0.0103,-1.40762 z"
     id="path3389"
     inkscape:connector-curvature="0"
     style="fill:#d3dcde" />
  <path
     d="m 13.297821,16.279969 c 0.48866,-0.0181 0.97784,-0.0108 1.4665,-0.004 0.016,0.47265 0.006,0.94529 0.005,1.41794 -0.49434,0.003 -0.9892,0.006 -1.48354,-0.002 0.009,-0.4711 -0.0114,-0.94168 0.0119,-1.41227 z"
     id="path3391"
     inkscape:connector-curvature="0"
     style="fill:#d3dcde" />
  <path
     d="m 13.285421,17.727879 c 0,-0.009 5.2e-4,-0.0269 5.2e-4,-0.0356 0.49434,0.008 0.9892,0.005 1.48354,0.002 0.0103,0.49693 0.007,0.99437 0.002,1.49182 -0.49796,-0.003 -0.99644,0.007 -1.4944,-0.006 0.0114,-0.48401 -0.003,-0.96854 0.008,-1.45255 z"
     id="path3393"
     inkscape:connector-curvature="0"
     style="fill:#92a8ad" />
  <path
     d="m 4.5199811,17.725809 c 0.46025,-0.009 0.92102,-0.0155 1.38127,10e-4 -0.0232,0.23864 -0.0134,0.47884 -0.0176,0.71853 -0.47265,-0.20146 -0.94323,-0.42203 -1.36371,-0.71957 z"
     id="path3395"
     inkscape:connector-curvature="0"
     style="fill:#d3dcde" />
  <path
     d="m 7.4075311,17.726849 c 0.47213,-0.0124 0.94426,-0.002 1.41639,-0.004 0.0109,0.46335 0,0.92671 0.007,1.38954 0.0475,0.0181 0.0956,0.0351 0.1436,0.0522 -0.53309,-0.0191 -1.05894,-0.12036 -1.58118,-0.22263 l 5.2e-4,-0.008 c 0.016,-0.4024 -0.004,-0.8048 0.0134,-1.20719 z"
     id="path3397"
     inkscape:connector-curvature="0"
     style="fill:#d3dcde" />
  <path
     d="m 8.8239211,17.722709 0.0429,0 c 0.48195,-0.006 0.96338,-0.0124 1.4453199,0.002 0.0258,0.49125 -0.004,0.98353 0.016,1.47529 -0.4499199,-0.0398 -0.9039799,0.0155 -1.3533799,-0.0351 -0.048,-0.017 -0.0961,-0.0341 -0.1436,-0.0522 -0.007,-0.46283 0.004,-0.92619 -0.007,-1.38954 z"
     id="path3399"
     inkscape:connector-curvature="0"
     style="fill:#bdcbcd" />
  <path
     d="m 10.367391,17.732009 c 0.46594,-0.0155 0.93239,-0.006 1.39832,-0.005 l 0.0346,5.2e-4 c -0.0145,0.48453 -0.007,0.96906 -0.007,1.4541 -0.47989,-0.01 -0.96235,0.03 -1.44016,-0.0201 0.0284,-0.47575 0,-0.95356 0.0139,-1.42983 z"
     id="path3401"
     inkscape:connector-curvature="0"
     style="fill:#e8edee" />
  <path
     d="m 11.800321,17.727879 c 0.49486,0.004 0.98972,5.2e-4 1.4851,0 -0.0109,0.48401 0.003,0.96854 -0.008,1.45255 -0.49434,0.0103 -0.9892,0.008 -1.48354,0.002 -5.2e-4,-0.48504 -0.008,-0.96957 0.007,-1.4541 z"
     id="path3403"
     inkscape:connector-curvature="0"
     style="fill:#d3dcde" />
  <path
     d="m 16.252001,17.723749 c 0.48763,-0.0114 0.97629,0.0165 1.4634,-0.0165 -0.0516,0.49073 -0.0114,0.98559 -0.0243,1.47786 -0.47834,0.002 -0.95615,0.003 -1.43396,-0.001 -0.007,-0.4866 0,-0.97319 -0.005,-1.4603 z"
     id="path3405"
     inkscape:connector-curvature="0"
     style="fill:#d3dcde" />
  <path
     d="m 17.715401,17.707219 c 0.48143,0.49331 0.98094,0.97061 1.45308,1.47321 -0.49228,0.0119 -0.98508,0.003 -1.47735,0.005 0.0129,-0.49227 -0.0274,-0.98713 0.0243,-1.47786 z"
     id="path3407"
     inkscape:connector-curvature="0"
     style="fill:#bdcbcd" />
</svg>
