<svg id="branco" xmlns="http://www.w3.org/2000/svg" viewBox="0 0 48 48"><defs><style>.cls-1{fill:#fff;}</style></defs><title>enviar</title><path class="cls-1" d="M39.3,13.45a1.53,1.53,0,0,0-1-.6,1.39,1.39,0,0,0-.38,0H10.2l-.27,0a1.55,1.55,0,0,0-1.52,1.33,1.37,1.37,0,0,0,0,.36V33.22a2,2,0,0,0,2,1.95H37.65a2,2,0,0,0,1.95-1.95V14.63A1.58,1.58,0,0,0,39.3,13.45ZM30.11,25a.62.62,0,0,0-.5,1l0,0h0l7.46,7.46a.22.22,0,0,1-.15.37H11.05a.22.22,0,0,1-.15-.37l7.46-7.46a.63.63,0,0,0-.09-.85.63.63,0,0,0-.84,0L10,32.67a.22.22,0,0,1-.37-.15V15.41a.22.22,0,0,1,.37-.15L22.35,27.58a2.28,2.28,0,0,0,3.23,0L38,15.21a.23.23,0,0,1,.39.16V32.51a.22.22,0,0,1-.37.15l-7.42-7.42A.64.64,0,0,0,30.11,25Zm-5.4,1.72a1,1,0,0,1-1.47,0L11,14.47a.22.22,0,0,1,.15-.37H36.79a.22.22,0,0,1,.15.37Z"/></svg>