<svg id="branco" xmlns="http://www.w3.org/2000/svg" viewBox="0 0 48 48"><defs><style>.cls-1{fill:#fff;}</style></defs><title>icon_login_usuario_w</title><path class="cls-1" d="M24.07,27.5c6.3,0,13.08,3.92,13.15,12.53h1.26C38.42,33.29,34.53,28.32,28,26.72l-.37-.09.34-.16a9.75,9.75,0,1,0-8.15.06l.35.16-.37.1C13.51,28.46,9.71,33.4,9.66,40h1.26C11,31.42,17.77,27.5,24.07,27.5Zm-8.68-9.85a8.49,8.49,0,1,1,8.49,8.49A8.5,8.5,0,0,1,15.39,17.65Z"/><path class="cls-1" d="M9.54,39.72c0,.13,0,.25,0,.38h0C9.53,40,9.54,39.85,9.54,39.72Z"/></svg>