<?xml version="1.0" encoding="iso-8859-1"?>
<!-- Generator: Adobe Illustrator 22.1.0, SVG Export Plug-In . SVG Version: 6.00 Build 0)  -->
<svg version="1.1" id="Capa_1" xmlns="http://www.w3.org/2000/svg" xmlns:xlink="http://www.w3.org/1999/xlink" x="0px" y="0px"
	 viewBox="-49 141 512 512" style="enable-background:new -49 141 512 512;" xml:space="preserve">
<path style="fill:#C1C1C1;" d="M383.021,595.8h-43.488L74.468,198.199v-43.487c0-3.431,2.781-6.213,6.213-6.213h302.34
	c3.431,0,6.212,2.782,6.212,6.213v434.875C389.233,593.019,386.452,595.8,383.021,595.8z"/>
<path style="fill:#A8A8A8;" d="M364.383,148.5v447.3h18.638c3.431,0,6.212-2.782,6.212-6.213V154.712
	c0-3.431-2.781-6.213-6.212-6.213h-18.638V148.5z"/>
<path style="fill:#EEEEEF;" d="M339.532,281.032v358.255c0,3.431-2.781,6.212-6.212,6.212H30.979c-3.431,0-6.213-2.781-6.213-6.212
	V204.412c0-3.431,2.781-6.213,6.213-6.213h225.72L339.532,281.032z"/>
<path style="fill:#D9D9D9;" d="M262.699,281.032h76.833l-82.833-82.833v76.833C256.699,278.346,259.385,281.032,262.699,281.032z"/>
<rect x="267.435" y="299.421" transform="matrix(0.7071 -0.7071 0.7071 0.7071 -133.4798 318.0121)" style="fill:#00A7CC;" width="99.399" height="41.42"/>
<path style="fill:#F4B641;" d="M337.635,270.339c8.087-8.087,21.199-8.087,29.286,0c8.087,8.087,8.087,21.199,0,29.286
	L337.635,270.339z"/>
<path style="fill:#0095C2;" d="M267.348,340.626l29.285,29.285L180.75,485.795c-0.823,0.823-1.861,1.399-2.996,1.66l-26.65,6.15
	c-4.473,1.032-8.483-2.977-7.45-7.45l6.149-26.649c0.262-1.135,0.837-2.173,1.661-2.996L267.348,340.626z"/>
<g>
	<path style="fill:#121212;" d="M231.849,288.532c4.142,0,7.5-3.357,7.5-7.5v-33.135c0-4.143-3.358-7.5-7.5-7.5H132.45
		c-4.142,0-7.5,3.357-7.5,7.5v33.135c0,4.143,3.358,7.5,7.5,7.5H231.849z M139.95,255.397h84.399v18.135H139.95V255.397z"/>
	<path style="fill:#121212;" d="M66.184,537.033h231.934c4.142,0,7.5-3.357,7.5-7.5c0-4.143-3.358-7.5-7.5-7.5H66.184
		c-4.142,0-7.5,3.357-7.5,7.5C58.684,533.676,62.042,537.033,66.184,537.033z"/>
	<path style="fill:#121212;" d="M66.184,603.3h82.832c4.142,0,7.5-3.357,7.5-7.5s-3.358-7.5-7.5-7.5H66.184
		c-4.142,0-7.5,3.357-7.5,7.5S62.042,603.3,66.184,603.3z"/>
	<path style="fill:#121212;" d="M389.233,141H74.468c-4.142,0-7.5,3.357-7.5,7.5v42.199H24.767c-4.142,0-7.5,3.357-7.5,7.5v49.862
		c0,4.143,3.358,7.5,7.5,7.5s7.5-3.357,7.5-7.5v-42.362h42.201h174.731v75.333c0,4.143,3.358,7.5,7.5,7.5h52.136l-34.745,34.745
		c-0.271-0.03-0.545-0.047-0.823-0.047H79.016c-4.142,0-7.5,3.357-7.5,7.5c0,4.142,3.358,7.5,7.5,7.5h180.122l-34.699,34.699H79.017
		c-4.142,0-7.5,3.357-7.5,7.5s3.358,7.5,7.5,7.5h130.422l-34.234,34.234H79.016c-4.142,0-7.5,3.357-7.5,7.5s3.358,7.5,7.5,7.5
		h81.189l-15.303,15.303c-0.994,0.994-1.688,2.248-2.005,3.617l-8.302,35.975l-16.051,16.051c-2.929,2.93-2.929,7.678,0,10.607
		c1.464,1.464,3.384,2.196,5.303,2.196c1.919,0,3.839-0.732,5.303-2.196l16.053-16.053l35.975-8.301
		c1.37-0.315,2.623-1.011,3.617-2.004l55.195-55.195h58.129c4.142,0,7.5-3.357,7.5-7.5s-3.358-7.5-7.5-7.5H254.99l34.234-34.234
		h8.895c4.142,0,7.5-3.357,7.5-7.5c0-2.427-1.158-4.578-2.945-5.949l17.39-17.39l6.966,6.966l-29.839,29.839
		c-2.929,2.93-2.929,7.678,0,10.607c1.464,1.464,3.384,2.196,5.303,2.196s3.839-0.732,5.303-2.196l24.237-24.237V638H32.267V278.061
		c0-4.143-3.358-7.5-7.5-7.5s-7.5,3.357-7.5,7.5V645.5c0,4.143,3.358,7.5,7.5,7.5h314.765c4.142,0,7.5-3.357,7.5-7.5v-42.2h42.201
		c4.142,0,7.5-3.357,7.5-7.5V148.5C396.733,144.357,393.375,141,389.233,141z M264.199,273.532v-57.226l57.227,57.227
		c-0.004,0-0.008,0-0.012,0h-57.215V273.532z M175.708,480.23l-24.283,5.604l5.604-24.282l110.319-110.319l18.679,18.679
		L175.708,480.23z M332.032,347.846l-1.363-1.363l1.363-1.363V347.846z M296.634,359.305l-18.679-18.679l59.68-59.68l16.196,16.196
		l2.483,2.484L296.634,359.305z M349.897,271.994c4.127-0.749,8.539,0.466,11.721,3.648c2.495,2.494,3.869,5.812,3.869,9.339
		c0,0.81-0.072,1.608-0.214,2.389L349.897,271.994z M347.032,337.2l3.425,3.426l-3.425,3.425V337.2z M381.733,588.3h-34.7V365.265
		l31.05-31.05c2.929-2.93,2.929-7.678,0-10.607c-2.929-2.928-7.678-2.928-10.606,0l-6.412,6.412l-6.966-6.965l18.121-18.12
		c0.002-0.002,0.003-0.003,0.005-0.005c5.328-5.328,8.262-12.412,8.262-19.947c0-7.534-2.934-14.618-8.262-19.946
		c-5.328-5.327-12.411-8.262-19.946-8.262c-7.106,0-13.81,2.613-19.019,7.379l-2.526-2.526c-0.002-0.002-0.003-0.003-0.005-0.005
		l-68.726-68.726c-0.018-0.018-0.038-0.034-0.057-0.051c-0.156-0.153-0.317-0.301-0.486-0.44c-0.055-0.045-0.113-0.083-0.169-0.126
		c-0.016-0.012-0.032-0.024-0.048-0.036c-0.06-0.046-0.119-0.091-0.18-0.134c-0.065-0.046-0.126-0.096-0.192-0.141
		c-0.051-0.034-0.105-0.062-0.156-0.095c-0.156-0.099-0.312-0.197-0.475-0.284c-0.006-0.003-0.012-0.006-0.018-0.009
		c-0.013-0.007-0.027-0.012-0.04-0.019c-0.017-0.009-0.036-0.016-0.053-0.025c-0.181-0.093-0.365-0.183-0.554-0.262
		c-0.024-0.01-0.049-0.017-0.074-0.027c-0.063-0.026-0.129-0.047-0.193-0.071c-0.057-0.021-0.114-0.043-0.172-0.063
		c-0.083-0.029-0.165-0.061-0.25-0.087c-0.027-0.008-0.054-0.013-0.081-0.021c-0.206-0.06-0.415-0.115-0.628-0.158
		c-0.063-0.013-0.128-0.018-0.192-0.029c-0.177-0.031-0.354-0.062-0.536-0.08c-0.083-0.008-0.166-0.007-0.249-0.013
		c-0.08-0.005-0.16-0.009-0.24-0.012c-0.087-0.003-0.172-0.013-0.259-0.013H81.968V156h299.765L381.733,588.3L381.733,588.3z"/>
</g>
</svg>
