<svg id="Layer_1" data-name="Layer 1" xmlns="http://www.w3.org/2000/svg" xmlns:xlink="http://www.w3.org/1999/xlink" viewBox="0 0 128 128"><defs><style>.cls-1{fill:none;}.cls-2{fill:#fdbe52;}.cls-3{fill:#ffd491;}.cls-4{fill:#5f6c79;}.cls-5{fill:#fff;}.cls-6{fill:#8a97a0;}.cls-7{fill:#ffce83;}.cls-8{fill:#c4c4c3;}.cls-9{fill:#4f5662;}.cls-10{fill:#cf9d43;}.cls-11{fill:#717a83;}.cls-12{fill:#404450;}.cls-13{fill:#dbdee3;}.cls-14{fill:#7b8993;}.cls-15{fill:#56616d;}.cls-16{fill:#c5c7cb;}.cls-17{fill:#aaadae;}.cls-18{fill:#464b57;}.cls-19{fill:#e9ad46;}.cls-20{fill:#f04c63;}.cls-21{fill:#78c367;}.cls-22{fill:#3d364a;}.cls-23{clip-path:url(#clip-path);}</style><clipPath id="clip-path"><rect class="cls-1" x="3" width="122" height="128"/></clipPath></defs><title>atividade-avaliativa</title><polyline class="cls-2" points="120 99 120 101 122 107 118 113 114 107 116 101 116 99 120 99"/><polyline class="cls-3" points="118 113 114 107 114.89 104.33 118 109 121.11 104.33 122 107 118 113"/><polyline class="cls-4" points="122 87 122 99 120 99 116 99 114 99 114 87 122 87"/><polyline class="cls-2" points="114 83 122 83 122 87 114 87 114 83"/><path class="cls-4" d="M124,33l-2,50h-8l-2-50c0-4.42,1.58-8,6-8h.2c4.26.12,5.8,3.64,5.8,8"/><polyline class="cls-5" points="116 99 114 99 114 87 114 87 114 99 116 99"/><polyline class="cls-5" points="116 83 114 83 114 83 112 33 112 33 114 83 116 83 116 83"/><polyline class="cls-6" points="116 99 116 99 114 99 114 87 116 87 116 99"/><polyline class="cls-7" points="116 87 114 87 114 87 114 87 114 83 116 83 116 87 116 87"/><path class="cls-5" d="M112,32.5c.1-3.71,1.38-6.73,4.63-7.37h0c-3.25.64-4.53,3.66-4.63,7.37m5.74-7.5h0m.46,0h0"/><path class="cls-6" d="M116,83h-2l-2-50c0-.17,0-.34,0-.5.1-3.71,1.38-6.73,4.63-7.37a5,5,0,0,1,1.11.3c-2.71,1-3.75,4-3.75,7.57l2,50m2.86-57.87a7.67,7.67,0,0,0-1.11-.13h.46a6.37,6.37,0,0,1,.78.11l-.13,0"/><path class="cls-8" d="M121.5,83h0m-4.86-57.87-.14,0a6.7,6.7,0,0,1,.8-.11h.45a7.35,7.35,0,0,0-1.11.13"/><polyline class="cls-9" points="121.5 99 120 99 120 99 119.5 99 119.5 87 121.5 87 121.5 99"/><polyline class="cls-10" points="121.5 87 119.5 87 119.5 87 119.5 83 121.5 83 121.5 87 121.5 87"/><path class="cls-9" d="M121.5,83h-2l2-50c0-3.55-1-6.54-3.75-7.57a4.76,4.76,0,0,1,1.11-.3c3.39.67,4.64,3.94,4.64,7.87l-2,50"/><path class="cls-8" d="M116.64,25.13h0a7.35,7.35,0,0,1,1.11-.13h0a7.35,7.35,0,0,0-1.11.13"/><path class="cls-11" d="M117.75,25.43a5,5,0,0,0-1.11-.3,7.35,7.35,0,0,1,1.11-.13,7.67,7.67,0,0,1,1.11.13,4.76,4.76,0,0,0-1.11.3"/><polyline class="cls-8" points="120 101 120 101 120 99 120 99 120 101"/><polyline class="cls-10" points="120 101 116 101 116 99 119.5 99 120 99 120 101"/><polyline class="cls-9" points="119.5 99 116 99 116 99 119.5 99 119.5 99"/><polyline class="cls-12" points="120 99 120 99 119.5 99 119.5 99 120 99 120 99"/><polyline class="cls-4" points="4 1 102 1 102 127 4 127 4 1"/><polyline class="cls-13" points="86 121 10 121 10 7 96 7 96 111 86 121"/><polyline class="cls-2" points="72.29 1 33.63 1 39 9 67 9 72.29 1"/><polyline class="cls-3" points="41 9 39 9 33.63 1 35.63 1 41 9"/><polyline class="cls-10" points="66.92 9 64.92 9 70.29 1 72.29 1 66.92 9"/><polyline class="cls-5" points="86 121 84 121 84 109 96 109 96 111 86 121"/><polyline class="cls-14" points="6 127 4 127 4 1 6 1 6 127"/><polygon class="cls-5" points="10.09 6.83 12.11 6.83 12.11 121.17 10.09 121.17 10.09 6.83 10.09 6.83"/><polyline class="cls-15" points="95.52 7 93.5 7 93.5 6.83 95.52 6.83 95.52 7"/><polyline class="cls-16" points="96 109 93.5 109 93.5 7 95.52 7 96 109"/><polyline class="cls-17" points="102 127 100 127 102 127 102 1 102 1 102 127"/><polyline class="cls-18" points="102 127 100 127 100 1 102 1 102 127"/><polyline class="cls-18" points="97 122 85 122 97 110 97 122"/><path class="cls-15" d="M69.65,7H68.32L71,3h1.32L69.65,7m-32,0H36.31L33.63,3H35l2.69,4"/><polyline class="cls-16" points="67 11 39 11 36.31 7 37.66 7 39 9 67 9 68.32 7 69.65 7 67 11"/><polyline class="cls-19" points="67 9 70.97 3 70.97 3 68.32 7 67 9"/><path class="cls-20" d="M33,64a6,6,0,1,1-6-6,6,6,0,0,1,6,6Z"/><path class="cls-21" d="M33,37a6,6,0,1,1-6-6,6,6,0,0,1,6,6Z"/><path class="cls-21" d="M33,93a6,6,0,1,1-6-6,6,6,0,0,1,6,6Z"/><path class="cls-22" d="M66,10H38a1,1,0,0,1-.83-.45l-4-6a1,1,0,1,1,1.66-1.1L38.54,8H65.59l5.7-5.71a1,1,0,0,1,1.42,1.42l-6,6A1,1,0,0,1,66,10Z"/><path class="cls-22" d="M32,8H10a1,1,0,0,1,0-2H32a1,1,0,0,1,0,2Z"/><path class="cls-22" d="M96,8H72a1,1,0,0,1,0-2H96a1,1,0,0,1,0,2Z"/><path class="cls-22" d="M60,6H44a1,1,0,0,1,0-2H60a1,1,0,0,1,0,2Z"/><path class="cls-22" d="M92,110H84a1,1,0,0,1,0-2h8a1,1,0,0,1,0,2Z"/><path class="cls-22" d="M84,118a1,1,0,0,1-1-1v-8a1,1,0,0,1,2,0v8a1,1,0,0,1-1,1Z"/><path class="cls-22" d="M10,122a1,1,0,0,1-1-1V7a1,1,0,0,1,2,0V121a1,1,0,0,1-1,1Z"/><path class="cls-22" d="M96,112a1,1,0,0,1-1-1V7a1,1,0,0,1,2,0V111a1,1,0,0,1-1,1Z"/><path class="cls-22" d="M86,122a1,1,0,0,1-.71-.29,1,1,0,0,1,0-1.42l10-10a1,1,0,0,1,1.42,1.42l-10,10A1,1,0,0,1,86,122Z"/><path class="cls-22" d="M86,122H10a1,1,0,0,1,0-2H86a1,1,0,0,1,0,2Z"/><path class="cls-22" d="M102,128a1,1,0,0,1-1-1V1a1,1,0,0,1,2,0V127a1,1,0,0,1-1,1Z"/><path class="cls-22" d="M102,128H4a1,1,0,0,1,0-2h98a1,1,0,0,1,0,2Z"/><path class="cls-22" d="M4,128a1,1,0,0,1-1-1V1A1,1,0,0,1,5,1V127a1,1,0,0,1-1,1Z"/><path class="cls-22" d="M102,2H4A1,1,0,0,1,4,0h98a1,1,0,0,1,0,2Z"/><path class="cls-22" d="M118,114a1,1,0,0,1-.83-.44l-4-6a1,1,0,0,1-.12-.87l2-5.85V99a1,1,0,0,1,2,0v2a1.13,1.13,0,0,1,0,.32l-1.85,5.53,3.73,5.6a1,1,0,0,1-.28,1.38.94.94,0,0,1-.55.17Z"/><path class="cls-22" d="M118,114a1,1,0,0,1-.56-.17,1,1,0,0,1-.27-1.38l3.73-5.6-1.85-5.53a1.13,1.13,0,0,1,0-.32V99a1,1,0,0,1,2,0v1.84l2,5.85a1,1,0,0,1-.12.87l-4,6a1,1,0,0,1-.83.44Z"/><path class="cls-22" d="M122,84h-8a1,1,0,0,1,0-2h8a1,1,0,0,1,0,2Z"/><g class="cls-23"><path class="cls-22" d="M114,84a1,1,0,0,1-1-1l-2-50a1,1,0,0,1,1-1,1,1,0,0,1,1,1l2,50a1,1,0,0,1-1,1Z"/><path class="cls-22" d="M122,84h0a1,1,0,0,1-1-1l2-50a1.08,1.08,0,0,1,1-1,1,1,0,0,1,1,1l-2,50a1,1,0,0,1-1,1Z"/></g><path class="cls-22" d="M124,34a1,1,0,0,1-1-1c0-4.64-1.68-7-5-7s-5,2.36-5,7a1,1,0,0,1-2,0c0-5.72,2.55-9,7-9s7,3.28,7,9a1,1,0,0,1-1,1Z"/><path class="cls-22" d="M120,26h-4a1,1,0,0,1,0-2h4a1,1,0,0,1,0,2Z"/><path class="cls-22" d="M118,60a1,1,0,0,1-1-1V29a1,1,0,0,1,2,0V59a1,1,0,0,1-1,1Z"/><path class="cls-22" d="M122,88h-8a1,1,0,0,1,0-2h8a1,1,0,0,1,0,2Z"/><path class="cls-22" d="M122,88a1,1,0,0,1-1-1V83a1,1,0,0,1,2,0v4a1,1,0,0,1-1,1Z"/><path class="cls-22" d="M114,88a1,1,0,0,1-1-1V83a1,1,0,0,1,2,0v4a1,1,0,0,1-1,1Z"/><path class="cls-22" d="M122,100h-8a1,1,0,0,1,0-2h8a1,1,0,0,1,0,2Z"/><path class="cls-22" d="M122,100a1,1,0,0,1-1-1V87a1,1,0,0,1,2,0V99a1,1,0,0,1-1,1Z"/><path class="cls-22" d="M114,100a1,1,0,0,1-1-1V87a1,1,0,0,1,2,0V99a1,1,0,0,1-1,1Z"/><path class="cls-22" d="M26,40a1,1,0,0,1-.71-.29l-4-4a1,1,0,0,1,1.42-1.42l4,4a1,1,0,0,1,0,1.42A1,1,0,0,1,26,40Z"/><path class="cls-22" d="M26,40a1,1,0,0,1-.71-.29,1,1,0,0,1,0-1.42l8-8a1,1,0,0,1,1.42,1.42l-8,8A1,1,0,0,1,26,40Z"/><path class="cls-22" d="M84,30H44a1,1,0,0,1,0-2H84a1,1,0,0,1,0,2Z"/><path class="cls-22" d="M84,36H44a1,1,0,0,1,0-2H84a1,1,0,0,1,0,2Z"/><path class="cls-22" d="M64,42H44a1,1,0,0,1,0-2H64a1,1,0,0,1,0,2Z"/><path class="cls-22" d="M22,70a1,1,0,0,1-.71-.29,1,1,0,0,1,0-1.42l10-10a1,1,0,0,1,1.42,1.42l-10,10A1,1,0,0,1,22,70Z"/><path class="cls-22" d="M32,70a1,1,0,0,1-.71-.29l-10-10a1,1,0,0,1,1.42-1.42l10,10a1,1,0,0,1,0,1.42A1,1,0,0,1,32,70Z"/><path class="cls-22" d="M84,58H44a1,1,0,0,1,0-2H84a1,1,0,0,1,0,2Z"/><path class="cls-22" d="M84,64H44a1,1,0,0,1,0-2H84a1,1,0,0,1,0,2Z"/><path class="cls-22" d="M64,70H44a1,1,0,0,1,0-2H64a1,1,0,0,1,0,2Z"/><path class="cls-22" d="M26,96a1,1,0,0,1-.71-.29l-4-4a1,1,0,0,1,1.42-1.42l4,4a1,1,0,0,1,0,1.42A1,1,0,0,1,26,96Z"/><path class="cls-22" d="M26,96a1,1,0,0,1-.71-.29,1,1,0,0,1,0-1.42l8-8a1,1,0,1,1,1.42,1.42l-8,8A1,1,0,0,1,26,96Z"/><path class="cls-22" d="M84,86H44a1,1,0,0,1,0-2H84a1,1,0,0,1,0,2Z"/><path class="cls-22" d="M84,92H44a1,1,0,0,1,0-2H84a1,1,0,0,1,0,2Z"/><path class="cls-22" d="M64,98H44a1,1,0,0,1,0-2H64a1,1,0,0,1,0,2Z"/></svg>