<svg id="Layer_1" data-name="Layer 1" xmlns="http://www.w3.org/2000/svg" viewBox="0 0 128 128"><defs><style>.cls-1{fill:#c1c1c1;}.cls-2{fill:#a8a8a8;}.cls-3{fill:#eeeeef;}.cls-4{fill:#d9d9d9;}.cls-5,.cls-6{fill:none;stroke:#3d364a;stroke-width:2.5px;}.cls-5{stroke-linecap:round;stroke-linejoin:round;}.cls-6{stroke-miterlimit:10;}.cls-7{fill:#00a7cc;}.cls-8{fill:#f4b641;}.cls-9{fill:#0095c2;}</style></defs><title>atividade-fixacao</title><path class="cls-1" d="M95.73,113.7H106.6a1.56,1.56,0,0,0,1.56-1.55V3.43a1.56,1.56,0,0,0-1.56-1.56H31a1.56,1.56,0,0,0-1.56,1.56V14.3Z"/><path class="cls-2" d="M101.94,1.88V113.7h4.66a1.56,1.56,0,0,0,1.56-1.55V3.43a1.56,1.56,0,0,0-1.56-1.56h-4.66Z"/><path class="cls-3" d="M95.73,35v89.56a1.55,1.55,0,0,1-1.55,1.55H18.59A1.54,1.54,0,0,1,17,124.57V15.85a1.55,1.55,0,0,1,1.55-1.55H75Z"/><path class="cls-4" d="M76.52,35H95.73L75,14.3V33.51A1.5,1.5,0,0,0,76.52,35Z"/><path class="cls-5" d="M76.52,35H95.73L75,14.3V33.51A1.5,1.5,0,0,0,76.52,35Z"/><path class="cls-6" d="M95.73,113.7H106.6a1.56,1.56,0,0,0,1.56-1.55V3.43a1.56,1.56,0,0,0-1.56-1.56H31a1.56,1.56,0,0,0-1.56,1.56V14.3"/><path class="cls-5" d="M17,33.19V15.85a1.55,1.55,0,0,1,1.55-1.55H75L95.73,35v89.56a1.55,1.55,0,0,1-1.55,1.55H18.59A1.54,1.54,0,0,1,17,124.57v-83"/><line class="cls-5" x1="28.12" y1="48.33" x2="84.64" y2="48.33"/><rect class="cls-7" x="77.71" y="39.61" width="24.85" height="10.35" transform="translate(-5.27 76.85) rotate(-45)"/><path class="cls-8" d="M95.26,32.33a5.18,5.18,0,1,1,7.32,7.33Z"/><rect class="cls-5" x="77.71" y="39.61" width="24.85" height="10.35" transform="translate(-5.27 76.85) rotate(-45)"/><line class="cls-5" x1="28.12" y1="75.5" x2="84.64" y2="75.5"/><line class="cls-5" x1="28.12" y1="61.92" x2="84.64" y2="61.92"/><path class="cls-5" d="M95.26,32.33a5.18,5.18,0,1,1,7.32,7.33Z"/><path class="cls-9" d="M77.68,49.91,85,57.23l-29,29a1.51,1.51,0,0,1-.74.41l-6.67,1.54a1.55,1.55,0,0,1-1.86-1.86l1.54-6.66a1.5,1.5,0,0,1,.41-.75Z"/><path class="cls-5" d="M77.68,49.91,85,57.23l-29,29a1.51,1.51,0,0,1-.74.41l-9.09,2.1,2.1-9.08a1.5,1.5,0,0,1,.41-.75Z"/><line class="cls-5" x1="27.05" y1="113.7" x2="46.72" y2="113.7"/><line class="cls-5" x1="28.12" y1="97.13" x2="84.64" y2="97.13"/><rect class="cls-5" x="35.79" y="26.13" width="29.33" height="10.04"/><line class="cls-5" x1="47.11" y1="87.66" x2="41.7" y2="93.07"/><line class="cls-5" x1="100.25" y1="47.58" x2="97.45" y2="44.78"/><line class="cls-5" x1="90.13" y1="57.7" x2="102.58" y2="45.26"/><line class="cls-5" x1="89.33" y1="52.91" x2="92.12" y2="55.71"/></svg>