<svg id="Layer_1" data-name="Layer 1" xmlns="http://www.w3.org/2000/svg" viewBox="0 0 128 128"><defs><style>.cls-1{fill:#5f6d7a;}.cls-2{fill:#bfc6cf;}.cls-3{fill:#3c364b;}.cls-4,.cls-5{opacity:0.1;}.cls-5{fill:#fff;}</style></defs><title>audio</title><path class="cls-1" d="M87.27,51.14v4.32H40.73V51.14Z"/><path class="cls-2" d="M84.46,24.59V47H43.54V24.59a20.46,20.46,0,0,1,40.92,0Z"/><path class="cls-1" d="M95.72,123.12v.75H32.28v-.75a3.57,3.57,0,0,1,3.57-3.57h56.3A3.57,3.57,0,0,1,95.72,123.12Z"/><path class="cls-1" d="M69.93,55.46h0Z"/><path class="cls-1" d="M84.09,55.46h0Z"/><path class="cls-1" d="M87.27,59.59v7.22A23.31,23.31,0,0,1,70.91,89h0a23.26,23.26,0,0,1-6.91,1A23,23,0,0,1,57,89,23.31,23.31,0,0,1,40.73,66.81V59.59H69.82a2,2,0,0,0,1.87-1.21,1.9,1.9,0,0,0,.19-.86,2.06,2.06,0,0,0-1.95-2.06h8a2.07,2.07,0,0,0-2,2.06,2,2,0,0,0,.19.86,2.07,2.07,0,0,0,1.88,1.21Z"/><path class="cls-3" d="M103.42,48.42a2.07,2.07,0,0,0-2.07,2.07v.75H91.4V49.08A2.07,2.07,0,0,0,89.34,47h-.75V24.59a24.59,24.59,0,1,0-49.17,0V47h-.76a2.07,2.07,0,0,0-2.06,2.07v2.16h-10v-.75a2.07,2.07,0,1,0-4.13,0v5.63a2.07,2.07,0,0,0,4.13,0v-.75h1.5V66.81A35.89,35.89,0,0,0,61.94,102.6v12.82H35.85a7.72,7.72,0,0,0-7.7,7.7v2.82A2.07,2.07,0,0,0,30.22,128H97.78a2.06,2.06,0,0,0,2.07-2.06v-2.82a7.71,7.71,0,0,0-7.7-7.7H66.07V102.6A35.88,35.88,0,0,0,99.85,66.81V55.37h1.5v.75a2.07,2.07,0,0,0,4.13,0V50.49A2.07,2.07,0,0,0,103.42,48.42ZM43.54,24.59a20.46,20.46,0,0,1,40.92,0V47H43.54Zm-2.81,35H69.82a2,2,0,0,0,1.87-1.21,1.9,1.9,0,0,0,.19-.86,2.06,2.06,0,0,0-1.95-2.06H40.73V51.14H87.27v4.32H78a2.07,2.07,0,0,0-2,2.06,2,2,0,0,0,.19.86,2.07,2.07,0,0,0,1.88,1.21h9.19v7.22A23.31,23.31,0,0,1,70.91,89h0a23.26,23.26,0,0,1-6.91,1A23,23,0,0,1,57,89,23.31,23.31,0,0,1,40.73,66.81Zm51.42,60a3.57,3.57,0,0,1,3.57,3.57v.75H32.28v-.75a3.57,3.57,0,0,1,3.57-3.57Zm3.57-52.74a31.72,31.72,0,0,1-63.44,0V55.37H36.6V66.81a27.4,27.4,0,1,0,54.8,0V55.37h4.32Z"/><path class="cls-2" d="M84.46,24.59V47H43.54V24.59a20.46,20.46,0,0,1,40.92,0Z"/><path class="cls-1" d="M95.72,123.12v.75H32.28v-.75a3.57,3.57,0,0,1,3.57-3.57h56.3A3.57,3.57,0,0,1,95.72,123.12Z"/><path class="cls-1" d="M69.93,55.46h0Z"/><path class="cls-1" d="M84.09,55.46h0Z"/><rect class="cls-4" x="84.09" y="51.14" width="3.18" height="4.32"/><path class="cls-1" d="M87.27,59.59v7.22A23.31,23.31,0,0,1,70.91,89h0a23.26,23.26,0,0,1-6.91,1A23,23,0,0,1,57,89,23.31,23.31,0,0,1,40.73,66.81V59.59H69.82a2,2,0,0,0,1.87-1.21,1.9,1.9,0,0,0,.19-.86,2.06,2.06,0,0,0-1.95-2.06h8a2.07,2.07,0,0,0-2,2.06,2,2,0,0,0,.19.86,2.07,2.07,0,0,0,1.88,1.21Z"/><path class="cls-5" d="M36.69,119.55a5.62,5.62,0,0,0-1.28,3.57v.75H32.28v-.75a3.57,3.57,0,0,1,3.57-3.57Z"/><rect class="cls-5" x="40.73" y="51.14" width="3.13" height="4.32"/><path class="cls-5" d="M58.05,5A22.5,22.5,0,0,0,46.68,24.59V47H43.54V24.59A20.51,20.51,0,0,1,58.05,5Z"/><path class="cls-5" d="M57,89A23.31,23.31,0,0,1,40.73,66.81V59.59h3.13v7.22A25.36,25.36,0,0,0,57,89Z"/><path class="cls-4" d="M84.46,24.59V47H81.27V24.59A22.5,22.5,0,0,0,69.83,5,20.48,20.48,0,0,1,84.46,24.59Z"/><path class="cls-4" d="M87.27,59.59v7.22A23.31,23.31,0,0,1,70.91,89,25.36,25.36,0,0,0,84.09,66.81V59.59Z"/><path class="cls-4" d="M95.72,123.12v.75H92.54v-.75a5.63,5.63,0,0,0-1.29-3.57h.9A3.57,3.57,0,0,1,95.72,123.12Z"/><path class="cls-2" d="M71.69,58.38a1.9,1.9,0,0,0,.19-.86,2.06,2.06,0,0,0-1.95-2.06h8a2.07,2.07,0,0,0-2,2.06,2,2,0,0,0,.19.86,2.07,2.07,0,0,0,1.88,1.21H69.82A2,2,0,0,0,71.69,58.38Z"/><path class="cls-3" d="M78.08,55.46h0Zm-8.26,0h0Z"/><path class="cls-3" d="M52.74,35.68a2.14,2.14,0,1,0,2.13,2.14,2.14,2.14,0,0,0-2.13-2.14Z"/><path class="cls-3" d="M75.26,35.68a2.14,2.14,0,1,0,2.14,2.14,2.13,2.13,0,0,0-2.14-2.14Z"/><path class="cls-3" d="M52.74,24.28a2.14,2.14,0,1,0,2.13,2.14,2.14,2.14,0,0,0-2.13-2.14Z"/><path class="cls-3" d="M75.26,24.28a2.14,2.14,0,1,0,2.14,2.14,2.13,2.13,0,0,0-2.14-2.14Z"/><path class="cls-3" d="M53.16,13a2.14,2.14,0,1,0,2.14,2.14A2.13,2.13,0,0,0,53.16,13Z"/><path class="cls-3" d="M74.84,17.29a2.14,2.14,0,1,0-2.14-2.13,2.13,2.13,0,0,0,2.14,2.13Z"/><path class="cls-3" d="M64,35.68a2.14,2.14,0,1,0,2.14,2.14A2.13,2.13,0,0,0,64,35.68Z"/><path class="cls-3" d="M64,24.28a2.14,2.14,0,1,0,2.14,2.14A2.13,2.13,0,0,0,64,24.28Z"/><path class="cls-3" d="M64,13a2.14,2.14,0,1,0,2.14,2.14A2.13,2.13,0,0,0,64,13Z"/><path class="cls-4" d="M78.08,59.59H69.82a2,2,0,0,0,1.87-1.21H76.2A2.07,2.07,0,0,0,78.08,59.59Z"/></svg>