<svg id="Layer_1" data-name="Layer 1" xmlns="http://www.w3.org/2000/svg" viewBox="0 0 128 128"><defs><style>.cls-1{fill:#ccd1d9;}.cls-2{fill:#e6e9ed;}.cls-3{fill:#ed5564;}.cls-4{opacity:0.2;}.cls-5{fill:#3a3847;}.cls-6{fill:#fff;}.cls-7{fill:#ffce54;}.cls-8{fill:#fc6e51;}.cls-9{opacity:0.3;}.cls-10{opacity:0.5;}</style></defs><title>calendario-academico</title><rect class="cls-1" x="1" y="91" width="92" height="20"/><polygon class="cls-2" points="93 107 17 107 1 91 1 39 93 39 93 107"/><rect class="cls-3" x="1" y="21" width="92" height="18"/><path class="cls-2" d="M17,13a2,2,0,0,0-2,2V27a2,2,0,0,0,4,0V15A2,2,0,0,0,17,13Z"/><g class="cls-4"><path class="cls-5" d="M17,27a2,2,0,0,1-2-2v2a2,2,0,0,0,4,0V25A2,2,0,0,1,17,27Z"/></g><path class="cls-2" d="M37,13a2,2,0,0,0-2,2V27a2,2,0,0,0,4,0V15A2,2,0,0,0,37,13Z"/><path class="cls-2" d="M57,13a2,2,0,0,0-2,2V27a2,2,0,0,0,4,0V15A2,2,0,0,0,57,13Z"/><path class="cls-2" d="M77,13a2,2,0,0,0-2,2V27a2,2,0,0,0,4,0V15A2,2,0,0,0,77,13Z"/><g class="cls-4"><path class="cls-5" d="M37,27a2,2,0,0,1-2-2v2a2,2,0,0,0,4,0V25A2,2,0,0,1,37,27Z"/></g><g class="cls-4"><path class="cls-5" d="M57,27a2,2,0,0,1-2-2v2a2,2,0,0,0,4,0V25A2,2,0,0,1,57,27Z"/></g><g class="cls-4"><path class="cls-5" d="M77,27a2,2,0,0,1-2-2v2a2,2,0,0,0,4,0V25A2,2,0,0,1,77,27Z"/></g><path class="cls-6" d="M77,15a2,2,0,0,1,2,2V15a2,2,0,0,0-4,0v2A2,2,0,0,1,77,15Z"/><path class="cls-6" d="M57,15a2,2,0,0,1,2,2V15a2,2,0,0,0-4,0v2A2,2,0,0,1,57,15Z"/><path class="cls-6" d="M37,15a2,2,0,0,1,2,2V15a2,2,0,0,0-4,0v2A2,2,0,0,1,37,15Z"/><path class="cls-6" d="M17,15a2,2,0,0,1,2,2V15a2,2,0,0,0-4,0v2A2,2,0,0,1,17,15Z"/><polygon class="cls-6" points="17 107 17 91 1 91 17 107"/><rect class="cls-1" x="1" y="111" width="95" height="4"/><rect class="cls-7" x="43" y="45" width="8" height="8"/><rect class="cls-7" x="55" y="45" width="8" height="8"/><rect class="cls-7" x="67" y="45" width="8" height="8"/><rect class="cls-7" x="7" y="57" width="8" height="8"/><rect class="cls-7" x="19" y="57" width="8" height="8"/><rect class="cls-7" x="31" y="57" width="8" height="8"/><rect class="cls-7" x="43" y="57" width="8" height="8"/><rect class="cls-7" x="55" y="57" width="8" height="8"/><rect class="cls-7" x="67" y="57" width="8" height="8"/><rect class="cls-7" x="7.08" y="69" width="8" height="8"/><rect class="cls-7" x="7" y="81" width="8" height="8"/><rect class="cls-7" x="19" y="81" width="8" height="8"/><rect class="cls-7" x="31.08" y="81" width="8" height="8"/><rect class="cls-7" x="43.08" y="81" width="8" height="8"/><rect class="cls-7" x="55.08" y="81" width="8" height="8"/><rect class="cls-7" x="55.08" y="93" width="8" height="8"/><rect class="cls-7" x="43.08" y="93" width="8" height="8"/><rect class="cls-7" x="31" y="93" width="8" height="8"/><rect class="cls-7" x="19" y="93" width="8" height="8"/><rect class="cls-7" x="19.08" y="69" width="8" height="8"/><rect class="cls-7" x="31.08" y="69" width="8" height="8"/><g class="cls-4"><rect class="cls-5" x="91" y="21" width="2" height="18"/></g><g class="cls-4"><rect class="cls-5" x="1" y="39" width="87.75" height="2"/></g><rect class="cls-7" x="43.08" y="69" width="8" height="8"/><rect class="cls-7" x="55.08" y="69" width="8" height="8"/><path class="cls-8" d="M111,45s16,17.08,16,39a31,31,0,0,1-62,0c0-34,34-53,34-53s-4.58,11.4,0,16S111,45,111,45Z"/><g class="cls-4"><path class="cls-5" d="M111,45a19.36,19.36,0,0,1-2.48,1.78C112.51,51.68,123,66.25,123,84a31,31,0,0,1-29,30.9c.66,0,1.32.1,2,.1a31,31,0,0,0,31-31C127,62.08,111,45,111,45Z"/></g><g class="cls-9"><path class="cls-6" d="M69,84c0-25.74,19.46-42.87,28.93-49.68A34,34,0,0,1,99,31S65,50,65,84a31,31,0,0,0,31,31c.68,0,1.34-.06,2-.1A31,31,0,0,1,69,84Z"/></g><path class="cls-7" d="M123,84A27,27,0,1,1,96,57,27,27,0,0,1,123,84Z"/><g class="cls-4"><path class="cls-5" d="M73,84A27,27,0,0,1,98,57.1c-.66-.05-1.32-.1-2-.1a27,27,0,0,0,0,54c.68,0,1.34,0,2-.1A27,27,0,0,1,73,84Z"/></g><g class="cls-10"><path class="cls-6" d="M119,84a27,27,0,0,1-25,26.9c.66,0,1.32.1,2,.1a27,27,0,0,0,0-54c-.68,0-1.34,0-2,.1A27,27,0,0,1,119,84Z"/></g><g class="cls-4"><rect class="cls-5" x="1" y="89" width="18" height="2"/></g><g class="cls-4"><rect class="cls-5" x="17" y="91" width="2" height="16"/></g><g class="cls-9"><rect class="cls-6" x="1" y="21" width="2" height="18"/></g><rect class="cls-6" x="1" y="41" width="2" height="48"/><path class="cls-5" d="M69,108H17a1,1,0,0,1,0-2H69a1,1,0,0,1,0,2Z"/><path class="cls-5" d="M1,92a1,1,0,0,1-1-1V21a1,1,0,0,1,2,0V91A1,1,0,0,1,1,92Z"/><path class="cls-5" d="M11,22H1a1,1,0,0,1,0-2H11a1,1,0,0,1,0,2Z"/><path class="cls-5" d="M93,22H83a1,1,0,0,1,0-2H93a1,1,0,0,1,0,2Z"/><path class="cls-5" d="M93,30a1,1,0,0,1-1-1V21a1,1,0,0,1,2,0v8A1,1,0,0,1,93,30Z"/><path class="cls-5" d="M81,40H1a1,1,0,0,1,0-2H81a1,1,0,0,1,0,2Z"/><path class="cls-5" d="M51,54H43a1,1,0,0,1-1-1V45a1,1,0,0,1,1-1h8a1,1,0,0,1,1,1v8A1,1,0,0,1,51,54Zm-7-2h6V46H44Z"/><path class="cls-5" d="M63,54H55a1,1,0,0,1-1-1V45a1,1,0,0,1,1-1h8a1,1,0,0,1,1,1v8A1,1,0,0,1,63,54Zm-7-2h6V46H56Z"/><path class="cls-5" d="M67,54a1,1,0,0,1-1-1V45a1,1,0,0,1,1-1h8a1,1,0,0,1,0,2H68v7A1,1,0,0,1,67,54Z"/><path class="cls-5" d="M15,66H7a1,1,0,0,1-1-1V57a1,1,0,0,1,1-1h8a1,1,0,0,1,1,1v8A1,1,0,0,1,15,66ZM8,64h6V58H8Z"/><path class="cls-5" d="M27,66H19a1,1,0,0,1-1-1V57a1,1,0,0,1,1-1h8a1,1,0,0,1,1,1v8A1,1,0,0,1,27,66Zm-7-2h6V58H20Z"/><path class="cls-5" d="M39,66H31a1,1,0,0,1-1-1V57a1,1,0,0,1,1-1h8a1,1,0,0,1,1,1v8A1,1,0,0,1,39,66Zm-7-2h6V58H32Z"/><path class="cls-5" d="M51,66H43a1,1,0,0,1-1-1V57a1,1,0,0,1,1-1h8a1,1,0,0,1,1,1v8A1,1,0,0,1,51,66Zm-7-2h6V58H44Z"/><path class="cls-5" d="M63,66H55a1,1,0,0,1-1-1V57a1,1,0,0,1,1-1h8a1,1,0,0,1,1,1v8A1,1,0,0,1,63,66Zm-7-2h6V58H56Z"/><path class="cls-5" d="M67,60a1,1,0,0,1-1-1V57a1,1,0,0,1,2,0v2A1,1,0,0,1,67,60Z"/><path class="cls-5" d="M15,78H7a1,1,0,0,1-1-1V69a1,1,0,0,1,1-1h8a1,1,0,0,1,1,1v8A1,1,0,0,1,15,78ZM8,76h6V70H8Z"/><path class="cls-5" d="M27,78H19a1,1,0,0,1-1-1V69a1,1,0,0,1,1-1h8a1,1,0,0,1,1,1v8A1,1,0,0,1,27,78Zm-7-2h6V70H20Z"/><path class="cls-5" d="M39,78H31a1,1,0,0,1-1-1V69a1,1,0,0,1,1-1h8a1,1,0,0,1,1,1v8A1,1,0,0,1,39,78Zm-7-2h6V70H32Z"/><path class="cls-5" d="M51,78H43a1,1,0,0,1-1-1V69a1,1,0,0,1,1-1h8a1,1,0,0,1,1,1v8A1,1,0,0,1,51,78Zm-7-2h6V70H44Z"/><path class="cls-5" d="M55,78a1,1,0,0,1-1-1V69a1,1,0,0,1,1-1h8a1,1,0,0,1,0,2H56v7A1,1,0,0,1,55,78Z"/><path class="cls-5" d="M39,90H31a1,1,0,0,1-1-1V81a1,1,0,0,1,1-1h8a1,1,0,0,1,1,1v8A1,1,0,0,1,39,90Zm-7-2h6V82H32Z"/><path class="cls-5" d="M51,90H43a1,1,0,0,1-1-1V81a1,1,0,0,1,1-1h8a1,1,0,0,1,1,1v8A1,1,0,0,1,51,90Zm-7-2h6V82H44Z"/><path class="cls-5" d="M61,90H55a1,1,0,0,1-1-1V81a1,1,0,0,1,1-1h6a1,1,0,0,1,0,2H56v6h5a1,1,0,0,1,0,2Z"/><path class="cls-5" d="M39,102H31a1,1,0,0,1-1-1V93a1,1,0,0,1,1-1h8a1,1,0,0,1,1,1v8A1,1,0,0,1,39,102Zm-7-2h6V94H32Z"/><path class="cls-5" d="M51,102H43a1,1,0,0,1-1-1V93a1,1,0,0,1,1-1h8a1,1,0,0,1,1,1v8A1,1,0,0,1,51,102Zm-7-2h6V94H44Z"/><path class="cls-5" d="M63,102H55a1,1,0,0,1-1-1V93a1,1,0,0,1,2,0v7h7a1,1,0,0,1,0,2Z"/><path class="cls-5" d="M73,112H1a1,1,0,0,1,0-2H73a1,1,0,0,1,0,2Z"/><path class="cls-5" d="M79,116H1a1,1,0,0,1,0-2H79a1,1,0,0,1,0,2Z"/><path class="cls-5" d="M17,108a1,1,0,0,1-.71-.29l-16-16a1,1,0,0,1,1.42-1.42l16,16a1,1,0,0,1,0,1.42A1,1,0,0,1,17,108Z"/><path class="cls-5" d="M17,108a1,1,0,0,1-1-1V91a1,1,0,0,1,2,0v16A1,1,0,0,1,17,108Z"/><path class="cls-5" d="M17,92H1a1,1,0,0,1,0-2H17a1,1,0,0,1,0,2Z"/><path class="cls-5" d="M1,112a1,1,0,0,1-1-1V96.58a1,1,0,0,1,2,0V111A1,1,0,0,1,1,112Z"/><path class="cls-5" d="M15,82H7a1,1,0,0,1,0-2h8a1,1,0,0,1,0,2Z"/><path class="cls-5" d="M15,88a1,1,0,0,1-1-1V81a1,1,0,0,1,2,0v6A1,1,0,0,1,15,88Z"/><path class="cls-5" d="M7,88a1,1,0,0,1-1-1V81a1,1,0,0,1,2,0v6A1,1,0,0,1,7,88Z"/><path class="cls-5" d="M19,88a1,1,0,0,1-1-1V81a1,1,0,0,1,2,0v6A1,1,0,0,1,19,88Z"/><path class="cls-5" d="M27,82H19a1,1,0,0,1,0-2h8a1,1,0,0,1,0,2Z"/><path class="cls-5" d="M27,90a1,1,0,0,1-1-1V81a1,1,0,0,1,2,0v8A1,1,0,0,1,27,90Z"/><path class="cls-5" d="M27,90H21a1,1,0,0,1,0-2h6a1,1,0,0,1,0,2Z"/><path class="cls-5" d="M27,102a1,1,0,0,1-1-1V93a1,1,0,0,1,2,0v8A1,1,0,0,1,27,102Z"/><path class="cls-5" d="M27,102H21a1,1,0,0,1,0-2h6a1,1,0,0,1,0,2Z"/><path class="cls-5" d="M27,94H21a1,1,0,0,1,0-2h6a1,1,0,0,1,0,2Z"/><path class="cls-5" d="M14,36H8a1,1,0,0,1,0-2h6a1,1,0,0,1,0,2Z"/><path class="cls-5" d="M26,36H20a1,1,0,0,1,0-2h6a1,1,0,0,1,0,2Z"/><path class="cls-5" d="M38,36H32a1,1,0,0,1,0-2h6a1,1,0,0,1,0,2Z"/><path class="cls-5" d="M50,36H44a1,1,0,0,1,0-2h6a1,1,0,0,1,0,2Z"/><path class="cls-5" d="M62,36H56a1,1,0,0,1,0-2h6a1,1,0,0,1,0,2Z"/><path class="cls-5" d="M74,36H68a1,1,0,0,1,0-2h6a1,1,0,0,1,0,2Z"/><path class="cls-5" d="M86,36H80a1,1,0,0,1,0-2h6a1,1,0,0,1,0,2Z"/><path class="cls-5" d="M17,30a3,3,0,0,1-3-3V15a3,3,0,0,1,6,0V27A3,3,0,0,1,17,30Zm0-16a1,1,0,0,0-1,1V27a1,1,0,0,0,2,0V15A1,1,0,0,0,17,14Z"/><path class="cls-5" d="M37,30a3,3,0,0,1-3-3V15a3,3,0,0,1,6,0V27A3,3,0,0,1,37,30Zm0-16a1,1,0,0,0-1,1V27a1,1,0,0,0,2,0V15A1,1,0,0,0,37,14Z"/><path class="cls-5" d="M57,30a3,3,0,0,1-3-3V15a3,3,0,0,1,6,0V27A3,3,0,0,1,57,30Zm0-16a1,1,0,0,0-1,1V27a1,1,0,0,0,2,0V15A1,1,0,0,0,57,14Z"/><path class="cls-5" d="M77,30a3,3,0,0,1-3-3V15a3,3,0,0,1,6,0V27A3,3,0,0,1,77,30Zm0-16a1,1,0,0,0-1,1V27a1,1,0,0,0,2,0V15A1,1,0,0,0,77,14Z"/><path class="cls-5" d="M31,22H23a1,1,0,0,1,0-2h8a1,1,0,0,1,0,2Z"/><path class="cls-5" d="M51,22H43a1,1,0,0,1,0-2h8a1,1,0,0,1,0,2Z"/><path class="cls-5" d="M71,22H63a1,1,0,0,1,0-2h8a1,1,0,0,1,0,2Z"/><path class="cls-5" d="M96,116a1,1,0,0,1,0-2,30,30,0,0,0,30-30,1,1,0,0,1,2,0A32,32,0,0,1,96,116Z"/><path class="cls-5" d="M96,116A32,32,0,0,1,64,84a1,1,0,0,1,2,0,30,30,0,0,0,30,30,1,1,0,0,1,0,2Z"/><path class="cls-5" d="M127,85a1,1,0,0,1-1-1c0-18.84-12.2-34.22-15.12-37.62C108.73,48,102.61,52,98.29,47.71c-3.57-3.59-2.24-10.54-1.13-14.39C89.57,38.34,66,56.15,66,84a1,1,0,0,1-2,0c0-34.21,34.17-53.68,34.51-53.87a1,1,0,0,1,1.42,1.24c-.05.11-4.28,10.85-.22,14.92,3.88,3.87,10.56-2,10.63-2a1,1,0,0,1,1.39.07C112.39,45,128,61.94,128,84A1,1,0,0,1,127,85Z"/><path class="cls-5" d="M96.06,62a1,1,0,0,1-1-1,1,1,0,0,1,1-1h0a1,1,0,0,1,0,2Z"/><path class="cls-5" d="M96.06,108a1,1,0,0,1-1-1,1,1,0,0,1,1-1h0a1,1,0,0,1,0,2Z"/><path class="cls-5" d="M84.56,65.08a1,1,0,0,1-1-1,1,1,0,0,1,1-1h0a1,1,0,0,1,0,2Z"/><path class="cls-5" d="M107.56,104.92a1,1,0,0,1-1-1,1,1,0,0,1,1-1h0a1,1,0,0,1,0,2Z"/><path class="cls-5" d="M76.14,73.5a1,1,0,0,1-1-1,1,1,0,0,1,1-1h0a1,1,0,0,1,0,2Z"/><path class="cls-5" d="M116,96.5a1,1,0,0,1-1-1,1,1,0,0,1,1-1h0a1,1,0,1,1,0,2Z"/><path class="cls-5" d="M73.06,85a1,1,0,0,1-1-1,1,1,0,0,1,1-1h0a1,1,0,0,1,0,2Z"/><path class="cls-5" d="M119.06,85a1,1,0,0,1-1-1,1,1,0,0,1,1-1h0a1,1,0,0,1,0,2Z"/><path class="cls-5" d="M76.13,96.5a1,1,0,0,1-1-1,1,1,0,0,1,1-1h0a1,1,0,1,1,0,2Z"/><path class="cls-5" d="M116,73.5a1,1,0,0,1-1-1,1,1,0,0,1,1-1h0a1,1,0,0,1,0,2Z"/><path class="cls-5" d="M84.56,104.92a1,1,0,0,1-1-1,1,1,0,0,1,1-1h0a1,1,0,0,1,0,2Z"/><path class="cls-5" d="M107.56,65.08a1,1,0,0,1-1-1,1,1,0,0,1,1-1h0a1,1,0,0,1,0,2Z"/><path class="cls-5" d="M96,112a28,28,0,1,1,28-28A28,28,0,0,1,96,112Zm0-54a26,26,0,1,0,26,26A26,26,0,0,0,96,58Z"/><path class="cls-5" d="M96,85a1,1,0,0,1-1-1V67a1,1,0,0,1,2,0V84A1,1,0,0,1,96,85Z"/><path class="cls-5" d="M107,96a1,1,0,0,1-.71-.29l-11-11a1,1,0,0,1,1.42-1.42l11,11a1,1,0,0,1,0,1.42A1,1,0,0,1,107,96Z"/><path class="cls-5" d="M61,78H55a1,1,0,0,1,0-2h6a1,1,0,0,1,0,2Z"/><path class="cls-5" d="M75,48a1,1,0,0,1-1-1V45a1,1,0,0,1,2,0v2A1,1,0,0,1,75,48Z"/><path class="cls-5" d="M69,54H67a1,1,0,0,1,0-2h2a1,1,0,0,1,0,2Z"/><path class="cls-5" d="M63,102a1,1,0,0,1-1-1V97a1,1,0,0,1,2,0v4A1,1,0,0,1,63,102Z"/><path class="cls-5" d="M61,94H55a1,1,0,0,1,0-2h6a1,1,0,0,1,0,2Z"/></svg>