<svg id="Layer_1" data-name="Layer 1" xmlns="http://www.w3.org/2000/svg" xmlns:xlink="http://www.w3.org/1999/xlink" viewBox="0 0 128 128"><defs><style>.cls-1{fill:none;}.cls-2{fill:#f2bbb1;}.cls-3{fill:#c4c4c3;}.cls-4{fill:#bd9792;}.cls-5{fill:#fff;}.cls-6{fill:#f6cdc3;}.cls-7{fill:#d0b2ae;}.cls-8{fill:#a34d56;}.cls-9{fill:#853d45;}.cls-10{fill:#b56f73;}.cls-11{fill:#f04c63;}.cls-12{fill:#f37b8b;}.cls-13{fill:#d33f53;}.cls-14{fill:#dbdee3;}.cls-15{fill:#fdbe52;}.cls-16{fill:#ffd491;}.cls-17{fill:#afb4b8;}.cls-18{fill:#008fcf;}.cls-19{fill:#5fabdf;}.cls-20{fill:#0c7ab5;}.cls-21{fill:#5f6c79;}.cls-22{fill:#4f5662;}.cls-23{fill:#8a97a0;}.cls-24{fill:#7f8991;}.cls-25{fill:#e4e6e9;}.cls-26{fill:#c3c6c8;}.cls-27{fill:#cf9d43;}.cls-28{fill:#aaadae;}.cls-29{fill:#b83a4c;}.cls-30{fill:#3d364a;}.cls-31{clip-path:url(#clip-path);}</style><clipPath id="clip-path"><rect class="cls-1" y="6" width="128" height="116"/></clipPath></defs><title>chat-com-o-professor</title><path class="cls-2" d="M39,87.35c0,9.5-8.66,18.26-14,18.26S11,96.85,11,87.35v-2l0,0,4-6a30.18,30.18,0,0,0,10.06,2,28.91,28.91,0,0,0,9.94-2l4,6H39v2h0"/><path class="cls-3" d="M25,105.61h0c5.34,0,14-8.76,14-18.26h0v-2h0v2c0,9.5-8.66,18.26-14,18.26M39,85.33h0l-4-6h0l4,6M31.68,80.4h0a26.87,26.87,0,0,0,3.27-1,27.47,27.47,0,0,1-3.26,1.06"/><path class="cls-4" d="M25,105.61a6.46,6.46,0,0,0,2-.36,10.86,10.86,0,0,1-2-.91c4.81-2.75,10-9.64,10-17v-2H35L31.68,80.4a27.47,27.47,0,0,0,3.26-1.06h0l4,6H39v2h0c0,9.5-8.66,18.26-14,18.26"/><path class="cls-5" d="M11,85.31l4-6h0l-4,6m7.28-4.93a31,31,0,0,1-3-.95,31,31,0,0,0,3,.95h0"/><path class="cls-6" d="M24.76,105.6C19.42,105.33,11,96.69,11,87.35v-2l0,0,4-6,.27.1a31,31,0,0,0,3,.95L15,85.31l0,0v2c0,7.35,5.19,14.24,10,17a10.72,10.72,0,0,1-2,.91,6.8,6.8,0,0,0,1.74.35"/><path class="cls-7" d="M25,105.61h-.26a6.8,6.8,0,0,1-1.74-.35,10.72,10.72,0,0,0,2-.91,10.86,10.86,0,0,0,2,.91,6.46,6.46,0,0,1-2,.36h0"/><path class="cls-8" d="M32.83,72.75s8.1-1.14,6.06,11.94l-4-6a28.91,28.91,0,0,1-9.94,2,30.18,30.18,0,0,1-10.06-2l-4,6,0,0c-2.06-22,24-17.62,24-17.62-3.88,1.58-2.08,5.68-2.08,5.68"/><path class="cls-3" d="M38.89,84.69l-.21-.32.21.32a17.32,17.32,0,0,0-.15-7.62,17.32,17.32,0,0,1,.15,7.62m-.15-7.62h0m-5.55-4.34h0"/><path class="cls-9" d="M38.89,84.69l-.21-.32-1.51-2.26c.53-8.63-2.86-9.37-4-9.38h.12a5.51,5.51,0,0,1,5.43,4.33h0a17.32,17.32,0,0,1,.15,7.62"/><path class="cls-3" d="M32.83,72.75a2.4,2.4,0,0,1,.33,0h0a3,3,0,0,0-.36,0h0"/><polyline class="cls-5" points="10.89 84.69 10.89 84.69 10.89 84.69 10.91 84.67 12.8 81.83 12.8 81.84 10.91 84.67 10.89 84.69"/><path class="cls-10" d="M10.89,84.69h0c-1.47-15.73,11.45-18,18.93-18h1c-7.06.19-17.77,2.56-18,15.1l-1.89,2.84,0,0"/><path class="cls-11" d="M49.09,120.85h-48v-6.66c0-3.34,1.68-4.6,5-5.84,1.64-.62,4.58-1.72,7-2.88l2.34-2.32,5.7,5.7,4-2,4,2,5.68-5.68,2.28,2.28c2.44,1.18,5.36,2.28,7,2.9,3.34,1.24,5,2.5,5,5.84v6.66h0"/><path class="cls-5" d="M1.09,114.19h0c0-3.34,1.68-4.6,5-5.84,1.64-.62,4.58-1.72,7-2.88l2.34-2.32,2,2h0l-2-2-2.34,2.32c-2.42,1.16-5.36,2.26-7,2.88-3.32,1.24-5,2.5-5,5.84"/><path class="cls-12" d="M5.09,120.85h-4v-6.66c0-3.34,1.68-4.6,5-5.84,1.64-.62,4.58-1.72,7-2.88l2.34-2.32,2,2-.33.33c-2.42,1.16-5.36,2.26-7,2.88-3.32,1.24-5,2.5-5,5.84v6.66"/><path class="cls-3" d="M49.13,120.85h0v-6.66c0-3.34-1.66-4.6-5-5.84-1.58-.59-4.33-1.63-6.71-2.76,2.37,1.12,5.17,2.16,6.75,2.76,3.32,1.24,5,2.5,5,5.84v6.66m-12-15.38,0,0-2.28-2.28-2,2,0,0,2-2,2.34,2.32"/><path class="cls-13" d="M49.09,120.85h-4v-6.66c0-3.34-1.68-4.6-5-5.84-1.64-.62-4.58-1.72-7-2.88l-.31-.31,2-2,2.28,2.28,0,0h0l.25.12c2.38,1.13,5.13,2.17,6.71,2.76,3.34,1.24,5,2.5,5,5.84v6.66"/><polygon class="cls-14" points="21.03 109 15.03 103 17.03 101 25.06 105.27 25.06 107 21.03 109 21.03 109"/><polygon class="cls-14" points="29.03 109 35.03 103 33.03 101 25 105.27 25 107 29.03 109 29.03 109"/><path class="cls-15" d="M47,27V55H27l-6,4V55H19a4,4,0,0,1-4-4V31a4,4,0,0,1,4-4H47"/><path class="cls-5" d="M15,51.53A3.08,3.08,0,0,1,15,51V31a4,4,0,0,1,3.73-4A4,4,0,0,0,15,31V51a3.08,3.08,0,0,0,0,.53"/><path class="cls-16" d="M21,55H19a4,4,0,0,1-4-3.47A3.08,3.08,0,0,1,15,51V31a4,4,0,0,1,3.73-4H21a4,4,0,0,0-4,4V51a4,4,0,0,0,4,4"/><polyline class="cls-11" points="89 11 69 11 69 7 73 7 77 7 81 7 85 7 89 7 89 11"/><path class="cls-14" d="M111,19V55a4,4,0,0,1-4,4H97v4L85,59H51a4,4,0,0,1-4-4V19a4,4,0,0,1,4-4h56a4,4,0,0,1,4,4"/><path class="cls-14" d="M111,19V55a4,4,0,0,1-4,4H97v4L85,59H51a4,4,0,0,1-4-4V19a4,4,0,0,1,4-4h56a4,4,0,0,1,4,4"/><path class="cls-5" d="M49,55V19a4,4,0,0,1,4-4H51a4,4,0,0,0-4,4V55a4,4,0,0,0,4,4h2a4,4,0,0,1-4-4"/><path class="cls-3" d="M107,59h0a4,4,0,0,0,4-4V19h0V55a4,4,0,0,1-4,4"/><path class="cls-17" d="M107,59h-2a4,4,0,0,0,4-4V19a4,4,0,0,0-4-4h2a4,4,0,0,1,4,4V55a4,4,0,0,1-4,4"/><path class="cls-18" d="M127,120.85H79v-6.66c0-3.34,1.68-4.6,5-5.84,1.64-.62,4.58-1.72,7-2.88l2.34-2.32,5.7,5.7,4-2,4,2,5.68-5.68,2.28,2.28c2.44,1.18,5.36,2.28,7,2.9,3.34,1.24,5,2.5,5,5.84v6.66h0"/><path class="cls-5" d="M79,120.85h0v-6.66c0-3.34,1.68-4.6,5-5.84,1.64-.62,4.58-1.72,7-2.88l2.29-2.27h0L91,105.47c-2.42,1.16-5.36,2.26-7,2.88-3.32,1.24-5,2.5-5,5.84v6.66"/><path class="cls-19" d="M83,120.85H79v-6.66c0-3.34,1.68-4.6,5-5.84,1.64-.62,4.58-1.72,7-2.88l2.29-2.27,2,2-.28.27c-2.42,1.16-5.36,2.26-7,2.88-3.32,1.24-5,2.5-5,5.84v6.66"/><path class="cls-3" d="M127,120.85h0v-6.66c0-3.34-1.66-4.6-5-5.84-1.54-.58-4.22-1.59-6.56-2.69,2.34,1.09,5,2.1,6.6,2.69,3.32,1.24,5,2.5,5,5.84v6.66m-12-15.38,0,0-2.18-2.18h0l2.22,2.2"/><path class="cls-20" d="M127,120.85h-4v-6.66c0-3.34-1.68-4.6-5-5.84-1.64-.62-4.58-1.72-7-2.88l-.22-.21,2-2,2.18,2.18,0,0h0l.4.19c2.34,1.1,5,2.11,6.56,2.69,3.34,1.24,5,2.5,5,5.84v6.66"/><polygon class="cls-11" points="105.06 121 101.06 121 102.06 109.99 104.06 109.99 105.06 121 105.06 121"/><polygon class="cls-11" points="101.21 107.27 104.78 107.27 104.78 109.99 101.21 109.99 101.21 107.27 101.21 107.27"/><polyline class="cls-14" points="99.06 109 93.06 103 95.06 101 103.09 105.27 103.09 107 99.06 109"/><polyline class="cls-14" points="107.06 109 113.06 103 111.06 101 103.03 105.27 103.03 107 107.06 109"/><path class="cls-21" d="M91,69s28-10,26.06,16l-4.22-6c-8.72-.52-18.48,3.38-23.82,5.92-2.5,1.2-4,2.08-4,2.08,0-12.5,8.16-16,8.16-16L91,69"/><path class="cls-22" d="M117.06,85l-.58-.83-1.34-1.89C115.05,71,108.53,67.69,102,67.19c.33,0,.66,0,1-.06h-.9c-.34,0-.67,0-1,0H101l1.11,0c7.57,0,16,3.2,14.94,17.89"/><path class="cls-5" d="M85,87h0m0,0s.75-.43,2-1.1h0c-1.29.66-2,1.1-2,1.1"/><path class="cls-23" d="M85,87c0-12.5,8.16-16,8.16-16L91,69a37.76,37.76,0,0,1,10.1-1.86c.31,0,.61,0,.92,0A37.84,37.84,0,0,0,93,69l2.31,2.47s-7.79,2.84-8.26,14.43c-1.3.67-2,1.1-2,1.1h0"/><path class="cls-24" d="M102,67.19c-.31,0-.61,0-.92,0,.34,0,.67,0,1,0h.9c-.33,0-.66,0-1,.06"/><path class="cls-2" d="M117.06,85v2c0,9.5-8.66,18.26-14,18.26s-14-8.76-14-18.26V85l0-.08c5.34-2.54,15.1-6.44,23.82-5.92l4.22,6"/><path class="cls-3" d="M110.71,101.19c3.47-3.45,6.35-8.69,6.35-14.17v0c0,5.48-2.88,10.72-6.35,14.17h0"/><path class="cls-17" d="M103,105.28h0"/><path class="cls-17" d="M103.06,105.28h0c2.26,0,5.11-1.57,7.65-4.09h0c-2.54,2.52-5.39,4.09-7.65,4.09"/><path class="cls-22" d="M112.84,79h0"/><path class="cls-4" d="M103.06,105.28h0a6.46,6.46,0,0,0,2-.36,11.25,11.25,0,0,1-2-.9c4.82-2.75,10-9.65,10-17V85l-3.85-5.47c1.22-.21,2.45-.37,3.68-.46l0-.07h0l4.22,6v2c0,5.48-2.88,10.72-6.35,14.17-2.54,2.52-5.39,4.09-7.65,4.09"/><path class="cls-5" d="M95.42,101.19h0C92,97.74,89.06,92.5,89.06,87V85l0-.08h0l.08,0-.08,0,0,.08v2c0,5.48,2.89,10.72,6.36,14.17"/><path class="cls-25" d="M102.9,105.28c-2.22-.07-5-1.62-7.48-4.09h0c2.48,2.47,5.25,4,7.48,4.09h0"/><path class="cls-5" d="M89.11,84.88c4.87-2.31,13.31-5.7,21.32-5.92-8,.22-16.45,3.61-21.32,5.92"/><path class="cls-23" d="M89,84.92h0c5-2.39,13.92-6,22.21-6h-.8c-8,.22-16.45,3.61-21.32,5.92h0l-.08,0h0"/><path class="cls-6" d="M102.9,105.28c-2.23-.08-5-1.62-7.48-4.09C92,97.74,89.06,92.5,89.06,87V85l0-.08.08,0h0c4.87-2.31,13.31-5.7,21.32-5.92h.8c.5,0,1,0,1.5,0l-1.25,0c-.86,0-1.72,0-2.59.11l.32.46A65.45,65.45,0,0,0,93,84.92l0,.08v2c0,7.35,5.19,14.25,10,17a11.25,11.25,0,0,1-2,.9,6.72,6.72,0,0,0,1.84.36"/><path class="cls-26" d="M103,105.28h0"/><path class="cls-7" d="M103.06,105.28h-.16a6.72,6.72,0,0,1-1.84-.36,11.25,11.25,0,0,0,2-.9,11.25,11.25,0,0,0,2,.9,6.46,6.46,0,0,1-2,.36m6.15-25.75-.32-.46c.87-.07,1.73-.11,2.59-.11l1.25,0h.11l0,.07c-1.23.09-2.46.25-3.68.46"/><polyline class="cls-3" points="47 55 47 55 47 27 43 27 43 27 47 27 47 27 47 55"/><polyline class="cls-27" points="47 55 43 55 43 27 47 27 47 55"/><polyline class="cls-3" points="47 55 47 55 47 27 47 27 47 27 47 55"/><polyline class="cls-5" points="71 11 69 11 69 11 71 11 71 11"/><polyline class="cls-12" points="71 11 69 11 69 7 71 7 71 11"/><polyline class="cls-28" points="89 11 87 11 87 11 89 11 89 7 89 7 89 11"/><polyline class="cls-29" points="89 11 87 11 87 7 89 7 89 11"/><path class="cls-30" d="M25,122H1a1,1,0,0,1-1-1v-6.66c0-3.91,2.07-5.45,5.65-6.78l.22-.08c1.66-.63,4.43-1.67,6.7-2.76a1,1,0,1,1,.86,1.8c-2.35,1.13-5.17,2.19-6.85,2.83l-.23.09C3,110.69,2,111.79,2,114.34V120H25a1,1,0,0,1,0,2Z"/><path class="cls-30" d="M49,122H25a1,1,0,0,1,0-2H48v-5.66c0-2.55-1-3.65-4.35-4.9l-.21-.08c-1.69-.64-4.52-1.71-6.88-2.86a1,1,0,1,1,.88-1.8c2.28,1.11,5.05,2.16,6.7,2.78l.21.08c3.58,1.33,5.65,2.87,5.65,6.78V121a1,1,0,0,1-1,1Z"/><path class="cls-30" d="M25.06,106.28c-5.65,0-15-9-15-19.26a1,1,0,0,1,2,0c0,8.9,8.11,17.26,13,17.26s13-8.36,13-17.26a1,1,0,0,1,2,0c0,10.26-9.35,19.26-15,19.26Z"/><path class="cls-30" d="M35,78a1,1,0,0,1,.83.45l2.47,3.7c.15-3-.36-5.26-1.52-6.61A4.36,4.36,0,0,0,33.42,74h-.35A1,1,0,0,1,32,73.44a6.19,6.19,0,0,1,.39-5.67c-.57,0-1.22-.06-1.93-.06-4.81,0-11.37.91-15.29,5.2a13.62,13.62,0,0,0-3.28,9l2.27-3.42a1,1,0,0,1,1.21-.38A29.18,29.18,0,0,0,25.06,80a28.1,28.1,0,0,0,9.55-1.92A1.09,1.09,0,0,1,35,78Zm4,8a1,1,0,0,1-.83-.45l-3.56-5.33A29.43,29.43,0,0,1,25.06,82a30.33,30.33,0,0,1-9.67-1.79l-3.54,5.33a2.09,2.09,0,0,1-.14.17A1,1,0,0,1,10,85.09c-.53-5.69.72-10.24,3.71-13.52,4.4-4.84,11.54-5.85,16.76-5.85a34.84,34.84,0,0,1,4.68.29,1,1,0,0,1,.23,1.92c-2.19.9-2,3-1.72,4.11a6.41,6.41,0,0,1,4.64,2.19c1.9,2.23,2.47,5.9,1.69,10.92a1,1,0,0,1-.78.83L39,86Z"/><path class="cls-30" d="M39.06,88a1,1,0,0,1-1-1V85a1,1,0,0,1,2,0v2a1,1,0,0,1-1,1Z"/><path class="cls-30" d="M11.06,88a1,1,0,0,1-1-1V85a1,1,0,0,1,2,0v2a1,1,0,0,1-1,1Z"/><path class="cls-30" d="M21,110a1,1,0,0,1-.71-.29l-6-6a1,1,0,1,1,1.42-1.42l5.49,5.5,3.33-1.65a1,1,0,0,1,1.2,1.57,1.19,1.19,0,0,1-.29.21l-4,2a1.13,1.13,0,0,1-.44.1Z"/><path class="cls-30" d="M29,110a1.13,1.13,0,0,1-.44-.1l-4-2a1,1,0,0,1-.48-1.35,1,1,0,0,1,1.32-.47l3.4,1.69,5.49-5.5a1,1,0,1,1,1.42,1.42l-6,6A1,1,0,0,1,29,110Z"/><g class="cls-31"><path class="cls-30" d="M103,122H79a1,1,0,0,1-1-1v-6.66c0-3.91,2.07-5.45,5.65-6.78l.21-.08c1.65-.62,4.43-1.67,6.71-2.76a1,1,0,0,1,.86,1.8c-2.36,1.13-5.18,2.2-6.87,2.84l-.21.08C81,110.69,80,111.79,80,114.34V120h23a1,1,0,0,1,0,2Z"/><path class="cls-30" d="M127,122H103a1,1,0,0,1,0-2h23v-5.66c0-2.55-1-3.65-4.35-4.9l-.2-.08c-1.69-.64-4.52-1.71-6.89-2.86a1,1,0,0,1,.88-1.8c2.28,1.12,5.06,2.16,6.72,2.79l.19.07c3.58,1.33,5.65,2.87,5.65,6.78V121a1,1,0,0,1-1,1Z"/></g><path class="cls-30" d="M103.06,106.28c-5.65,0-15-9-15-19.26a1,1,0,1,1,2,0c0,8.9,8.11,17.26,13,17.26s13-8.36,13-17.26a1,1,0,1,1,2,0c0,10.26-9.35,19.26-15,19.26Z"/><path class="cls-30" d="M117.06,88a1,1,0,0,1-1-1V85a1,1,0,0,1,2,0v2a1,1,0,0,1-1,1Z"/><path class="cls-30" d="M89.06,88a1,1,0,0,1-1-1V85a1,1,0,0,1,2,0v2a1,1,0,0,1-1,1Z"/><path class="cls-30" d="M99,110a1,1,0,0,1-.71-.29l-6-6a1,1,0,1,1,1.42-1.42l5.49,5.5,3.33-1.65a1,1,0,0,1,1.22.2,1,1,0,0,1-.06,1.4,1.14,1.14,0,0,1-.25.18l-4,2a1.13,1.13,0,0,1-.44.1Z"/><path class="cls-30" d="M107,110a1.13,1.13,0,0,1-.44-.1l-4-2,.85-1.81,3.39,1.68,5.49-5.5a1,1,0,0,1,1.42,1.42l-6,6a1,1,0,0,1-.71.29Z"/><path class="cls-30" d="M93,69.45l.88.82a1,1,0,0,1,.31.9,1,1,0,0,1-.6.75c-.28.13-6.83,3.12-7.5,13.37.67-.35,1.52-.78,2.54-1.27,5.07-2.42,15.29-6.56,24.31-6a1,1,0,0,1,.76.43L116.15,82c-.08-4.38-1.2-7.75-3.34-10-2.34-2.53-5.94-3.81-10.69-3.81A35.4,35.4,0,0,0,93,69.45ZM85,88a1,1,0,0,1-.5-.13A1,1,0,0,1,84,87c0-10.07,5-14.59,7.48-16.2l-1.16-1.07a1,1,0,0,1-.3-.93,1,1,0,0,1,.64-.74,38.08,38.08,0,0,1,11.46-2c5.33,0,9.42,1.5,12.16,4.45,3,3.22,4.26,8.1,3.78,14.51a1,1,0,0,1-.73.9,1,1,0,0,1-1.09-.4L112.3,80c-8.46-.33-18,3.57-22.85,5.85-2.43,1.17-3.93,2-4,2.05A1,1,0,0,1,85,88Z"/><path class="cls-30" d="M103,112a1,1,0,0,1-.71-.29l-2-2a1,1,0,0,1,1.42-1.42l2,2a1,1,0,0,1,0,1.42,1,1,0,0,1-.71.29Z"/><path class="cls-30" d="M103,112a1,1,0,0,1-.71-.29,1,1,0,0,1,0-1.42l2-2a1,1,0,0,1,1.42,1.42l-2,2a1,1,0,0,1-.71.29Z"/><path class="cls-30" d="M101,120h-.11a1,1,0,0,1-.88-1.1l1-9a1,1,0,0,1,1.1-.88,1,1,0,0,1,.88,1.1l-1,9a1,1,0,0,1-1,.89Z"/><path class="cls-30" d="M105,120a1,1,0,0,1-1-.89l-1-9a1,1,0,0,1,.88-1.1,1,1,0,0,1,1.1.88l1,9a1,1,0,0,1-.88,1.1Z"/><path class="cls-30" d="M51,16a3,3,0,0,0-3,3V55a3,3,0,0,0,3,3H85a1.19,1.19,0,0,1,.32,0L96,61.61V59a1,1,0,0,1,1-1h10a3,3,0,0,0,3-3V19a3,3,0,0,0-3-3ZM97,64a1.19,1.19,0,0,1-.32,0L84.84,60H51a5,5,0,0,1-5-5V19a5,5,0,0,1,5-5h56a5,5,0,0,1,5,5V55a5,5,0,0,1-5,5H98v3a1,1,0,0,1-.42.81A.94.94,0,0,1,97,64Z"/><path class="cls-30" d="M97,28H59a1,1,0,0,1,0-2H97a1,1,0,0,1,0,2Z"/><path class="cls-30" d="M97,38H59a1,1,0,0,1,0-2H97a1,1,0,0,1,0,2Z"/><path class="cls-30" d="M79,48H59a1,1,0,0,1,0-2H79a1,1,0,0,1,0,2Z"/><path class="cls-30" d="M70,10H88V8H70v2Zm19,2H69a1,1,0,0,1-1-1V7a1,1,0,0,1,1-1H89a1,1,0,0,1,1,1v4a1,1,0,0,1-1,1Z"/><path class="cls-30" d="M69,14a1,1,0,0,1-1-1V11a1,1,0,0,1,2,0v2a1,1,0,0,1-1,1Z"/><path class="cls-30" d="M89,14a1,1,0,0,1-1-1V11a1,1,0,0,1,2,0v2a1,1,0,0,1-1,1Z"/><path class="cls-30" d="M61,15H55a1,1,0,0,1,0-2h6a1,1,0,0,1,0,2Z"/><path class="cls-30" d="M103,15H97a1,1,0,0,1,0-2h6a1,1,0,0,1,0,2Z"/><path class="cls-30" d="M73,9a1,1,0,0,1-1-1V7a1,1,0,0,1,2,0V8a1,1,0,0,1-1,1Z"/><path class="cls-30" d="M77,9a1,1,0,0,1-1-1V7a1,1,0,0,1,2,0V8a1,1,0,0,1-1,1Z"/><path class="cls-30" d="M81,9a1,1,0,0,1-1-1V7a1,1,0,0,1,2,0V8a1,1,0,0,1-1,1Z"/><path class="cls-30" d="M85,9a1,1,0,0,1-1-1V7a1,1,0,0,1,2,0V8a1,1,0,0,1-1,1Z"/><path class="cls-30" d="M21,60a1,1,0,0,1-.47-.12A1,1,0,0,1,20,59V56H19a5,5,0,0,1-5-5V31a5,5,0,0,1,5-5H43a1,1,0,0,1,0,2H19a3,3,0,0,0-3,3V51a3,3,0,0,0,3,3h2a1,1,0,0,1,1,1v2.13l4.45-3A1,1,0,0,1,27,54H43a1,1,0,0,1,0,2H27.3l-5.75,3.83A1,1,0,0,1,21,60Z"/><path class="cls-30" d="M43,38H25a1,1,0,0,1,0-2H43a1,1,0,0,1,0,2Z"/><path class="cls-30" d="M43,46H25a1,1,0,0,1,0-2H43a1,1,0,0,1,0,2Z"/></svg>