<svg id="Layer_1" data-name="Layer 1" xmlns="http://www.w3.org/2000/svg" viewBox="0 0 128 128"><defs><style>.cls-1{fill:#656d78;}.cls-2{opacity:0.2;}.cls-3{fill:#fff;}.cls-4{fill:#7f4545;}.cls-5{fill:#965353;}.cls-6{fill:#e6e9ed;}.cls-7{fill:#eac6bb;}.cls-8{opacity:0.3;}.cls-9{fill:#5d9cec;}.cls-10{fill:#ed5564;}.cls-11{fill:#ffce54;}.cls-12{fill:#3a3847;}</style></defs><title>chat-atendimento-tutor-presencial</title><path class="cls-1" d="M87,45.76c0-.26,0-.51,0-.77a24,24,0,1,0-48,0V69H87V45.76Z"/><g class="cls-2"><path class="cls-3" d="M65,21.08c-.66-.06-1.32-.1-2-.1A24,24,0,0,0,39,45V69h4V45A24,24,0,0,1,65,21.08Z"/><path class="cls-3" d="M63,69h0Z"/></g><g class="cls-2"><path d="M61.11,21.08c.66-.06,1.32-.1,2-.1a24,24,0,0,1,24,24V69h-4V45A24,24,0,0,0,61.11,21.08Z"/><path d="M63.11,69h0Z"/></g><rect class="cls-1" x="97" y="46.99" width="28" height="20"/><rect class="cls-4" x="17" y="78.99" width="94" height="36"/><rect class="cls-5" x="1" y="70.99" width="126" height="8"/><polygon class="cls-6" points="63.02 53.01 59.02 54.99 53.02 48.99 54.8 46.55 63.02 53.01"/><polygon class="cls-6" points="63.1 53.01 67.1 54.99 73.1 48.99 71.32 46.55 63.1 53.01"/><path class="cls-1" d="M70.92,19.05S79,17.91,77,31l-4-6A28.91,28.91,0,0,1,63,27,30.18,30.18,0,0,1,53,25l-4,6,0,0C46.92,9,73,13.37,73,13.37,69.12,15,70.92,19.05,70.92,19.05Z"/><g class="cls-2"><path d="M70.92,19.05s5-1,4.34,9.35L77,31C79,17.91,70.92,19.05,70.92,19.05Z"/></g><g class="cls-2"><path class="cls-3" d="M68.93,13c-7.25-.19-21.49,1.49-20,18l0,0,1.89-2.84C51.16,15.59,61.87,13.21,68.93,13Z"/></g><path class="cls-7" d="M77,33c0,9.5-8.66,18.26-14,18.26S49,42.51,49,33V31l0,0,4-6A30.18,30.18,0,0,0,63,27,28.91,28.91,0,0,0,73,25l4,6H77v2Z"/><g class="cls-2"><path d="M77,31l-4-6a28.53,28.53,0,0,1-3.29,1.06L73,31H73v2c0,8.38-6.74,16.18-12,17.9a6.46,6.46,0,0,0,2,.36c5.34,0,14-8.76,14-18.26V31Z"/></g><g class="cls-8"><path class="cls-3" d="M53,33V31l0,0L56.28,26A30.69,30.69,0,0,1,53,25l-4,6,0,0v2c0,9.5,8.68,18.26,14,18.26a6.57,6.57,0,0,0,2-.36C59.8,49.19,53,41.39,53,33Z"/></g><path class="cls-9" d="M87,71H39V60.33c0-3.34,1.68-4.6,5-5.84,1.64-.62,4.58-1.72,7-2.88l2.34-2.32L59,55l4-2,4,2,5.68-5.68L75,51.59c2.44,1.18,5.36,2.28,7,2.9,3.34,1.24,5,2.5,5,5.84V71Z"/><g class="cls-8"><path class="cls-3" d="M43,60.33c0-3.34,1.68-4.6,5-5.84,1.64-.62,4.58-1.72,7-2.88l.33-.33-2-2L51,51.61c-2.42,1.16-5.36,2.26-7,2.88-3.32,1.24-5,2.5-5,5.84V71h4V60.33Z"/></g><g class="cls-2"><path d="M83,60.33c0-3.34-1.68-4.6-5-5.84-1.64-.62-4.58-1.72-7-2.88l-.33-.33,2-2L75,51.61c2.42,1.16,5.37,2.26,7,2.88,3.32,1.24,5,2.5,5,5.84V71H83V60.33Z"/></g><polygon class="cls-10" points="65.1 70.98 61.1 70.98 62.1 55.99 64.1 55.99 65.1 70.98"/><rect class="cls-10" x="61.25" y="53.27" width="3.56" height="2.72"/><rect class="cls-5" x="5" y="78.99" width="12" height="36"/><rect class="cls-5" x="111" y="78.99" width="12" height="36"/><rect class="cls-5" x="23" y="84.99" width="80" height="26"/><g class="cls-8"><rect class="cls-3" x="5" y="80.99" width="2" height="34"/></g><g class="cls-8"><rect class="cls-3" x="23" y="84.99" width="2" height="26"/></g><g class="cls-2"><rect x="101" y="84.99" width="2" height="26"/></g><g class="cls-2"><rect x="109" y="80.99" width="2" height="34"/></g><g class="cls-2"><rect x="121" y="80.99" width="2" height="34"/></g><g class="cls-2"><rect x="17" y="80.99" width="2" height="34"/></g><g class="cls-8"><rect class="cls-3" x="111" y="80.99" width="2" height="34"/></g><g class="cls-2"><rect x="15" y="80.99" width="2" height="34"/></g><g class="cls-2"><rect x="5" y="78.99" width="118" height="2"/></g><path class="cls-11" d="M113,57a2,2,0,1,1-2-2A2,2,0,0,1,113,57Z"/><path class="cls-6" d="M29,59H1v8H29s-2-2-2-4S29,59,29,59Z"/><path class="cls-6" d="M5,55H25V51H5a2,2,0,0,1,0,4Z"/><g class="cls-2"><rect x="1" y="58.99" width="2" height="8"/></g><g class="cls-2"><rect x="23" y="50.99" width="2" height="4"/></g><path class="cls-12" d="M39,70a1,1,0,0,1-1-1V60.33c0-3.9,2.07-5.44,5.65-6.78,1.2-.45,4.38-1.63,6.92-2.85a1,1,0,0,1,1.33.47,1,1,0,0,1-.47,1.34c-2.35,1.12-5.16,2.2-7.08,2.92C40.94,56.7,40,57.76,40,60.33V69A1,1,0,0,1,39,70Z"/><path class="cls-12" d="M87,70a1,1,0,0,1-1-1V60.33c0-2.57-.94-3.63-4.35-4.9-1.92-.72-4.74-1.8-7.09-2.93a1,1,0,1,1,.87-1.8c2.28,1.09,5,2.15,6.92,2.85C85.93,54.89,88,56.43,88,60.33V69A1,1,0,0,1,87,70Z"/><path class="cls-12" d="M63.06,52.26c-5.65,0-15-9-15-19.24a1,1,0,0,1,2,0c0,8.89,8.11,17.24,13,17.24s13-8.35,13-17.24a1,1,0,0,1,2,0C78.06,43.27,68.71,52.26,63.06,52.26Z"/><path class="cls-12" d="M49,32a1,1,0,0,1-1-.91c-.53-5.65.7-10.15,3.64-13.38C55.92,13,62.86,12,67.93,12a33.84,33.84,0,0,1,5.25.37,1,1,0,0,1,.22,1.91,2.84,2.84,0,0,0-1.68,1.52A3.76,3.76,0,0,0,71.66,18a6.42,6.42,0,0,1,4.64,2.2c1.9,2.22,2.47,5.89,1.69,10.91a1,1,0,0,1-1.82.4l-3.56-5.33A29.43,29.43,0,0,1,63.06,28a30.33,30.33,0,0,1-9.67-1.79l-3.56,5.34A1,1,0,0,1,49,32Zm24-8a1,1,0,0,1,.83.44l2.47,3.71c.15-3-.36-5.26-1.52-6.61A4.36,4.36,0,0,0,71.42,20h-.35a1,1,0,0,1-1-.59,6.22,6.22,0,0,1-.15-4.38,4.23,4.23,0,0,1,.54-1c-.71,0-1.55-.08-2.48-.08-4.66,0-11,.87-14.81,5a13.35,13.35,0,0,0-3.22,8.8l2.27-3.41a1,1,0,0,1,1.21-.37A29.26,29.26,0,0,0,63.06,26a28.1,28.1,0,0,0,9.55-1.92A1.09,1.09,0,0,1,73,24Z"/><path class="cls-12" d="M77.06,34a1,1,0,0,1-1-1V31a1,1,0,1,1,2,0v2A1,1,0,0,1,77.06,34Z"/><path class="cls-12" d="M49.06,34a1,1,0,0,1-1-1V31a1,1,0,1,1,2,0v2A1,1,0,0,1,49.06,34Z"/><path class="cls-12" d="M59,56a1,1,0,0,1-.71-.29l-6-6a1,1,0,0,1,1.42-1.42l5.49,5.49,3.39-1.68a1,1,0,0,1,.89,1.8l-4,2A1,1,0,0,1,59,56Z"/><path class="cls-12" d="M67,56a1,1,0,0,1-.45-.1l-4-2a1,1,0,0,1,.9-1.8l3.38,1.68,5.49-5.49a1,1,0,1,1,1.42,1.42l-6,6A1,1,0,0,1,67,56Z"/><path class="cls-12" d="M63.11,58a1,1,0,0,1-.71-.29l-2-2a1,1,0,0,1,0-1.42,1,1,0,0,1,1.41,0l2,2a1,1,0,0,1,0,1.42A1,1,0,0,1,63.11,58Z"/><path class="cls-12" d="M63.11,58a1,1,0,0,1-.71-.29,1,1,0,0,1,0-1.42l2-2a1,1,0,1,1,1.41,1.42l-2,2A1,1,0,0,1,63.11,58Z"/><path class="cls-12" d="M61.11,70H61a1,1,0,0,1-.92-1.07l1-13A1,1,0,0,1,62.18,55a1,1,0,0,1,.92,1.08l-1,13A1,1,0,0,1,61.11,70Z"/><path class="cls-12" d="M65.11,70a1,1,0,0,1-1-.92l-1-13a1,1,0,1,1,2-.16l1,13A1,1,0,0,1,65.18,70Z"/><path class="cls-12" d="M127,72H1a1,1,0,0,1,0-2H127a1,1,0,0,1,0,2Z"/><path class="cls-12" d="M1,80a1,1,0,0,1-1-1V71a1,1,0,0,1,2,0v8A1,1,0,0,1,1,80Z"/><path class="cls-12" d="M127,80H1a1,1,0,0,1,0-2H127a1,1,0,0,1,0,2Z"/><path class="cls-12" d="M127,80a1,1,0,0,1-1-1V71a1,1,0,0,1,2,0v8A1,1,0,0,1,127,80Z"/><path class="cls-12" d="M111,116a1,1,0,0,1-1-1V79a1,1,0,0,1,2,0v36A1,1,0,0,1,111,116Z"/><path class="cls-12" d="M123,116a1,1,0,0,1-1-1V79a1,1,0,0,1,2,0v36A1,1,0,0,1,123,116Z"/><path class="cls-12" d="M5,116a1,1,0,0,1-1-1V79a1,1,0,0,1,2,0v36A1,1,0,0,1,5,116Z"/><path class="cls-12" d="M17,116a1,1,0,0,1-1-1V79a1,1,0,0,1,2,0v36A1,1,0,0,1,17,116Z"/><path class="cls-12" d="M103,86H23a1,1,0,0,1,0-2h80a1,1,0,0,1,0,2Z"/><path class="cls-12" d="M103,112H23a1,1,0,0,1,0-2h80a1,1,0,0,1,0,2Z"/><path class="cls-12" d="M23,112a1,1,0,0,1-1-1V85a1,1,0,0,1,2,0v26A1,1,0,0,1,23,112Z"/><path class="cls-12" d="M103,112a1,1,0,0,1-1-1V85a1,1,0,0,1,2,0v26A1,1,0,0,1,103,112Z"/><path class="cls-12" d="M9,116a1,1,0,0,1-1-1V101a1,1,0,0,1,2,0v14A1,1,0,0,1,9,116Z"/><path class="cls-12" d="M15,94a2.91,2.91,0,0,1-3-3V81a1,1,0,0,1,2,0V91a.92.92,0,0,0,1,1,1,1,0,0,1,0,2Z"/><path class="cls-12" d="M119,116a1,1,0,0,1-1-1V105a2.91,2.91,0,0,1,3-3,1,1,0,0,1,0,2,.91.91,0,0,0-1,1v10A1,1,0,0,1,119,116Z"/><path class="cls-12" d="M37,110a1,1,0,0,1-1-1,.92.92,0,0,0-1-1H25a1,1,0,0,1,0-2H35a2.92,2.92,0,0,1,3,3A1,1,0,0,1,37,110Z"/><path class="cls-12" d="M101,90H71a2.91,2.91,0,0,1-3-3,1,1,0,0,1,2,0,.91.91,0,0,0,1,1h30a1,1,0,0,1,0,2Z"/><path class="cls-12" d="M115,98a1,1,0,0,1-1-1V83a1,1,0,0,1,2,0V97A1,1,0,0,1,115,98Z"/><path class="cls-12" d="M49,98H23a1,1,0,0,1,0-2H49a1,1,0,1,1,0,2Z"/><path class="cls-12" d="M103,102H85a1,1,0,0,1,0-2h18a1,1,0,0,1,0,2Z"/><path class="cls-12" d="M87,54a1,1,0,0,1-1-1V45a1,1,0,0,1,2,0v8A1,1,0,0,1,87,54Z"/><path class="cls-12" d="M87,46a1,1,0,0,1-1-1,22.94,22.94,0,0,0-5.75-15.22,1,1,0,1,1,1.5-1.33A25,25,0,0,1,88,45,1,1,0,0,1,87,46Z"/><path class="cls-12" d="M39,54a1,1,0,0,1-1-1V45a1,1,0,0,1,2,0v8A1,1,0,0,1,39,54Z"/><path class="cls-12" d="M39,46a1,1,0,0,1-1-1,25,25,0,0,1,6.25-16.55,1,1,0,1,1,1.5,1.33A22.94,22.94,0,0,0,40,45,1,1,0,0,1,39,46Z"/><path class="cls-12" d="M29,68H1a1,1,0,0,1-1-1V59a1,1,0,0,1,1-1H29a1,1,0,0,1,.71,1.7A5.89,5.89,0,0,0,28,63a5.89,5.89,0,0,0,1.71,3.3A1,1,0,0,1,29,68ZM2,66H27a5.12,5.12,0,0,1,0-6H2Z"/><path class="cls-12" d="M31,60H29a1,1,0,0,1,0-2h2a1,1,0,1,1,0,2Z"/><path class="cls-12" d="M31,68H29a1,1,0,0,1,0-2h2a1,1,0,0,1,0,2Z"/><path class="cls-12" d="M25,56H5a1,1,0,0,1,0-2,1,1,0,1,0,0-2,1,1,0,0,1,0-2H25a1,1,0,0,1,1,1v4A1,1,0,0,1,25,56ZM7.86,54H24V52H7.86A3.4,3.4,0,0,1,8,53,3.45,3.45,0,0,1,7.86,54Z"/><path class="cls-12" d="M125,68H97a1,1,0,0,1-1-1V47a1,1,0,0,1,1-1h28a1,1,0,0,1,1,1V67A1,1,0,0,1,125,68ZM98,66h26V48H98Z"/><path class="cls-12" d="M127,68H95a1,1,0,0,1,0-2h32a1,1,0,0,1,0,2Z"/><path class="cls-12" d="M111,60a3,3,0,0,1-2.12-5.12,3.08,3.08,0,0,1,4.24,0A3,3,0,0,1,111,60Zm0-4a1,1,0,0,0-.71,1.71,1,1,0,0,0,1.42,0,1,1,0,0,0,0-1.42A1,1,0,0,0,111,56Z"/><path class="cls-12" d="M112.41,56.58a1,1,0,0,1-.7-.3,1,1,0,0,1,0-1.41l.7-.71a1,1,0,1,1,1.42,1.42l-.71.7A1,1,0,0,1,112.41,56.58Z"/><path class="cls-12" d="M99,76H31a1,1,0,0,1,0-2H99a1,1,0,0,1,0,2Z"/></svg>