<svg id="Layer_1" data-name="Layer 1" xmlns="http://www.w3.org/2000/svg" viewBox="0 0 128 128"><defs><style>.cls-1{fill:#ed5564;}.cls-2,.cls-3,.cls-5,.cls-6{opacity:0.1;}.cls-3,.cls-6{fill:#fff;}.cls-4{fill:#2e3192;}.cls-4,.cls-5,.cls-6{fill-rule:evenodd;}.cls-7{fill:none;}</style></defs><title>default</title><polygon class="cls-1" points="50.78 19.98 24.17 108.02 58.82 108.02 68.01 77.75 94.52 77.75 108.13 54.71 74.97 54.71 78.2 44.17 114.18 43.73 128 19.98 50.78 19.98"/><polygon class="cls-2" points="62.68 77.75 68.01 77.75 58.83 108.02 53.49 108.02 62.68 77.75"/><polygon class="cls-2" points="102.81 54.71 108.14 54.71 94.52 77.75 89.18 77.75 102.81 54.71"/><polygon class="cls-2" points="128 19.98 114.17 43.73 78.2 44.17 74.98 54.71 69.64 54.71 72.86 44.17 108.84 43.73 122.67 19.98 128 19.98"/><polygon class="cls-3" points="56.11 19.98 29.5 108.02 24.17 108.02 50.77 19.98 56.11 19.98"/><path class="cls-4" d="M76.45,49.79c16.29-1.31,24.28-.94,24.08-.86-6.61,0-13.28,1.34-25,3.87ZM74.37,79.38c24.38-1.3,21.41,7.2,19.22,10.05C84.09,99.12,2.13,98.75,0,75.09c-1-11,18.25-17.4,40.67-21.1l-2.33,7.13C22.33,66,22.61,71.59,22.65,72.63c.17,5.1,4.36,13.64,39.12,17.12,37.49,3.75,38.7-10.37,12.6-10.37"/><path class="cls-4" d="M76.45,49.79,76,51.31l-.46,1.49c3.93-.84,7.29-1.56,10.26-2.12a80.15,80.15,0,0,1,14.74-1.75C100.74,48.85,92.74,48.48,76.45,49.79Z"/><path class="cls-5" d="M90.38,87.44c-1.52,3.12-11.2,5.81-30.21,3.91-34.76-3.48-38.94-12-39.12-17.12,0-.61-.13-2.81,3.11-5.52a5.53,5.53,0,0,0-1.51,3.92c.18,5.1,4.36,13.64,39.12,17.12C77.38,91.32,86.7,89.78,90.38,87.44Z"/><path class="cls-6" d="M5.37,75.09C4.48,65,20.48,58.81,40.38,55l.34-1C18.28,57.69-.94,64.07,0,75.09c1.35,15.1,35.19,20.72,62,20.28C36.27,95,6.61,89.19,5.37,75.09Z"/><rect class="cls-7" y="19.98" width="128" height="88.05"/></svg>