<svg id="Layer_1" data-name="Layer 1" xmlns="http://www.w3.org/2000/svg" viewBox="0 0 128 128"><defs><style>.cls-1{fill:#f04c64;}.cls-2{fill:#9780bb;}.cls-3{fill:#fff;}.cls-4{fill:#b69dcb;}.cls-5{fill:#aaadae;}.cls-6{fill:#755fa1;}.cls-7{fill:#8677a4;}.cls-8{fill:#f37b8c;}.cls-9{fill:#b83a4d;}.cls-10{fill:#b75967;}.cls-11{fill:#fdbe52;}.cls-12{fill:#008fcf;}.cls-13{fill:#5fabdf;}.cls-14{fill:#206da2;}.cls-15{fill:#477fa5;}.cls-16{fill:#ffd9a1;}.cls-17{fill:#c4c4c3;}.cls-18{fill:#cf9d43;}.cls-19{fill:#c9b083;}.cls-20{fill:#bfc7ce;}.cls-21{fill:#dbdee3;}.cls-22{fill:#afb4b8;}.cls-23{fill:#5f6c79;}.cls-24{fill:#0c7ab5;}.cls-25{fill:#8a97a0;}.cls-26{fill:#3d364a;}.cls-27,.cls-38,.cls-39{fill:none;stroke:#3d364a;stroke-linecap:round;stroke-linejoin:round;}.cls-27{stroke-width:2.25px;}.cls-28{fill:#6799d1;}.cls-29{fill:#93b8e2;}.cls-30{fill:#426ea5;}.cls-31{fill:#3a3847;}.cls-32{fill:#83aedd;}.cls-33{fill:#61616c;}.cls-34{fill:#4a7dbd;}.cls-35{fill:#2e2d39;}.cls-36{fill:#4e4d56;}.cls-37{fill:#648dc0;}.cls-38{stroke-width:1.6px;}.cls-39{stroke-width:0.89px;}</style></defs><title>duvidas-faq-horarios-de-atendimento</title><path class="cls-1" d="M127,18A17,17,0,1,1,110,1a17,17,0,0,1,17,17"/><path class="cls-2" d="M18,1A17,17,0,1,1,1,18,17,17,0,0,1,18,1"/><path class="cls-3" d="M18,35h0m0,0A17,17,0,0,1,4.9,28.83,17,17,0,0,0,17.73,35H18M18,1h0"/><path class="cls-4" d="M17.73,35A17,17,0,0,1,18,1h0a16.35,16.35,0,0,0-2,.13,19,19,0,0,1,2,.35,17,17,0,0,0,0,33,18.37,18.37,0,0,1-2,.35,16.57,16.57,0,0,0,1.73.13"/><path class="cls-5" d="M18,35h0m0,0h.26A17,17,0,0,0,18,1h0a17,17,0,0,1,0,34"/><path class="cls-6" d="M18.26,35A16.37,16.37,0,0,0,20,34.86a19,19,0,0,1-2-.35,17,17,0,0,0,0-33,18.37,18.37,0,0,1,2-.35A16.35,16.35,0,0,0,18,1a17,17,0,0,1,.26,34"/><path class="cls-5" d="M18,35h0M18,1h0"/><path class="cls-7" d="M18,35h-.26A16.57,16.57,0,0,1,16,34.86a18.37,18.37,0,0,0,2-.35,19,19,0,0,0,2,.35,16.37,16.37,0,0,1-1.73.13H18M18,1.48a19,19,0,0,0-2-.35A16.39,16.39,0,0,1,18,1h0a16.39,16.39,0,0,1,2,.13,18.37,18.37,0,0,0-2,.35"/><path class="cls-8" d="M110,35a17,17,0,0,1,0-34,16.22,16.22,0,0,0-2,.13,18.81,18.81,0,0,1,2,.35,17,17,0,0,0,0,33,18.81,18.81,0,0,1-2,.35,16.22,16.22,0,0,0,2,.13m0-34h0"/><path class="cls-9" d="M110,35a16.35,16.35,0,0,0,2-.13,19,19,0,0,1-2-.35,17,17,0,0,0,0-33,19,19,0,0,1,2-.35A16.35,16.35,0,0,0,110,1a17,17,0,0,1,0,34"/><path class="cls-10" d="M110,35h0a16.22,16.22,0,0,1-2-.13,18.81,18.81,0,0,0,2-.35,19,19,0,0,0,2,.35,16.35,16.35,0,0,1-2,.13h0m0-33.51a18.81,18.81,0,0,0-2-.35A16.22,16.22,0,0,1,110,1h0a16.39,16.39,0,0,1,2,.13,19,19,0,0,0-2,.35"/><path class="cls-11" d="M127,110a17,17,0,1,1-17-17,17,17,0,0,1,17,17"/><path class="cls-12" d="M35,110A17,17,0,1,1,18,93a17,17,0,0,1,17,17"/><path class="cls-3" d="M18,127h0m0-34h0"/><path class="cls-13" d="M18,127a17,17,0,0,1,0-34,18.49,18.49,0,0,0-2,.13,16.23,16.23,0,0,1,2,.36,17,17,0,0,0,0,33,16.23,16.23,0,0,1-2,.36,18.47,18.47,0,0,0,2,.13"/><path class="cls-14" d="M18,127h0m0,0a18.64,18.64,0,0,0,2-.13,16.75,16.75,0,0,1-2-.36,17,17,0,0,0,0-33,16.75,16.75,0,0,1,2-.36A18.64,18.64,0,0,0,18,93a17,17,0,0,1,0,34m0-34h0"/><path class="cls-15" d="M18,127h0a18.49,18.49,0,0,1-2-.13,16.23,16.23,0,0,0,2-.36,16.75,16.75,0,0,0,2,.36,18.64,18.64,0,0,1-2,.13h0m0-33.51a16.23,16.23,0,0,0-2-.36A18.47,18.47,0,0,1,18,93h0a18.66,18.66,0,0,1,2,.13,16.75,16.75,0,0,0-2,.36"/><path class="cls-16" d="M110,127a17,17,0,0,1,0-34h0a18.83,18.83,0,0,0-2,.13,16.39,16.39,0,0,1,2,.36,17,17,0,0,0,0,33,16.39,16.39,0,0,1-2,.36,18.83,18.83,0,0,0,2,.13"/><path class="cls-17" d="M110,127h0a17,17,0,0,0,16-11.22A17,17,0,0,1,110,127"/><path class="cls-18" d="M110,127a18.83,18.83,0,0,0,2-.13,16.39,16.39,0,0,1-2-.36,17,17,0,0,0,0-33,16.39,16.39,0,0,1,2-.36,18.83,18.83,0,0,0-2-.13,17,17,0,1,1,0,34"/><path class="cls-19" d="M110,127h0a18.83,18.83,0,0,1-2-.13,16.39,16.39,0,0,0,2-.36,16.39,16.39,0,0,0,2,.36,18.83,18.83,0,0,1-2,.13h0m0-33.51a16.39,16.39,0,0,0-2-.36,18.83,18.83,0,0,1,2-.13h0a18.83,18.83,0,0,1,2,.13,16.39,16.39,0,0,0-2,.36"/><path class="cls-20" d="M25,20a7,7,0,1,1-7-7,7,7,0,0,1,7,7"/><path class="cls-21" d="M25,16a7,7,0,1,1-7-7,7,7,0,0,1,7,7"/><path class="cls-3" d="M13,16a7,7,0,0,1,6-6.9A6.39,6.39,0,0,0,18,9a7,7,0,0,0,0,14,6.39,6.39,0,0,0,1-.1A7,7,0,0,1,13,16"/><path class="cls-22" d="M18,23h0a6.39,6.39,0,0,0,1-.1,6.46,6.46,0,0,1-1-.22A7,7,0,0,0,18,9.32a6.86,6.86,0,0,1,1-.22,5.88,5.88,0,0,0-.94-.1A7,7,0,0,1,18,23"/><path class="cls-17" d="M18,23h0a5.88,5.88,0,0,1-.94-.1,6.86,6.86,0,0,0,1-.22,6.46,6.46,0,0,0,1,.22,6.39,6.39,0,0,1-1,.1M18,9.32a6.46,6.46,0,0,0-1-.22A6.39,6.39,0,0,1,18,9h.06a5.88,5.88,0,0,1,.94.1,6.86,6.86,0,0,0-1,.22"/><polyline class="cls-23" points="7 106.97 13 106.97 13 117.3 7 117.3 7 106.97"/><path class="cls-21" d="M23,107v-6H21s-1.62,4-4,6-4,2-4,2v6h2l2,2h8c2-2,2-8,0-10H23"/><path class="cls-24" d="M25,117h0c1-1,1.5-3,1.5-5,0,2-.5,4-1.5,5"/><path class="cls-22" d="M25,117H23c2-2,2-8,0-10h2c1,1,1.5,3,1.5,5s-.5,4-1.5,5"/><polyline class="cls-24" points="20.99 100.97 20.99 100.97 22.99 100.97 22.99 100.97 20.99 100.97 20.99 100.97"/><polyline class="cls-22" points="22.99 106.97 20.99 106.97 20.99 100.97 20.99 100.97 22.99 100.97 22.99 106.97"/><polyline class="cls-25" points="9 117.3 7 117.3 7 106.97 9 106.97 9 117.3"/><path class="cls-24" d="M13,109a5.25,5.25,0,0,0,2-.65h0a4.88,4.88,0,0,1-2,.64"/><path class="cls-22" d="M15,115H13v-6h0a4.88,4.88,0,0,0,2-.64V115"/><path class="cls-26" d="M37,8a1,1,0,0,1-.43-1.9,64.4,64.4,0,0,1,54.76,0,1,1,0,1,1-.85,1.81,62.38,62.38,0,0,0-53,0A1.11,1.11,0,0,1,37,8Z"/><path class="cls-26" d="M121,91.93a1.07,1.07,0,0,1-.43-.09,1,1,0,0,1-.48-1.33,62.38,62.38,0,0,0,0-53,1,1,0,0,1,1.81-.86,64.4,64.4,0,0,1,0,54.76,1,1,0,0,1-.9.57Z"/><path class="cls-26" d="M7,91.93a1,1,0,0,1-.9-.57,64.38,64.38,0,0,1,0-54.75,1,1,0,0,1,1.33-.48,1,1,0,0,1,.48,1.33,62.38,62.38,0,0,0,0,53.05,1,1,0,0,1-.48,1.33,1.07,1.07,0,0,1-.43.09Z"/><path class="cls-26" d="M63.9,128a63.63,63.63,0,0,1-27.34-6.09,1,1,0,1,1,.85-1.81,62.38,62.38,0,0,0,53.05,0,1,1,0,0,1,1.34.48,1,1,0,0,1-.48,1.33A63.55,63.55,0,0,1,63.9,128Z"/><path class="cls-26" d="M110,2a16,16,0,1,0,16,16A16,16,0,0,0,110,2Zm0,34a18,18,0,1,1,18-18,18,18,0,0,1-18,18Z"/><path class="cls-26" d="M110,94a16,16,0,1,0,16,16,16,16,0,0,0-16-16Zm0,34a18,18,0,1,1,18-18,18,18,0,0,1-18,18Z"/><path class="cls-26" d="M18,2A16,16,0,1,0,34,18,16,16,0,0,0,18,2Zm0,34A18,18,0,1,1,36,18,18,18,0,0,1,18,36Z"/><path class="cls-26" d="M18,94a16,16,0,1,0,16,16A16,16,0,0,0,18,94Zm0,34a18,18,0,1,1,18-18,18,18,0,0,1-18,18Z"/><path class="cls-26" d="M17.41,116h7.12c1.28-1.78,1.28-6.22,0-8H23a1,1,0,0,1-1-1v-5h-.34a18,18,0,0,1-4,5.77A10,10,0,0,1,14,109.8V114h1a1,1,0,0,1,.7.29L17.41,116ZM25,118H17a1,1,0,0,1-.71-.3L14.58,116H13a1,1,0,0,1-1-1v-6a1,1,0,0,1,1-1,6.61,6.61,0,0,0,3.35-1.77c2.16-1.81,3.7-5.57,3.72-5.6A1,1,0,0,1,21,100h2a1,1,0,0,1,1,1v5h1a1,1,0,0,1,.71.29c2.4,2.4,2.4,9,0,11.41a1,1,0,0,1-.71.3Z"/><path class="cls-26" d="M8,116h4v-8H8v8Zm5,2H7a1,1,0,0,1-1-1V107a1,1,0,0,1,1-1h6a1,1,0,0,1,1,1v10a1,1,0,0,1-1,1Z"/><path class="cls-26" d="M18,10a6,6,0,1,0,6,6,6,6,0,0,0-6-6Zm0,14a8,8,0,1,1,8-8,8,8,0,0,1-8,8Z"/><path class="cls-26" d="M18,28a8,8,0,0,1-8-8,1,1,0,0,1,2,0,6,6,0,1,0,12,0,1,1,0,0,1,2,0,8,8,0,0,1-8,8Z"/><path class="cls-26" d="M18,20a1,1,0,0,1-1-1V13a1,1,0,1,1,2,0v6a1,1,0,0,1-1,1Z"/><path class="cls-26" d="M21,17H15a1,1,0,0,1,0-2h6a1,1,0,0,1,0,2Z"/><path class="cls-26" d="M11,21a1,1,0,0,1-1-1V16a1,1,0,0,1,2,0v4a1,1,0,0,1-1,1Z"/><path class="cls-26" d="M25,21a1,1,0,0,1-1-1V16a1,1,0,1,1,2,0v4a1,1,0,0,1-1,1Z"/><polyline class="cls-27" points="109.66 100.74 109.66 109.97 113.52 113.83"/><path class="cls-28" d="M54.37,95.94A33.36,33.36,0,1,1,95.94,73.63,33.36,33.36,0,0,1,54.37,95.94"/><path class="cls-29" d="M42.44,86.82A31.39,31.39,0,0,1,58.59,33.08,33.31,33.31,0,0,0,42.44,86.82"/><path class="cls-30" d="M69.41,94.92A33.31,33.31,0,0,0,85.55,41.17,31.39,31.39,0,0,1,69.41,94.92"/><path class="cls-31" d="M73.07,33.94a31.4,31.4,0,1,0,21,39.13,31.44,31.44,0,0,0-21-39.13M53.8,97.82a35.32,35.32,0,1,1,44-23.62,35.37,35.37,0,0,1-44,23.62"/><path class="cls-31" d="M59.32,81.86A4.3,4.3,0,0,1,59.14,76a3.85,3.85,0,0,1,2.92-1.31A4.09,4.09,0,0,1,65,75.77a4,4,0,0,1,1.29,2.94,4.16,4.16,0,0,1-1.11,3A3.94,3.94,0,0,1,62.26,83a3.89,3.89,0,0,1-2.94-1.15m-1-13.57A5.25,5.25,0,0,1,59,65.42a10.45,10.45,0,0,1,1.83-2.55c.74-.76,1.48-1.51,2.24-2.25A12.81,12.81,0,0,0,65,58.22a4.69,4.69,0,0,0,.75-2.56,3.18,3.18,0,0,0-1.36-2.76,5.41,5.41,0,0,0-3.24-.84,25.45,25.45,0,0,0-3.19.3q-1.8.26-2.31.27a2.58,2.58,0,0,1-2.06-.85,3.46,3.46,0,0,1-.85-2.35,3.09,3.09,0,0,1,.58-1.87,3.5,3.5,0,0,1,1.81-1.29,27.58,27.58,0,0,1,7.76-1.21,16.38,16.38,0,0,1,4.52.48,11.56,11.56,0,0,1,3.74,1.67,7.87,7.87,0,0,1,2.61,3,10.35,10.35,0,0,1,1,4.45,9.58,9.58,0,0,1-.46,3.22,8.41,8.41,0,0,1-1.35,2.56,15.81,15.81,0,0,1-1.85,2,22.55,22.55,0,0,1-2,1.64c-.68.49-1.3.95-1.86,1.39a7.14,7.14,0,0,0-1.34,1.36,2.26,2.26,0,0,0-.47,1.44l0,.83a2.89,2.89,0,0,1-.61,2,3.05,3.05,0,0,1-1.67,1.09,5.4,5.4,0,0,1-2,.13,3,3,0,0,1-1.8-.9,3,3,0,0,1-.86-2l-.1-1.14"/><path class="cls-32" d="M60.94,82.84a3.74,3.74,0,0,1-1-.47,3.74,3.74,0,0,0,1,.47A4.05,4.05,0,0,0,62,83a4.05,4.05,0,0,1-1.06-.17m-2.37-2a4.27,4.27,0,0,1-.51-2A4.1,4.1,0,0,1,59.14,76a4,4,0,0,1,.28-.3c-.09.1-.19.19-.28.3a4.1,4.1,0,0,0-1.08,2.94,4.27,4.27,0,0,0,.51,2"/><path class="cls-33" d="M60.94,82.84a3.74,3.74,0,0,1-1-.47,4.27,4.27,0,0,1-.63-.51,4.06,4.06,0,0,1-.75-1,4.27,4.27,0,0,1-.51-2A4.1,4.1,0,0,1,59.14,76c.09-.11.19-.2.28-.3a4,4,0,0,1,.81-.56,3.11,3.11,0,0,0-.54.35c.14,0,.3-.09.46-.13a3.7,3.7,0,0,0-.28.28,4.34,4.34,0,0,0,.18,5.9,3.92,3.92,0,0,0,1.63,1,4.05,4.05,0,0,0,1.32.18,4.27,4.27,0,0,0,.81-.1l-.27.22.49-.2a4.13,4.13,0,0,1-1.77.43H62a4.05,4.05,0,0,1-1.06-.17"/><path class="cls-32" d="M58.58,70.21h0m0,0a3.75,3.75,0,0,1-.13-.77l-.1-1.14c0-.08,0-.16,0-.24,0,.08,0,.16,0,.24l.1,1.14a3.75,3.75,0,0,0,.13.77m-.13-3.34A5.43,5.43,0,0,1,59,65.42a3.24,3.24,0,0,1,.17-.32,3.24,3.24,0,0,0-.17.32,5.43,5.43,0,0,0-.52,1.44M60.69,63l.1-.1.11-.11-.11.11-.1.1m.79-.81.82-.82-.82.82m3-3.22c.17-.23.33-.48.48-.72l.17-.3-.17.3c-.15.24-.31.49-.48.72m1.15-2.38a3.92,3.92,0,0,0,.08-.9A3.22,3.22,0,0,0,64.5,53a3.21,3.21,0,0,1,1.2,2.65,3.92,3.92,0,0,1-.08.9m-10.93-4a2.56,2.56,0,0,1-1.15-.74,3.41,3.41,0,0,1-.85-2.35,2.82,2.82,0,0,1,0-.41,2.82,2.82,0,0,0,0,.41,3.46,3.46,0,0,0,.85,2.35,2.54,2.54,0,0,0,1.16.74,2.93,2.93,0,0,0,.9.11h0a3,3,0,0,1-.91-.11m4.83-.36c.56,0,1.09-.09,1.58-.1a6.26,6.26,0,0,1,2,.24l.14.05-.14-.05a6.22,6.22,0,0,0-2-.24c-.49,0-1,0-1.58.1"/><path class="cls-33" d="M60.59,72.24a3.06,3.06,0,0,1-1.29-.81,2.85,2.85,0,0,1-.72-1.22h0a3.75,3.75,0,0,1-.13-.77l-.1-1.14c0-.08,0-.16,0-.24a4.8,4.8,0,0,1,.11-1.19A5.43,5.43,0,0,1,59,65.42a3.24,3.24,0,0,1,.17-.32A10.24,10.24,0,0,1,60.69,63l.1-.1.11-.11.58-.6.82-.82.73-.72a13.34,13.34,0,0,0,1.44-1.68c.17-.23.33-.48.48-.72l.17-.3a5,5,0,0,0,.5-1.36,3.92,3.92,0,0,0,.08-.9A3.21,3.21,0,0,0,64.5,53a.91.91,0,0,0-.16-.11,4.32,4.32,0,0,0-1.12-.55l-.14-.05a6.26,6.26,0,0,0-2-.24c-.49,0-1,0-1.58.1s-1,.11-1.61.2c-1,.15-1.78.24-2.17.27H55.6a2.93,2.93,0,0,1-.9-.11,2.54,2.54,0,0,1-1.16-.74,3.46,3.46,0,0,1-.85-2.35,2.82,2.82,0,0,1,0-.41,3.07,3.07,0,0,1,.56-1.46,3,3,0,0,1,.85-.82l-.19.14.08,0,.43-.14a2.53,2.53,0,0,0-.43.5,3.07,3.07,0,0,0-.58,1.87,3.4,3.4,0,0,0,.85,2.34,2.51,2.51,0,0,0,1.15.74,3,3,0,0,0,.91.12c.34,0,1.11-.1,2.31-.28a27.28,27.28,0,0,1,3.19-.29,6.26,6.26,0,0,1,2,.24,4.86,4.86,0,0,1,1.26.59,3.18,3.18,0,0,1,1.36,2.76,4.62,4.62,0,0,1-.76,2.56,12.36,12.36,0,0,1-1.91,2.4c-.76.74-1.51,1.5-2.25,2.25a11,11,0,0,0-1.83,2.55,5.37,5.37,0,0,0-.61,2.87l.1,1.15a3,3,0,0,0,.86,2,2.94,2.94,0,0,0,1.29.8,2.71,2.71,0,0,0,.51.11,5.32,5.32,0,0,0,1.69-.06,2,2,0,0,1-.26.24l-.13,0a5.42,5.42,0,0,1-2,.13,3.06,3.06,0,0,1-.51-.1"/><path class="cls-34" d="M64.49,82.29a3.91,3.91,0,0,0,.66-.57,4.16,4.16,0,0,0,1.11-3,4.74,4.74,0,0,0-.14-1,4.41,4.41,0,0,1-1,4,3.91,3.91,0,0,1-.66.57m.89-6.09a4.17,4.17,0,0,0-.41-.43,4.21,4.21,0,0,0-1.61-.94L63,74.74l.38.09a4.16,4.16,0,0,1,1.59.93,5.77,5.77,0,0,1,.42.44"/><path class="cls-35" d="M63.81,82.56a3.44,3.44,0,0,0,.27-.27,4.13,4.13,0,0,0,1.11-3,4.13,4.13,0,0,0-2.89-3.88A4.07,4.07,0,0,0,61,75.24a5.68,5.68,0,0,0-.84.09,3.48,3.48,0,0,1,.58-.43,4.4,4.4,0,0,0-.5.21,4,4,0,0,1,1.83-.44,4.08,4.08,0,0,1,.93.07l.37.09a4.21,4.21,0,0,1,1.61.94,4.17,4.17,0,0,1,.41.43,3.94,3.94,0,0,1,.74,1.49,4.74,4.74,0,0,1,.14,1,4.16,4.16,0,0,1-1.11,3,3.91,3.91,0,0,1-.66.57,4.43,4.43,0,0,1-.46.29l.27-.16a3.94,3.94,0,0,1-.49.14"/><path class="cls-36" d="M63.54,82.78l.27-.22a3.94,3.94,0,0,0,.49-.14l-.27.16-.49.2m-3.85-7.32a3.11,3.11,0,0,1,.54-.35,4.4,4.4,0,0,1,.5-.21,3.48,3.48,0,0,0-.58.43c-.16,0-.32.08-.46.13"/><path class="cls-34" d="M63.55,72.08a3.08,3.08,0,0,0,1.26-1,4,4,0,0,0,.23-.34,4,4,0,0,1-.23.34,3.08,3.08,0,0,1-1.26,1m1.83-2.23a4.05,4.05,0,0,0,0-.71l0-.83v0l0,.83a3.27,3.27,0,0,1,0,.71m1.8-4.33h0m.67-.52L69,64.12c.41-.29.82-.6,1.22-.94-.4.34-.81.65-1.21.94l-1.2.88m2.68-2,.55-.48a15.81,15.81,0,0,0,1.85-2,5,5,0,0,0,.32-.44,5,5,0,0,1-.32.44,15.1,15.1,0,0,1-1.85,2l-.55.48m4-5.84a9.09,9.09,0,0,0,.21-1.59,9.09,9.09,0,0,1-.21,1.59M54.12,46.74a4.29,4.29,0,0,1,1-.47,27.22,27.22,0,0,1,7.76-1.21,16.5,16.5,0,0,1,4.53.48l.22.06-.23-.06a16.38,16.38,0,0,0-4.52-.48,27.58,27.58,0,0,0-7.76,1.21,5.69,5.69,0,0,0-.55.23,3.64,3.64,0,0,0-.39.23h0m20.44,6.12A10.09,10.09,0,0,0,74,51a10.09,10.09,0,0,1,.53,1.89M73.4,49.68h0m0,0a7.72,7.72,0,0,0-2.29-2.46,11.29,11.29,0,0,0-1.63-.93,11.29,11.29,0,0,1,1.63.93,7.72,7.72,0,0,1,2.29,2.46"/><path class="cls-35" d="M63.27,72.17h0a3,3,0,0,0,.81-.38l-.21.07-.34.07.21-.23a2.92,2.92,0,0,0,.61-2l0-.83a2.19,2.19,0,0,1,.47-1.43,6.44,6.44,0,0,1,1.35-1.37q.82-.64,1.86-1.38a24.5,24.5,0,0,0,2-1.65,15,15,0,0,0,1.85-2,8.51,8.51,0,0,0,1.34-2.56,9.19,9.19,0,0,0,.46-3.23,10.24,10.24,0,0,0-1-4.45,7.94,7.94,0,0,0-2.61-3,11.58,11.58,0,0,0-3.21-1.52l-.52-.15a17.31,17.31,0,0,0-4.53-.48,28,28,0,0,0-7.33,1.08,4.32,4.32,0,0,1,.53-.4l-.44.19a5.69,5.69,0,0,1,.55-.23,27.58,27.58,0,0,1,7.76-1.21,16.38,16.38,0,0,1,4.52.48l.23.06.3.09a11.43,11.43,0,0,1,1.58.59,11.29,11.29,0,0,1,1.63.93,7.72,7.72,0,0,1,2.29,2.46h0c.11.19.21.38.31.58A5.69,5.69,0,0,1,74,51a10.09,10.09,0,0,1,.53,1.89,12,12,0,0,1,.17,1.85,7.45,7.45,0,0,1,0,.82,9.09,9.09,0,0,1-.21,1.59q-.11.42-.24.81a8.51,8.51,0,0,1-1,2.12,5,5,0,0,1-.32.44,15.81,15.81,0,0,1-1.85,2l-.55.48-.27.22c-.4.34-.81.65-1.22.94L67.85,65l-.65.5h0a6.56,6.56,0,0,0-1.34,1.35,2.35,2.35,0,0,0-.47,1.19v.25l0,.83a4.05,4.05,0,0,1,0,.71,2.87,2.87,0,0,1-.34.93,4,4,0,0,1-.23.34,3.08,3.08,0,0,1-1.26,1l-.28.09M54.12,46.74h0m0,0h0"/><path class="cls-36" d="M63.27,72.17a2,2,0,0,0,.26-.24l.34-.07.21-.07a3,3,0,0,1-.81.38"/><path class="cls-37" d="M54.13,46.73h0m0,0a3.64,3.64,0,0,1,.39-.23,3.64,3.64,0,0,0-.39.23"/><path class="cls-36" d="M53.93,46.88l.19-.14h0a3.64,3.64,0,0,1,.39-.23l.44-.19a4.32,4.32,0,0,0-.53.4l-.43.14-.08,0"/><circle class="cls-26" cx="109.97" cy="123.31" r="0.8"/><circle class="cls-26" cx="109.97" cy="96.2" r="0.8"/><circle class="cls-26" cx="96.41" cy="109.75" r="0.8"/><circle class="cls-26" cx="123.53" cy="109.75" r="0.8"/><circle class="cls-26" cx="119.56" cy="100.17" r="0.8"/><circle class="cls-26" cx="100.38" cy="119.34" r="0.8"/><circle class="cls-26" cx="119.56" cy="119.34" r="0.8"/><circle class="cls-26" cx="100.38" cy="100.17" r="0.8"/><path class="cls-38" d="M110,24a13.17,13.17,0,0,0-9,0V12.86a12.22,12.22,0,0,1,9,0Z"/><path class="cls-38" d="M119,24a15.92,15.92,0,0,0-9,0V12.86a12.19,12.19,0,0,1,9,0Z"/><path class="cls-39" d="M103,15.26a6.41,6.41,0,0,1,4.87,0"/><path class="cls-39" d="M103,17.8a5.58,5.58,0,0,1,4.87,0"/><path class="cls-39" d="M112.28,15.26a5.78,5.78,0,0,1,4.6,0"/><path class="cls-39" d="M116.88,17.8a5,5,0,0,0-4.6,0"/><path class="cls-39" d="M103,20.36a4.87,4.87,0,0,1,4.87,0"/><path class="cls-39" d="M116.88,20.29a5.51,5.51,0,0,0-4.6,0"/></svg>