<svg id="Layer_1" data-name="Layer 1" xmlns="http://www.w3.org/2000/svg" viewBox="0 0 128 128"><defs><style>.cls-1{fill:#ed5565;}.cls-2{opacity:0.2;}.cls-3{opacity:0.3;}.cls-4{fill:#fff;}.cls-5{fill:#ffce54;}.cls-6{opacity:0.5;}.cls-7{fill:#656d78;}.cls-8{fill:#967adc;}.cls-9{fill:#ac92ec;}.cls-10{fill:#5d9cec;}.cls-11{fill:#e6e9ed;}.cls-12{fill:#f5f7fa;}.cls-13{fill:#3a3847;}.cls-14{opacity:0.2;}</style></defs><title>forum-de-duvidas-da-disciplina</title><polygon class="cls-1" points="48.5 115.58 36.68 117.66 24.81 91.34 36.68 89.29 48.5 115.58"/><g class="cls-2"><polygon points="36.68 89.29 34.82 89.61 46.5 115.58 36.53 117.33 36.68 117.66 48.5 115.58 36.68 89.29"/></g><g class="cls-3"><polygon class="cls-4" points="26.81 91.34 36.82 89.61 36.68 89.29 24.81 91.34 36.68 117.66 38.53 117.33 26.81 91.34"/></g><path class="cls-5" d="M93.94,34a9,9,0,1,1,9-9A9,9,0,0,1,93.94,34Z"/><g class="cls-6"><path class="cls-4" d="M86.94,25a9,9,0,0,1,8-8.9,8.26,8.26,0,0,0-1-.1,9,9,0,1,0,0,18,8.26,8.26,0,0,0,1-.1A9,9,0,0,1,86.94,25Z"/></g><g class="cls-2"><path d="M101,25a9,9,0,0,1-8,8.9,8.26,8.26,0,0,0,1,.1,9,9,0,0,0,0-18,8.26,8.26,0,0,0-1,.1A9,9,0,0,1,101,25Z"/></g><polygon class="cls-7" points="40.62 82.44 20.81 85.93 21.96 91.84 41.68 88.42 40.62 82.44"/><g class="cls-2"><polygon points="40.62 82.44 38.68 82.78 39.68 88.42 21.89 91.51 21.96 91.84 41.68 88.42 40.62 82.44"/></g><g class="cls-2"><polygon class="cls-4" points="22.81 85.93 40.68 82.78 40.62 82.44 20.81 85.93 21.96 91.84 23.89 91.51 22.81 85.93"/></g><path class="cls-1" d="M106.94,82a12,12,0,1,0,12,12A12,12,0,0,0,106.94,82Z"/><g class="cls-3"><path class="cls-4" d="M96.94,94a12,12,0,0,1,11-12c-.33,0-.66,0-1,0a12,12,0,0,0,0,24c.34,0,.67,0,1,0A12,12,0,0,1,96.94,94Z"/></g><g class="cls-3"><path d="M116.94,94a12,12,0,0,1-11,12c.33,0,.66,0,1,0a12,12,0,0,0,0-24c-.34,0-.67,0-1,0A12,12,0,0,1,116.94,94Z"/></g><path class="cls-8" d="M113,17a7,7,0,0,0,14,0v4a7,7,0,0,1-14,0Z"/><path class="cls-9" d="M120,24a7,7,0,1,1,7-7A7,7,0,0,1,120,24Z"/><g class="cls-3"><path class="cls-4" d="M115,17a7,7,0,0,1,6-6.9,6.64,6.64,0,0,0-1-.1,7,7,0,0,0,0,14,6.64,6.64,0,0,0,1-.1A7,7,0,0,1,115,17Z"/></g><g class="cls-2"><path d="M125,17a7,7,0,0,1-6,6.9,6.64,6.64,0,0,0,1,.1,7,7,0,0,0,0-14,6.64,6.64,0,0,0-1,.1A7,7,0,0,1,125,17Z"/></g><path class="cls-10" d="M110,74a17,17,0,1,1,17-17A17,17,0,0,1,110,74Z"/><g class="cls-3"><path class="cls-4" d="M95,57a17,17,0,0,1,16-17c-.33,0-.66,0-1,0a17,17,0,0,0,0,34c.34,0,.67,0,1,0A17,17,0,0,1,95,57Z"/></g><g class="cls-3"><path d="M125,57A17,17,0,0,1,109,74c.33,0,.66,0,1,0a17,17,0,1,0,0-34c-.34,0-.67,0-1,0A17,17,0,0,1,125,57Z"/></g><polygon class="cls-1" points="14.1 58.7 18.96 86.26 4.48 84.76 1 65.06 14.1 58.7"/><g class="cls-3"><polygon class="cls-4" points="6.48 84.76 3 65.06 14.26 59.59 14.1 58.7 1 65.06 4.48 84.76 18.96 86.26 18.92 86.05 6.48 84.76"/></g><polygon class="cls-11" points="39.92 78.52 40.62 82.44 18.96 86.26 14.1 58.7 35.76 54.88 36.46 58.82 39.92 78.52"/><path class="cls-12" d="M76.32,31.48l10.4,59.08-3.92.7c-1.4-7.88-42.18-8.82-42.18-8.82l-.7-3.92-3.46-19.7-.7-3.94S74.46,44,72.38,32.18Z"/><g class="cls-2"><path d="M76.32,31.48l-1.94.34L84.72,90.56l-2,.36a3.38,3.38,0,0,1,.11.34l3.92-.7Z"/></g><path class="cls-13" d="M81.74,86.36a1,1,0,0,1-1-.83L72.43,38.25a1,1,0,1,1,2-.34l8.32,47.28a1,1,0,0,1-.82,1.16Z"/><path class="cls-13" d="M82.8,92.26a1,1,0,0,1-1-.82c-.92-5.16-25.77-7.64-41.22-8a1,1,0,0,1-1-1,1,1,0,0,1,1-1c7,.16,41.68,1.38,43.15,9.65A1,1,0,0,1,83,92.24.47.47,0,0,1,82.8,92.26Z"/><path class="cls-13" d="M35.76,55.88a1,1,0,0,1-.27-2C46,51,73,41.3,71.39,32.35a1,1,0,1,1,2-.34c1,5.4-5.14,11.07-18.1,16.86a160.68,160.68,0,0,1-19.23,7A.84.84,0,0,1,35.76,55.88Z"/><path class="cls-13" d="M72.38,33.18a1,1,0,0,1-.17-2l3.93-.7a1,1,0,0,1,1.16.8,1,1,0,0,1-.8,1.17l-4,.69A.47.47,0,0,1,72.38,33.18Z"/><path class="cls-13" d="M86.72,91.56a1,1,0,0,1-1-.83L75.34,31.65a1,1,0,0,1,.81-1.15,1,1,0,0,1,1.15.81L87.71,90.39a1,1,0,0,1-.82,1.15Z"/><path class="cls-13" d="M82.8,92.26a1,1,0,0,1-1-.82,1,1,0,0,1,.8-1.17l3.92-.69a1,1,0,1,1,.35,2l-3.91.7A.55.55,0,0,1,82.8,92.26Z"/><path class="cls-13" d="M19,87.26a1,1,0,0,1-.17-2l21.66-3.83a1,1,0,0,1,1.15.82,1,1,0,0,1-.81,1.15L19.13,87.24A.47.47,0,0,1,19,87.26Z"/><path class="cls-13" d="M14.1,59.7a1,1,0,0,1-.17-2L35.59,53.9a1,1,0,0,1,1.15.81,1,1,0,0,1-.81,1.16L14.27,59.68A.5.5,0,0,1,14.1,59.7Z"/><path class="cls-13" d="M19,87.26h-.1L4.38,85.76a1,1,0,0,1-.88-.83L0,65.23a1,1,0,0,1,.54-1.07l13.1-6.36a1,1,0,0,1,.89,0,1,1,0,0,1,.53.72l4.86,27.56a1,1,0,0,1-.25.85A1,1,0,0,1,19,87.26ZM5.33,83.84l12.42,1.29L13.34,60.18,2.12,65.63Z"/><path class="cls-13" d="M39.92,79.52a1,1,0,0,1-1-.83L35.47,59a1,1,0,1,1,2-.34l3.46,19.7a1,1,0,0,1-.82,1.16Z"/><path class="cls-13" d="M5.64,69.32a1,1,0,0,1-.48-1.88l5.56-3a1,1,0,1,1,1,1.76l-5.56,3A1.07,1.07,0,0,1,5.64,69.32Z"/><path class="cls-13" d="M14,82.06h-.15l-6.26-.94a1,1,0,0,1,.3-2l6.26.94A1,1,0,0,1,15,81.21,1,1,0,0,1,14,82.06Z"/><path class="cls-13" d="M6.68,75.22a1,1,0,0,1-.17-2l5.9-1a1,1,0,0,1,1.15.82,1,1,0,0,1-.81,1.15l-5.9,1Z"/><path class="cls-13" d="M15.88,58.36a1,1,0,0,1-.17-2l3.94-.69a1,1,0,0,1,.35,2l-3.95.7A.47.47,0,0,1,15.88,58.36Z"/><path class="cls-13" d="M48.5,116.58a1,1,0,0,1-.91-.59L37.51,93.41a1,1,0,0,1,1.82-.82l10.08,22.58a1,1,0,0,1-.5,1.32A1,1,0,0,1,48.5,116.58Z"/><path class="cls-13" d="M36.68,118.66a1,1,0,0,1-.91-.59L25.69,95.49a1,1,0,0,1,1.82-.82l10.08,22.58a1,1,0,0,1-.5,1.32A1,1,0,0,1,36.68,118.66Z"/><path class="cls-13" d="M34.7,119a1,1,0,0,1-.18-2l15.77-2.79a1,1,0,1,1,.34,2L34.88,119A.55.55,0,0,1,34.7,119Z"/><path class="cls-13" d="M22,92.84A1,1,0,0,1,21,92l-.38-2.22a1,1,0,1,1,2-.34L23,91.67a1,1,0,0,1-.82,1.16Z"/><path class="cls-13" d="M22,92.84a1,1,0,0,1-.17-2l19.72-3.42a1,1,0,0,1,1.16.81,1,1,0,0,1-.82,1.16L22.13,92.83Z"/><path class="cls-13" d="M41.68,89.42a1,1,0,0,1-1-.82l-.36-2a1,1,0,0,1,2-.36l.36,2a1,1,0,0,1-.8,1.16A.55.55,0,0,1,41.68,89.42Z"/><path class="cls-13" d="M106.94,107a13,13,0,1,1,13-13A13,13,0,0,1,106.94,107Zm0-24a11,11,0,1,0,11,11A11,11,0,0,0,106.94,83Z"/><path class="cls-13" d="M93.94,35a10,10,0,1,1,10-10A10,10,0,0,1,93.94,35Zm0-18a8,8,0,1,0,8,8A8,8,0,0,0,93.94,17Z"/><path class="cls-13" d="M110,75a18,18,0,1,1,18-18A18,18,0,0,1,110,75Zm0-34a16,16,0,1,0,16,16A16,16,0,0,0,110,41Z"/><path class="cls-13" d="M107.87,59.94a2.67,2.67,0,0,1-.12-1.49,5.11,5.11,0,0,1,.52-1.51c.24-.48.5-.95.76-1.43a6.37,6.37,0,0,0,.58-1.45,2.32,2.32,0,0,0,0-1.36,1.62,1.62,0,0,0-1.07-1.15,2.78,2.78,0,0,0-1.7.07,14.49,14.49,0,0,0-1.51.61,10.82,10.82,0,0,1-1.09.48,1.35,1.35,0,0,1-1.13-.11,1.76,1.76,0,0,1-.76-1,1.56,1.56,0,0,1,0-1,1.92,1.92,0,0,1,.7-.9A13.93,13.93,0,0,1,106.65,48a8.25,8.25,0,0,1,2.27-.43,5.83,5.83,0,0,1,2.07.26,4.06,4.06,0,0,1,1.73,1.1,5.34,5.34,0,0,1,1.15,2,4.75,4.75,0,0,1,.25,1.64,4.34,4.34,0,0,1-.28,1.44,7.93,7.93,0,0,1-.61,1.24,11.93,11.93,0,0,1-.75,1.11c-.26.34-.5.65-.7.95a3.45,3.45,0,0,0-.46.86,1.14,1.14,0,0,0,0,.77l.15.4a1.46,1.46,0,0,1,0,1,1.52,1.52,0,0,1-.65.78,2.92,2.92,0,0,1-1,.37,1.56,1.56,0,0,1-1.72-1Zm2.47,6.48a2.06,2.06,0,0,1-1-1.25,2.11,2.11,0,0,1,.09-1.6,2,2,0,0,1,1.23-1.06,2.09,2.09,0,0,1,2.65,1.36,2.14,2.14,0,0,1-.1,1.63,2.09,2.09,0,0,1-2.83.92Z"/><g class="cls-14"><path class="cls-4" d="M112.86,66a2,2,0,0,1-.91.59,2,2,0,0,1-1.61-.13,2.06,2.06,0,0,1-1-1.25,2.11,2.11,0,0,1,.09-1.6,1.82,1.82,0,0,1,.62-.75,1.67,1.67,0,0,0-.31.47,2.16,2.16,0,0,0-.1,1.6,2.14,2.14,0,0,0,1.05,1.25,2,2,0,0,0,1.61.13A2.43,2.43,0,0,0,112.86,66Z"/><path class="cls-4" d="M111.18,60.81a1.41,1.41,0,0,1-.39.34,2.92,2.92,0,0,1-1,.37,1.56,1.56,0,0,1-1.72-1l-.22-.55a2.67,2.67,0,0,1-.12-1.49,5.41,5.41,0,0,1,.52-1.51l.76-1.43a6.19,6.19,0,0,0,.58-1.45,2.32,2.32,0,0,0,0-1.36,1.6,1.6,0,0,0-1.07-1.15,2.78,2.78,0,0,0-1.7.07,13.66,13.66,0,0,0-1.51.61c-.56.27-.93.42-1.09.48a1.35,1.35,0,0,1-1.13-.11,1.76,1.76,0,0,1-.76-1,1.56,1.56,0,0,1,0-1,1.75,1.75,0,0,1,.64-.86,1.64,1.64,0,0,0-.34.58,1.53,1.53,0,0,0,0,1,1.66,1.66,0,0,0,.76,1,1.31,1.31,0,0,0,1.13.12c.16-.06.52-.21,1.08-.48a14.58,14.58,0,0,1,1.52-.61,2.78,2.78,0,0,1,1.7-.07,1.62,1.62,0,0,1,1.07,1.15,2.32,2.32,0,0,1,0,1.36,6.86,6.86,0,0,1-.58,1.45c-.26.47-.52,1-.77,1.43a5.38,5.38,0,0,0-.51,1.51,2.67,2.67,0,0,0,.12,1.49l.22.55a1.54,1.54,0,0,0,.71.85,1.51,1.51,0,0,0,1,.18,3,3,0,0,0,1-.37Z"/></g><g class="cls-14"><path d="M113.17,65.5a2.11,2.11,0,0,1-.63.75,2.46,2.46,0,0,0,.19-.32,2.14,2.14,0,0,0,.1-1.63A2.07,2.07,0,0,0,110.19,63a2.29,2.29,0,0,0-.61.29,2.11,2.11,0,0,1,3.69.62A2.16,2.16,0,0,1,113.17,65.5Z"/><path d="M114.12,52.55a4.34,4.34,0,0,1-.28,1.44,7.13,7.13,0,0,1-.61,1.24,11.93,11.93,0,0,1-.75,1.11c-.26.34-.5.65-.7.95a3.45,3.45,0,0,0-.46.86,1.14,1.14,0,0,0,0,.77l.15.4a1.52,1.52,0,0,1-.6,1.79,1.55,1.55,0,0,0,.16-1.35l-.14-.4a1.13,1.13,0,0,1,0-.77,3.68,3.68,0,0,1,.46-.87c.21-.29.44-.61.7-.95a10.56,10.56,0,0,0,.75-1.1,8.44,8.44,0,0,0,.62-1.24,4.35,4.35,0,0,0,.27-1.45,4.55,4.55,0,0,0-.25-1.64,5.38,5.38,0,0,0-1.15-2,4.09,4.09,0,0,0-1.72-1.1,5.89,5.89,0,0,0-2.07-.26,8.31,8.31,0,0,0-2.28.43,14.08,14.08,0,0,0-3.61,1.73l0,0a1.9,1.9,0,0,1,.47-.47,14,14,0,0,1,3.6-1.73,8.38,8.38,0,0,1,2.29-.43,5.81,5.81,0,0,1,2.06.26,4.08,4.08,0,0,1,1.73,1.11,5.22,5.22,0,0,1,1.15,2A4.52,4.52,0,0,1,114.12,52.55Z"/></g><path class="cls-13" d="M109.47,93.45a1.94,1.94,0,0,1-.91.47,3.62,3.62,0,0,1-1.09.06l-1.1-.11a4.23,4.23,0,0,0-1.07,0,1.5,1.5,0,0,0-.86.36,1.12,1.12,0,0,0-.45,1,1.94,1.94,0,0,0,.49,1.06,9.49,9.49,0,0,0,.78.8,7.42,7.42,0,0,1,.59.56.9.9,0,0,1,.22.75,1.23,1.23,0,0,1-.44.74,1,1,0,0,1-.64.26,1.19,1.19,0,0,1-.74-.21,9.68,9.68,0,0,1-2-1.82,5.83,5.83,0,0,1-.87-1.33,4.07,4.07,0,0,1-.38-1.38,2.94,2.94,0,0,1,.25-1.38,3.66,3.66,0,0,1,1-1.25,3.2,3.2,0,0,1,1-.59,2.77,2.77,0,0,1,1-.2,5,5,0,0,1,.94.06,7.5,7.5,0,0,1,.9.19l.78.19a2.28,2.28,0,0,0,.67.07.81.81,0,0,0,.49-.2l.21-.19a1,1,0,0,1,.67-.27,1,1,0,0,1,.66.21,1.86,1.86,0,0,1,.49.52,1,1,0,0,1,.15.69,1.05,1.05,0,0,1-.35.67Zm3.45-3.26a1.51,1.51,0,0,1-1.55,1.35,1.37,1.37,0,0,1-1-.5,1.42,1.42,0,0,1-.34-1,1.37,1.37,0,0,1,.51-1,1.43,1.43,0,0,1,1.06-.36,1.42,1.42,0,0,1,1.32,1.54Z"/><g class="cls-14"><path class="cls-4" d="M112,88.72a1.4,1.4,0,0,1,.61.42,1.33,1.33,0,0,1,.34,1,1.41,1.41,0,0,1-.52,1,1.39,1.39,0,0,1-1,.36,1.29,1.29,0,0,1-.64-.19,1.59,1.59,0,0,0,.38.07,1.47,1.47,0,0,0,1-.36,1.44,1.44,0,0,0,.51-1,1.33,1.33,0,0,0-.34-1A1.43,1.43,0,0,0,112,88.72Z"/><path class="cls-4" d="M109.15,91.13a1,1,0,0,1,.32.16,1.86,1.86,0,0,1,.49.52,1,1,0,0,1,.15.69,1.05,1.05,0,0,1-.35.67l-.29.28a1.94,1.94,0,0,1-.91.47,3.62,3.62,0,0,1-1.09.06c-.37,0-.74-.06-1.1-.11a4.32,4.32,0,0,0-1.08,0,1.5,1.5,0,0,0-.85.36,1.12,1.12,0,0,0-.45,1,1.94,1.94,0,0,0,.49,1.06,9.49,9.49,0,0,0,.78.8,7.42,7.42,0,0,1,.59.56.9.9,0,0,1,.22.75,1.19,1.19,0,0,1-.44.74,1.11,1.11,0,0,1-.64.26,1.2,1.2,0,0,1-.71-.18,1.22,1.22,0,0,0,.46.06,1.11,1.11,0,0,0,.63-.26,1.14,1.14,0,0,0,.44-.74.9.9,0,0,0-.22-.75c-.08-.09-.27-.28-.58-.56a8.37,8.37,0,0,1-.79-.8,1.94,1.94,0,0,1-.49-1.06,1.11,1.11,0,0,1,.45-1,1.58,1.58,0,0,1,.86-.37,4.77,4.77,0,0,1,1.07,0l1.1.11a4,4,0,0,0,1.09-.06,1.89,1.89,0,0,0,.91-.47l.29-.28a1.08,1.08,0,0,0,.2-1.36,2,2,0,0,0-.48-.52Z"/></g><g class="cls-14"><path d="M111.6,88.65a1.27,1.27,0,0,1,.64.2l-.25,0a1.48,1.48,0,0,0-1.06.36,1.38,1.38,0,0,0-.51,1,1.51,1.51,0,0,0,.69,1.33,1.4,1.4,0,0,1-.74-.46,1.43,1.43,0,0,1-.34-1,1.38,1.38,0,0,1,.51-1A1.43,1.43,0,0,1,111.6,88.65Z"/><path d="M103.16,91.43a2.77,2.77,0,0,1,1-.2,5,5,0,0,1,.94.06,7.94,7.94,0,0,1,.9.19l.78.19a2.28,2.28,0,0,0,.67.07.81.81,0,0,0,.49-.2l.21-.19a1,1,0,0,1,1.29-.09l-.23,0a1,1,0,0,0-.67.27l-.21.2a.8.8,0,0,1-.49.19,2.65,2.65,0,0,1-.67-.06l-.78-.2a7.5,7.5,0,0,0-.9-.19,5,5,0,0,0-.94-.06,3,3,0,0,0-1,.2,3.41,3.41,0,0,0-1,.59,3.6,3.6,0,0,0-1,1.26,2.88,2.88,0,0,0-.25,1.37,4.07,4.07,0,0,0,.38,1.38,5.62,5.62,0,0,0,.87,1.33,9.48,9.48,0,0,0,2,1.83h0a1.55,1.55,0,0,1-.41-.17,9.78,9.78,0,0,1-2-1.83,5.83,5.83,0,0,1-.87-1.33,4.13,4.13,0,0,1-.38-1.38,2.94,2.94,0,0,1,.25-1.38,3.66,3.66,0,0,1,1-1.25A3.08,3.08,0,0,1,103.16,91.43Z"/></g><path class="cls-13" d="M91.93,25.8a1.37,1.37,0,0,1,.38-.61,2.45,2.45,0,0,1,.62-.43l.7-.33a2.93,2.93,0,0,0,.63-.4,1.19,1.19,0,0,0,.39-.52.79.79,0,0,0-.09-.74,1.31,1.31,0,0,0-.68-.46,6.77,6.77,0,0,0-.75-.19,5.14,5.14,0,0,1-.55-.13.6.6,0,0,1-.4-.36.85.85,0,0,1,0-.61.77.77,0,0,1,.29-.38A.8.8,0,0,1,93,20.5a6.37,6.37,0,0,1,1.87.35,3.71,3.71,0,0,1,1,.48,2.76,2.76,0,0,1,.72.68,2,2,0,0,1,.35.91A2.56,2.56,0,0,1,96.79,24a2.34,2.34,0,0,1-.37.7,1.87,1.87,0,0,1-.51.47,4.14,4.14,0,0,1-.59.31q-.3.12-.6.21l-.54.16a2.06,2.06,0,0,0-.42.21.55.55,0,0,0-.22.29l-.06.19a.7.7,0,0,1-.3.41.76.76,0,0,1-.47.11,1.33,1.33,0,0,1-.48-.14.67.67,0,0,1-.33-.35.74.74,0,0,1,0-.53ZM91.05,29a1,1,0,0,1,.44-1.37,1,1,0,0,1,.78-.06,1,1,0,0,1,.57.49,1,1,0,0,1,.06.78,1,1,0,0,1-.5.6.94.94,0,0,1-.77.06A1,1,0,0,1,91.05,29Z"/><g class="cls-14"><path class="cls-4" d="M92.15,29.52a.93.93,0,0,1-.52,0,1,1,0,0,1-.58-.5,1,1,0,0,1,.44-1.37,1,1,0,0,1,.45-.11,1.06,1.06,0,0,0-.25.09,1,1,0,0,0-.49.59,1,1,0,0,0,0,.78,1,1,0,0,0,.58.5A1.19,1.19,0,0,0,92.15,29.52Z"/><path class="cls-4" d="M93,27.07a.69.69,0,0,1-.25,0,1.33,1.33,0,0,1-.48-.14.67.67,0,0,1-.33-.35.74.74,0,0,1,0-.53l.07-.27a1.37,1.37,0,0,1,.38-.61,2.45,2.45,0,0,1,.62-.43l.7-.33a2.93,2.93,0,0,0,.63-.4,1.19,1.19,0,0,0,.39-.52.79.79,0,0,0-.09-.74,1.31,1.31,0,0,0-.68-.46,6.77,6.77,0,0,0-.75-.19,5.14,5.14,0,0,1-.55-.13.6.6,0,0,1-.4-.36.85.85,0,0,1,0-.61.77.77,0,0,1,.29-.38A.84.84,0,0,1,93,20.5a.79.79,0,0,0-.3.12.81.81,0,0,0-.28.38.91.91,0,0,0,0,.61.62.62,0,0,0,.41.36,4.55,4.55,0,0,0,.55.13,6.77,6.77,0,0,1,.75.19,1.41,1.41,0,0,1,.68.45.78.78,0,0,1,.08.75,1.1,1.1,0,0,1-.38.52,2.93,2.93,0,0,1-.63.4c-.24.1-.47.22-.7.33a2.45,2.45,0,0,0-.62.43,1.28,1.28,0,0,0-.38.61l-.07.27a.8.8,0,0,0,0,.53.72.72,0,0,0,.34.35,1.33,1.33,0,0,0,.48.14Z"/></g><g class="cls-14"><path d="M92.4,29.43a1,1,0,0,1-.46.11l.17-.07a1,1,0,0,0,.5-.59,1,1,0,0,0-.06-.78.94.94,0,0,0-.58-.49.89.89,0,0,0-.31-.06,1,1,0,0,1,.61,0,1,1,0,0,1,.57.49,1,1,0,0,1,.06.78A1,1,0,0,1,92.4,29.43Z"/><path d="M96.42,24.73a1.87,1.87,0,0,1-.51.47,4.14,4.14,0,0,1-.59.31q-.3.12-.6.21l-.54.16a2.06,2.06,0,0,0-.42.21.55.55,0,0,0-.22.29l-.06.19a.7.7,0,0,1-.3.41.73.73,0,0,1-.43.11l.14-.07a.68.68,0,0,0,.3-.4l.06-.2a.55.55,0,0,1,.22-.29,1.63,1.63,0,0,1,.42-.2l.54-.17a3.91,3.91,0,0,0,.6-.21,3.27,3.27,0,0,0,.59-.3,2.28,2.28,0,0,0,.51-.48,2.23,2.23,0,0,0,.37-.7,2.53,2.53,0,0,0,.13-1.1,1.87,1.87,0,0,0-.35-.91,3,3,0,0,0-.72-.69,4.64,4.64,0,0,0-1-.48,6.72,6.72,0,0,0-1.88-.35h0a.75.75,0,0,1,.31,0,6.37,6.37,0,0,1,1.87.35,3.71,3.71,0,0,1,1,.48,2.76,2.76,0,0,1,.72.68,2,2,0,0,1,.35.91A2.56,2.56,0,0,1,96.79,24,2.34,2.34,0,0,1,96.42,24.73Z"/></g><path class="cls-13" d="M120,25a8,8,0,1,1,8-8A8,8,0,0,1,120,25Zm0-14a6,6,0,1,0,6,6A6,6,0,0,0,120,11Z"/><path class="cls-13" d="M120,29a8,8,0,0,1-8-8,1,1,0,1,1,2,0,6,6,0,0,0,12,0,1,1,0,1,1,2,0A8,8,0,0,1,120,29Z"/><path class="cls-13" d="M120,21a1,1,0,0,1-1-1V14a1,1,0,1,1,2,0v6A1,1,0,0,1,120,21Z"/><path class="cls-13" d="M123,18h-6a1,1,0,0,1,0-2h6a1,1,0,0,1,0,2Z"/><path class="cls-13" d="M113,22a1,1,0,0,1-1-1V17a1,1,0,1,1,2,0v4A1,1,0,0,1,113,22Z"/><path class="cls-13" d="M127,22a1,1,0,0,1-1-1V17a1,1,0,1,1,2,0v4A1,1,0,0,1,127,22Z"/></svg>