<svg id="Layer_1" data-name="Layer 1" xmlns="http://www.w3.org/2000/svg" viewBox="0 0 128 128"><defs><style>.cls-1{fill:#dbdee3;}.cls-2{fill:#5f6c79;}.cls-3{fill:#c4c4c3;}.cls-4{fill:#4f5662;}.cls-5{fill:#fff;}.cls-6{fill:#7b8993;}.cls-7{fill:#f2bbb1;}.cls-8{fill:#afb4b8;}.cls-9{fill:#bd9792;}.cls-10{fill:#e4e6e9;}.cls-11{fill:#8a97a0;}.cls-12{fill:#f6cdc3;}.cls-13{fill:#d3d2d1;}.cls-14{fill:#d0b2ae;}.cls-15{fill:#008fcf;}.cls-16{fill:#5fabdf;}.cls-17{fill:#0c7ab5;}.cls-18{fill:#f04c63;}.cls-19{fill:#00b19b;}.cls-20{fill:#39bdb0;}.cls-21{fill:#00ac8a;}.cls-22{fill:#f7d2c9;}.cls-23{fill:#5ac3b7;}.cls-24{fill:#aaadae;}.cls-25{fill:#a68682;}.cls-26{fill:#009478;}.cls-27{fill:#00775f;}.cls-28{fill:#a89693;}.cls-29{fill:#2d9d8e;}.cls-30{fill:#75b4e3;}.cls-31{fill:#206da2;}.cls-32{fill:#876b69;}.cls-33{fill:#2f5884;}.cls-34{fill:#5586a6;}.cls-35{fill:#8a8e8f;}.cls-36{fill:#3d364a;}</style></defs><title>forum-avaliativo-2</title><polyline class="cls-1" points="64.02 77.01 60.02 78.99 54.02 72.99 55.8 70.55 64.02 77.01"/><polyline class="cls-1" points="64.1 77.01 68.1 78.99 74.1 72.99 72.32 70.55 64.1 77.01"/><path class="cls-2" d="M71.92,43.05S80,41.91,78,55l-4-6A28.91,28.91,0,0,1,64,51,30.18,30.18,0,0,1,54,49l-4,6,0,0C47.92,33,74,37.37,74,37.37c-3.88,1.58-2.08,5.68-2.08,5.68"/><path class="cls-3" d="M78,55h0c.69-4.4.23-7.19-.69-9,.92,1.76,1.38,4.55.69,9M72.61,43h0m0,0h0m0,0h0"/><path class="cls-4" d="M78,55,76.26,52.4c.52-8.62-2.86-9.37-4-9.38h.34a5.35,5.35,0,0,1,4.68,3c.92,1.76,1.38,4.55.69,9"/><path class="cls-3" d="M71.92,43.05a1.5,1.5,0,0,1,.33,0h0l-.35,0h0"/><path class="cls-5" d="M50,55h0l0,0,1.89-2.84h0L50,55h0l0,0M51.86,44.4C55.56,38.14,63.6,37,68.9,37l1,0h0l-1,0c-5.31,0-13.35,1.13-17,7.39"/><path class="cls-6" d="M50,55c-.43-4.58.36-8,1.88-10.59,3.7-6.26,11.74-7.39,17-7.39l1,0c-7.06.18-17.77,2.56-18,15.1L50,55l0,0"/><path class="cls-7" d="M78,57c0,9.5-8.66,18.26-14,18.26S50,66.51,50,57V55l0,0,4-6A30.18,30.18,0,0,0,64,51,28.91,28.91,0,0,0,74,49l4,6H78v2"/><path class="cls-3" d="M64,75.27h0a8,8,0,0,0,3.58-1h0a8,8,0,0,1-3.58,1m8.16-4.62C75.43,67.2,78,62.22,78,57v0c0,5.21-2.61,10.19-5.84,13.64h0M70.69,50.06h0A30.21,30.21,0,0,0,74,49h0a28.87,28.87,0,0,1-3.29,1.07"/><path class="cls-8" d="M67.62,74.24h0a17.72,17.72,0,0,0,4.58-3.59h0a17.89,17.89,0,0,1-4.58,3.59"/><path class="cls-4" d="M70.69,50.06h0A29.76,29.76,0,0,0,74,49a30.21,30.21,0,0,1-3.27,1.06M74,49h0"/><path class="cls-9" d="M64,75.27h0a6.51,6.51,0,0,0,2-.36A10.64,10.64,0,0,1,64,74c4.82-2.75,10-9.65,10-17V55H74l-3.29-4.93A28.87,28.87,0,0,0,74,49h0l4,6H78v2c0,5.21-2.61,10.19-5.84,13.64a17.72,17.72,0,0,1-4.58,3.59,8,8,0,0,1-3.58,1"/><path class="cls-5" d="M63.78,75.26a8.13,8.13,0,0,1-3.22-1h0a8.08,8.08,0,0,0,3.21,1h0m-8-4.71C52.6,67.11,50,62.17,50,57V55l0,0h0l0,0v2c0,5.16,2.56,10.1,5.76,13.54h0M51.89,52.13h0L54,49h0l-2.09,3.14"/><path class="cls-10" d="M60.56,74.29a17.87,17.87,0,0,1-4.76-3.74h0a17.87,17.87,0,0,0,4.76,3.74h0"/><path class="cls-11" d="M57.28,50a28.52,28.52,0,0,1-3.1-1,29.32,29.32,0,0,0,3.1,1h0M54,49h0m0,0h0"/><polyline class="cls-5" points="50 54.97 50 54.97 51.89 52.13 51.89 52.13 50 54.97 50 54.97 50 54.97"/><path class="cls-12" d="M63.77,75.26a8.08,8.08,0,0,1-3.21-1,17.87,17.87,0,0,1-4.76-3.74C52.6,67.11,50,62.17,50,57V55l0,0h0l1.89-2.84L54,49l.2.07a28.52,28.52,0,0,0,3.1,1L54,55l0,0v2c0,7.34,5.19,14.24,10,17a10.64,10.64,0,0,1-2,.91,6.65,6.65,0,0,0,1.73.35"/><path class="cls-13" d="M64,75.27h0"/><path class="cls-14" d="M64,75.27h-.27A6.65,6.65,0,0,1,62,74.91,10.64,10.64,0,0,0,64,74a10.64,10.64,0,0,0,2,.91,6.51,6.51,0,0,1-2,.36"/><path class="cls-15" d="M88,91H40V84.33c0-3.34,1.68-4.6,5-5.84,1.64-.62,4.58-1.72,7-2.88l2.34-2.32L60,79l4-2,4,2,5.68-5.68L76,75.59c2.44,1.18,5.36,2.28,7,2.9,3.34,1.24,5,2.5,5,5.84V91"/><path class="cls-5" d="M40,91h0V84.33c0-3.34,1.68-4.6,5-5.84,1.64-.62,4.58-1.72,7-2.88l2.34-2.32h0L52,75.61c-2.42,1.16-5.36,2.26-7,2.88-3.32,1.24-5,2.5-5,5.84V91"/><path class="cls-16" d="M44,91H40V84.33c0-3.34,1.68-4.6,5-5.84,1.64-.62,4.58-1.72,7-2.88l2.34-2.32,2,2-.33.33c-2.42,1.16-5.36,2.26-7,2.88-3.32,1.24-5,2.5-5,5.84V91"/><path class="cls-3" d="M88,91h0V84.33c0-3.34-1.66-4.6-5-5.84-1.6-.61-4.42-1.67-6.82-2.81,2.4,1.13,5.26,2.2,6.86,2.81,3.32,1.24,5,2.5,5,5.84V91M76,75.61l0,0-2.24-2.24h0L76,75.61"/><polyline class="cls-8" points="71.71 75.3 71.69 75.28 73.68 73.29 73.74 73.34 73.74 73.35 73.7 73.31 71.71 75.3"/><path class="cls-17" d="M88,91H84V84.33c0-3.34-1.68-4.6-5-5.84-1.64-.62-4.58-1.72-7-2.88l-.31-.31,2-2,0,0L76,75.59l0,0h0l.14.07c2.4,1.14,5.22,2.2,6.82,2.81,3.34,1.24,5,2.5,5,5.84V91"/><polygon class="cls-18" points="66.1 90.99 62.1 90.99 63.1 79.99 65.1 79.99 66.1 90.99 66.1 90.99"/><polygon class="cls-18" points="62.25 77.27 65.81 77.27 65.81 79.98 62.25 79.98 62.25 77.27 62.25 77.27"/><path class="cls-7" d="M14,103c3.86,0,7,2.94,7,7.42a9,9,0,0,1-2,5.36c-1.5,1.92-3.5,3.22-5,3.22s-3.5-1.3-5-3.22a9,9,0,0,1-2-5.36c0-4.48,3.14-7.42,7-7.42"/><path class="cls-19" d="M19,117.92c0,.82,3,2.3,4.52,2.88S26,122,26,123.7V127H2v-3.3c0-1.66.82-2.28,2.48-2.9S9,118.74,9,117.92v-2.14c1.5,1.92,3.5,3.22,5,3.22s3.5-1.3,5-3.22v2.14"/><path class="cls-5" d="M4,127H2v-3.3c0-1.66.82-2.28,2.48-2.9S9,118.74,9,117.92v-2.14H9v2.14c0,.82-3,2.3-4.52,2.88S2,122,2,123.7V127H4"/><polyline class="cls-12" points="9.01 115.78 9.01 115.78 9.01 115.78 9.01 115.78 9.01 115.78"/><path class="cls-20" d="M4,127H2v-3.3c0-1.66.82-2.28,2.48-2.9S9,118.74,9,117.92v-2.14H9c.7.89,1.49,1.78,2,2.31v1.83c0,.82-3,2.3-4.52,2.88S4,124,4,125.7V127"/><path class="cls-20" d="M11.53,118.55a2.4,2.4,0,0,1-.52-.46v-.31c.43.54.57.77.52.77"/><path class="cls-21" d="M26,127H24v-1.3c0-1.66-.82-2.28-2.48-2.9S17,120.74,17,119.92v-1.83h0c.5-.51,1.26-1.38,1.95-2.24l.05-.07v2.14h0c0,.82,3,2.3,4.52,2.88S26,122,26,123.7V127"/><path class="cls-21" d="M16.49,118.55s.09-.23.52-.77v.31h0a2.4,2.4,0,0,1-.52.46"/><path class="cls-5" d="M9.42,104.69A6.89,6.89,0,0,1,14,103h0a6.83,6.83,0,0,0-4.57,1.69"/><path class="cls-22" d="M13.92,119c-1.49,0-3.44-1.34-4.91-3.22H9a9,9,0,0,1-2-5.36,7.45,7.45,0,0,1,2.41-5.73A6.83,6.83,0,0,1,14,103a6.26,6.26,0,0,0-1,.1,5.55,5.55,0,0,1,1,.21,7,7,0,0,0-5,7.11,9,9,0,0,0,2,5.36,10,10,0,0,0,3,2.62,6,6,0,0,1-1,.42,3.57,3.57,0,0,0,.91.18"/><path class="cls-23" d="M14,119c-1.5,0-3.5-1.3-5-3.22H9c1.47,1.88,3.42,3.17,4.91,3.22H14"/><path class="cls-24" d="M17.5,117.37h0m0,0a10.78,10.78,0,0,0,1.5-1.58,9,9,0,0,0,2-5.36C21,106,17.88,103,14,103h0c3.86,0,7,2.94,7,7.42a9,9,0,0,1-2,5.36h0a10.78,10.78,0,0,1-1.5,1.58"/><path class="cls-25" d="M14.1,119a3.57,3.57,0,0,0,.91-.18,6,6,0,0,1-1-.42,10,10,0,0,0,3-2.62,9,9,0,0,0,2-5.36,7,7,0,0,0-5-7.11,5.55,5.55,0,0,1,1-.21,6.26,6.26,0,0,0-1-.1c3.85,0,7,3,7,7.42a9,9,0,0,1-2,5.36,10.78,10.78,0,0,1-1.5,1.58h0A6,6,0,0,1,14.1,119"/><path class="cls-26" d="M14,119h.09a6,6,0,0,0,3.4-1.63h0a10.78,10.78,0,0,0,1.5-1.58h0l-.05.07c-1.5,1.88-3.47,3.15-5,3.15"/><path class="cls-27" d="M19,115.85l.05-.07h0l-.05.07"/><path class="cls-28" d="M14,119h-.09a3.57,3.57,0,0,1-.91-.18,6,6,0,0,0,1-.42,6,6,0,0,0,1,.42,3.57,3.57,0,0,1-.91.18H14"/><path class="cls-29" d="M14,119h0"/><path class="cls-28" d="M14,103.31a5.55,5.55,0,0,0-1-.21,6.26,6.26,0,0,1,1-.1h0a6.26,6.26,0,0,1,1,.1,5.55,5.55,0,0,0-1,.21"/><path class="cls-7" d="M114,103c3.86,0,7,2.94,7,7.42a9,9,0,0,1-2,5.36c-1.5,1.92-3.5,3.22-5,3.22s-3.5-1.3-5-3.22a9,9,0,0,1-2-5.36c0-4.48,3.14-7.42,7-7.42"/><path class="cls-15" d="M119,117.92c0,.82,3,2.3,4.52,2.88S126,122,126,123.7V127H102v-3.3c0-1.66.82-2.28,2.48-2.9s4.52-2.06,4.52-2.88v-2.14c1.5,1.92,3.5,3.22,5,3.22s3.5-1.3,5-3.22v2.14h0"/><path class="cls-5" d="M105.27,120.48A16.94,16.94,0,0,0,108.1,119a16.94,16.94,0,0,1-2.83,1.53m3.8-4.62-.06-.08h0l.06.07h0"/><path class="cls-16" d="M104,127h-2v-3.3c0-1.66.82-2.28,2.48-2.9l.78-.32A16.94,16.94,0,0,0,108.1,119c.54-.38.91-.74.91-1h0v-2.14l.06.08c.68.86,1.44,1.72,1.94,2.23v1.83c0,.82-3,2.3-4.52,2.88S104,124,104,125.7V127"/><path class="cls-16" d="M111.52,118.55a2.49,2.49,0,0,1-.51-.46v-.31c.42.54.56.77.51.77"/><polyline class="cls-3" points="119.01 117.92 119.01 117.92 119.01 117.92 119.01 115.78 119.01 115.78 119.01 117.92"/><path class="cls-17" d="M126,127h-2v-1.3c0-1.66-.82-2.28-2.48-2.9s-4.52-2.06-4.52-2.88v-1.83c.49-.51,1.25-1.37,1.94-2.23l.06-.08v2.14h0c0,.82,3,2.3,4.52,2.88S126,122,126,123.7V127"/><path class="cls-17" d="M116.49,118.55s.09-.23.52-.77v.31a2.4,2.4,0,0,1-.52.46"/><path class="cls-5" d="M111.91,118.35a9.1,9.1,0,0,1-2-1.53,10.08,10.08,0,0,1-.86-1l-.06-.07h0a9,9,0,0,1-2-5.36c0-4.48,3.14-7.42,7-7.42h0c-3.85,0-7,3-7,7.42a9,9,0,0,0,2,5.36,9.87,9.87,0,0,0,2.9,2.57"/><path class="cls-22" d="M113.92,119a4.5,4.5,0,0,1-2-.65,9.87,9.87,0,0,1-2.9-2.57,9,9,0,0,1-2-5.36c0-4.47,3.13-7.41,7-7.42a6.26,6.26,0,0,0-1,.1,5.74,5.74,0,0,1,1,.21,7,7,0,0,0-5,7.11,9,9,0,0,0,2,5.36,10,10,0,0,0,3,2.62,6,6,0,0,1-1,.42,3.41,3.41,0,0,0,.91.18"/><path class="cls-30" d="M114,119a6.51,6.51,0,0,1-4.08-2.18,9.1,9.1,0,0,0,2,1.53,4.5,4.5,0,0,0,2,.65H114"/><path class="cls-5" d="M109.07,115.85l-.06-.07h0l.06.07"/><path class="cls-24" d="M121,110.42c0-4.47-3.13-7.41-7-7.42h0c3.86,0,7,2.94,7,7.42h0"/><path class="cls-25" d="M114.1,119a3.49,3.49,0,0,0,.91-.18,5.62,5.62,0,0,1-1-.42,10.07,10.07,0,0,0,3-2.62,9,9,0,0,0,2-5.36,7,7,0,0,0-5-7.11,5.55,5.55,0,0,1,1-.21,6.51,6.51,0,0,0-1-.1c3.85,0,7,3,7,7.42a8.73,8.73,0,0,1-1.63,4.84c-.12.18-.24.35-.37.52h0c-1.47,1.88-3.42,3.17-4.91,3.22"/><path class="cls-31" d="M114,119h.09c1.49,0,3.44-1.34,4.91-3.22h0l-.06.08c-1.5,1.88-3.46,3.14-4.94,3.14"/><polyline class="cls-32" points="119.01 115.78 119.01 115.78 119.01 115.78 119.01 115.78 119.01 115.78 119.01 115.78"/><path class="cls-33" d="M119,115.86l.06-.08h0l-.06.08"/><path class="cls-28" d="M114,119h-.09a3.41,3.41,0,0,1-.91-.18,6,6,0,0,0,1-.42,5.62,5.62,0,0,0,1,.42,3.49,3.49,0,0,1-.91.18H114"/><path class="cls-34" d="M114,119h0"/><path class="cls-28" d="M114,103.31a5.74,5.74,0,0,0-1-.21,6.26,6.26,0,0,1,1-.1h0a6.51,6.51,0,0,1,1,.1,5.55,5.55,0,0,0-1,.21"/><path class="cls-7" d="M114,1c3.86,0,7,2.94,7,7.42a9,9,0,0,1-2,5.36c-1.5,1.92-3.5,3.22-5,3.22s-3.5-1.3-5-3.22a9,9,0,0,1-2-5.36C107,3.94,110.15,1,114,1"/><path class="cls-19" d="M119,15.92c0,.82,3,2.3,4.52,2.88S126,20,126,21.7V25H102V21.7c0-1.66.82-2.28,2.48-2.9S109,16.74,109,15.92V13.78c1.5,1.92,3.5,3.22,5,3.22s3.5-1.3,5-3.22v2.14h0"/><path class="cls-5" d="M109.07,13.86l-.06-.08h0l.06.07h0"/><path class="cls-20" d="M104,25h-2V21.7c0-1.66.82-2.28,2.48-2.9S109,16.74,109,15.92h0V13.78l.06.08c.68.86,1.44,1.72,1.94,2.23v1.83c0,.82-3,2.3-4.52,2.88S104,22,104,23.7V25"/><path class="cls-20" d="M111.52,16.55a2.49,2.49,0,0,1-.51-.46v-.31c.42.54.56.77.51.77"/><polyline class="cls-3" points="119.01 15.92 119.01 15.92 119.01 15.92 119.01 13.78 119.01 13.78 119.01 15.92"/><path class="cls-21" d="M126,25h-2V23.7c0-1.66-.82-2.28-2.48-2.9S117,18.74,117,17.92V16.09c.49-.51,1.25-1.37,1.94-2.23l.06-.08v2.14h0c0,.82,3,2.3,4.52,2.88S126,20,126,21.7V25"/><path class="cls-21" d="M116.49,16.55s.09-.23.52-.77v.31a2.4,2.4,0,0,1-.52.46"/><path class="cls-5" d="M113.92,17a6.66,6.66,0,0,1-4-2.18,10.08,10.08,0,0,1-.86-1l-.06-.07h0a9,9,0,0,1-2-5.36,8.18,8.18,0,0,1,.88-3.79A8.15,8.15,0,0,0,107,8.42a9,9,0,0,0,2,5.36c1.47,1.88,3.42,3.17,4.91,3.22h0"/><path class="cls-22" d="M113.92,17c-1.49-.05-3.44-1.34-4.91-3.22a9,9,0,0,1-2-5.36,8.15,8.15,0,0,1,.88-3.79A6.8,6.8,0,0,1,114,1h0a6.64,6.64,0,0,0-1,.1,5.74,5.74,0,0,1,1,.21,7,7,0,0,0-5,7.11,9,9,0,0,0,2,5.36,10,10,0,0,0,3,2.62,6,6,0,0,1-1,.42,3.41,3.41,0,0,0,.91.18"/><path class="cls-23" d="M114,17a6.51,6.51,0,0,1-4.08-2.18,6.66,6.66,0,0,0,4,2.18H114"/><path class="cls-5" d="M109.07,13.85l-.06-.07h0l.06.07"/><path class="cls-24" d="M119,13.78h0a9,9,0,0,0,2-5.36h0a9,9,0,0,1-2,5.36h0"/><path class="cls-25" d="M114.1,17a3.57,3.57,0,0,0,.91-.18,5.62,5.62,0,0,1-1-.42,10.07,10.07,0,0,0,3-2.62,9,9,0,0,0,2-5.36,7,7,0,0,0-5-7.11,5.55,5.55,0,0,1,1-.21,6.64,6.64,0,0,0-1-.1h0c3.86,0,7,2.94,7,7.42a9,9,0,0,1-2,5.36h0c-1.47,1.88-3.43,3.17-4.91,3.22"/><path class="cls-26" d="M114,17h.09c1.48-.05,3.44-1.34,4.91-3.22h0l-.06.08C117.45,15.74,115.49,17,114,17"/><polyline class="cls-35" points="119.01 13.78 119.01 13.78 119.01 13.78 119.01 13.78 119.01 13.78 119.01 13.78"/><polyline class="cls-32" points="119.01 13.78 119.01 13.78 119.01 13.78 119.01 13.78"/><path class="cls-27" d="M119,13.86l.06-.08h0l-.06.08"/><path class="cls-24" d="M114,17h0"/><path class="cls-28" d="M114,17h-.09a3.41,3.41,0,0,1-.91-.18,6,6,0,0,0,1-.42,5.62,5.62,0,0,0,1,.42,3.57,3.57,0,0,1-.91.18H114"/><path class="cls-29" d="M114,17h0"/><path class="cls-28" d="M114,1.31a5.74,5.74,0,0,0-1-.21,5,5,0,0,1,2,0,5.55,5.55,0,0,0-1,.21"/><path class="cls-7" d="M14,1c3.86,0,7,2.94,7,7.42a9,9,0,0,1-2,5.36C17.5,15.7,15.5,17,14,17s-3.5-1.3-5-3.22A9,9,0,0,1,7,8.42C7,3.94,10.14,1,14,1"/><path class="cls-15" d="M19,15.92c0,.82,3,2.3,4.52,2.88S26,20,26,21.7V25H2V21.7c0-1.66.82-2.28,2.48-2.9S9,16.74,9,15.92V13.78C10.5,15.7,12.5,17,14,17s3.5-1.3,5-3.22v2.14"/><path class="cls-12" d="M9,13.81l0,0,0,0"/><path class="cls-16" d="M4,25H2V21.7c0-1.66.82-2.28,2.48-2.9S9,16.74,9,15.92V13.78H9l0,0c.69.88,1.47,1.76,2,2.28v1.83c0,.82-3,2.3-4.52,2.88S4,22,4,23.7V25"/><path class="cls-16" d="M11.52,16.55a2.4,2.4,0,0,1-.52-.46v-.31c.43.54.57.77.52.77"/><path class="cls-17" d="M26,25H24V23.7c0-1.66-.82-2.28-2.48-2.9S17,18.74,17,17.92V16.09c.5-.51,1.26-1.37,1.94-2.23l.06-.08v2.14h0c0,.82,3,2.3,4.52,2.88S26,20,26,21.7V25"/><path class="cls-17" d="M16.49,16.55s.09-.23.51-.77v.31a2.49,2.49,0,0,1-.51.46"/><polyline class="cls-30" points="14 17 14 17 14.01 17 14 17"/><path class="cls-5" d="M8.76,13.45A10.17,10.17,0,0,1,8,12.19a10.17,10.17,0,0,0,.78,1.26"/><path class="cls-22" d="M13.92,17c-1.35-.05-3.08-1.11-4.49-2.71-.15-.16-.29-.33-.43-.51l-.24-.33A10.17,10.17,0,0,1,8,12.19,8.26,8.26,0,0,1,7,8.42C7,3.94,10.14,1,14,1h0a6.64,6.64,0,0,0-1,.1,5.55,5.55,0,0,1,1,.21A7,7,0,0,0,9,8.42a9,9,0,0,0,2,5.36,10.19,10.19,0,0,0,3,2.62,5.62,5.62,0,0,1-1,.42,3.56,3.56,0,0,0,.92.18"/><path class="cls-30" d="M14,17c-1.37,0-3.14-1.08-4.57-2.71,1.41,1.6,3.14,2.66,4.49,2.71H14"/><polyline class="cls-31" points="14 17 14 17 14 17 14 17"/><path class="cls-24" d="M14.09,17h0c1.48-.05,3.42-1.33,4.89-3.19h0C17.51,15.67,15.57,17,14.09,17M19,13.78h0a9,9,0,0,0,2-5.36h0a9,9,0,0,1-2,5.36h0"/><path class="cls-25" d="M14.09,17a3.41,3.41,0,0,0,.91-.18,6,6,0,0,1-1-.42,10,10,0,0,0,3-2.62,9,9,0,0,0,2-5.36,7,7,0,0,0-5-7.11,5.74,5.74,0,0,1,1-.21A6.64,6.64,0,0,0,14,1c3.86,0,7,2.94,7,7.42a9,9,0,0,1-2,5.36h0l0,0C17.51,15.67,15.57,17,14.09,17"/><path class="cls-31" d="M14,17h.08c1.48-.05,3.42-1.33,4.89-3.19l0,0C17.45,15.73,15.49,17,14,17"/><path class="cls-32" d="M19,13.81l0,0,0,0"/><path class="cls-33" d="M18.94,13.86l0,0,0,0h0l-.06.08"/><path class="cls-24" d="M14,17h0"/><path class="cls-28" d="M14,17h-.08a3.56,3.56,0,0,1-.92-.18,5.62,5.62,0,0,0,1-.42,6,6,0,0,0,1,.42,3.41,3.41,0,0,1-.91.18H14"/><path class="cls-34" d="M14,17h0"/><path class="cls-28" d="M14,1.31a5.55,5.55,0,0,0-1-.21A6.64,6.64,0,0,1,14,1h0a6.64,6.64,0,0,1,1,.1,5.74,5.74,0,0,0-1,.21"/><path class="cls-36" d="M126,128H102a1,1,0,0,1-1-1v-3.3c0-2.45,1.61-3.26,3.12-3.83a13.36,13.36,0,0,0,3.9-2.14,1,1,0,0,1,1-.81,1,1,0,0,1,1,1c0,1.75-4,3.37-5.18,3.82-1.57.59-1.82,1-1.82,2V126h22v-2.3c0-1-.25-1.37-1.83-2-.86-.33-5.17-2-5.17-3.83a1,1,0,0,1,2-.19,13.36,13.36,0,0,0,3.9,2.14c1.51.57,3.12,1.37,3.12,3.83V127a1,1,0,0,1-1,1Z"/><path class="cls-36" d="M114,104c-3.47,0-6,2.7-6,6.41,0,4.08,4,7.59,6,7.59s6-3.51,6-7.59c0-3.71-2.52-6.41-6-6.41Zm0,16c-3.42,0-8-4.74-8-9.59s3.44-8.41,8-8.41,8,3.54,8,8.41-4.58,9.59-8,9.59Z"/><path class="cls-36" d="M119,118.92a1,1,0,0,1-1-1v-2.14a1,1,0,0,1,2,0v2.14a1,1,0,0,1-1,1Z"/><path class="cls-36" d="M109,118.92a1,1,0,0,1-1-1v-2.14a1,1,0,0,1,2,0v2.14a1,1,0,0,1-1,1Z"/><path class="cls-36" d="M26,128H2a1,1,0,0,1-1-1v-3.3c0-2.45,1.61-3.26,3.12-3.83A13.36,13.36,0,0,0,8,117.73a1,1,0,0,1,1-.81,1,1,0,0,1,1,1c0,1.75-4,3.37-5.17,3.82-1.58.59-1.83,1-1.83,2V126H25v-2.3c0-1-.25-1.37-1.83-2-.86-.33-5.17-2-5.17-3.83a1,1,0,0,1,2-.19,13.36,13.36,0,0,0,3.9,2.14c1.51.57,3.12,1.37,3.12,3.83V127a1,1,0,0,1-1,1Z"/><path class="cls-36" d="M14,104c-3.47,0-6,2.7-6,6.41,0,4.08,4,7.59,6,7.59s6-3.51,6-7.59c0-3.71-2.52-6.41-6-6.41Zm0,16c-3.42,0-8-4.74-8-9.59S9.44,102,14,102s8,3.54,8,8.41S17.42,120,14,120Z"/><path class="cls-36" d="M19,118.92a1,1,0,0,1-1-1v-2.14a1,1,0,0,1,2,0v2.14a1,1,0,0,1-1,1Z"/><path class="cls-36" d="M9,118.92a1,1,0,0,1-1-1v-2.14a1,1,0,0,1,2,0v2.14a1,1,0,0,1-1,1Z"/><path class="cls-36" d="M126,26H102a1,1,0,0,1-1-1V21.7c0-2.45,1.61-3.26,3.12-3.83a13.36,13.36,0,0,0,3.9-2.14,1,1,0,0,1,1-.81,1,1,0,0,1,1,1c0,1.75-4,3.37-5.18,3.82-1.57.59-1.82,1-1.82,2V24h22V21.7c0-1-.25-1.37-1.83-1.95-.86-.33-5.17-2-5.17-3.83a1,1,0,0,1,2-.19,13.36,13.36,0,0,0,3.9,2.14c1.51.57,3.12,1.37,3.12,3.83V25a1,1,0,0,1-1,1Z"/><path class="cls-36" d="M114,2c-3.47,0-6,2.7-6,6.41,0,4.08,4,7.59,6,7.59s6-3.51,6-7.59C120,4.7,117.48,2,114,2Zm0,16c-3.42,0-8-4.74-8-9.59S109.44,0,114,0s8,3.54,8,8.41S117.42,18,114,18Z"/><path class="cls-36" d="M119,16.92a1,1,0,0,1-1-1V13.78a1,1,0,0,1,2,0v2.14a1,1,0,0,1-1,1Z"/><path class="cls-36" d="M109,16.92a1,1,0,0,1-1-1V13.78a1,1,0,0,1,2,0v2.14a1,1,0,0,1-1,1Z"/><path class="cls-36" d="M26,26H2a1,1,0,0,1-1-1V21.7c0-2.45,1.61-3.26,3.12-3.83A13.36,13.36,0,0,0,8,15.73a1,1,0,0,1,1-.81,1,1,0,0,1,1,1c0,1.75-4,3.37-5.17,3.82-1.58.59-1.83,1-1.83,2V24H25V21.7c0-1-.25-1.37-1.83-1.95-.86-.33-5.17-2-5.17-3.83a1,1,0,0,1,2-.19,13.36,13.36,0,0,0,3.9,2.14c1.51.57,3.12,1.37,3.12,3.83V25a1,1,0,0,1-1,1Z"/><path class="cls-36" d="M14,2C10.53,2,8,4.7,8,8.41,8,12.49,12,16,14,16s6-3.51,6-7.59C20,4.7,17.48,2,14,2Zm0,16c-3.42,0-8-4.74-8-9.59S9.44,0,14,0s8,3.54,8,8.41S17.42,18,14,18Z"/><path class="cls-36" d="M19,16.92a1,1,0,0,1-1-1V13.78a1,1,0,0,1,2,0v2.14a1,1,0,0,1-1,1Z"/><path class="cls-36" d="M9,16.92a1,1,0,0,1-1-1V13.78a1,1,0,0,1,2,0v2.14a1,1,0,0,1-1,1Z"/><path class="cls-36" d="M40,92a1,1,0,0,1-1-1V84.33c0-3.9,2.07-5.44,5.65-6.78,1.88-.7,4.63-1.75,6.92-2.84a1,1,0,0,1,.86,1.8c-2.36,1.13-5.17,2.2-7.08,2.92C41.94,80.7,41,81.76,41,84.33V91a1,1,0,0,1-1,1Z"/><path class="cls-36" d="M88,92a1,1,0,0,1-1-1V84.33c0-2.57-.94-3.63-4.35-4.9-1.9-.71-4.71-1.79-7.09-2.93a1,1,0,1,1,.87-1.8c2.3,1.1,5,2.16,6.92,2.85C86.93,78.89,89,80.43,89,84.33V91a1,1,0,0,1-1,1Z"/><path class="cls-36" d="M64,76c-5.66,0-15-9-15-19.24a1,1,0,0,1,2,0C51,65.64,59.07,74,64,74s13-8.35,13-17.24a1,1,0,1,1,2,0C79,67,69.61,76,64,76Z"/><path class="cls-36" d="M73.89,47.72a1,1,0,0,1,.84.44l2.46,3.7c.16-3-.36-5.25-1.52-6.61a4.39,4.39,0,0,0-3.36-1.5,3.33,3.33,0,0,0-.34,0,1,1,0,0,1-1-.58,5.53,5.53,0,0,1-.14-4,4.09,4.09,0,0,1,.6-1.06c-4.26-.35-12.82-.27-17.42,4.78a13.21,13.21,0,0,0-3.17,8.65l2.27-3.4a1,1,0,0,1,1.21-.37A29.26,29.26,0,0,0,64,49.72a28,28,0,0,0,9.56-1.93,1,1,0,0,1,.38-.07Zm4,8a1,1,0,0,1-.83-.45l-3.55-5.33A29.83,29.83,0,0,1,64,51.72a30.46,30.46,0,0,1-9.68-1.79l-3.56,5.34a1,1,0,0,1-1.07.42,1,1,0,0,1-.75-.88c-.53-5.6.68-10.06,3.58-13.25C56.66,37,63.44,36,68.4,36a35.58,35.58,0,0,1,5.78.44,1,1,0,0,1,.2,1.91,3,3,0,0,0-1.75,1.56,3.35,3.35,0,0,0-.08,1.84A6.43,6.43,0,0,1,77.19,44c1.91,2.23,2.47,5.9,1.69,10.92a1,1,0,0,1-.77.82.78.78,0,0,1-.22,0Z"/><path class="cls-36" d="M78,57.75a1,1,0,0,1-1-1v-2a1,1,0,0,1,2,0v2a1,1,0,0,1-1,1Z"/><path class="cls-36" d="M50,57.75a1,1,0,0,1-1-1v-2a1,1,0,0,1,2,0v2a1,1,0,0,1-1,1Z"/><path class="cls-36" d="M60,80a1,1,0,0,1-.7-.29l-6-6a1,1,0,0,1,0-1.42,1,1,0,0,1,1.41,0l5.49,5.5,3.39-1.69a1,1,0,1,1,.88,1.8l-4,2A1,1,0,0,1,60,80Z"/><path class="cls-36" d="M68,80a1,1,0,0,1-.44-.1l-4-2a1,1,0,0,1,.89-1.8l3.38,1.69,5.49-5.5a1,1,0,0,1,1.42,1.42l-6,6A1,1,0,0,1,68,80Z"/><path class="cls-36" d="M64.11,82a1,1,0,0,1-.71-.29l-2-2a1,1,0,0,1,0-1.42,1,1,0,0,1,1.41,0l2,2a1,1,0,0,1-.7,1.71Z"/><path class="cls-36" d="M64.11,82a1,1,0,0,1-.71-.29,1,1,0,0,1,0-1.42l2-2a1,1,0,0,1,1.41,1.42l-2,2a1,1,0,0,1-.7.29Z"/><path class="cls-36" d="M62.11,90H62a1,1,0,0,1-.89-1.1l1-9A1,1,0,0,1,63.22,79a1,1,0,0,1,.88,1.1l-1,9a1,1,0,0,1-1,.89Z"/><path class="cls-36" d="M66.11,90a1,1,0,0,1-1-.89l-1-9a1,1,0,0,1,2-.22l1,9a1,1,0,0,1-.88,1.1Z"/><path class="cls-36" d="M88,92H40a1,1,0,0,1,0-2H88a1,1,0,0,1,0,2Z"/><path class="cls-36" d="M26,106a1,1,0,0,1-.7-.29,1,1,0,0,1,0-1.42l10-10a1,1,0,0,1,1.41,0,1,1,0,0,1,0,1.42l-10,10A1,1,0,0,1,26,106Z"/><path class="cls-36" d="M28,106H26a1,1,0,1,1,0-2h2a1,1,0,0,1,0,2Z"/><path class="cls-36" d="M26,106a1,1,0,0,1-1-1v-2a1,1,0,0,1,2,0v2a1,1,0,0,1-1,1Z"/><path class="cls-36" d="M102,106a1,1,0,0,1-.71-.29l-10-10a1,1,0,0,1,1.42-1.42l10,10a1,1,0,0,1,0,1.42,1,1,0,0,1-.71.29Z"/><path class="cls-36" d="M102,106h-2a1,1,0,0,1,0-2h2a1,1,0,0,1,0,2Z"/><path class="cls-36" d="M102,106a1,1,0,0,1-1-1v-2a1,1,0,0,1,2,0v2a1,1,0,0,1-1,1Z"/><path class="cls-36" d="M36,42a1,1,0,0,1-.71-.29l-10-10a1,1,0,0,1,1.42-1.42l10,10A1,1,0,0,1,36,42Z"/><path class="cls-36" d="M28,32H26a1,1,0,0,1,0-2h2a1,1,0,0,1,0,2Z"/><path class="cls-36" d="M26,34a1,1,0,0,1-1-1V31a1,1,0,0,1,2,0v2a1,1,0,0,1-1,1Z"/><path class="cls-36" d="M92,42a1,1,0,0,1-.71-.29,1,1,0,0,1,0-1.42l10-10a1,1,0,0,1,1.42,1.42l-10,10A1,1,0,0,1,92,42Z"/><path class="cls-36" d="M102,32h-2a1,1,0,0,1,0-2h2a1,1,0,0,1,0,2Z"/><path class="cls-36" d="M102,34a1,1,0,0,1-1-1V31a1,1,0,1,1,2,0v2a1,1,0,0,1-1,1Z"/><path class="cls-36" d="M84.12,12a1,1,0,0,1-.71-.29L82,10.29A1,1,0,1,1,83.4,8.88l1.43,1.42a1,1,0,0,1,0,1.42,1,1,0,0,1-.71.29Z"/><path class="cls-36" d="M82.7,13.41a1,1,0,0,1-.71-.29,1,1,0,0,1,0-1.41l1.39-1.4a1,1,0,1,1,1.42,1.42l-1.4,1.39a1,1,0,0,1-.7.29Z"/><path class="cls-36" d="M45.42,13.46a1,1,0,0,1-.7-.3l-1.43-1.42a1,1,0,0,1,1.42-1.42l1.42,1.43a1,1,0,0,1,0,1.41,1,1,0,0,1-.71.3Z"/><path class="cls-36" d="M44,12a1,1,0,0,1-.71-.29,1,1,0,0,1,0-1.42l1.4-1.39a1,1,0,0,1,1.41,1.41l-1.39,1.4A1,1,0,0,1,44,12Z"/><path class="cls-36" d="M84.12,12H44a1,1,0,0,1,0-2H84.12a1,1,0,0,1,0,2Z"/><path class="cls-36" d="M84.12,118a1,1,0,0,1-.71-.29L82,116.27a1,1,0,1,1,1.41-1.41l1.43,1.43a1,1,0,0,1,0,1.41,1,1,0,0,1-.71.29Z"/><path class="cls-36" d="M82.7,119.39a1,1,0,0,1-.71-.29,1,1,0,0,1,0-1.41l1.39-1.4a1,1,0,1,1,1.42,1.42l-1.4,1.39a1,1,0,0,1-.7.29Z"/><path class="cls-36" d="M45.42,119.44a1,1,0,0,1-.7-.3l-1.43-1.42a1,1,0,1,1,1.42-1.42l1.42,1.43a1,1,0,0,1,0,1.41,1,1,0,0,1-.71.3Z"/><path class="cls-36" d="M44,118a1,1,0,0,1-.71-.29,1,1,0,0,1,0-1.41l1.4-1.4a1,1,0,0,1,1.41,0,1,1,0,0,1,0,1.42l-1.39,1.39A1,1,0,0,1,44,118Z"/><path class="cls-36" d="M84.12,118H44a1,1,0,1,1,0-2H84.12a1,1,0,0,1,0,2Z"/><path class="cls-36" d="M114,84.06a1,1,0,0,1-.71-.29,1,1,0,0,1,0-1.42l1.43-1.42a1,1,0,0,1,1.41,1.41l-1.43,1.43a1,1,0,0,1-.7.29Z"/><path class="cls-36" d="M114,84a1,1,0,0,1-.71-.29l-1.39-1.4a1,1,0,0,1,1.41-1.41l1.4,1.39a1,1,0,0,1,0,1.42A1,1,0,0,1,114,84Z"/><path class="cls-36" d="M112.56,47.36a1,1,0,0,1-.7-.29,1,1,0,0,1,0-1.41l1.42-1.43a1,1,0,1,1,1.42,1.42l-1.43,1.42a1,1,0,0,1-.71.29Z"/><path class="cls-36" d="M115.39,47.36a1,1,0,0,1-.71-.29l-1.39-1.39a1,1,0,0,1,0-1.42,1,1,0,0,1,1.41,0l1.4,1.4a1,1,0,0,1,0,1.41,1,1,0,0,1-.71.29Z"/><path class="cls-36" d="M114,84.06a1,1,0,0,1-1-1V44.94a1,1,0,0,1,2,0V83.06a1,1,0,0,1-1,1Z"/><path class="cls-36" d="M14,84.06a1,1,0,0,1-.71-.29,1,1,0,0,1,0-1.42l1.43-1.42a1,1,0,0,1,1.41,1.41l-1.42,1.43a1,1,0,0,1-.71.29Z"/><path class="cls-36" d="M14,84a1,1,0,0,1-.7-.29l-1.4-1.4a1,1,0,0,1,1.41-1.41l1.4,1.39a1,1,0,0,1,0,1.42A1,1,0,0,1,14,84Z"/><path class="cls-36" d="M12.56,47.36a1,1,0,0,1-.7-.29,1,1,0,0,1,0-1.41l1.42-1.43a1,1,0,0,1,1.42,1.42l-1.43,1.42a1,1,0,0,1-.71.29Z"/><path class="cls-36" d="M15.39,47.36a1,1,0,0,1-.7-.29l-1.4-1.39a1,1,0,0,1,1.42-1.42l1.39,1.4a1,1,0,0,1,0,1.41,1,1,0,0,1-.71.29Z"/><path class="cls-36" d="M14,84.06a1,1,0,0,1-1-1V44.94a1,1,0,0,1,2,0V83.06a1,1,0,0,1-1,1Z"/></svg>