<svg id="Layer_1" data-name="Layer 1" xmlns="http://www.w3.org/2000/svg" viewBox="0 0 128 128"><defs><style>.cls-1{fill:#e6e9ed;}.cls-2{fill:#fff;}.cls-3{opacity:0.1;}.cls-4{fill:#656d78;}.cls-5{opacity:0.2;}.cls-6{fill:#5d9cec;}.cls-7{fill:#ccd1d9;}.cls-8{fill:#ffce54;}.cls-9{fill:#ed5565;}.cls-10{opacity:0.3;}.cls-11{fill:#f5f7fa;}.cls-12{fill:#3a3847;}</style></defs><title>forum-de-noticia</title><path class="cls-1" d="M127,5H13V93a6,6,0,0,1-6,6H121a6,6,0,0,0,6-6h0V5Z"/><path class="cls-2" d="M17,93V5H13V93a6,6,0,0,1-6,6h4A6,6,0,0,0,17,93Z"/><g class="cls-3"><path d="M127,93V5h-4V93a6,6,0,0,1-6,6h4A6,6,0,0,0,127,93Z"/></g><polygon class="cls-4" points="90.52 98 72.78 100.76 71.67 94.8 89.46 91.74 90.52 98"/><g class="cls-5"><polygon points="89.46 91.74 87.52 92.07 88.52 98 72.72 100.46 72.78 100.76 90.52 98 89.46 91.74"/></g><g class="cls-5"><polygon class="cls-2" points="73.67 94.8 89.52 92.07 89.46 91.74 71.67 94.8 72.78 100.76 74.72 100.46 73.67 94.8"/></g><rect class="cls-6" x="25" y="32.98" width="28" height="18"/><rect class="cls-6" x="25" y="12.98" width="94" height="12"/><path class="cls-7" d="M1,11V93a6,6,0,0,0,12,0V5Z"/><path class="cls-8" d="M33,39a2,2,0,1,1-2-2A2,2,0,0,1,33,39Z"/><polygon class="cls-1" points="43 40.98 35.51 50.98 50.51 50.98 43 40.98"/><polygon class="cls-7" points="38.05 47.58 35.51 50.98 29.7 50.98 35 42.98 38.05 47.58"/><polygon class="cls-9" points="64.22 94.04 59.22 93 55.74 73.3 64.9 67.64 69.76 95.2 64.22 94.04"/><g class="cls-10"><polygon class="cls-2" points="66.22 94.04 61.22 93 57.74 73.3 65.1 68.75 64.9 67.64 55.74 73.3 59.22 93 64.22 94.04 69.76 95.2 69.68 94.77 66.22 94.04"/></g><path class="cls-11" d="M121.46,66,118,46.08l-3.94.7C116.12,58.6,84.6,64.16,84.6,64.16L66.88,67.3l-2,.34L69.76,95.2l19.7-3.46s32.2-1.62,33.6,6.26l3.94-.7Z"/><polygon class="cls-9" points="127 97.3 123.06 98 114.02 46.78 117.96 46.08 127 97.3"/><g class="cls-5"><polygon points="117.96 46.08 116.02 46.42 125 97.3 123 97.66 123.06 98 127 97.3 117.96 46.08"/></g><polygon class="cls-9" points="96.64 120.92 86.8 122.66 76.64 100.09 86.39 98.41 96.64 120.92"/><g class="cls-5"><polygon points="86.39 98.41 84.54 98.73 94.64 120.92 86.65 122.33 86.8 122.66 96.64 120.92 86.39 98.41"/></g><g class="cls-10"><polygon class="cls-2" points="78.64 100.09 86.54 98.73 86.39 98.41 76.64 100.09 86.8 122.66 88.65 122.33 78.64 100.09"/></g><polygon class="cls-1" points="89.46 91.74 69.76 95.2 64.9 67.64 84.6 64.16 89.46 91.74"/><path class="cls-12" d="M122,93.08a1,1,0,0,1-1-.83l-7-39.38a1,1,0,1,1,2-.34l7,39.38a1,1,0,0,1-.81,1.15Z"/><path class="cls-12" d="M123.06,99a1,1,0,0,1-1-.83c-.91-5.1-20.45-6-32.57-5.43a1,1,0,0,1-1.05-.95,1,1,0,0,1,1-1.05c3.39-.17,33.12-1.42,34.64,7.08a1,1,0,0,1-.81,1.16Z"/><path class="cls-12" d="M84.6,65.16a1,1,0,0,1-.17-2c.21,0,22-4,27.51-11.84A5.72,5.72,0,0,0,113,47a1,1,0,1,1,2-.35,7.65,7.65,0,0,1-1.42,5.88C107.6,61,85.7,65,84.77,65.14Z"/><path class="cls-12" d="M114,47.78a1,1,0,0,1-1-.82,1,1,0,0,1,.8-1.17l3.94-.69a1,1,0,1,1,.36,2l-3.94.7A.58.58,0,0,1,114,47.78Z"/><path class="cls-12" d="M127,98.3a1,1,0,0,1-1-.83l-9-51.22a1,1,0,0,1,2-.34l9,51.22a1,1,0,0,1-.81,1.16Z"/><path class="cls-12" d="M123.06,99a1,1,0,0,1-.17-2l3.94-.7a1,1,0,0,1,1.15.8,1,1,0,0,1-.81,1.17l-3.94.69Z"/><path class="cls-12" d="M69.76,96.2a1,1,0,0,1-.17-2l19.7-3.46a1,1,0,0,1,1.16.82,1,1,0,0,1-.82,1.15l-19.7,3.47Z"/><path class="cls-12" d="M64.9,68.64a1,1,0,0,1-1-.83,1,1,0,0,1,.82-1.16l19.7-3.47a1,1,0,1,1,.34,2l-19.7,3.49Z"/><path class="cls-12" d="M69.76,96.2l-.21,0L59,94a1,1,0,0,1-.78-.81l-3.48-19.7a1,1,0,0,1,.45-1l9.16-5.66a1,1,0,0,1,.94-.06,1,1,0,0,1,.57.74L70.74,95a1,1,0,0,1-1,1.17Zm-9.67-4,8.43,1.76L64.17,69.27l-7.33,4.52Z"/><path class="cls-12" d="M88.76,88.8a1,1,0,0,1-1-.83l-3.46-19.7a1,1,0,1,1,2-.34l3.46,19.7a1,1,0,0,1-.81,1.16Z"/><path class="cls-12" d="M60.38,77.54a1,1,0,0,1-.17-2l2-.33a1,1,0,0,1,1.16.81,1,1,0,0,1-.82,1.16l-2,.34Z"/><path class="cls-12" d="M62.46,89.36a1,1,0,0,1-.17-2l2-.34a1,1,0,0,1,1.16.81A1,1,0,0,1,64.61,89l-2,.34Z"/><path class="cls-12" d="M61.42,83.46a1,1,0,0,1-.17-2l2-.33a1,1,0,0,1,1.16.81,1,1,0,0,1-.82,1.16l-2,.34Z"/><path class="cls-12" d="M66.7,67.3a1,1,0,0,1-.18-2l3.94-.7a1,1,0,0,1,.36,2l-3.94.7A.55.55,0,0,1,66.7,67.3Z"/><path class="cls-12" d="M96.64,121.92a1,1,0,0,1-.91-.59l-9.38-20.64a1,1,0,0,1,.5-1.32,1,1,0,0,1,1.32.49l9.38,20.65a1,1,0,0,1-.5,1.32A1,1,0,0,1,96.64,121.92Z"/><path class="cls-12" d="M86.8,123.66a1,1,0,0,1-.91-.59l-9.4-20.66a1,1,0,0,1,1.82-.82l9.4,20.66a1,1,0,0,1-.5,1.32A1,1,0,0,1,86.8,123.66Z"/><path class="cls-12" d="M84.82,124a1,1,0,0,1-.18-2l13.79-2.45a1,1,0,0,1,1.15.82,1,1,0,0,1-.81,1.15L85,124A.55.55,0,0,1,84.82,124Z"/><path class="cls-12" d="M72.78,101.76a1,1,0,0,1-1-.82l-.4-2.2a1,1,0,0,1,.8-1.16,1,1,0,0,1,1.16.8l.41,2.2a1,1,0,0,1-.81,1.16A.55.55,0,0,1,72.78,101.76Z"/><path class="cls-12" d="M72.78,101.76a1,1,0,0,1-.17-2l17.74-3.07a1,1,0,1,1,.34,2L73,101.75Z"/><path class="cls-12" d="M90.52,98.7a1,1,0,0,1-1-.82l-.35-2a1,1,0,0,1,2-.36l.36,2a1,1,0,0,1-.8,1.16A.55.55,0,0,1,90.52,98.7Z"/><path class="cls-12" d="M127,66a1,1,0,0,1-1-1V5a1,1,0,1,1,2,0V65A1,1,0,0,1,127,66Z"/><path class="cls-12" d="M13,94a1,1,0,0,1-1-1V5a1,1,0,0,1,2,0V93A1,1,0,0,1,13,94Z"/><path class="cls-12" d="M7,100a1,1,0,0,1,0-2,5,5,0,0,0,5-5,1,1,0,0,1,2,0A7,7,0,0,1,7,100Z"/><path class="cls-12" d="M7,100a7,7,0,0,1-7-7,1,1,0,0,1,2,0,5,5,0,0,0,5,5,1,1,0,0,1,0,2Z"/><path class="cls-12" d="M1,94a1,1,0,0,1-1-1V11a1,1,0,0,1,2,0V93A1,1,0,0,1,1,94Z"/><path class="cls-12" d="M9,94a1,1,0,0,1-1-1V7a1,1,0,0,1,2,0V93A1,1,0,0,1,9,94Z"/><path class="cls-12" d="M5,94a1,1,0,0,1-1-1V9A1,1,0,0,1,6,9V93A1,1,0,0,1,5,94Z"/><path class="cls-12" d="M7,96a1,1,0,0,1,0-2,1,1,0,0,0,1-1,1,1,0,0,1,2,0A3,3,0,0,1,7,96Z"/><path class="cls-12" d="M7,96a3,3,0,0,1-3-3,1,1,0,0,1,2,0,1,1,0,0,0,1,1,1,1,0,0,1,0,2Z"/><path class="cls-12" d="M63.18,100H7a1,1,0,0,1,0-2H63.18a1,1,0,1,1,0,2Z"/><path class="cls-12" d="M127,6H13a1,1,0,1,1,0-2H127a1,1,0,0,1,0,2Z"/><path class="cls-12" d="M119,26H25a1,1,0,0,1-1-1V13a1,1,0,0,1,1-1h94a1,1,0,0,1,1,1V25A1,1,0,0,1,119,26ZM26,24h92V14H26Z"/><path class="cls-12" d="M113,20H31a1,1,0,0,1,0-2h82a1,1,0,0,1,0,2Z"/><path class="cls-12" d="M115,100H97a1,1,0,0,1,0-2h18a1,1,0,0,1,0,2Z"/><path class="cls-12" d="M53,52H25a1,1,0,0,1-1-1V33a1,1,0,0,1,1-1H53a1,1,0,0,1,1,1V51A1,1,0,0,1,53,52ZM26,50H52V34H26Z"/><path class="cls-12" d="M35.52,52a1,1,0,0,1-.6-.2,1,1,0,0,1-.2-1.4l7.48-10a1,1,0,0,1,1.6,1.2l-7.48,10A1,1,0,0,1,35.52,52Z"/><path class="cls-12" d="M50.52,52a1,1,0,0,1-.8-.4l-7.52-10a1,1,0,1,1,1.6-1.2l7.52,10a1,1,0,0,1-.2,1.4A1,1,0,0,1,50.52,52Z"/><path class="cls-12" d="M29.7,52a.94.94,0,0,1-.55-.17,1,1,0,0,1-.28-1.38l5.3-8a1,1,0,1,1,1.66,1.1l-5.29,8A1,1,0,0,1,29.7,52Z"/><path class="cls-12" d="M38.06,48.58a1,1,0,0,1-.83-.45l-3.06-4.6a1,1,0,0,1,1.66-1.1L38.89,47a1,1,0,0,1-.83,1.55Z"/><path class="cls-12" d="M31,42a3,3,0,1,1,3-3A3,3,0,0,1,31,42Zm0-4a1,1,0,1,0,1,1A1,1,0,0,0,31,38Z"/><path class="cls-12" d="M85,34H59a1,1,0,1,1,0-2H85a1,1,0,1,1,0,2Z"/><path class="cls-12" d="M85,40H59a1,1,0,0,1,0-2H85a1,1,0,0,1,0,2Z"/><path class="cls-12" d="M85,46H59a1,1,0,0,1,0-2H85a1,1,0,0,1,0,2Z"/><path class="cls-12" d="M85,52H59a1,1,0,0,1,0-2H85a1,1,0,0,1,0,2Z"/><path class="cls-12" d="M85,58H59a1,1,0,0,1,0-2H85a1,1,0,0,1,0,2Z"/><path class="cls-12" d="M63,64H59a1,1,0,0,1,0-2h4a1,1,0,0,1,0,2Z"/><path class="cls-12" d="M53.08,58h-28a1,1,0,0,1,0-2h28a1,1,0,0,1,0,2Z"/><path class="cls-12" d="M49.08,82h-24a1,1,0,0,1,0-2h24a1,1,0,0,1,0,2Z"/><path class="cls-12" d="M51.08,88h-26a1,1,0,0,1,0-2h26a1,1,0,0,1,0,2Z"/><path class="cls-12" d="M53.08,94h-28a1,1,0,0,1,0-2h28a1,1,0,0,1,0,2Z"/><path class="cls-12" d="M53.08,64h-28a1,1,0,0,1,0-2h28a1,1,0,0,1,0,2Z"/><path class="cls-12" d="M51.08,70h-26a1,1,0,0,1,0-2h26a1,1,0,0,1,0,2Z"/><path class="cls-12" d="M49.08,76h-24a1,1,0,0,1,0-2h24a1,1,0,0,1,0,2Z"/><path class="cls-12" d="M119,34H91a1,1,0,1,1,0-2h28a1,1,0,1,1,0,2Z"/><path class="cls-12" d="M119,40H91a1,1,0,0,1,0-2h28a1,1,0,0,1,0,2Z"/><path class="cls-12" d="M109,46H91a1,1,0,0,1,0-2h18a1,1,0,0,1,0,2Z"/><path class="cls-12" d="M103,52H91a1,1,0,0,1,0-2h12a1,1,0,0,1,0,2Z"/><path class="cls-12" d="M93,58H91a1,1,0,0,1,0-2h2a1,1,0,0,1,0,2Z"/></svg>