<svg id="Layer_1" data-name="Layer 1" xmlns="http://www.w3.org/2000/svg" viewBox="0 0 128 128"><defs><style>.cls-1{fill:#fdbe52;}.cls-2{fill:#3d364a;}.cls-3{fill:#fff;}.cls-4{fill:#ffd491;}.cls-5{fill:#f04c63;}.cls-6{fill:#dbdee3;}.cls-7{fill:#c4c4c3;}.cls-8{fill:#afb4b8;}.cls-9{fill:#cf9d43;}.cls-10{fill:#f37b8b;}.cls-11{fill:#aaadae;}.cls-12{fill:#b83a4c;}.cls-13{fill:#78c367;}.cls-14{fill:#9cd191;}.cls-15{fill:#5fa855;}.cls-16{fill:#efefef;}</style></defs><title>forum-avaliativo</title><path class="cls-1" d="M50.33,63.27v41.06H44a1.47,1.47,0,0,0-1.47-1.47H19.07a1.49,1.49,0,0,0-.82.25l-6.52,4.34v-3.12a1.46,1.46,0,0,0-1.46-1.47H7.33a4.41,4.41,0,0,1-4.4-4.4V69.13a4.41,4.41,0,0,1,4.4-4.4h35.2A1.46,1.46,0,0,0,44,63.27Z"/><path class="cls-2" d="M42.53,91.13H16.13a1.47,1.47,0,0,1,0-2.93h26.4a1.47,1.47,0,1,1,0,2.93Z"/><path class="cls-3" d="M1.52,99.24a6.53,6.53,0,0,1-.05-.78V69.13a5.88,5.88,0,0,1,5.47-5.85,5.88,5.88,0,0,0-5.47,5.85V98.46a6.53,6.53,0,0,0,.05.78"/><path class="cls-4" d="M10.27,104.33H7.33a5.88,5.88,0,0,1-5.81-5.09,6.53,6.53,0,0,1-.05-.78V69.13a5.88,5.88,0,0,1,5.47-5.85h3.33A5.88,5.88,0,0,0,4.4,69.13V98.46a5.89,5.89,0,0,0,5.87,5.87"/><polyline class="cls-5" points="94.27 23.67 64.94 23.67 64.94 17.8 70.81 17.8 76.67 17.8 82.54 17.8 88.41 17.8 94.27 17.8 94.27 23.67"/><path class="cls-6" d="M126.53,35.4V88.2a5.88,5.88,0,0,1-5.86,5.86H106v5.87L88.4,94.06H38.54a5.88,5.88,0,0,1-5.86-5.86V35.4a5.88,5.88,0,0,1,5.86-5.86h82.13a5.88,5.88,0,0,1,5.86,5.86Z"/><path class="cls-6" d="M126.53,35.4V88.2a5.88,5.88,0,0,1-5.86,5.86H106v5.87L88.4,94.06H38.54a5.88,5.88,0,0,1-5.86-5.86V35.4a5.88,5.88,0,0,1,5.86-5.86h82.13a5.88,5.88,0,0,1,5.86,5.86Z"/><path class="cls-3" d="M35.61,88.2V35.4a5.88,5.88,0,0,1,5.87-5.86H38.54a5.88,5.88,0,0,0-5.86,5.86V88.2a5.88,5.88,0,0,0,5.86,5.86h2.94a5.88,5.88,0,0,1-5.87-5.86Z"/><path class="cls-7" d="M120.67,94.06h0a5.88,5.88,0,0,0,5.86-5.86V35.4h0V88.2a5.88,5.88,0,0,1-5.86,5.86"/><path class="cls-8" d="M120.67,94.06H117.8a5.88,5.88,0,0,0,5.8-5.86V35.4a5.88,5.88,0,0,0-5.86-5.86h2.93a5.88,5.88,0,0,1,5.86,5.86V88.2a5.88,5.88,0,0,1-5.86,5.86"/><polygon class="cls-7" points="32.68 88.2 32.68 88.2 32.68 47.14 26.81 47.14 26.81 47.13 32.68 47.13 32.68 47.14 32.68 88.2 32.68 88.2"/><path class="cls-9" d="M55.73,92.6v12.45a5.74,5.74,0,0,1-2.64.75H49.86V92.6Z"/><polygon class="cls-7" points="32.68 88.2 32.68 88.2 32.68 47.14 32.68 47.13 32.68 47.13 32.68 88.2 32.68 88.2"/><polyline class="cls-3" points="67.87 23.67 64.94 23.67 64.94 23.67 67.87 23.67 67.87 23.67"/><polyline class="cls-10" points="67.87 23.67 64.94 23.67 64.94 17.81 67.87 17.81 67.87 23.67"/><polyline class="cls-11" points="94.27 23.67 91.34 23.67 91.34 23.67 94.27 23.67 94.27 17.81 94.27 17.81 94.27 23.67"/><polyline class="cls-12" points="94.27 23.67 91.34 23.67 91.34 17.81 94.27 17.81 94.27 23.67"/><path class="cls-2" d="M120.67,28.07H38.54a7.34,7.34,0,0,0-7.33,7.33V88.2a7.34,7.34,0,0,0,7.33,7.33H88.17l17.37,5.79a1.47,1.47,0,0,0,1.93-1.39v-4.4h13.2A7.34,7.34,0,0,0,128,88.2V35.4A7.34,7.34,0,0,0,120.67,28.07Zm4.4,60.13a4.41,4.41,0,0,1-4.4,4.4H106a1.46,1.46,0,0,0-1.46,1.46v3.83L88.87,92.67a1.49,1.49,0,0,0-.47-.07H38.54a4.41,4.41,0,0,1-4.4-4.4V35.4a4.41,4.41,0,0,1,4.4-4.4h82.13a4.41,4.41,0,0,1,4.4,4.4Z"/><path class="cls-2" d="M106,48.6H50.27a1.47,1.47,0,0,1,0-2.93H106a1.47,1.47,0,1,1,0,2.93Z"/><path class="cls-2" d="M106,63.27H50.27a1.47,1.47,0,0,1,0-2.94H106a1.47,1.47,0,1,1,0,2.94Z"/><path class="cls-2" d="M79.61,77.93H50.27a1.47,1.47,0,0,1,0-2.93H79.61a1.47,1.47,0,0,1,0,2.93Z"/><path class="cls-2" d="M66.41,22.2H92.8V19.27H66.41V22.2Zm27.86,2.94H64.94a1.47,1.47,0,0,1-1.47-1.47V17.81a1.47,1.47,0,0,1,1.47-1.47H94.27a1.47,1.47,0,0,1,1.47,1.47v5.86a1.47,1.47,0,0,1-1.47,1.47Z"/><path class="cls-2" d="M64.94,28.07a1.47,1.47,0,0,1-1.47-1.47V23.67a1.47,1.47,0,0,1,2.94,0V26.6a1.47,1.47,0,0,1-1.47,1.47Z"/><path class="cls-2" d="M94.27,28.07A1.47,1.47,0,0,1,92.8,26.6V23.67a1.47,1.47,0,0,1,2.94,0V26.6a1.47,1.47,0,0,1-1.47,1.47Z"/><path class="cls-2" d="M53.21,29.54h-8.8a1.47,1.47,0,0,1,0-2.94h8.8a1.47,1.47,0,0,1,0,2.94Z"/><path class="cls-2" d="M114.8,29.54H106a1.47,1.47,0,0,1,0-2.94h8.8a1.47,1.47,0,0,1,0,2.94Z"/><path class="cls-2" d="M70.81,20.74a1.47,1.47,0,0,1-1.47-1.47V17.81a1.47,1.47,0,1,1,2.93,0v1.46a1.46,1.46,0,0,1-1.46,1.47Z"/><path class="cls-2" d="M76.67,20.74a1.46,1.46,0,0,1-1.46-1.47V17.81a1.47,1.47,0,1,1,2.93,0v1.46a1.47,1.47,0,0,1-1.47,1.47Z"/><path class="cls-2" d="M82.54,20.74a1.47,1.47,0,0,1-1.47-1.47V17.81a1.47,1.47,0,1,1,2.93,0v1.46a1.46,1.46,0,0,1-1.46,1.47Z"/><path class="cls-2" d="M88.4,20.74a1.46,1.46,0,0,1-1.46-1.47V17.81a1.47,1.47,0,1,1,2.93,0v1.46a1.47,1.47,0,0,1-1.47,1.47Z"/><path class="cls-2" d="M58.67,94.06v6a5.8,5.8,0,0,1-5.58,5.77H19.51l-8.43,5.62a1.47,1.47,0,0,1-.81.24,1.38,1.38,0,0,1-.69-.17,1.47,1.47,0,0,1-.78-1.29v-4.4H7.33A7.34,7.34,0,0,1,0,98.46V69.13A7.34,7.34,0,0,1,7.33,61.8h35.2a1.47,1.47,0,1,1,0,2.93H7.33a4.41,4.41,0,0,0-4.4,4.4V98.46a4.41,4.41,0,0,0,4.4,4.4h2.94a1.46,1.46,0,0,1,1.46,1.47v3.12l6.52-4.34a1.49,1.49,0,0,1,.82-.25H52.89A2.84,2.84,0,0,0,55.73,100V94a.57.57,0,0,1,0-.13,1.46,1.46,0,0,1,1.4-1.28h.11A1.47,1.47,0,0,1,58.67,94.06Z"/><path class="cls-2" d="M42.53,79.4H16.13a1.47,1.47,0,0,1,0-2.93h26.4a1.47,1.47,0,1,1,0,2.93Z"/><polygon class="cls-13" points="55.11 66.38 52.03 68.56 53 72.21 49.34 73.18 48.99 76.98 45.23 76.65 43.62 80.09 40.18 78.48 37.5 81.16 34.81 78.48 31.38 80.09 29.77 76.65 26.01 76.98 25.65 73.18 22 72.21 22.97 68.56 19.89 66.38 22.04 63.27 19.89 60.15 22.97 57.97 22 54.32 25.65 53.35 26.01 49.56 29.77 49.88 31.38 46.45 34.81 48.06 37.5 45.37 40.18 48.06 43.62 46.45 45.23 49.88 48.99 49.56 49.34 53.32 53 54.32 52.03 57.97 55.11 60.15 52.96 63.27 55.11 66.38"/><polyline class="cls-14" points="26.01 76.97 25.65 73.18 22 72.21 22.97 68.56 22.97 68.56 22.97 68.56 19.89 66.38 22.04 63.27 22.04 63.27 22.04 63.27 19.89 60.15 22.97 57.97 22.43 55.96 22 54.32 25.65 53.35 26.01 49.56 29.56 49.86 29.23 53.35 25.58 54.32 26.55 57.97 23.47 60.15 25.62 63.27 23.47 66.38 26.55 68.56 25.58 72.21 29.23 73.18 29.56 76.67 26.01 76.97"/><polyline class="cls-15" points="48.74 76.95 45.23 76.65 45.22 76.67 45.19 76.67 45.52 73.18 49.17 72.21 48.2 68.56 51.28 66.38 49.13 63.27 51.28 60.15 48.2 57.97 49.17 54.32 45.52 53.35 45.19 49.86 45.22 49.86 45.23 49.88 48.74 49.58 49.1 53.35 52.75 54.32 51.78 57.97 54.86 60.15 52.71 63.27 54.86 66.38 51.78 68.56 52.75 72.21 49.1 73.18 48.74 76.95"/><path class="cls-2" d="M34.86,76.69a1.81,1.81,0,0,1,1.27.52l1.42,1.42L39,77.21a1.8,1.8,0,0,1,2-.35l1.82.85.85-1.82a1.76,1.76,0,0,1,1.77-1l2,.17.19-2a1.79,1.79,0,0,1,1.32-1.56l1.93-.51L50.35,69A1.8,1.8,0,0,1,51,67.1l1.64-1.16-1.15-1.66a1.79,1.79,0,0,1,0-2l1.15-1.66L51,59.43a1.79,1.79,0,0,1-.69-1.92l.51-1.93-1.94-.53a1.8,1.8,0,0,1-1.31-1.56l-.19-2-2,.17a1.79,1.79,0,0,1-1.77-1l-.85-1.81L41,49.68a1.79,1.79,0,0,1-2-.36L37.55,47.9l-1.42,1.42a1.82,1.82,0,0,1-2,.36l-1.81-.85-.85,1.81a1.81,1.81,0,0,1-1.78,1l-2-.17-.19,2a1.78,1.78,0,0,1-1.32,1.56l-1.92.51.51,1.92a1.8,1.8,0,0,1-.7,1.92l-1.64,1.16,1.15,1.66a1.79,1.79,0,0,1,0,2l-1.15,1.66,1.64,1.16a1.8,1.8,0,0,1,.7,1.92l-.51,1.92,1.92.51A1.79,1.79,0,0,1,27.48,73l.19,2,2-.17a1.79,1.79,0,0,1,1.78,1l.85,1.82,1.81-.85a1.72,1.72,0,0,1,.76-.17ZM37.55,83a1.79,1.79,0,0,1-1.27-.52l-1.8-1.8-2.29,1.08a1.81,1.81,0,0,1-1.37.06,1.76,1.76,0,0,1-1-.92l-1.09-2.31-2.51.22a1.77,1.77,0,0,1-1.93-1.62L24,74.59l-2.45-.65a1.79,1.79,0,0,1-1.27-2.18L21,69.3,18.9,67.84a1.79,1.79,0,0,1-.43-2.47l1.44-2.1-1.44-2.1a1.8,1.8,0,0,1,.43-2.48L21,57.23l-.65-2.45a1.79,1.79,0,0,1,1.27-2.19L24,51.94l.24-2.55a1.79,1.79,0,0,1,1.93-1.61l2.51.21,1.09-2.3a1.74,1.74,0,0,1,1-.93,1.81,1.81,0,0,1,1.37.06l2.29,1.08,1.8-1.79a1.79,1.79,0,0,1,2.53,0l1.8,1.79,2.3-1.08a1.8,1.8,0,0,1,2.38.87L46.37,48l2.51-.21a1.78,1.78,0,0,1,1.93,1.61l.25,2.53,2.46.67a1.8,1.8,0,0,1,1.25,2.19l-.65,2.45,2.07,1.46a1.8,1.8,0,0,1,.44,2.48l-1.45,2.1,1.45,2.1a1.79,1.79,0,0,1-.44,2.47l-2.07,1.47.65,2.45A1.79,1.79,0,0,1,53.5,74l-2.44.64-.25,2.55a1.74,1.74,0,0,1-1.93,1.62l-2.51-.22-1.08,2.31a1.81,1.81,0,0,1-1,.92,1.78,1.78,0,0,1-1.36-.06l-2.3-1.08-1.8,1.8a1.78,1.78,0,0,1-1.26.52Z"/><path class="cls-16" d="M33.35,69.34l-4-5a1.85,1.85,0,1,1,2.88-2.32l2.6,3.23L42,57.14a1.85,1.85,0,1,1,2.79,2.43l-8.55,9.82A1.85,1.85,0,0,1,33.35,69.34Z"/></svg>