<svg id="Layer_1" data-name="Layer 1" xmlns="http://www.w3.org/2000/svg" viewBox="0 0 128 128"><defs><style>.cls-1{fill:#e59d89;}.cls-2{fill:#f8d3c9;}.cls-3{opacity:0.1;}.cls-4{fill:#ec7063;}.cls-5{fill:#f9c139;}.cls-6{fill:#fff;}.cls-7{fill:#72af5f;}.cls-8{fill:#3d364a;}</style></defs><title>gabarito</title><rect class="cls-1" x="17.32" y="13.72" width="10.94" height="107.69"/><polygon class="cls-2" points="17.32 13.72 28.27 13.72 22.79 1.03 17.32 13.72"/><g class="cls-3"><polygon points="28.27 13.72 28.27 126.97 24.76 126.97 24.76 13.72 21.38 4.83 22.69 2.93 27.45 12.46 27.45 13.72 28.27 13.72"/></g><rect class="cls-2" x="17.32" y="121.42" width="10.94" height="5.56"/><circle class="cls-4" cx="59.3" cy="106.05" r="17.1"/><g class="cls-3"><path d="M76.4,106.34a17,17,0,0,1-19.15,17,17.1,17.1,0,0,0,0-33.95,17.13,17.13,0,0,1,19.15,17Z"/></g><rect class="cls-5" x="88.02" y="53.46" width="21.29" height="21.29"/><g class="cls-3"><path class="cls-6" d="M61.3,123.32a16.65,16.65,0,0,1-2,.12,17.1,17.1,0,1,1,0-34.2,19,19,0,0,1,2,.11,17.1,17.1,0,0,0,0,34Z"/></g><circle class="cls-5" cx="59.3" cy="64.1" r="17.1"/><rect class="cls-7" x="88.02" y="11.33" width="21.29" height="21.29"/><g class="cls-3"><path d="M76.4,64.1a17.13,17.13,0,0,1-19.15,17,17.1,17.1,0,0,0,0-33.95,17,17,0,0,1,19.15,17Z"/></g><circle class="cls-7" cx="59.3" cy="22.16" r="17.1"/><g class="cls-3"><path d="M76.4,22.16a17,17,0,0,1-19.15,17,17.1,17.1,0,0,0,0-33.95,17.13,17.13,0,0,1,19.15,17Z"/></g><g class="cls-3"><path class="cls-6" d="M61.3,39.14a16.65,16.65,0,0,1-2,.12,17.1,17.1,0,1,1,0-34.2,19,19,0,0,1,2,.11,17.1,17.1,0,0,0,0,34Z"/></g><path class="cls-8" d="M59.3,40.45A18.3,18.3,0,1,1,77.59,22.16,18.31,18.31,0,0,1,59.3,40.45Zm0-34.19a15.9,15.9,0,1,0,15.9,15.9A15.91,15.91,0,0,0,59.3,6.26Z"/><g class="cls-3"><path class="cls-6" d="M61.3,81.09a19,19,0,0,1-2,.11,17.1,17.1,0,1,1,0-34.2,16.65,16.65,0,0,1,2,.12,17.1,17.1,0,0,0,0,34Z"/></g><path class="cls-8" d="M59.3,82.4A18.3,18.3,0,1,1,77.59,64.1,18.32,18.32,0,0,1,59.3,82.4Zm0-34.2A15.9,15.9,0,1,0,75.2,64.1,15.92,15.92,0,0,0,59.3,48.2Z"/><path class="cls-8" d="M59.3,124.34a18.3,18.3,0,1,1,18.29-18.29A18.31,18.31,0,0,1,59.3,124.34Zm0-34.19a15.9,15.9,0,1,0,15.9,15.9A15.91,15.91,0,0,0,59.3,90.15Z"/><circle class="cls-8" cx="54.81" cy="15.97" r="2.28"/><circle class="cls-8" cx="63.47" cy="15.97" r="2.28"/><circle class="cls-8" cx="54.81" cy="59.43" r="2.28"/><circle class="cls-8" cx="63.47" cy="59.43" r="2.28"/><circle class="cls-8" cx="54.81" cy="99.34" r="2.28"/><circle class="cls-8" cx="63.47" cy="99.34" r="2.28"/><path class="cls-8" d="M67.71,115.43a1.19,1.19,0,0,1-1.2-1.2,7.23,7.23,0,1,0-14.42,0,1.2,1.2,0,0,1-2.4,0,9.62,9.62,0,1,1,19.21,0A1.19,1.19,0,0,1,67.71,115.43Z"/><path class="cls-8" d="M59.3,32a9.88,9.88,0,0,1-9.61-10.11,1.2,1.2,0,0,1,2.4,0,7.23,7.23,0,1,0,14.42,0,1.2,1.2,0,1,1,2.39,0A9.88,9.88,0,0,1,59.3,32Z"/><path class="cls-8" d="M67.55,70.16H50.79a1.2,1.2,0,1,1,0-2.39H67.55a1.2,1.2,0,1,1,0,2.39Z"/><path class="cls-8" d="M109.31,11.33V32.62H88V11.33h21.29m0-2.39H88a2.39,2.39,0,0,0-2.39,2.39V32.62A2.39,2.39,0,0,0,88,35h21.29a2.4,2.4,0,0,0,2.4-2.39V11.33a2.4,2.4,0,0,0-2.4-2.39Z"/><path class="cls-8" d="M109.31,53.46V74.75H88V53.46h21.29m0-2.39H88a2.39,2.39,0,0,0-2.39,2.39V74.75A2.39,2.39,0,0,0,88,77.14h21.29a2.4,2.4,0,0,0,2.4-2.39V53.46a2.4,2.4,0,0,0-2.4-2.39Z"/><path class="cls-8" d="M109.31,95.59v21.29H88V95.59h21.29m0-2.39H88a2.39,2.39,0,0,0-2.39,2.39v21.29A2.39,2.39,0,0,0,88,119.27h21.29a2.4,2.4,0,0,0,2.4-2.39V95.59a2.4,2.4,0,0,0-2.4-2.39Z"/><rect class="cls-4" x="88.02" y="95.59" width="21.29" height="21.29"/><path class="cls-6" d="M96.33,27.79a1.23,1.23,0,0,1-.85-.35L91.05,23a1.2,1.2,0,0,1,1.7-1.69l3.58,3.59,8-8a1.2,1.2,0,0,1,1.69,1.69l-8.87,8.88A1.23,1.23,0,0,1,96.33,27.79Z"/><path class="cls-8" d="M28.26,128H17.32a1,1,0,0,1-1-1V13.72a.9.9,0,0,1,.09-.4L21.85.62A1,1,0,0,1,22.79,0a1,1,0,0,1,.95.62l5.47,12.7a1.06,1.06,0,0,1,.08.4V127A1,1,0,0,1,28.26,128Zm-9.91-2h8.89v-112L22.79,3.62,18.35,13.93Z"/><path class="cls-8" d="M28.26,128H17.32a1,1,0,0,1-1-1v-5.55a1,1,0,0,1,1-1H28.26a1,1,0,0,1,1,1V127A1,1,0,0,1,28.26,128Zm-9.94-2h8.94v-3.55H18.32Z"/><rect class="cls-8" x="21.6" y="14.12" width="2.39" height="107.29"/><path class="cls-8" d="M28.26,14.75H17.32a1,1,0,0,1-.86-.46,1,1,0,0,1-.08-1L21.85.62A1,1,0,0,1,22.79,0a1,1,0,0,1,.95.62l5.47,12.7a1,1,0,0,1-.09,1A1,1,0,0,1,28.26,14.75Zm-9.38-2.06H26.7L22.79,3.62Z"/><g class="cls-3"><rect x="105.21" y="11.33" width="4.1" height="21.29"/></g><g class="cls-3"><rect class="cls-6" x="88.02" y="11.33" width="3.99" height="21.29"/></g><g class="cls-3"><rect x="105.21" y="53.46" width="4.1" height="21.29"/></g><g class="cls-3"><rect class="cls-6" x="88.02" y="53.46" width="3.99" height="21.29"/></g><g class="cls-3"><rect x="105.21" y="95.51" width="4.1" height="21.29"/></g><g class="cls-3"><rect class="cls-6" x="88.02" y="95.51" width="3.99" height="21.29"/></g></svg>