<svg id="Layer_1" data-name="Layer 1" xmlns="http://www.w3.org/2000/svg" viewBox="0 0 128 128"><defs><style>.cls-1{fill:#dbdee3;}.cls-2{fill:#f04c64;}.cls-3{fill:#f37b8c;}.cls-4{fill:#d33f54;}.cls-5{fill:#5f6c79;}.cls-6{fill:#fff;}.cls-7{fill:#8a97a0;}.cls-8{fill:#f176ad;}.cls-9{fill:#f49bc2;}.cls-10{fill:#b25782;}.cls-11{fill:#aaadae;}.cls-12{fill:#9780bb;}.cls-13{fill:#c4c4c3;}.cls-14{fill:#8167ad;}.cls-15{fill:#99a0a3;}.cls-16{fill:#9ea4a6;}.cls-17{fill:#7c8287;}.cls-18{fill:#3d364a;}.cls-19{fill:#737481;}.cls-20{fill:#4f5662;}.cls-21{fill:#302a3c;}.cls-22{fill:#b83a4d;}.cls-23{fill:#292335;}</style></defs><title>livro-da-disciplina</title><path class="cls-1" d="M22,105a6,6,0,0,0,0,12h88a2,2,0,0,0,2-2V105H22"/><polyline class="cls-2" points="38 111 38 127 32 125 26 127 26 111 26 109 38 109 38 111"/><polyline class="cls-3" points="27 126.67 27 111 27 111 28 111 28 126.33 27 126.67"/><polyline class="cls-4" points="37 126.67 36 126.33 36 111 37 111 37 111 37 126.67"/><path class="cls-5" d="M22,105a6,6,0,0,0-6,6V7a6,6,0,0,1,6-6h4V105H22"/><path class="cls-6" d="M16,111h0m0,0h0m0,0h0m0,0h0m0,0h0m0,0a6,6,0,0,1,4-5.61h0a6,6,0,0,0-4,5.13h0v0h0c0,.13,0,.26,0,.39h0v0h0"/><path class="cls-7" d="M16,111V7a6,6,0,0,1,6-6h4a6,6,0,0,0-6,6v98.34A6,6,0,0,0,16,111h0"/><polyline class="cls-5" points="38 13 100 13 100 21 38 21 38 13"/><path class="cls-8" d="M84,68.94a7,7,0,0,1-6,2h0a4.83,4.83,0,0,1-1.36,2.62A5,5,0,0,1,68,70.08V39a4,4,0,1,1,7.68,1.56A5,5,0,0,1,84,44.32a4.84,4.84,0,0,1-.84,2.76A3.86,3.86,0,0,1,84,47a4,4,0,0,1,0,8,3,3,0,0,1,1.2,5.74A7,7,0,0,1,84,68.94"/><path class="cls-8" d="M68,61v9.08a5,5,0,0,1-8.54,3.46,4.83,4.83,0,0,1-1.36-2.62h0A7,7,0,0,1,50.8,60.74,3,3,0,0,1,52,55a4,4,0,0,1,0-8,3.86,3.86,0,0,1,.84.08A4.84,4.84,0,0,1,52,44.32a5,5,0,0,1,8.32-3.76A4,4,0,1,1,68,39V61h0"/><path class="cls-6" d="M60,39v0a3.9,3.9,0,0,1,.56-2A3.9,3.9,0,0,0,60,39v0"/><path class="cls-9" d="M62.32,40.56A4.93,4.93,0,0,0,60,39.42c0-.13,0-.26,0-.39v0a3.9,3.9,0,0,1,.56-2A4,4,0,0,1,64,35a4.09,4.09,0,0,1,1,.14A4,4,0,0,0,62,39a4,4,0,0,0,.32,1.56"/><path class="cls-6" d="M60.32,74.23a5,5,0,0,1-1.64-1.7,5,5,0,0,0,1.64,1.7m-2.18-3.11h0m0,0c0-.06,0-.12,0-.18h0c0,.06,0,.12,0,.18"/><path class="cls-9" d="M63,75a5,5,0,0,1-4.31-2.48,4.67,4.67,0,0,1-.54-1.41h0c0-.06,0-.12,0-.18A7.11,7.11,0,0,0,59,71a7.56,7.56,0,0,0,1.06-.08h0a4.83,4.83,0,0,0,1.36,2.62A5,5,0,0,0,64,74.9,4.88,4.88,0,0,1,63,75"/><path class="cls-6" d="M57,71a7.11,7.11,0,0,1-3.35-.84A7.23,7.23,0,0,1,52,68.94,7,7,0,0,1,50,64a7,7,0,0,0,7,7h0M50.8,60.74h0l-.21-.1A3,3,0,0,1,49,58h0a3,3,0,0,0,1.8,2.74h0M52,55h0a4,4,0,0,1-4-4h0a4,4,0,0,0,4,4h0m.87-7.92h0A4.84,4.84,0,0,1,52,44.32h0a4.84,4.84,0,0,0,.84,2.76"/><path class="cls-9" d="M57,71A7,7,0,0,1,50.8,60.74h0A3,3,0,0,1,52,55h0a4,4,0,0,1,0-8,3.86,3.86,0,0,1,.84.08h0A4.84,4.84,0,0,1,52,44.32a5,5,0,0,1,5-5,5.36,5.36,0,0,1,1,.1,5,5,0,0,0-4,4.92,4.84,4.84,0,0,0,.84,2.76A3.86,3.86,0,0,0,54,47a4,4,0,0,0,0,8,3,3,0,0,0-1.2,5.74A7,7,0,0,0,58,70.93,6.73,6.73,0,0,1,57,71"/><path class="cls-6" d="M58.1,70.94h0v0h0v0"/><path class="cls-10" d="M73.68,40.56A4,4,0,0,0,74,39a4,4,0,0,0-3-3.86A4.09,4.09,0,0,1,72,35a4,4,0,0,1,3.88,3A4.15,4.15,0,0,1,76,39v0c0,.13,0,.26,0,.39a4.93,4.93,0,0,0-2.28,1.14"/><path class="cls-10" d="M73,75a4.88,4.88,0,0,1-1-.11,5,5,0,0,0,2.54-1.36,4.83,4.83,0,0,0,1.36-2.62h0A7.56,7.56,0,0,0,77,71a7.11,7.11,0,0,0,.92-.06,4.91,4.91,0,0,1-1.36,2.6,5.25,5.25,0,0,1-1,.8A5,5,0,0,1,73,75"/><path class="cls-11" d="M83.16,47.08h0A3.86,3.86,0,0,1,84,47h0a3.86,3.86,0,0,0-.84.08M79,39.3h0m0,0h0"/><path class="cls-10" d="M79,71a6.73,6.73,0,0,1-1-.07A7,7,0,0,0,83.2,60.74,3,3,0,0,0,82,55a4,4,0,0,0,0-8,3.86,3.86,0,0,0-.84.08A4.84,4.84,0,0,0,82,44.32a5,5,0,0,0-4-4.92,5.25,5.25,0,0,1,1-.1h0a5,5,0,0,1,5,5,4.84,4.84,0,0,1-.84,2.76h0A3.86,3.86,0,0,1,84,47a4,4,0,0,1,4,4,3.87,3.87,0,0,1,0,.48h0a4,4,0,0,1-2.7,3.32A4.12,4.12,0,0,1,84,55h0a3,3,0,0,1,1.2,5.74h0A7,7,0,0,1,79,71"/><path class="cls-12" d="M100,21V13H38v8h62M112,3V103a2,2,0,0,1-2,2H26V1h84a2,2,0,0,1,2,2M76.54,73.54a4.83,4.83,0,0,0,1.36-2.62h0A7,7,0,0,0,85.2,60.74,3,3,0,0,0,84,55a4,4,0,0,0,0-8,3.86,3.86,0,0,0-.84.08A4.84,4.84,0,0,0,84,44.32a5,5,0,0,0-8.32-3.76A4,4,0,1,0,68,39a4,4,0,1,0-7.68,1.56A5,5,0,0,0,52,44.32a4.84,4.84,0,0,0,.84,2.76A3.86,3.86,0,0,0,52,47a4,4,0,0,0,0,8,3,3,0,0,0-1.2,5.74,7,7,0,0,0,7.28,10.18h0a4.83,4.83,0,0,0,1.36,2.62A5,5,0,0,0,68,70.08a5,5,0,0,0,8.54,3.46"/><path class="cls-13" d="M110,105h0a2,2,0,0,0,2-2V3h0V103a2,2,0,0,1-2,2"/><path class="cls-14" d="M110,105h-4a2,2,0,0,0,2-2V3a2,2,0,0,0-2-2h4a2,2,0,0,1,2,2V103a2,2,0,0,1-2,2h0"/><path class="cls-15" d="M16.1,112a6.64,6.64,0,0,1-.1-1h0v0h0v0h0c0-.13,0-.26,0-.39h0v0h0a6,6,0,0,1,4-5.1v0a6,6,0,0,1,2-.34h90a2,2,0,0,1-2,2H22a6,6,0,0,0-5.9,5"/><path class="cls-16" d="M16,111h0m0,0h0m0,0h0m0,0h0m0,0h0m0,0h0m0,0h0m0-.39h0m0,0h0m0,0h0m0,0h0m0,0a6,6,0,0,1,4-5.13v0a6,6,0,0,0-4,5.1"/><path class="cls-17" d="M110,105h0"/><path class="cls-18" d="M110,106H22a1,1,0,0,1,0-2h88a1,1,0,0,1,0,2Z"/><path class="cls-18" d="M110,2H22a1,1,0,0,1,0-2h88a1,1,0,0,1,0,2Z"/><path class="cls-18" d="M22,118a7,7,0,0,1,0-14,1,1,0,0,1,0,2,5,5,0,0,0,0,10,1,1,0,0,1,0,2Z"/><path class="cls-18" d="M22,114a3,3,0,0,1,0-6,1,1,0,0,1,0,2,1,1,0,0,0,0,2,1,1,0,0,1,0,2Z"/><path class="cls-18" d="M16,8a1,1,0,0,1-1-1,7,7,0,0,1,7-7,1,1,0,0,1,0,2,5,5,0,0,0-5,5,1,1,0,0,1-1,1Z"/><path class="cls-18" d="M16,112a1,1,0,0,1-1-1V7a1,1,0,0,1,2,0V111a1,1,0,0,1-1,1Z"/><path class="cls-18" d="M112,4a1,1,0,0,1-1-1,1,1,0,0,0-1-1,1,1,0,0,1,0-2,3,3,0,0,1,3,3,1,1,0,0,1-1,1Z"/><path class="cls-18" d="M110,106a1,1,0,0,1,0-2,1,1,0,0,0,1-1,1,1,0,0,1,2,0,3,3,0,0,1-3,3Z"/><path class="cls-18" d="M110,118H40a1,1,0,0,1,0-2h70a1,1,0,0,1,0,2Z"/><path class="cls-18" d="M110,118a1,1,0,0,1,0-2,1,1,0,0,0,1-1,1,1,0,0,1,2,0,3,3,0,0,1-3,3Z"/><path class="cls-18" d="M112,104a1,1,0,0,1-1-1V3a1,1,0,0,1,2,0V103a1,1,0,0,1-1,1Z"/><path class="cls-18" d="M112,116a1,1,0,0,1-1-1v-8a1,1,0,0,1,2,0v8a1,1,0,0,1-1,1Z"/><path class="cls-18" d="M26,104a1,1,0,0,1-1-1V3a1,1,0,0,1,2,0V103a1,1,0,0,1-1,1Z"/><path class="cls-18" d="M108,114H40a1,1,0,0,1,0-2h68a1,1,0,0,1,0,2Z"/><path class="cls-18" d="M108,110H22a1,1,0,0,1,0-2h86a1,1,0,0,1,0,2"/><path class="cls-18" d="M39,20H99V14H39v6m61,2H38a1,1,0,0,1-1-1V13a1,1,0,0,1,1-1h62a1,1,0,0,1,1,1v8a1,1,0,0,1-1,1"/><path class="cls-18" d="M90,18H48a1,1,0,0,1,0-2H90a1,1,0,0,1,0,2Z"/><path class="cls-18" d="M90,90H48a1,1,0,0,1,0-2H90a1,1,0,0,1,0,2Z"/><path class="cls-18" d="M78,94H60a1,1,0,0,1,0-2H78a1,1,0,0,1,0,2Z"/><path class="cls-18" d="M26,128a1,1,0,0,1-1-1V111a1,1,0,0,1,2,0v16a1,1,0,0,1-1,1"/><path class="cls-18" d="M38,128a1,1,0,0,1-1-1V111a1,1,0,0,1,2,0v16a1,1,0,0,1-1,1"/><path class="cls-18" d="M26,128a1,1,0,0,1-.32-2l6-2a1,1,0,1,1,.64,1.9l-6,2a1.25,1.25,0,0,1-.32,0Z"/><path class="cls-18" d="M38,128a1.25,1.25,0,0,1-.32,0l-6-2a1,1,0,0,1,.64-1.9l6,2a1,1,0,0,1-.32,2Z"/><path class="cls-18" d="M32,122a1,1,0,0,1-1-1v-9.76a1,1,0,0,1,2,0V121a1,1,0,0,1-1,1"/><path class="cls-18" d="M63,76a6,6,0,0,1-4.25-1.76,5.83,5.83,0,0,1-1.64-3.16,5.9,5.9,0,0,1,1.64-5.34,1,1,0,0,1,1.42,1.42,3.89,3.89,0,0,0-1.09,3.55,3.81,3.81,0,0,0,1.09,2.11,4.08,4.08,0,0,0,5.66,0A4,4,0,0,0,67,70.06a1,1,0,0,1,1-1,1,1,0,0,1,1,1A6,6,0,0,1,63,76Z"/><path class="cls-18" d="M57,50.3a6,6,0,0,1-5-2.66,5.79,5.79,0,0,1-1-3.32,6,6,0,0,1,10-4.51,1,1,0,1,1-1.32,1.5,4,4,0,0,0-6.66,3,3.85,3.85,0,0,0,.66,2.19A4,4,0,0,0,57,48.3a1,1,0,0,1,0,2Z"/><path class="cls-18" d="M50.8,61.74a1.14,1.14,0,0,1-.4-.08A4,4,0,0,1,52,54a1,1,0,0,1,0,2,2,2,0,0,0-2,2,2,2,0,0,0,1.2,1.82,1,1,0,0,1-.4,1.92Z"/><path class="cls-18" d="M52,56a5,5,0,0,1,0-10,4.82,4.82,0,0,1,1.07.11,1,1,0,1,1-.46,1.94A3.07,3.07,0,0,0,52,48a3,3,0,0,0,0,6,1,1,0,0,1,0,2Z"/><path class="cls-18" d="M64,44a5,5,0,0,1-4.6-3.06A4.89,4.89,0,0,1,59,39a5,5,0,0,1,10,0,1,1,0,0,1-2,0,3,3,0,1,0-3,3,1,1,0,0,1,0,2Z"/><path class="cls-18" d="M57,72a8,8,0,0,1-7.07-11.73,8.25,8.25,0,0,1,1.43-1.94A7.88,7.88,0,0,1,57,56h0a8,8,0,0,1,5.66,2.35,1,1,0,0,1-1.42,1.42A5.94,5.94,0,0,0,57,58h0a5.89,5.89,0,0,0-4.21,1.75,6.52,6.52,0,0,0-1.09,1.47,6,6,0,0,0,6.25,8.72,1,1,0,0,1,1.14.84,1,1,0,0,1-.84,1.14A8.62,8.62,0,0,1,57,72Z"/><path class="cls-18" d="M73,76a6,6,0,0,1-6-5.91,1,1,0,0,1,2,0,4,4,0,0,0,1.17,2.77,4.08,4.08,0,0,0,5.66,0,3.75,3.75,0,0,0,1.08-2.08,3.9,3.9,0,0,0-1.08-3.58,1,1,0,0,1,1.42-1.42,5.9,5.9,0,0,1,1.63,5.37,5.8,5.8,0,0,1-1.63,3.13A6,6,0,0,1,73,76Z"/><path class="cls-18" d="M79,50.3a1,1,0,0,1,0-2,4,4,0,0,0,3.33-1.78,3.84,3.84,0,0,0,.67-2.2,4,4,0,0,0-6.66-3A1,1,0,1,1,75,39.81a6,6,0,0,1,10,4.51,5.8,5.8,0,0,1-1,3.33,6,6,0,0,1-5,2.65Z"/><path class="cls-18" d="M85.2,61.74a1,1,0,0,1-.92-.6,1,1,0,0,1,.52-1.32A2,2,0,0,0,86,58a2,2,0,0,0-2-2,1,1,0,0,1,0-2,4,4,0,0,1,1.6,7.66,1.14,1.14,0,0,1-.4.08Z"/><path class="cls-18" d="M84,56a1,1,0,0,1,0-2,3,3,0,0,0,0-6,3.16,3.16,0,0,0-.61,0,1,1,0,1,1-.46-1.94A4.82,4.82,0,0,1,84,46a5,5,0,0,1,0,10Z"/><path class="cls-18" d="M72,44a1,1,0,0,1,0-2,3,3,0,0,0,2.76-1.83A3,3,0,1,0,69,39a1,1,0,0,1-2,0,5,5,0,0,1,10,0,5,5,0,0,1-5,5Z"/><path class="cls-18" d="M79,72a8.08,8.08,0,0,1-1.2-.09,1,1,0,1,1,.3-2,6,6,0,0,0,5.16-10.18A5.86,5.86,0,0,0,79,58h0a5.94,5.94,0,0,0-4.24,1.77,1,1,0,0,1-1.42-1.42A8,8,0,0,1,79,56h0a7.85,7.85,0,0,1,5.63,2.35,8,8,0,0,1,0,11.31A8.1,8.1,0,0,1,79,72Z"/><path class="cls-18" d="M68,71.08a1,1,0,0,1-1-1V39a1,1,0,0,1,2,0V70.08a1,1,0,0,1-1,1Z"/><path class="cls-18" d="M71,64a4.68,4.68,0,0,1-3.89-2.55,1,1,0,0,1,1.78-.9A2.75,2.75,0,0,0,71,62a1,1,0,0,1,0,2Z"/><path class="cls-18" d="M65,64a1,1,0,0,1,0-2,2.65,2.65,0,0,0,2.08-1.44,1,1,0,1,1,1.8.88A4.64,4.64,0,0,1,65,64Z"/><path class="cls-18" d="M73,52c-4.75,0-6-3.27-6-5a1,1,0,0,1,2,0c0,.32.17,3,4,3a1,1,0,0,1,0,2Z"/><path class="cls-18" d="M63,52a1,1,0,0,1,0-2c3.94,0,4-2.88,4-3a1,1,0,0,1,2,0c0,1.73-1.25,5-6,5Z"/><path class="cls-18" d="M24,114H22a1,1,0,0,1,0-2h2a1,1,0,0,1,0,2Z"/><path class="cls-18" d="M24,118H22a1,1,0,0,1,0-2h2a1,1,0,0,1,0,2Z"/><polyline class="cls-7" points="40 20 39 20 39 14 40 14 40 20"/><polyline class="cls-19" points="40 21 38 21 38 13 40 13 40 14 39 14 39 20 40 20 40 21"/><polyline class="cls-20" points="99 20 98 20 98 14 99 14 99 20"/><polyline class="cls-21" points="100 21 98 21 98 20 99 20 99 14 98 14 98 13 100 13 100 21"/><path class="cls-22" d="M37,111H33A1,1,0,0,0,31,111H27a1,1,0,0,0-1-1H38a1,1,0,0,0-1,1"/><polyline class="cls-23" points="38 110 26 110 26 110 26 109 38 109 38 110"/><path class="cls-23" d="M27,111H26v-1h0a1,1,0,0,1,1,1"/><path class="cls-23" d="M38,111H37a1,1,0,0,1,1-1v1"/><path class="cls-23" d="M33,111H31A1,1,0,0,1,33,111"/></svg>