<svg id="Layer_1" data-name="Layer 1" xmlns="http://www.w3.org/2000/svg" viewBox="0 0 128 128"><defs><style>.cls-1{fill:#e6e9ed;}.cls-2{fill:#f6bb42;}.cls-3{opacity:0.2;}.cls-4{fill:#ffce54;}.cls-5{opacity:0.1;}.cls-6{opacity:0.3;}.cls-7{fill:#fff;}.cls-8{fill:#3a3847;}</style></defs><title>manual-do-estudante</title><polygon class="cls-1" points="33 16 33 112 31 112 1 112 1 26.38 9 16 31 16 33 16"/><rect class="cls-1" x="45" y="62" width="60" height="8"/><path class="cls-2" d="M117,48l-4-6V6h8v8h6V42l-6,6v74H37a4,4,0,0,1,0-8h80V48Z"/><g class="cls-3"><path d="M35,118a4,4,0,0,1,4-4H37a4,4,0,0,0,0,8h2A4,4,0,0,1,35,118Z"/></g><path class="cls-4" d="M37,114a4,4,0,0,0-4,4V10a4,4,0,0,1,4-4h76V42l4,6v66Zm68-44V62H45v8Z"/><g class="cls-5"><polygon points="113 42 113 6 109 6 109 42 113 48 113 114 117 114 117 48 113 42"/></g><g class="cls-6"><path class="cls-7" d="M39,112V10a4,4,0,0,1,4-4H37a4,4,0,0,0-4,4V118a4,4,0,0,1,4-4h2Z"/></g><rect class="cls-1" x="41" y="114" width="72" height="4"/><polygon class="cls-7" points="9 16 11 16 11 26 1 26 1 24 9 16"/><g class="cls-3"><rect x="41" y="114" width="72" height="2"/></g><g class="cls-3"><rect x="29.02" y="16" width="3.98" height="96"/></g><rect class="cls-7" x="1" y="26" width="1.99" height="86"/><path class="cls-8" d="M33,119a1,1,0,0,1-1-1V10a1,1,0,0,1,2,0V118A1,1,0,0,1,33,119Z"/><path class="cls-8" d="M113,7H37a1,1,0,0,1,0-2h76a1,1,0,0,1,0,2Z"/><path class="cls-8" d="M121,123a1,1,0,0,1-1-1V48a1,1,0,0,1,.29-.71l5.71-5.7V15h-5a1,1,0,0,1-1-1V6a1,1,0,0,1,2,0v7h5a1,1,0,0,1,1,1V42a1,1,0,0,1-.29.71L122,48.41V122A1,1,0,0,1,121,123Z"/><path class="cls-8" d="M121,123H37a1,1,0,0,1,0-2h84a1,1,0,0,1,0,2Z"/><path class="cls-8" d="M117,115H37a1,1,0,0,1,0-2h80a1,1,0,0,1,0,2Z"/><path class="cls-8" d="M113,119H41a1,1,0,0,1,0-2h72a1,1,0,0,1,0,2Z"/><path class="cls-8" d="M37,123a5,5,0,0,1,0-10,1,1,0,0,1,0,2,3,3,0,0,0,0,6,1,1,0,0,1,0,2Z"/><path class="cls-8" d="M33,11a1,1,0,0,1-1-1,5,5,0,0,1,5-5,1,1,0,0,1,0,2,3,3,0,0,0-3,3A1,1,0,0,1,33,11Z"/><path class="cls-8" d="M123,39a1,1,0,0,1-1-1V20a1,1,0,0,1,2,0V38A1,1,0,0,1,123,39Z"/><path class="cls-8" d="M117,115a1,1,0,0,1-1-1V48.3l-3.83-5.75A1,1,0,0,1,112,42V6a1,1,0,0,1,2,0V41.7l3.83,5.75A1,1,0,0,1,118,48v66A1,1,0,0,1,117,115Z"/><path class="cls-8" d="M121,7h-8a1,1,0,0,1,0-2h8a1,1,0,0,1,0,2Z"/><path class="cls-8" d="M31,113H1a1,1,0,0,1-1-1V24a1,1,0,0,1,.29-.71l8-8A1,1,0,0,1,9,15H31a1,1,0,0,1,0,2H9.41L2,24.41V111H31a1,1,0,0,1,0,2Z"/><path class="cls-8" d="M11,27a1,1,0,0,1-1-1V20a1,1,0,0,1,2,0v6A1,1,0,0,1,11,27Z"/><path class="cls-8" d="M11,27H5a1,1,0,0,1,0-2h6a1,1,0,0,1,0,2Z"/><path class="cls-8" d="M31,51H13a1,1,0,0,1,0-2H31a1,1,0,0,1,0,2Z"/><path class="cls-8" d="M31,59H13a1,1,0,0,1,0-2H31a1,1,0,0,1,0,2Z"/><path class="cls-8" d="M31,67H13a1,1,0,0,1,0-2H31a1,1,0,0,1,0,2Z"/><path class="cls-8" d="M31,75H13a1,1,0,0,1,0-2H31a1,1,0,0,1,0,2Z"/><path class="cls-8" d="M31,83H13a1,1,0,0,1,0-2H31a1,1,0,0,1,0,2Z"/><path class="cls-8" d="M105,71H45a1,1,0,0,1-1-1V62a1,1,0,0,1,1-1h60a1,1,0,0,1,1,1v8A1,1,0,0,1,105,71ZM46,69h58V63H46Z"/><path class="cls-8" d="M101,67H49a1,1,0,0,1,0-2h52a1,1,0,0,1,0,2Z"/></svg>