<svg id="Layer_1" data-name="Layer 1" xmlns="http://www.w3.org/2000/svg" xmlns:xlink="http://www.w3.org/1999/xlink" viewBox="0 0 128 128"><defs><style>.cls-1{fill:none;}.cls-2{clip-path:url(#clip-path);}.cls-3{fill:#78c367;}.cls-4{fill:#c4c4c3;}.cls-5{fill:#5fa855;}.cls-6{fill:#fff;}.cls-7{fill:#a8d59d;}.cls-8{fill:#99c593;}.cls-9{fill:#f04c63;}.cls-10{fill:#d33f53;}.cls-11{fill:#f37b8b;}.cls-12{fill:#008fcf;}.cls-13{fill:#5fabdf;}.cls-14{fill:#dbdee3;}.cls-15{fill:#afb4b8;}.cls-16{fill:#00b19b;}.cls-17{fill:#39bdb0;}.cls-18{fill:#3d364a;}.cls-19{fill:#00ac8a;}.cls-20{fill:#302a3c;}.cls-21{fill:#0c7ab5;}</style><clipPath id="clip-path"><rect class="cls-1" y="7.29" width="128" height="113.42"/></clipPath></defs><title>material-complementar</title><g class="cls-2"><path class="cls-3" d="M71.82,18.53a4,4,0,0,1-5.64-5.64c1.56-1.58,8.32-5.82,9.9-4.26S73.4,17,71.82,18.53"/></g><path class="cls-4" d="M71.63,18.71l.19-.18.36-.39-.36.39-.19.18"/><path class="cls-5" d="M69,19.7h0a3.83,3.83,0,0,0,1-.13,4.13,4.13,0,0,1-1-.41,4.08,4.08,0,0,0,.82-.63c1.47-1.45,5.25-7.42,4.5-9.51a11.8,11.8,0,0,1,1.53-.54A1.71,1.71,0,0,0,75,8.3a4.91,4.91,0,0,0-1.18.18h0a4.71,4.71,0,0,1,1.21-.19,1.43,1.43,0,0,1,1,.34c1.45,1.47-2.12,7.43-3.9,9.51l-.36.39-.19.18a3.9,3.9,0,0,1-2.61,1"/><path class="cls-6" d="M66.3,18.65l-.12-.12A4,4,0,0,1,65,15.71a4,4,0,0,0,1.19,2.82l.12.12m-.12-5.76a7.7,7.7,0,0,1,.68-.6,7.7,7.7,0,0,0-.68.6"/><path class="cls-7" d="M69,19.7a4,4,0,0,1-2.68-1.05l-.12-.12a3.94,3.94,0,0,1,0-5.64h0a7.7,7.7,0,0,1,.68-.6,23.64,23.64,0,0,1,7-3.81,1.3,1.3,0,0,1,.23.15,1,1,0,0,1,.24.39,24.23,24.23,0,0,0-6.14,3.87,4,4,0,0,0,0,5.64,4.08,4.08,0,0,0,.82.63,4.13,4.13,0,0,1-1,.41,4.14,4.14,0,0,0,1,.13h0"/><path class="cls-8" d="M69,19.7a4.14,4.14,0,0,1-1-.13,4.13,4.13,0,0,0,1-.41,4.13,4.13,0,0,0,1,.41,3.83,3.83,0,0,1-1,.13M74.32,9a1,1,0,0,0-.24-.39,1.3,1.3,0,0,0-.23-.15A4.91,4.91,0,0,1,75,8.3a1.71,1.71,0,0,1,.82.18A11.8,11.8,0,0,0,74.32,9"/><path class="cls-9" d="M64,25.47c5.84-3.42,19-3.5,19,15.16,0,14.24-12.42,19.2-19,16.28h0c-6.56,2.92-19-2-19-16.28C45,22,58.14,22.05,64,25.47h0"/><path class="cls-4" d="M80.45,50.48A18.6,18.6,0,0,0,83,40.68a18.6,18.6,0,0,1-2.55,9.8M83,40.59a26.26,26.26,0,0,0-1.3-8.73A26.26,26.26,0,0,1,83,40.59"/><path class="cls-10" d="M68.1,57.69a11.23,11.23,0,0,1-1.95-.17C72.3,56.52,79,51.09,79,40.63c0-11.55-5-15.91-10.25-16.75a13.3,13.3,0,0,1,2-.15c4.24,0,8.77,2,10.94,8.13A26.26,26.26,0,0,1,83,40.59v0h0v0a18.6,18.6,0,0,1-2.55,9.8A14.78,14.78,0,0,1,68.1,57.69"/><path class="cls-6" d="M46.9,49.32A18.69,18.69,0,0,1,45,41.86a18.74,18.74,0,0,0,1.87,7.46M45,39.16h0m0,0a22.79,22.79,0,0,1,1.81-8.63A22.79,22.79,0,0,0,45,39.16m1.81-8.64h0"/><path class="cls-11" d="M59.9,57.69a14.86,14.86,0,0,1-13-8.37A18.74,18.74,0,0,1,45,41.86q0-.6,0-1.23t0-1.47h0a22.79,22.79,0,0,1,1.81-8.63h0a11,11,0,0,1,10.39-6.79,13.3,13.3,0,0,1,2,.15C54,24.72,49,29.08,49,40.63c0,10.46,6.7,15.89,12.85,16.89a11.23,11.23,0,0,1-2,.17"/><polygon class="cls-9" points="19 103.71 33 103.71 33 111.71 26 109.71 19 111.71 19 103.71 19 103.71"/><path class="cls-12" d="M127,119.71H16a15,15,0,0,1,0-30H127v4H16a11,11,0,0,0,0,22H127v4"/><path class="cls-13" d="M15,119.68a15,15,0,0,1,0-29.94A1.09,1.09,0,0,0,15,90a15,15,0,0,0,0,29.42,1.09,1.09,0,0,0,0,.26"/><path class="cls-14" d="M16,93.71H125v22H16a11,11,0,0,1,0-22m17,18v-8H19v8l7-2,7,2"/><path class="cls-4" d="M5,104.71a11,11,0,0,1,10-11h0a11,11,0,0,0-10,11"/><path class="cls-15" d="M15,115.66A11,11,0,0,1,5,105.33c0-.21,0-.41,0-.62H5a11,11,0,0,1,10-11,1,1,0,0,0,.08.35,11,11,0,0,0,0,21.22,1,1,0,0,0-.08.34"/><path class="cls-16" d="M23.06,81.71H117v4H23a12,12,0,0,1,0-24h94v4H23a8,8,0,0,0,0,16h.06"/><path class="cls-6" d="M11,73A12,12,0,0,1,22,61.75h0A12,12,0,0,0,11,73"/><path class="cls-17" d="M22,85.67a12,12,0,0,1-11-12c0-.23,0-.45,0-.68A12,12,0,0,1,22,61.75a1.14,1.14,0,0,0,.07.32,12,12,0,0,0,0,23.28,1.07,1.07,0,0,0-.07.32"/><path class="cls-14" d="M75,65.71H23a8,8,0,0,0,0,16h92v-16H75"/><path class="cls-15" d="M22.06,81.65a8,8,0,0,1,0-15.89,1,1,0,0,0,.14.45,8,8,0,0,0,0,15,1,1,0,0,0-.14.45"/><path class="cls-18" d="M59.92,58.72a15.34,15.34,0,0,1-8.2-2.52C48.84,54.33,44,49.81,44,40.63c0-10.16,3.83-14.49,7-16.33,4.5-2.59,10-1.71,13.44.31a1,1,0,0,1-1,1.72C60.63,24.66,55.83,23.86,52,26c-3.95,2.27-6,7.31-6,14.6,0,8.24,4.27,12.24,6.81,13.89,3.42,2.22,7.75,2.82,10.76,1.48a1,1,0,0,1,.82,1.82,11,11,0,0,1-4.47.9Z"/><path class="cls-18" d="M68.08,58.72a11,11,0,0,1-4.47-.9A1,1,0,0,1,64.43,56c3,1.34,7.34.74,10.76-1.48C77.73,52.87,82,48.87,82,40.63c0-7.29-2.09-12.33-6-14.6-3.79-2.17-8.58-1.37-11.44.3a1,1,0,0,1-1-1.72c3.45-2,8.94-2.9,13.44-.31,3.22,1.84,7,6.17,7,16.33,0,9.18-4.84,13.7-7.72,15.57a15.34,15.34,0,0,1-8.2,2.52Z"/><path class="cls-18" d="M64,22.71a1,1,0,0,1-1-.84c-.86-5.31-6.09-7.14-6.31-7.21a1,1,0,0,1,.64-1.9c.27.09,6.58,2.27,7.65,8.79a1,1,0,0,1-.83,1.15Z"/><path class="cls-18" d="M127,90.71H16a1,1,0,0,1,0-2H127a1,1,0,0,1,0,2"/><path class="cls-18" d="M127,120.71H16a1,1,0,1,1,0-2H127a1,1,0,0,1,0,2"/><path class="cls-18" d="M16,120.71a16,16,0,0,1,0-32,1,1,0,0,1,0,2,14,14,0,0,0,0,28,1,1,0,0,1,0,2Z"/><path class="cls-18" d="M16,116.71a12,12,0,0,1,0-24,1,1,0,0,1,0,2,10,10,0,0,0,0,20,1,1,0,0,1,0,2Z"/><path class="cls-18" d="M127,94.71H16a1,1,0,0,1,0-2H127a1,1,0,0,1,0,2"/><path class="cls-18" d="M127,94.71a1,1,0,0,1-1-1v-4a1,1,0,1,1,2,0v4a1,1,0,0,1-1,1"/><path class="cls-18" d="M127,116.71H16a1,1,0,1,1,0-2H127a1,1,0,0,1,0,2"/><path class="cls-18" d="M127,120.71a1,1,0,0,1-1-1v-4a1,1,0,1,1,2,0v4a1,1,0,0,1-1,1"/><path class="cls-18" d="M125,114.71a1,1,0,0,1-1-1v-18a1,1,0,1,1,2,0v18a1,1,0,0,1-1,1Z"/><path class="cls-18" d="M99,100.71H65a1,1,0,0,1,0-2H99a1,1,0,0,1,0,2Z"/><path class="cls-18" d="M81,108.71H47a1,1,0,1,1,0-2H81a1,1,0,0,1,0,2Z"/><path class="cls-18" d="M119,112.71H99a1,1,0,0,1,0-2h20a1,1,0,0,1,0,2Z"/><path class="cls-18" d="M35,104.71H17a1,1,0,0,1,0-2H35a1,1,0,0,1,0,2Z"/><path class="cls-18" d="M19,112.71a1,1,0,0,1-1-1v-8a1,1,0,0,1,2,0v8a1,1,0,0,1-1,1Z"/><path class="cls-18" d="M33,112.71a1,1,0,0,1-1-1v-8a1,1,0,1,1,2,0v8a1,1,0,0,1-1,1Z"/><path class="cls-18" d="M19,112.71a1,1,0,0,1-.27-2l7-2a1,1,0,0,1,1.23.68,1,1,0,0,1-.69,1.24l-7,2a.84.84,0,0,1-.27,0Z"/><path class="cls-18" d="M33,112.71a.84.84,0,0,1-.27,0l-7-2a1,1,0,0,1-.69-1.24,1,1,0,0,1,1.23-.68l7,2a1,1,0,0,1-.27,2Z"/><path class="cls-18" d="M117,62.71H23a1,1,0,0,1,0-2h94a1,1,0,0,1,0,2"/><path class="cls-18" d="M117,86.71H23a1,1,0,0,1,0-2h94a1,1,0,0,1,0,2"/><path class="cls-18" d="M117,66.71H23.06a1,1,0,0,1,0-2H117a1,1,0,0,1,0,2"/><path class="cls-18" d="M117,66.71a1,1,0,0,1-1-1v-4a1,1,0,0,1,2,0v4a1,1,0,0,1-1,1"/><path class="cls-18" d="M117,82.71H23.06a1,1,0,0,1,0-2H117a1,1,0,0,1,0,2"/><path class="cls-18" d="M117,86.71a1,1,0,0,1-1-1v-4a1,1,0,1,1,2,0v4a1,1,0,0,1-1,1"/><path class="cls-18" d="M115,80.71a1,1,0,0,1-1-1v-12a1,1,0,1,1,2,0v12a1,1,0,0,1-1,1Z"/><path class="cls-18" d="M23,82.71a9,9,0,0,1,0-18,1,1,0,0,1,0,2,7,7,0,0,0,0,14,1,1,0,0,1,0,2Z"/><path class="cls-18" d="M23,86.71a13,13,0,0,1,0-26,1,1,0,1,1,0,2,11,11,0,0,0,0,22,1,1,0,0,1,0,2Z"/><path class="cls-18" d="M43,72.71H27a1,1,0,0,1,0-2H43a1,1,0,0,1,0,2Z"/><path class="cls-18" d="M87,76.71H59a1,1,0,1,1,0-2H87a1,1,0,0,1,0,2Z"/><path class="cls-18" d="M103,70.71H75a1,1,0,0,1,0-2h28a1,1,0,0,1,0,2Z"/><path class="cls-18" d="M75.05,9.29c-2,0-6.83,3-8.16,4.3a2.95,2.95,0,0,0,0,4.23,3,3,0,0,0,4.23,0C73,16,76,10.25,75.37,9.33a.82.82,0,0,0-.32,0ZM69,20.71a5,5,0,0,1-3.52-8.53c1.38-1.41,6.71-4.89,9.56-4.89a2.35,2.35,0,0,1,1.74.63c2.49,2.52-3.19,10.26-4.26,11.32A4.9,4.9,0,0,1,69,20.71Z"/><polyline class="cls-19" points="116 64.71 115 64.71 115 62.71 116 62.71 116 64.71"/><polyline class="cls-20" points="116 62.71 115 62.71 115 61.71 116 61.71 116 62.71"/><polyline class="cls-20" points="116 65.71 115 65.71 115 64.71 116 64.71 116 65.71 116 65.71"/><polyline class="cls-20" points="117 65.71 116 65.71 116 65.71 116 64.71 116 62.71 116 61.71 117 61.71 117 65.71"/><polyline class="cls-19" points="116 84.71 115 84.71 115 82.71 116 82.71 116 84.71"/><polyline class="cls-20" points="116 85.71 115 85.71 115 84.71 116 84.71 116 85.71"/><polyline class="cls-20" points="116 82.71 115 82.71 115 81.71 116 81.71 116 81.71 116 82.71"/><polyline class="cls-20" points="117 85.71 116 85.71 116 84.71 116 82.71 116 81.71 116 81.71 117 81.71 117 85.71"/><polyline class="cls-21" points="126 92.71 125 92.71 125 90.71 126 90.71 126 92.71"/><polyline class="cls-20" points="126 90.71 125 90.71 125 89.71 126 89.71 126 89.71 126 90.71"/><polyline class="cls-20" points="126 93.71 125 93.71 125 92.71 126 92.71 126 93.71"/><polyline class="cls-20" points="127 93.71 126 93.71 126 92.71 126 90.71 126 89.71 126 89.71 127 89.71 127 93.71"/><polyline class="cls-21" points="126 118.71 125 118.71 125 116.71 126 116.71 126 118.71"/><polyline class="cls-20" points="126 119.71 125 119.71 125 118.71 126 118.71 126 119.71 126 119.71"/><polyline class="cls-20" points="126 116.71 125 116.71 125 115.71 126 115.71 126 116.71"/><polyline class="cls-20" points="127 119.71 126 119.71 126 119.71 126 118.71 126 116.71 126 115.71 127 115.71 127 119.71"/></svg>