<svg id="Layer_1" data-name="Layer 1" xmlns="http://www.w3.org/2000/svg" xmlns:xlink="http://www.w3.org/1999/xlink" viewBox="0 0 128 128"><defs><style>.cls-1{fill:none;}.cls-2{fill:#5f6c79;}.cls-3{fill:#4f5662;}.cls-4{fill:#fff;}.cls-5{fill:#7b8993;}.cls-6{fill:#c4c4c3;}.cls-7{fill:#666d77;}.cls-8{fill:#6f7982;}.cls-9{fill:#dbdee3;}.cls-10{fill:#9ca0a2;}.cls-11{fill:#404450;}.cls-12{fill:#afb4b8;}.cls-13{fill:#f04c64;}.cls-14{fill:#f48b99;}.cls-15{fill:#e6e8eb;}.cls-16{fill:#8c9498;}.cls-17{fill:#d33f54;}.cls-18{fill:#cf717e;}.cls-19{fill:#aaadae;}.cls-20{fill:#99a0a3;}.cls-21{fill:#b83a4d;}.cls-22{fill:#7c8287;}.cls-23{fill:#962f3d;}.cls-24{fill:#3d364a;}.cls-25{clip-path:url(#clip-path);}</style><clipPath id="clip-path"><rect class="cls-1" x="5.02" width="117.96" height="128"/></clipPath></defs><title>objetivos-da-semana</title><path class="cls-2" d="M23.23,105.29S18,121.24,18,124s.24,3,3,3c5,0,17.89-12.71,17.89-12.71l-15.68-9"/><path class="cls-3" d="M21,127c.14,0,.31,0,.47-.07-1.14-.15-1.42-.62-1.48-2.07,3.91-1,10.71-6.83,14.37-10.19h0c1,.42,1.91.81,2.89,1.17h0C33.67,119.22,25,127,21,127"/><path class="cls-2" d="M86.8,105.29S92,121.24,92,124s-.24,3-3,3c-5,0-17.9-12.71-17.9-12.71l15.69-9"/><path class="cls-4" d="M89.09,127h0c2.33,0,2.83-.2,2.92-2h0c-.1,1.81-.59,2-2.91,2"/><path class="cls-5" d="M89.07,127h0M89,127c-3.93,0-12.65-7.79-16.26-11.16,1-.37,1.94-.76,2.89-1.18,3.66,3.36,10.45,9.21,14.36,10.2-.06,1.45-.34,1.92-1.47,2.07A4.28,4.28,0,0,0,89,127"/><path class="cls-6" d="M89.05,127h0M92,125c0-.29,0-.61,0-1,0-2.14-3.13-12.24-4.54-16.64h0C88.87,111.76,92,121.85,92,124c0,.37,0,.69,0,1h0"/><path class="cls-3" d="M89.05,127h0m2-2a4.37,4.37,0,0,1-1-.14c0-.26,0-.54,0-.86,0-2-2.63-10.56-4.15-15.38.55-.41,1.08-.83,1.6-1.26C88.87,111.76,92,121.86,92,124c0,.37,0,.69,0,1l-1,0h0"/><path class="cls-6" d="M89.07,127h0m0,0c2.33,0,2.83-.2,2.92-2h0c-.09,1.82-.59,2-2.92,2"/><path class="cls-7" d="M89.07,127H89a4.28,4.28,0,0,1-.48-.07c1.13-.15,1.41-.62,1.47-2.07a4.37,4.37,0,0,0,1,.14h0l1,0c-.09,1.82-.59,2-2.92,2h0"/><path class="cls-4" d="M21,127h0m-3-1.69h0m0-.09v0m0,0h0m0,0h0m0,0h0m0,0v0m0,0v0m0,0h0m0,0v0m0,0v0m0,0v0m0,0v0m0-.12h0m0,0v0m0-.07v0m0,0v0m0,0v0m0,0v0m0,0v0m0-.11V124h0v.49m0-.49h0m0,0h0m0,0h0m0,0h0m0,0h0m0,0h0m0,0h0m0,0h0m0,0h0m0,0h0m0,0h0m0,0h0m0,0h0m0,0h0m0,0h0m0,0h0m0,0h0m2.21-9c.84-2.85,1.74-5.71,2.33-7.56h0c-.59,1.85-1.49,4.71-2.33,7.56"/><path class="cls-5" d="M21,127c-2.18,0-2.75-.17-2.89-1.69h0v-.1h0v-.06h0v0h0v0h0v0h0v-.16h0v-.09h0v0h0v-.08h0v-.11h0V124h0c0-1.31,1.07-5.15,2.21-9,.84-2.85,1.74-5.71,2.33-7.56l.1.08c.49.4,1,.8,1.5,1.18C22.64,113.44,20,122,20,124c0,.32,0,.6,0,.86a4.22,4.22,0,0,1-1,.14h0l-1,0c.09,1.81.58,2,2.91,2h0"/><path class="cls-8" d="M21,127c-2.33,0-2.82-.21-2.91-2l1,0h0a4.22,4.22,0,0,0,1-.14c.06,1.45.34,1.92,1.48,2.07-.16,0-.33.06-.47.07H21"/><path class="cls-9" d="M104,68A49,49,0,1,1,55,19a49,49,0,0,1,49,49"/><path class="cls-6" d="M72.73,115.84l-.65-.61.65.61h0m14.73-8.49-.66-2c0,.13.3.9.66,2h0m-.66-2h0m0,0h0"/><path class="cls-3" d="M72.73,115.84l-.65-.61-1-.93a49.11,49.11,0,0,0,15.68-9h0l.66,2-1.6,1.27h0a50.43,50.43,0,0,1-10.23,6h0l-2.9,1.17h0"/><path class="cls-7" d="M72.74,115.84h0l2.9-1.17h0c-.95.42-1.91.81-2.89,1.18"/><polyline class="cls-10" points="87.46 107.36 87.46 107.35 87.46 107.35 87.46 107.36 87.46 107.36"/><path class="cls-11" d="M85.86,108.62h0l1.6-1.27h0c-.52.43-1,.85-1.6,1.26"/><path class="cls-12" d="M71.12,114.3h0a49,49,0,0,0,15.68-9h0a49.11,49.11,0,0,1-15.68,9"/><path class="cls-6" d="M23.19,105.4l0-.1h0l0,.1"/><path class="cls-3" d="M37.29,115.84l-2.89-1.17a50.55,50.55,0,0,1-10.24-6h0l-1.5-1.18-.1-.08c.31-1,.54-1.7.63-2l0-.1a48.92,48.92,0,0,0,15.68,9c-.06.06-.67.66-1.61,1.54"/><path class="cls-11" d="M37.29,115.84c-1-.36-1.94-.75-2.89-1.17l2.89,1.17h0"/><path class="cls-7" d="M24.16,108.62c-.51-.38-1-.78-1.5-1.18l1.5,1.18h0"/><path class="cls-4" d="M8,68A49,49,0,0,1,56,19l-1,0a49,49,0,0,0,0,98c.34,0,.67,0,1,0A49,49,0,0,1,8,68"/><path class="cls-13" d="M95,68A40,40,0,1,1,55,28,40,40,0,0,1,95,68"/><path class="cls-14" d="M55,108h0m0,0a40,40,0,0,1,0-80c-.34,0-.66,0-1,.05l1,0a40,40,0,0,0,0,79.81l-1,0c.34,0,.66,0,1,0m0-80h0"/><path class="cls-9" d="M86,68A31,31,0,1,1,55,37,31,31,0,0,1,86,68"/><path class="cls-4" d="M26,68A31,31,0,0,1,56,37.07c-.33,0-.66,0-1,0a31,31,0,0,0,0,62c.34,0,.67-.05,1-.06A31,31,0,0,1,26,68"/><path class="cls-13" d="M77,68A22,22,0,1,1,55,46,22,22,0,0,1,77,68"/><path class="cls-15" d="M55,90a22,22,0,0,1-.8-44A22,22,0,0,0,55,90h0"/><path class="cls-14" d="M55,90h0m0,0a22,22,0,0,1-.8-44l.8,0c-.34,0-.67,0-1,.05l1,.07a22,22,0,0,0,0,43.76L54,90c.33,0,.66.05,1,.05m0-44h0"/><path class="cls-9" d="M68,68A13,13,0,1,1,55,55,13,13,0,0,1,68,68"/><path class="cls-4" d="M44,68a13,13,0,0,1,12-13c-.33,0-.66-.05-1-.05a13,13,0,1,0,0,26c.34,0,.67,0,1-.05A13,13,0,0,1,44,68"/><path class="cls-13" d="M59,68a4,4,0,1,1-4-4,4,4,0,0,1,4,4"/><path class="cls-15" d="M55,72h0m0-8h0"/><path class="cls-14" d="M55,72h0m0,0h0m0,0h0m0,0a4,4,0,0,1,0-8,4.08,4.08,0,0,0-1,.14,4,4,0,0,1,1,.41,4,4,0,0,0,0,6.9,4,4,0,0,1-1,.41A4.08,4.08,0,0,0,55,72m0-8h0m0,0h0m0,0h0"/><path class="cls-12" d="M55,117c.34,0,.67,0,1,0-.34,0-.67,0-1,0A48.94,48.94,0,0,0,102,69h2c0,1.16-.09,2.3-.19,3.43a48.82,48.82,0,0,1-17,32.86h0l-15.69,9h0A49.06,49.06,0,0,1,55,117"/><path class="cls-16" d="M71.12,114.3h0l15.69-9h0a49,49,0,0,1-15.68,9"/><path class="cls-6" d="M55,117h0c-.34,0-.67,0-1,0,.34,0,.67,0,1,0s.66,0,1,0c-.33,0-.66,0-1,0h0"/><path class="cls-12" d="M104,67h-2A49,49,0,0,0,55,19.07l1,0-1,0a49,49,0,0,1,49,48"/><path class="cls-6" d="M55,19.07l-1,0,1,0h0l1,0-1,0"/><path class="cls-17" d="M55,108c.34,0,.66,0,1,0l-1,0A40,40,0,0,0,93,69h2a40,40,0,0,1-40,39"/><path class="cls-18" d="M55,108h0c-.34,0-.66,0-1,0l1,0,1,0c-.34,0-.66,0-1,0h0"/><path class="cls-17" d="M95,67H93a39.93,39.93,0,0,0-38-38.9l1,0c-.34,0-.66-.05-1-.05A40,40,0,0,1,95,67"/><path class="cls-18" d="M55,28.11l-1,0c.34,0,.66-.05,1-.05h0c.34,0,.66,0,1,.05l-1,0"/><path class="cls-12" d="M55,99c.34,0,.67-.05,1-.06l-1,0A31,31,0,0,0,84,69h2q0,.78-.09,1.56A31,31,0,0,1,55,99"/><path class="cls-6" d="M55,99h0c-.34,0-.67-.05-1-.06l1,0,1,0c-.33,0-.66.06-1,.06h0"/><path class="cls-12" d="M86,67H84a31,31,0,0,0-29-29.9l1,0c-.33,0-.66,0-1,0A31,31,0,0,1,86,67"/><path class="cls-6" d="M55,37.11l-1,0c.33,0,.66,0,1,0h0c.34,0,.67,0,1,0l-1,0"/><path class="cls-17" d="M55,90c.34,0,.67,0,1-.05l-1-.07A22,22,0,0,0,75,69h2a1.28,1.28,0,0,1,0,.19A22,22,0,0,1,55,90"/><path class="cls-18" d="M55,90h0c-.34,0-.67,0-1-.05l1-.07L56,90c-.33,0-.66.05-1,.05h0"/><path class="cls-17" d="M77,67H75A22,22,0,0,0,55,46.13l1-.07c-.33,0-.66-.05-1-.05A22,22,0,0,1,77,67"/><path class="cls-18" d="M55,46.13l-1-.07c.33,0,.66-.05,1-.05h0c.34,0,.67,0,1,.05l-1,.07"/><path class="cls-17" d="M68,69.2c0-.07,0-.13,0-.19h0c0,.06,0,.13,0,.19"/><path class="cls-12" d="M55,81h0m0,0c.34,0,.67,0,1-.05-.34,0-.67-.07-1-.12A13,13,0,0,0,66,69h2c0,.06,0,.12,0,.19A13,13,0,0,1,55,81"/><path class="cls-6" d="M55,81h0c-.34,0-.67,0-1-.05.34,0,.67-.07,1-.12s.66.09,1,.12c-.33,0-.66.05-1,.05h0"/><path class="cls-17" d="M68,67h0A11.8,11.8,0,0,0,67.64,65,11.8,11.8,0,0,1,68,67M67.64,65h0M58,55.37A12.93,12.93,0,0,0,55.1,55H55a13.09,13.09,0,0,1,3,.36M55,55h0"/><path class="cls-12" d="M68,67H66A13,13,0,0,0,55,55.18c.33,0,.66-.09,1-.12L55.1,55a13,13,0,0,1,12.54,9.93h0A11.8,11.8,0,0,1,68,67"/><path class="cls-6" d="M55,55.18c-.33,0-.66-.09-1-.12.33,0,.66-.05,1-.05h.09l.91.05c-.34,0-.67.07-1,.12"/><path class="cls-12" d="M55,72h0m0,0h0"/><path class="cls-17" d="M55,72h0m0,0h0m0,0h0m0,0a4.08,4.08,0,0,0,1-.14,4,4,0,0,1-1-.41A4,4,0,0,0,56.88,69h2A4,4,0,0,1,55,72"/><path class="cls-18" d="M55,72h0a4.08,4.08,0,0,1-1-.14,4,4,0,0,0,1-.41,4,4,0,0,0,1,.41A4.08,4.08,0,0,1,55,72h0"/><path class="cls-12" d="M55,64h0m0,0h0"/><path class="cls-17" d="M58.88,67h-2A4,4,0,0,0,55,64.56a4,4,0,0,1,1-.41A4.08,4.08,0,0,0,55,64a4,4,0,0,1,3.86,3M55,64h0m0,0h0m0,0h0"/><path class="cls-18" d="M55,64.56a4,4,0,0,0-1-.41A4.08,4.08,0,0,1,55,64h0a4.08,4.08,0,0,1,1,.14,4,4,0,0,0-1,.41"/><path class="cls-19" d="M104,69h0c0-.33,0-.67,0-1h0c0-.33,0-.67,0-1h0a1,1,0,0,1,0,2"/><path class="cls-20" d="M102,69H95c0-.33,0-.66,0-1s0-.67,0-1h7c0,.33,0,.67,0,1s0,.67,0,1"/><path class="cls-21" d="M95,69h0c0-.33,0-.66,0-1s0-.67,0-1h0c0,.33,0,.67,0,1s0,.67,0,1m-2,0H86c0-.33,0-.66,0-1h0c0-.33,0-.67,0-1h7c0,.33,0,.67,0,1s0,.67,0,1"/><path class="cls-20" d="M84,69H77c0-.33,0-.66,0-1h0c0-.33,0-.67,0-1h7c0,.33,0,.67,0,1s0,.67,0,1"/><path class="cls-21" d="M75,69H68c0-.33,0-.66,0-1s0-.67,0-1h7c0,.33,0,.67,0,1s0,.67,0,1"/><path class="cls-22" d="M104,69h-2c0-.33,0-.66,0-1s0-.67,0-1h2c0,.33,0,.67,0,1s0,.67,0,1"/><path class="cls-23" d="M95,69H93c0-.33,0-.66,0-1s0-.67,0-1h2c0,.33,0,.67,0,1s0,.67,0,1"/><path class="cls-22" d="M86,69H84c0-.33,0-.66,0-1s0-.67,0-1h2c0,.33,0,.67,0,1s0,.67,0,1"/><path class="cls-23" d="M77,69H75c0-.33,0-.66,0-1s0-.67,0-1h2c0,.33,0,.67,0,1s0,.67,0,1"/><path class="cls-20" d="M66,69H58.88A3.66,3.66,0,0,0,59,68a3.71,3.71,0,0,0-.13-1H66c0,.33,0,.66,0,1s0,.67,0,1"/><path class="cls-21" d="M58.88,69h0A3.66,3.66,0,0,0,59,68a3.71,3.71,0,0,0-.13-1h0A3.71,3.71,0,0,1,59,68a3.66,3.66,0,0,1-.13,1m-2,0H55a1,1,0,0,1,0-2h1.87A3.71,3.71,0,0,1,57,68a3.66,3.66,0,0,1-.13,1"/><path class="cls-23" d="M68,69h0c0-.33,0-.66,0-1s0-.67,0-1h0c0,.33,0,.66,0,1s0,.67,0,1"/><path class="cls-22" d="M68,69H66c0-.33,0-.66,0-1s0-.67,0-1h2c0,.33,0,.66,0,1s0,.67,0,1"/><path class="cls-23" d="M58.88,69h-2A3.66,3.66,0,0,0,57,68a3.71,3.71,0,0,0-.13-1h2A3.71,3.71,0,0,1,59,68a3.66,3.66,0,0,1-.13,1"/><path class="cls-24" d="M55,118A50,50,0,0,1,55,18,49.44,49.44,0,0,1,85.74,28.58a1,1,0,1,1-1.23,1.57A47.49,47.49,0,0,0,55,20a48,48,0,1,0,48,48A47.48,47.48,0,0,0,92.83,38.46a1,1,0,0,1,1.58-1.23A49.49,49.49,0,0,1,105,68a50,50,0,0,1-50,50Z"/><path class="cls-24" d="M55,109a41,41,0,1,1,0-82h0A40.66,40.66,0,0,1,79.3,35a1,1,0,0,1-1.19,1.61A38.69,38.69,0,0,0,55,29h0A39,39,0,1,0,86.39,44.86,1,1,0,0,1,88,43.67,40.62,40.62,0,0,1,96,68a41,41,0,0,1-41,41Z"/><path class="cls-24" d="M55,100a32,32,0,0,1,0-64h0a31.85,31.85,0,0,1,17.79,5.4,1,1,0,0,1,.28,1.39,1,1,0,0,1-1.39.27A29.87,29.87,0,0,0,55,38h0A30,30,0,1,0,79.89,51.24a1,1,0,0,1,.27-1.39,1,1,0,0,1,1.38.27A32,32,0,0,1,55,100Z"/><path class="cls-24" d="M55,91A23,23,0,1,1,66.19,47.91a1,1,0,0,1,.39,1.36,1,1,0,0,1-1.36.39A21,21,0,0,0,34,68,21,21,0,0,0,55,89,21,21,0,0,0,73.33,57.75a1,1,0,0,1,1.75-1A23,23,0,0,1,55,91Z"/><path class="cls-24" d="M55,82a14,14,0,1,1,0-28,13.76,13.76,0,0,1,4.18.64,1,1,0,1,1-.6,1.9,12,12,0,1,0,7.86,7.82,1,1,0,1,1,1.9-.61A14,14,0,0,1,55,82Z"/><path class="cls-24" d="M55.16,72.81a5,5,0,0,1-3.53-8.54,1,1,0,0,1,1.41,0,1,1,0,0,1,0,1.42,3,3,0,0,0,0,4.24,2.93,2.93,0,0,0,2.11.88h0a3,3,0,0,0,2.13-.88,1,1,0,1,1,1.41,1.41,4.94,4.94,0,0,1-3.53,1.47Z"/><path class="cls-24" d="M55,69a1,1,0,0,1-.71-1.71L119.86,1.71a1,1,0,0,1,1.41,1.41L55.72,68.71A1,1,0,0,1,55,69Z"/><path class="cls-24" d="M20.94,128c-1.46,0-2.47-.07-3.16-.76S17,125.5,17,124c0-2.84,3.63-14,4.05-15.31a1,1,0,0,1,1.26-.64,1,1,0,0,1,.64,1.26C21.87,112.67,19,121.86,19,124a4.8,4.8,0,0,0,.17,1.83A5,5,0,0,0,21,126h0c3.76,0,11.59-7,14.29-9.71a1,1,0,0,1,1.41,0,1,1,0,0,1,0,1.42C35.67,118.76,26.29,128,21,128c0,0-.06,0-.08,0Z"/><g class="cls-25"><path class="cls-24" d="M89,128c-5.26,0-14.65-9.24-15.7-10.3a1,1,0,0,1,1.41-1.41C77.42,119,85.25,126,89,126c2,0,2,0,2-2s-2.86-11.33-4-14.69a1,1,0,0,1,1.9-.62c.41,1.27,4,12.47,4,15.31,0,3.33-.67,4-4,4Z"/><path class="cls-24" d="M117.73,6.24a1,1,0,0,1-1-.68l-1.41-4.24a1,1,0,1,1,1.9-.64l1.41,4.25a1,1,0,0,1-.63,1.26.89.89,0,0,1-.32,0Z"/><path class="cls-24" d="M106.42,11.9a1,1,0,0,1-.7-.29,1,1,0,0,1,0-1.42l9.89-9.9A1,1,0,0,1,117,1.71l-9.9,9.9a1,1,0,0,1-.71.29Z"/><path class="cls-24" d="M106.42,17.56a1,1,0,0,1-1-1V10.9a1,1,0,0,1,2,0v5.66a1,1,0,0,1-1,1Z"/><path class="cls-24" d="M122,7.66a1.19,1.19,0,0,1-.32,0l-4.24-1.42a1,1,0,1,1,.63-1.89l4.24,1.41a1,1,0,0,1-.31,2Z"/><path class="cls-24" d="M112.08,17.56a1,1,0,0,1-.71-1.71l9.9-9.9a1,1,0,0,1,1.41,0,1,1,0,0,1,0,1.41l-9.9,9.9a1,1,0,0,1-.7.3Z"/></g><path class="cls-24" d="M112.08,17.56h-5.66a1,1,0,0,1,0-2h5.66a1,1,0,1,1,0,2Z"/></svg>