<svg id="Layer_1" data-name="Layer 1" xmlns="http://www.w3.org/2000/svg" viewBox="0 0 128 128"><defs><style>.cls-1{fill:#00b19b;}.cls-2{fill:#fdbe52;}.cls-3{fill:#ffd9a1;}.cls-4{fill:#cf9d43;}.cls-5{fill:#fcc39f;}.cls-6{fill:#fedcc7;}.cls-7{fill:#cf9f80;}.cls-8{fill:#fff;}.cls-9{fill:#3d364a;}.cls-10{fill:#dbdee3;}.cls-11{fill:#bfc7ce;}.cls-12{fill:#99a3ab;}.cls-13{fill:#76cabf;}.cls-14{fill:#dbdee2;}.cls-15{fill:#00ac8a;}.cls-16{fill:#5f6c79;}.cls-17{fill:#c4c4c3;}.cls-18{fill:#302a3c;}.cls-19{fill:#8a97a0;}.cls-20{fill:#4f5662;}.cls-21{fill:#e6c9b7;}.cls-22{fill:#a7836b;}</style></defs><title>plano-de-ensino</title><path class="cls-1" d="M115,97H13V27a2,2,0,0,1,2-2h98a2,2,0,0,1,2,2V97M44,61a3,3,0,1,0-3-3,3,3,0,0,0,3,3"/><polyline class="cls-2" points="87 87 107 87 107 97 87 97 87 87"/><polyline class="cls-3" points="89 95 88 95 88 95 88 88 89 88 89 95"/><polyline class="cls-4" points="106 95 105 95 105 88 106 88 106 95 106 95"/><polyline class="cls-5" points="49.17 101 39.08 101 25 127 35 127 49.17 101"/><polyline class="cls-6" points="27 127 25 127 38 103 40 103 27 127"/><polyline class="cls-7" points="35 127 33 127 46 103 48 103 35 127"/><polyline class="cls-5" points="78.92 101 89 101 103.08 127 93.08 127 78.92 101"/><polyline class="cls-7" points="102.92 127 100.92 127 87.91 103 89.91 103 102.92 127"/><polyline class="cls-8" points="94.92 127 92.92 127 79.91 103 80.01 103 93.08 127 94.92 127"/><polyline class="cls-6" points="94.92 127 93.08 127 80.01 103 80.01 103 81.91 103 94.92 127"/><polyline class="cls-5" points="59 1 69 1 69 21 59 21 59 1"/><path class="cls-9" d="M103.06,92a1,1,0,0,1-1-1,1,1,0,0,1,1-1h0a1,1,0,0,1,0,2Z"/><path class="cls-9" d="M95.06,92a1,1,0,0,1-1-1,1,1,0,0,1,1-1h0a1,1,0,0,1,0,2Z"/><path class="cls-9" d="M99.06,94a1,1,0,0,1-1-1,1,1,0,0,1,1-1h0a1,1,0,0,1,0,2Z"/><path class="cls-9" d="M91.06,94a1,1,0,0,1-1-1,1,1,0,0,1,1-1h0a1,1,0,0,1,0,2Z"/><path class="cls-9" d="M107,96a1,1,0,0,1-1-1V88H88v7a1,1,0,0,1-2,0V87a1,1,0,0,1,1-1h20a1,1,0,0,1,1,1v8a1,1,0,0,1-1,1"/><path class="cls-10" d="M47,58a3,3,0,1,1-3-3,3,3,0,0,1,3,3Z"/><path class="cls-11" d="M113,25H15a2,2,0,0,0-2,2V97H9V25a4,4,0,0,1,4-4H115a4,4,0,0,1,4,4V97h-4V27a2,2,0,0,0-2-2"/><path class="cls-8" d="M11,25a4,4,0,0,1,4-4H13a4,4,0,0,0-4,4V95h2V25Z"/><path class="cls-12" d="M119,95h-2V25a4,4,0,0,0-4-4h2a4,4,0,0,1,4,4V95"/><path class="cls-13" d="M15,95H13V27a2,2,0,0,1,2-2h2a2,2,0,0,0-2,2V95"/><path class="cls-14" d="M13,95h0V27a2,2,0,0,1,2-2h0a2,2,0,0,0-2,2V95"/><path class="cls-15" d="M115,95h-2V27a2,2,0,0,0-2-2h2a2,2,0,0,1,2,2V95"/><path class="cls-12" d="M115,95h0V27h0V95m-.44-69.25A2,2,0,0,0,113,25h0a2,2,0,0,1,1.56.75"/><polyline class="cls-7" points="90.08 103 89.91 103 87.91 103 81.91 103 80.01 103 78.92 101 89 101 90.08 103"/><polyline class="cls-7" points="48.08 103 48 103 46 103 40 103 38 103 39.08 101 49.17 101 48.08 103"/><polyline class="cls-7" points="69 21 59 21 59 19 59 19 61 19 61 19 67 19 67 19 69 19 69 21"/><polyline class="cls-16" points="5 97 123 97 123 101 5 101 5 97"/><polyline class="cls-17" points="119 97 9 97 9 97 13 97 13 97 87 97 87 97 107 97 107 97 115 97 115 95 115 97 119 97 119 95 119 95 119 97"/><path class="cls-15" d="M115,97h-8V96a1,1,0,0,0,1-1h7v2M87,97H13V95H86a1,1,0,0,0,1,1h0v1"/><path class="cls-4" d="M107,97H87V96a1,1,0,0,0,1-1h18a1,1,0,0,0,1,1h0v1h0"/><path class="cls-18" d="M107,96a1,1,0,0,1-1-1h2a1,1,0,0,1-1,1h0M87,96a1,1,0,0,1-1-1h2a1,1,0,0,1-1,1h0"/><path class="cls-12" d="M13,97H9V95h4v2h0m106,0h-4V95h4v2"/><polyline class="cls-19" points="9 101 5 101 5 97 9 97 9 101"/><polyline class="cls-20" points="123 101 119 101 119 97 123 97 123 101"/><polyline class="cls-6" points="61 19 59 19 59 1 61 1 61 19"/><polyline class="cls-21" points="61 19 59 19 59 19 61 19 61 19"/><polyline class="cls-7" points="69 19 67 19 67 1 69 1 69 19"/><polyline class="cls-22" points="69 19 67 19 67 19 69 19 69 19"/><path class="cls-9" d="M119,96a1,1,0,0,1-1-1V25a1,1,0,0,1,2,0V95a1,1,0,0,1-1,1Z"/><path class="cls-9" d="M9,96a1,1,0,0,1-1-1V25a1,1,0,0,1,2,0V95a1,1,0,0,1-1,1Z"/><path class="cls-9" d="M59,20.18a1,1,0,0,1-1-1V1a1,1,0,0,1,2,0V19.18a1,1,0,0,1-1,1Z"/><path class="cls-9" d="M69,20.18a1,1,0,0,1-1-1V1a1,1,0,0,1,2,0V19.18a1,1,0,0,1-1,1Z"/><path class="cls-9" d="M69,2H59a1,1,0,0,1,0-2H69a1,1,0,0,1,0,2Z"/><path class="cls-9" d="M35,128H25a1,1,0,0,1,0-2H35a1,1,0,0,1,0,2Z"/><path class="cls-9" d="M25,128a1,1,0,0,1-.48-.12,1,1,0,0,1-.4-1.36l13.1-24a1,1,0,1,1,1.76,1l-13.1,24A1,1,0,0,1,25,128Z"/><path class="cls-9" d="M31,128a1,1,0,0,1-.48-.12,1,1,0,0,1-.4-1.36l6.54-12a1,1,0,1,1,1.76,1l-6.54,12A1,1,0,0,1,31,128Z"/><path class="cls-9" d="M35,128a1,1,0,0,1-.48-.12,1,1,0,0,1-.4-1.36l13.1-24a1,1,0,1,1,1.76,1l-13.1,24A1,1,0,0,1,35,128Z"/><path class="cls-9" d="M103,128H93a1,1,0,0,1,0-2h10a1,1,0,0,1,0,2Z"/><path class="cls-9" d="M103,128a1,1,0,0,1-.88-.52L89,103.48a1,1,0,1,1,1.76-1l13.08,24a1,1,0,0,1-.4,1.36,1,1,0,0,1-.48.12Z"/><path class="cls-9" d="M93,128a1,1,0,0,1-.88-.52l-13.1-24a1,1,0,1,1,1.76-1l13.1,24a1,1,0,0,1-.4,1.36A1,1,0,0,1,93,128Z"/><path class="cls-9" d="M92.46,116a1,1,0,0,1-.88-.52l-5.46-10a1,1,0,1,1,1.76-1l5.46,10a1,1,0,0,1-.4,1.36,1,1,0,0,1-.48.12Z"/><path class="cls-9" d="M88.64,120H39.36a1,1,0,0,1,0-2H88.64a1,1,0,0,1,0,2Z"/><path class="cls-9" d="M6,100H122V98H6v2Zm117,2H5a1,1,0,0,1-1-1V97a1,1,0,0,1,1-1H123a1,1,0,0,1,1,1v4a1,1,0,0,1-1,1Z"/><path class="cls-9" d="M9,26a1,1,0,0,1-1-1,5,5,0,0,1,5-5,1,1,0,0,1,0,2,3,3,0,0,0-3,3,1,1,0,0,1-1,1Z"/><path class="cls-9" d="M119,26a1,1,0,0,1-1-1,3,3,0,0,0-3-3,1,1,0,0,1,0-2,5,5,0,0,1,5,5,1,1,0,0,1-1,1Z"/><path class="cls-9" d="M115,22H13a1,1,0,0,1,0-2H115a1,1,0,0,1,0,2Z"/><path class="cls-9" d="M13,96a1,1,0,0,1-1-1V27a1,1,0,0,1,2,0V95a1,1,0,0,1-1,1Z"/><path class="cls-9" d="M13,28a1,1,0,0,1-1-1,3,3,0,0,1,3-3,1,1,0,0,1,0,2,1,1,0,0,0-1,1,1,1,0,0,1-1,1Z"/><path class="cls-9" d="M115,28a1,1,0,0,1-1-1,1,1,0,0,0-1-1,1,1,0,0,1,0-2,3,3,0,0,1,3,3,1,1,0,0,1-1,1Z"/><path class="cls-9" d="M113,26H15a1,1,0,0,1,0-2h98a1,1,0,0,1,0,2Z"/><path class="cls-9" d="M115,96a1,1,0,0,1-1-1V27a1,1,0,0,1,2,0V95a1,1,0,0,1-1,1Z"/><path class="cls-9" d="M43,94H23a1,1,0,0,1,0-2H43a1,1,0,0,1,0,2Z"/><path class="cls-9" d="M64,20a1,1,0,0,1-1-1V11a1,1,0,0,1,2,0v8a1,1,0,0,1-1,1Z"/><path class="cls-9" d="M37.54,116a1,1,0,0,1-.93-1.38A4.8,4.8,0,0,1,43,112.06a1,1,0,0,1,.6,1.28,1,1,0,0,1-1.28.6,2.78,2.78,0,0,0-3.83,1.44,1,1,0,0,1-.93.62Z"/><path class="cls-9" d="M44,56a2,2,0,1,0,2,2,2,2,0,0,0-2-2Zm0,6a4,4,0,1,1,4-4,4,4,0,0,1-4,4Z"/><path class="cls-9" d="M44,66h-.94a1,1,0,0,1,0-2H44c10.61,0,18-3.16,18-6s-7.39-6-18-6H43a1,1,0,0,1,0-2h1c9.7,0,20,2.8,20,8s-10.3,8-20,8Z"/><path class="cls-9" d="M31,64.1a1,1,0,0,1-.33-.06C26.36,62.55,24,60.41,24,58s2.37-4.58,6.68-6a1,1,0,0,1,.64,1.9C28,55,26,56.54,26,58s2,3,5.31,4.15A1,1,0,0,1,31,64.1Z"/><path class="cls-9" d="M50.34,62a1,1,0,0,1-.49-.13,1,1,0,0,1-.38-1.36,45.64,45.64,0,0,0,2.82-5.88,1,1,0,1,1,1.86.74,47.46,47.46,0,0,1-2.94,6.12,1,1,0,0,1-.87.51Z"/><path class="cls-9" d="M36,75.83a3.88,3.88,0,0,1-2-.5c-1.17-.68-2.51-2.34-2.24-6.4S34,59.31,37.08,54a48,48,0,0,1,5.16-7.35c4.61-5.32,9-7.56,11.76-6,2,1.19,2.72,4.07,2,8.34a1,1,0,0,1-2-.34c.57-3.28.2-5.56-1-6.27-1.48-.84-4.9.55-9.24,5.56a45.82,45.82,0,0,0-4.95,7C35.92,60,34,65.24,33.76,69.07,33.6,71.43,34,73,35,73.6s3.07,0,5.39-1.81a1,1,0,0,1,1.22,1.58c-2.42,1.87-4.27,2.46-5.63,2.46Z"/><path class="cls-9" d="M34.78,56a1,1,0,0,1-.93-.63C31,48,31,42.41,34,40.68c1.33-.77,3.73-1,7.61,2a1,1,0,1,1-1.22,1.58c-2.32-1.8-4.28-2.47-5.39-1.82-1.6.93-2.07,5.16.71,12.22a1,1,0,0,1-.56,1.3,1,1,0,0,1-.37.07Z"/><path class="cls-9" d="M52,75.84c-4.53,0-10.75-6.6-14.93-13.84-.09-.16-.21-.37-.3-.55a1,1,0,1,1,1.78-.9,3.5,3.5,0,0,0,.24.42C44.1,70.18,50.54,75,53,73.59c1-.55,1.4-2.16,1.24-4.52A1,1,0,0,1,55.17,68a1,1,0,0,1,1.07.93c.27,4.06-1.07,5.72-2.24,6.4a3.94,3.94,0,0,1-2,.51Z"/><path class="cls-9" d="M101,48H71a1,1,0,0,1,0-2h30a1,1,0,0,1,0,2Z"/><path class="cls-9" d="M101,56H71a1,1,0,0,1,0-2h30a1,1,0,0,1,0,2Z"/><path class="cls-9" d="M101,64H71a1,1,0,0,1,0-2h30a1,1,0,0,1,0,2Z"/><path class="cls-9" d="M85,72H71a1,1,0,0,1,0-2H85a1,1,0,0,1,0,2Z"/></svg>