<svg id="Layer_1" data-name="Layer 1" xmlns="http://www.w3.org/2000/svg" xmlns:xlink="http://www.w3.org/1999/xlink" viewBox="0 0 128 128"><defs><style>.cls-1{fill:none;}.cls-2{fill:#f04c64;}.cls-3{fill:#f37b8c;}.cls-4{fill:#a34d56;}.cls-5{fill:#b56f73;}.cls-6{fill:#853d45;}.cls-7{fill:#ad6066;}.cls-8{fill:#9cacb6;}.cls-9{fill:#94464e;}.cls-10{fill:#bfc7ce;}.cls-11{fill:#fdbe52;}.cls-12{fill:#ffd9a1;}.cls-13{fill:#cf9d43;}.cls-14{fill:#3d364a;}.cls-15{fill:#c28d90;}.cls-16{fill:#8c4c53;}.cls-17{fill:#d33f54;}.cls-18{fill:#9e7376;}.cls-19{fill:#d16472;}.cls-20{fill:#9780bb;}.cls-21{fill:#8167ad;}.cls-22{fill:#b69dcb;}.cls-23{fill:#a28fc3;}.cls-24{fill:#008fcf;}.cls-25{fill:#78c367;}.cls-26{fill:#9cd191;}.cls-27{fill:#5fa855;}.cls-28{fill:#00b5d3;}.cls-29{fill:#30c1d8;}.cls-30{fill:#0098b2;}.cls-31{fill:#14a4b6;}.cls-32{fill:#bb7e81;}.cls-33{fill:#aeb9c1;}.cls-34{fill:#605f6d;}.cls-35{fill:#7f8d97;}.cls-36{fill:#302a3c;}.cls-37{fill:#99a3ab;}.cls-38{fill:#c4c4c3;}.cls-39{fill:#5fabdf;}.cls-40{fill:#0c7ab5;}.cls-41{clip-path:url(#clip-path);}</style><clipPath id="clip-path"><rect class="cls-1" y="15" width="128" height="98"/></clipPath></defs><title>pre-requisitos</title><path class="cls-2" d="M64,16c-13,0-21,4-21,4v4H85V20s-8-4-21-4"/><path class="cls-3" d="M85,22s-8-4-21-4-21,4-21,4V20s8-4,21-4,21,4,21,4v2"/><polyline class="cls-4" points="115 38 1 38 13 26 127 26 115 38"/><polyline class="cls-5" points="5 38 1 38 13 26 17 26 5 38"/><polyline class="cls-6" points="115 38 115 38 111 38 123 26 127 26 115 38"/><polyline class="cls-4" points="1 38 115 38 115 112 1 112 1 38"/><path class="cls-7" d="M115,112h0V96h0V54h0V38H99l12,12v50L99,112H17L5,100V50L17,38H1v74H1V38H115v74h0M33,96h0l7,7,7-7h0l-6-6-1-1-7,7h0m30,6h0l2-.73h0L85,94,65,86.73h0L63,86v16M22.48,83.91A13.22,13.22,0,0,0,33.2,80.2,13,13,0,0,0,24,58a12.63,12.63,0,0,0-1.63.11l-.49.06h0a13,13,0,0,0-6.5,3.06l-.59.56a13,13,0,0,0,0,18.4c.24.24.49.47.74.69a13.08,13.08,0,0,0,6.36,2.94h0l.6.08M99,80h2V50H81V80H99M55.5,70.5,57,72l1.5-1.5,1.92.9.9-1.91,2,.17h.14l.2-2.12,2-.54-.54-2,1.72-1.22L65.64,62l1.2-1.74L65.12,59l.54-2-2-.56-.2-2.1h-.14l-2,.17-.89-1.91-1.92.9L57,52l-1.5,1.5-1.92-.9-.9,1.92h-.12l-2-.17-.2,2.12-2,.54h0l.24.92.3,1.12-1.72,1.22h0L48.36,62l-1.2,1.74h0L48.88,65l-.54,2h0l2,.54.2,2.12,2.1-.18.9,1.92,1.92-.9M87,58a2,2,0,1,1,2-2,2,2,0,0,1-2,2"/><polyline class="cls-8" points="1 54 1 38 17 38 1 54"/><polyline class="cls-8" points="99 38 115 38 115 54 99 38"/><polyline class="cls-8" points="115 96 115 112 99 112 115 96"/><polyline class="cls-8" points="17 112 1 112 1 96 17 112"/><polyline class="cls-4" points="127 100 115 112 115 38 127 26 127 100"/><polyline class="cls-9" points="115 112 115 38 127 26 127 100 115 112"/><polyline class="cls-10" points="43 24 47 24 47 32 43 32 43 24"/><polyline class="cls-10" points="81 24 85 24 85 32 81 32 81 24"/><polyline class="cls-11" points="29 34 11 34 15 30 33 30 29 34"/><polyline class="cls-12" points="19 34 17 34 21 30 23 30 19 34"/><polyline class="cls-12" points="13 34 11 34 15 30 17 30 13 34"/><polyline class="cls-13" points="23 34 21 34 25 30 27 30 23 34"/><polyline class="cls-13" points="29 34 27 34 31 30 33 30 29 34"/><polyline class="cls-11" points="111 34 93 34 97 30 115 30 111 34"/><polyline class="cls-12" points="101 34 99 34 103 30 105 30 101 34"/><polyline class="cls-12" points="95 34 93 34 97 30 99 30 95 34"/><polyline class="cls-13" points="105 34 103 34 107 30 109 30 105 34"/><polyline class="cls-13" points="111 34 109 34 113 30 115 30 111 34"/><path class="cls-14" d="M5.06,43a1,1,0,0,1-1-1,1,1,0,0,1,1-1h0a1,1,0,1,1,0,2"/><path class="cls-14" d="M111.06,43a1,1,0,0,1-1-1,1,1,0,0,1,1-1h0a1,1,0,0,1,0,2"/><path class="cls-14" d="M5.06,109a1,1,0,0,1-1-1,1,1,0,0,1,1-1h0a1,1,0,1,1,0,2"/><path class="cls-14" d="M111.06,109a1,1,0,0,1-1-1,1,1,0,0,1,1-1h0a1,1,0,0,1,0,2"/><polyline class="cls-2" points="40 103 33 96 40 89 47 96 40 103"/><polyline class="cls-15" points="33 96 33 96 40 89 41 90 40 89 39 90 39 90 33 96"/><polyline class="cls-3" points="40 103 33 96 39 90 40 91 35 96 40 101 39 102 40 103"/><polyline class="cls-16" points="47 96 41 90 41 90 47 96 47 96"/><polyline class="cls-17" points="40 103 40 103 41 102 40 101 45 96 40 91 41 90 47 96 40 103"/><polyline class="cls-18" points="41 90 40 89 39 90 39 90 40 89 41 90 41 90"/><path class="cls-19" d="M40,103h0l-1-1,1-1,1,1-1,1m0-12-1-1,1-1,1,1-1,1"/><polyline class="cls-20" points="63 86 85 94 63 102 63 86"/><polyline class="cls-21" points="65 101.27 65 99.82 81 94 65 88.18 65 86.73 85 94 65 101.27"/><path class="cls-15" d="M63,102h0l2-.73h0L63,102m2-15.27L63,86l2,.73h0"/><polyline class="cls-22" points="63 100.55 63 87.45 65 88.18 65 99.82 63 100.55"/><path class="cls-23" d="M63,102v-1.46l2-.72v1.45L63,102m2-13.82-2-.73V86l2,.73v1.45"/><path class="cls-11" d="M89,56a2,2,0,1,1-2-2,2,2,0,0,1,2,2Z"/><path class="cls-24" d="M85,56a2,2,0,1,0,2-2,2,2,0,0,0-2,2m16,24H81V50h20V80"/><path class="cls-2" d="M57,58a4,4,0,1,1-4,4,4,4,0,0,1,4-4"/><path class="cls-3" d="M57,66a4,4,0,0,1,0-8h0a4.09,4.09,0,0,0-1,.14,3.83,3.83,0,0,1,1,.41,4,4,0,0,0,0,6.9,3.83,3.83,0,0,1-1,.41A4.09,4.09,0,0,0,57,66"/><path class="cls-17" d="M57,66a4.09,4.09,0,0,0,1-.14,3.83,3.83,0,0,1-1-.41,4,4,0,0,0,0-6.9,3.83,3.83,0,0,1,1-.41A4,4,0,0,0,57,58h.09A4,4,0,0,1,57,66"/><path class="cls-19" d="M57,66h0a4.09,4.09,0,0,1-1-.14,3.83,3.83,0,0,0,1-.41,3.83,3.83,0,0,0,1,.41A4.09,4.09,0,0,1,57,66h0m0-7.45a3.83,3.83,0,0,0-1-.41A4.09,4.09,0,0,1,57,58h0a4,4,0,0,1,1,.14,3.83,3.83,0,0,0-1,.41"/><path class="cls-25" d="M50.38,67.54l-2-.54.54-2-1.72-1.22L48.36,62l-1.2-1.74L48.88,59l-.54-2,2-.54.2-2.12,2.1.18.9-1.92,1.92.9L57,52l1.5,1.5,1.92-.9.9,1.92,2.1-.18.2,2.1,2,.56-.54,2,1.72,1.22L65.64,62l1.2,1.74L65.12,65l.54,2-2,.54-.2,2.12-2.1-.18-.9,1.92-1.92-.9L57,72l-1.5-1.5-1.92.9-.9-1.92-2.1.18-.2-2.12M61,62a4,4,0,1,0-4,4,4,4,0,0,0,4-4"/><path class="cls-15" d="M48.34,67h0l.54-2h0l-.54,2m-1.18-3.26h0L48.36,62h0l-1.2,1.74m0-3.48h0L48.88,59l-.3-1.12.3,1.12-1.72,1.22M48.34,57h0l2-.54.2-2.12,2,.17h0l-2-.17-.2,2.12-2,.54"/><polyline class="cls-26" points="50.58 69.66 50.38 67.54 48.34 67 48.88 64.96 48.88 64.96 48.88 64.96 47.16 63.74 48.36 62 48.36 62 48.36 62 47.16 60.26 48.88 59.04 48.58 57.91 48.34 57 50.38 56.46 50.58 54.34 52.56 54.51 52.38 56.46 50.34 57 50.88 59.04 49.16 60.26 50.36 62 49.16 63.74 50.88 64.96 50.34 67 52.38 67.54 52.56 69.49 50.58 69.66"/><path class="cls-16" d="M63.28,69.66l-2-.17h0l2,.17h0m-2-15.14h0l2-.17h0l-2,.17"/><polyline class="cls-27" points="63.28 69.65 61.32 69.48 61.32 69.49 61.3 69.49 61.48 67.54 63.52 67 62.98 64.96 64.7 63.74 63.5 62 64.7 60.26 62.98 59.04 63.52 57 61.48 56.46 61.3 54.51 61.31 54.51 61.32 54.52 63.28 54.35 63.48 56.46 65.52 57 64.98 59.04 66.7 60.26 65.5 62 66.7 63.74 64.98 64.96 65.52 67 63.48 67.54 63.28 69.65"/><path class="cls-28" d="M14.8,80.2a13,13,0,1,1,18.4,0,13,13,0,0,1-18.4,0"/><path class="cls-15" d="M15.54,80.89c-.25-.22-.5-.45-.74-.69a13,13,0,0,1,0-18.4l.59-.56-.59.56a13,13,0,0,0,0,18.4c.24.24.49.47.74.69"/><path class="cls-29" d="M24,84h0a13.37,13.37,0,0,0,2-.16H26A13.6,13.6,0,0,1,24,84m-2.06-.16a12.94,12.94,0,0,1-6.39-2.93c-.25-.22-.5-.45-.74-.69a13,13,0,0,1,0-18.4l.59-.56a12.92,12.92,0,0,1,6.54-3.06,14,14,0,0,1,2,.48A12.85,12.85,0,0,0,18.8,61.8a13,13,0,0,0,0,18.4,12.85,12.85,0,0,0,5.14,3.14,14,14,0,0,1-2,.48m4-25.64a12.2,12.2,0,0,0-2-.16h0a13.63,13.63,0,0,1,2,.15H26"/><path class="cls-16" d="M22.48,83.91l-.6-.08h0l.58.08m-.59-25.73h0l.49-.06-.48.07"/><path class="cls-30" d="M23.89,84a13.31,13.31,0,0,1-1.41-.07l-.58-.08h0A12.5,12.5,0,0,0,24,84h-.06M26,83.82a14,14,0,0,1-2-.48,12.85,12.85,0,0,0,5.14-3.14,13,13,0,0,0,0-18.4,12.85,12.85,0,0,0-5.14-3.14,14,14,0,0,1,2-.48,13,13,0,0,1,0,25.64m-4-25.64h0l.48-.07A12.83,12.83,0,0,1,23.9,58h0a12.29,12.29,0,0,0-2,.16"/><path class="cls-31" d="M24,84a12.5,12.5,0,0,1-2-.16,14,14,0,0,0,2-.48,14,14,0,0,0,2,.48A13.37,13.37,0,0,1,24,84m0-25.32a14,14,0,0,0-2-.48,12.71,12.71,0,0,1,4,0,14,14,0,0,0-2,.48"/><path class="cls-32" d="M5,112H5m0-12L1,96V54l4-4v50M5,38H5"/><path class="cls-33" d="M1,54V38H5v3a1,1,0,0,0-1,1,1,1,0,0,0,1,1v7L1,54"/><path class="cls-33" d="M5,112H1V96l4,4v7a1,1,0,0,0-1,1,1,1,0,0,0,1,1v3"/><path class="cls-34" d="M5,43a1,1,0,0,1-1-1,1,1,0,0,1,1-1v2"/><path class="cls-34" d="M5,109a1,1,0,0,1-1-1,1,1,0,0,1,1-1v2"/><path class="cls-16" d="M115,112h0m-4-12V50l4,4V96l-4,4m4-62h0"/><path class="cls-35" d="M115,54l-4-4V43h.06a1,1,0,0,0,0-2H111V38h4V54"/><path class="cls-35" d="M115,112h-4v-3h.06a1,1,0,0,0,0-2H111v-7l4-4v16"/><path class="cls-36" d="M111.06,43H111V41h.06a1,1,0,0,1,0,2"/><path class="cls-36" d="M111.06,109H111v-2h.06a1,1,0,0,1,0,2"/><polyline class="cls-37" points="47 26 43 26 43 24 47 24 47 26"/><polyline class="cls-38" points="85 26 85 26 85 24 85 24 85 26"/><polyline class="cls-6" points="85 26 85 26 85 26 85 26 85 26"/><polyline class="cls-37" points="85 26 81 26 81 24 85 24 85 26 85 26"/><polyline class="cls-15" points="83 80 81 80 81 50 83 50 83 50 81 50 81 80 83 80"/><polyline class="cls-39" points="83 80 81 80 81 50 83 50 83 80"/><polyline class="cls-16" points="101 80 99 80 101 80 101 50 99 50 99 50 101 50 101 80"/><polyline class="cls-40" points="101 80 99 80 99 50 101 50 101 80"/><path class="cls-14" d="M2,111H114V39H2v72Zm113,2H1a1,1,0,0,1-1-1V38a1,1,0,0,1,1-1H115a1,1,0,0,1,1,1v74a1,1,0,0,1-1,1Z"/><g class="cls-41"><path class="cls-14" d="M127,101a1,1,0,0,1-1-1V26a1,1,0,0,1,2,0v74a1,1,0,0,1-1,1Z"/><path class="cls-14" d="M115,113a1,1,0,0,1-.71-.29,1,1,0,0,1,0-1.42l12-12a1,1,0,0,1,1.42,1.42l-12,12a1,1,0,0,1-.71.29Z"/><path class="cls-14" d="M1,39a1,1,0,0,1-.71-.29,1,1,0,0,1,0-1.42l12-12a1,1,0,0,1,1.42,1.42l-12,12A1,1,0,0,1,1,39Z"/><path class="cls-14" d="M115,39a1,1,0,0,1-.71-.29,1,1,0,0,1,0-1.42l12-12a1,1,0,0,1,1.42,1.42l-12,12A1,1,0,0,1,115,39Z"/></g><path class="cls-14" d="M13.41,33H28.59l2-2H15.41l-2,2ZM29,35H11a1,1,0,0,1-.92-.62,1,1,0,0,1,.21-1.09l4-4A1,1,0,0,1,15,29H33a1,1,0,0,1,.92.62,1,1,0,0,1-.21,1.09l-4,4A1,1,0,0,1,29,35Z"/><path class="cls-14" d="M95.41,33h15.18l2-2H97.41l-2,2ZM111,35H93a1,1,0,0,1-.92-.62,1,1,0,0,1,.21-1.09l4-4A1,1,0,0,1,97,29h18a1,1,0,0,1,.92.62,1,1,0,0,1-.21,1.09l-4,4A1,1,0,0,1,111,35Z"/><path class="cls-14" d="M39,27H13a1,1,0,0,1,0-2H39a1,1,0,0,1,0,2Z"/><path class="cls-14" d="M127,27H89a1,1,0,0,1,0-2h38a1,1,0,0,1,0,2Z"/><path class="cls-14" d="M43,33a1,1,0,0,1-1-1V26a1,1,0,0,1,2,0v6a1,1,0,0,1-1,1Z"/><path class="cls-14" d="M47,33a1,1,0,0,1-1-1V26a1,1,0,0,1,2,0v6a1,1,0,0,1-1,1Z"/><path class="cls-14" d="M81,33a1,1,0,0,1-1-1V26a1,1,0,0,1,2,0v6a1,1,0,0,1-1,1Z"/><path class="cls-14" d="M85,33a1,1,0,0,1-1-1V26a1,1,0,0,1,2,0v6a1,1,0,0,1-1,1Z"/><path class="cls-14" d="M85,25H43a1,1,0,0,1,0-2H85a1,1,0,0,1,0,2Z"/><path class="cls-14" d="M85,21a.93.93,0,0,1-.45-.11c-.08,0-8-3.89-20.55-3.89s-20.48,3.86-20.55,3.89a1,1,0,0,1-.9-1.78C42.89,18.94,50.91,15,64,15s21.11,3.94,21.45,4.11a1,1,0,0,1,.44,1.34A1,1,0,0,1,85,21Z"/><path class="cls-14" d="M43,25a1,1,0,0,1-1-1V20a1,1,0,0,1,2,0v4a1,1,0,0,1-1,1Z"/><path class="cls-14" d="M85,25a1,1,0,0,1-1-1V20a1,1,0,0,1,2,0v4a1,1,0,0,1-1,1Z"/><path class="cls-14" d="M113,53a1,1,0,0,1-.71-.29l-12-12a1,1,0,0,1,1.42-1.42l12,12a1,1,0,0,1,0,1.42A1,1,0,0,1,113,53Z"/><path class="cls-14" d="M3,53a1,1,0,0,1-.71-.29,1,1,0,0,1,0-1.42l12-12a1,1,0,0,1,1.42,1.42l-12,12A1,1,0,0,1,3,53Z"/><path class="cls-14" d="M101,111a1,1,0,0,1-.71-.29,1,1,0,0,1,0-1.42l12-12a1,1,0,0,1,1.42,1.42l-12,12a1,1,0,0,1-.71.29Z"/><path class="cls-14" d="M15,111a1,1,0,0,1-.71-.29l-12-12a1,1,0,0,1,1.42-1.42l12,12a1,1,0,0,1,0,1.42A1,1,0,0,1,15,111Z"/><path class="cls-14" d="M17,35a1,1,0,0,1-.71-.29,1,1,0,0,1,0-1.42l4-4a1,1,0,0,1,1.42,1.42l-4,4A1,1,0,0,1,17,35Z"/><path class="cls-14" d="M23,35a1,1,0,0,1-.71-.29,1,1,0,0,1,0-1.42l4-4a1,1,0,0,1,1.42,1.42l-4,4A1,1,0,0,1,23,35Z"/><path class="cls-14" d="M99,35a1,1,0,0,1-.71-.29,1,1,0,0,1,0-1.42l4-4a1,1,0,0,1,1.42,1.42l-4,4A1,1,0,0,1,99,35Z"/><path class="cls-14" d="M105,35a1,1,0,0,1-.71-.29,1,1,0,0,1,0-1.42l4-4a1,1,0,0,1,1.42,1.42l-4,4A1,1,0,0,1,105,35Z"/><path class="cls-14" d="M121,101a1,1,0,0,1-1-1V38a1,1,0,0,1,2,0v62a1,1,0,0,1-1,1Z"/><path class="cls-14" d="M24,59a12,12,0,1,0,8.49,3.51A11.94,11.94,0,0,0,24,59Zm0,26a14,14,0,1,1,9.91-4.09A14,14,0,0,1,24,85Z"/><path class="cls-14" d="M20.46,75.54a1,1,0,0,1-.71-.29,1,1,0,0,1,0-1.42l5.66-5.64a1,1,0,0,1,1.42,1.42l-5.66,5.64a1,1,0,0,1-.71.29Z"/><path class="cls-14" d="M26.12,69.88a1,1,0,0,1-.71-.29,1,1,0,0,1,0-1.42l2.84-2.82a1,1,0,0,1,1.41,0,1,1,0,0,1,0,1.42l-2.84,2.82a1,1,0,0,1-.71.29Z"/><path class="cls-14" d="M20.46,78.36a1,1,0,0,1-1-1V74.54a1,1,0,0,1,2,0v2.82a1,1,0,0,1-1,1Z"/><path class="cls-14" d="M20.46,75.54H17.64a1,1,0,0,1,0-2h2.82a1,1,0,0,1,0,2Z"/><path class="cls-14" d="M26.12,78.36a1,1,0,0,1-1-1V68.9a1,1,0,0,1,1-1,1,1,0,0,1,1,1v8.48a1,1,0,0,1-1,1Z"/><path class="cls-14" d="M26.12,69.88H17.64a1,1,0,0,1,0-2h8.48a1,1,0,1,1,0,2Z"/><path class="cls-14" d="M82,79h18V51H82V79Zm19,2H81a1,1,0,0,1-1-1V50a1,1,0,0,1,1-1h20a1,1,0,0,1,1,1V80a1,1,0,0,1-1,1Z"/><path class="cls-14" d="M97,75a1,1,0,0,1-.71-.29L95,73.41l-1.29,1.3a1,1,0,0,1-1.42,0L91,73.41l-1.29,1.3a1,1,0,0,1-1.42,0L87,73.41l-1.29,1.3a1,1,0,0,1-1.42-1.42l2-2a1,1,0,0,1,1.42,0L89,72.59l1.29-1.3a1,1,0,0,1,1.42,0L93,72.59l1.29-1.3a1,1,0,0,1,1.42,0l2,2a1,1,0,0,1,0,1.42A1,1,0,0,1,97,75Z"/><path class="cls-14" d="M97,71a1,1,0,0,1-.71-.29L95,69.41l-1.29,1.3a1,1,0,0,1-1.42,0L91,69.41l-1.29,1.3a1,1,0,0,1-1.42,0L87,69.41l-1.29,1.3a1,1,0,0,1-1.42-1.42l2-2a1,1,0,0,1,1.42,0L89,68.59l1.29-1.3a1,1,0,0,1,1.42,0L93,68.59l1.29-1.3a1,1,0,0,1,1.42,0l2,2a1,1,0,0,1,0,1.42A1,1,0,0,1,97,71Z"/><path class="cls-14" d="M87,55a1,1,0,1,0,1,1,1,1,0,0,0-1-1Zm0,4a3,3,0,1,1,3-3,3,3,0,0,1-3,3Z"/><path class="cls-14" d="M95,63a1,1,0,0,1-.71-.29l-2-2a1,1,0,0,1,1.42-1.42l2,2a1,1,0,0,1,0,1.42A1,1,0,0,1,95,63Z"/><path class="cls-14" d="M95,63a1,1,0,0,1-.71-.29,1,1,0,0,1,0-1.42l2-2a1,1,0,0,1,1.42,1.42l-2,2A1,1,0,0,1,95,63Z"/><path class="cls-14" d="M55.5,69.5a1,1,0,0,1,.71.29l.79.8.79-.8a1,1,0,0,1,1.13-.2l1,.48.47-1a1,1,0,0,1,1-.57l1.11.1.1-1.13a1,1,0,0,1,.74-.88l1.08-.28-.29-1.07a1,1,0,0,1,.39-1.08l.92-.65-.64-.92a1,1,0,0,1,0-1.14l.64-.93-.92-.64a1,1,0,0,1-.39-1.08l.29-1.08-1.08-.29a1,1,0,0,1-.73-.88l-.11-1.11-1.11.1a1,1,0,0,1-1-.58l-.48-1-1,.47a1,1,0,0,1-1.13-.19l-.79-.8-.79.8a1,1,0,0,1-1.13.19l-1-.47-.47,1a1,1,0,0,1-1,.58l-1.11-.1-.1,1.13a1,1,0,0,1-.74.88l-1.08.28.29,1.07a1,1,0,0,1-.39,1.08l-.92.64.64.93a1,1,0,0,1,0,1.14l-.64.92.92.65a1,1,0,0,1,.39,1.08l-.29,1.07,1.08.28a1,1,0,0,1,.74.87l.1,1.14,1.11-.1a1,1,0,0,1,1,.57l.47,1,1-.48a1,1,0,0,1,.42-.09ZM57,73a1,1,0,0,1-.71-.29l-1-1L54,72.3a1,1,0,0,1-.76,0,1,1,0,0,1-.57-.52l-.6-1.28-1.41.12a1,1,0,0,1-1.08-.91l-.13-1.42L48.08,68a1,1,0,0,1-.71-1.23l.37-1.37-1.16-.81a1,1,0,0,1-.24-1.39L47.15,62l-.81-1.17a1,1,0,0,1,.24-1.39l1.16-.81-.37-1.37A1,1,0,0,1,48.08,56l1.37-.36.13-1.42a1,1,0,0,1,1.08-.91l1.41.12.6-1.29a1,1,0,0,1,.57-.51,1,1,0,0,1,.76,0l1.29.61,1-1a1,1,0,0,1,1.42,0l1,1L60,51.69a1,1,0,0,1,.76,0,1,1,0,0,1,.57.51l.6,1.29,1.4-.12a1,1,0,0,1,1.08.9l.14,1.42,1.37.37a1,1,0,0,1,.71,1.23l-.37,1.37,1.16.81a1,1,0,0,1,.24,1.39L66.85,62l.81,1.17a1,1,0,0,1-.24,1.39l-1.16.81.37,1.37A1,1,0,0,1,65.92,68l-1.37.36-.14,1.42a1,1,0,0,1-1.08.91l-1.4-.12-.6,1.28a1,1,0,0,1-.57.52,1,1,0,0,1-.76,0l-1.29-.6-1,1A1,1,0,0,1,57,73Z"/><path class="cls-14" d="M57,59a3,3,0,1,0,3,3,3,3,0,0,0-3-3Zm0,8a5,5,0,1,1,5-5,5,5,0,0,1-5,5Z"/><path class="cls-14" d="M85,95a1,1,0,0,1-.34-.06l-22-8a1,1,0,1,1,.68-1.88l22,8A1,1,0,0,1,85,95Z"/><path class="cls-14" d="M63,103a1,1,0,0,1-.34-1.94l22-8a1,1,0,0,1,.68,1.88l-22,8A1,1,0,0,1,63,103Z"/><path class="cls-14" d="M63,103a1,1,0,0,1-1-1V86a1,1,0,0,1,2,0v16a1,1,0,0,1-1,1Z"/><path class="cls-14" d="M73,95H67a1,1,0,0,1,0-2h6a1,1,0,0,1,0,2Z"/><path class="cls-14" d="M34.41,96,40,101.59,45.59,96,40,90.41,34.41,96ZM40,104a1,1,0,0,1-.71-.29l-7-7a1,1,0,0,1,0-1.42l7-7a1,1,0,0,1,1.42,0l7,7a1,1,0,0,1,0,1.42l-7,7A1,1,0,0,1,40,104Z"/><path class="cls-14" d="M41,97H39a1,1,0,0,1,0-2h2a1,1,0,0,1,0,2Z"/><path class="cls-14" d="M40,99a1,1,0,0,1-1-1V94a1,1,0,0,1,2,0v4a1,1,0,0,1-1,1Z"/></svg>