<svg id="Layer_1" data-name="Layer 1" xmlns="http://www.w3.org/2000/svg" viewBox="0 0 128 128"><defs><style>.cls-1{fill:#e6e9ed;}.cls-2{fill:#656d78;}.cls-3{fill:#aab2bd;}.cls-4{fill:#ccd1d9;}.cls-5{opacity:0.2;}.cls-6{fill:#fff;}.cls-7{opacity:0.5;}.cls-8{opacity:0.1;}.cls-9{opacity:0.3;}.cls-10{fill:#fc6e51;}.cls-11{fill:#a0d468;}.cls-12{fill:#ffce54;}.cls-13{fill:#ed5564;}.cls-14{fill:#8cc152;}.cls-15{fill:#3a3847;}</style></defs><title>projeto-pedagogico-do-curso</title><rect class="cls-1" x="5" y="19" width="118" height="76"/><rect class="cls-2" x="1" y="11" width="126" height="8"/><rect class="cls-3" x="62" y="7" width="4" height="4"/><rect class="cls-3" x="62" y="95" width="4" height="26"/><polygon class="cls-4" points="64 107.5 37 121 29 121 64 103.5 64 107.5"/><polygon class="cls-4" points="64 107.5 91 121 99 121 64 103.5 64 107.5"/><g class="cls-5"><rect class="cls-6" x="1" y="11" width="4" height="8"/></g><g class="cls-7"><rect class="cls-6" x="5" y="19" width="4" height="76"/></g><g class="cls-8"><rect x="119" y="19" width="4" height="76"/></g><g class="cls-5"><rect x="123" y="11" width="4" height="8"/></g><g class="cls-9"><rect x="62" y="95" width="4" height="4"/></g><path class="cls-10" d="M57,78a5,5,0,1,1-5-5A5,5,0,0,1,57,78Z"/><path class="cls-11" d="M29,72a5,5,0,1,1-5-5A5,5,0,0,1,29,72Z"/><g class="cls-9"><path class="cls-6" d="M21,72a5,5,0,0,1,4-4.93,4.71,4.71,0,0,0-1-.1A5,5,0,0,0,24,77a4.71,4.71,0,0,0,1-.1A5,5,0,0,1,21,72Z"/></g><g class="cls-5"><path d="M27,72a5,5,0,0,1-4,4.93,4.71,4.71,0,0,0,1,.1A5,5,0,0,0,24,67a4.71,4.71,0,0,0-1,.1A5,5,0,0,1,27,72Z"/></g><g class="cls-9"><path class="cls-6" d="M49,78a5,5,0,0,1,4-4.93,4.71,4.71,0,0,0-1-.1A5,5,0,0,0,52,83a4.71,4.71,0,0,0,1-.1A5,5,0,0,1,49,78Z"/></g><g class="cls-5"><path d="M55,78a5,5,0,0,1-4,4.93,4.71,4.71,0,0,0,1,.1A5,5,0,0,0,52,73a4.71,4.71,0,0,0-1,.1A5,5,0,0,1,55,78Z"/></g><path class="cls-11" d="M99,47a4,4,0,1,1-4-4A4,4,0,0,1,99,47Z"/><path class="cls-12" d="M105,80a5,5,0,1,1-5-5A5,5,0,0,1,105,80Z"/><g class="cls-9"><path class="cls-6" d="M97,80a5,5,0,0,1,4-4.93,4.71,4.71,0,0,0-1-.1A5,5,0,0,0,100,85a4.71,4.71,0,0,0,1-.1A5,5,0,0,1,97,80Z"/></g><g class="cls-5"><path d="M103,80a5,5,0,0,1-4,4.93,4.71,4.71,0,0,0,1,.1A5,5,0,0,0,100,75a4.71,4.71,0,0,0-1,.1A5,5,0,0,1,103,80Z"/></g><path class="cls-13" d="M63,34a5,5,0,1,1-5-5A5,5,0,0,1,63,34Z"/><g class="cls-9"><path class="cls-6" d="M55,34a5,5,0,0,1,4-4.93,4.71,4.71,0,0,0-1-.1A5,5,0,0,0,58,39a4.71,4.71,0,0,0,1-.1A5,5,0,0,1,55,34Z"/></g><g class="cls-5"><path d="M61,34a5,5,0,0,1-4,4.93,4.71,4.71,0,0,0,1,.1A5,5,0,0,0,58,29a4.71,4.71,0,0,0-1,.1A5,5,0,0,1,61,34Z"/></g><rect class="cls-11" x="94.97" y="28.97" width="10.03" height="4.03"/><polygon class="cls-14" points="113.02 37.02 100.98 37.02 102.98 32.98 113.02 32.98 111 35 113.02 37.02"/><path class="cls-15" d="M24.06,73a1,1,0,0,1-1-1,1,1,0,0,1,1-1h0a1,1,0,1,1,0,2Z"/><path class="cls-15" d="M123,96H5a1,1,0,0,1-1-1V19a1,1,0,0,1,1-1H123a1,1,0,0,1,1,1V95A1,1,0,0,1,123,96ZM6,94H122V20H6Z"/><path class="cls-15" d="M95,52a5,5,0,0,1-4.33-7.5,1,1,0,1,1,1.73,1A3,3,0,1,0,98,47a3.06,3.06,0,0,0-.4-1.5,1,1,0,0,1,1.74-1A5.07,5.07,0,0,1,100,47,5,5,0,0,1,95,52Z"/><path class="cls-15" d="M95,48a1,1,0,0,1-1-1V27a1,1,0,0,1,2,0V47A1,1,0,0,1,95,48Z"/><path class="cls-15" d="M105,34H97a1,1,0,0,1,0-2h7V30H97a1,1,0,0,1,0-2h8a1,1,0,0,1,1,1v4A1,1,0,0,1,105,34Z"/><path class="cls-15" d="M113,38H101a1,1,0,0,1,0-2h12a1,1,0,0,1,0,2Z"/><path class="cls-15" d="M113,34h-6a1,1,0,0,1,0-2h6a1,1,0,0,1,0,2Z"/><path class="cls-15" d="M113,38a1,1,0,0,1-.71-.29l-2-2a1,1,0,0,1,0-1.42l2-2a1,1,0,0,1,1.42,1.42L112.41,35l1.3,1.29a1,1,0,0,1,0,1.42A1,1,0,0,1,113,38Z"/><path class="cls-15" d="M24,78a6,6,0,1,1,6-6A6,6,0,0,1,24,78Zm0-10a4,4,0,1,0,4,4A4,4,0,0,0,24,68Z"/><path class="cls-15" d="M30,67a1,1,0,0,1-.67-1.74C52.39,44.2,86.78,48,87.12,48a1,1,0,1,1-.24,2c-.32,0-33.82-3.69-56.21,16.75A1,1,0,0,1,30,67Z"/><path class="cls-15" d="M83,52a1,1,0,0,1-.89-.55,1,1,0,0,1,.44-1.34l4-2a1,1,0,1,1,.9,1.78l-4,2A.93.93,0,0,1,83,52Z"/><path class="cls-15" d="M87,50a.93.93,0,0,1-.45-.11l-4-2a1,1,0,0,1,.9-1.78l4,2A1,1,0,0,1,87,50Z"/><path class="cls-15" d="M60,37a1,1,0,0,1-.71-.29l-4-4a1,1,0,0,1,1.42-1.42l4,4a1,1,0,0,1,0,1.42A1,1,0,0,1,60,37Z"/><path class="cls-15" d="M56,37a1,1,0,0,1-.71-.29,1,1,0,0,1,0-1.42l4-4a1,1,0,0,1,1.42,1.42l-4,4A1,1,0,0,1,56,37Z"/><path class="cls-15" d="M58,40a6,6,0,1,1,6-6A6,6,0,0,1,58,40Zm0-10a4,4,0,1,0,4,4A4,4,0,0,0,58,30Z"/><path class="cls-15" d="M31,46a1,1,0,0,1-.71-.29l-6-6a1,1,0,0,1,1.42-1.42l6,6a1,1,0,0,1,0,1.42A1,1,0,0,1,31,46Z"/><path class="cls-15" d="M25,46a1,1,0,0,1-.71-.29,1,1,0,0,1,0-1.42l6-6a1,1,0,0,1,1.41,1.42l-6,6A1,1,0,0,1,25,46Z"/><path class="cls-15" d="M54,81a1,1,0,0,1-.71-.29l-4-4a1,1,0,0,1,0-1.42,1,1,0,0,1,1.41,0l4,4a1,1,0,0,1,0,1.42A1,1,0,0,1,54,81Z"/><path class="cls-15" d="M50,81a1,1,0,0,1-.71-.29,1,1,0,0,1,0-1.42l4-4a1,1,0,1,1,1.41,1.42l-4,4A1,1,0,0,1,50,81Z"/><path class="cls-15" d="M52,84a6,6,0,1,1,6-6A6,6,0,0,1,52,84Zm0-10a4,4,0,1,0,4,4A4,4,0,0,0,52,74Z"/><path class="cls-15" d="M79,74a1,1,0,0,1-.71-.29l-6-6a1,1,0,0,1,1.42-1.42l6,6a1,1,0,0,1,0,1.42A1,1,0,0,1,79,74Z"/><path class="cls-15" d="M73,74a1,1,0,0,1-.71-.29,1,1,0,0,1,0-1.42l6-6a1,1,0,0,1,1.42,1.42l-6,6A1,1,0,0,1,73,74Z"/><path class="cls-15" d="M102,83a1,1,0,0,1-.71-.29l-4-4a1,1,0,0,1,1.42-1.42l4,4a1,1,0,0,1,0,1.42A1,1,0,0,1,102,83Z"/><path class="cls-15" d="M98,83a1,1,0,0,1-.71-.29,1,1,0,0,1,0-1.42l4-4a1,1,0,0,1,1.42,1.42l-4,4A1,1,0,0,1,98,83Z"/><path class="cls-15" d="M100,86a6,6,0,1,1,6-6A6,6,0,0,1,100,86Zm0-10a4,4,0,1,0,4,4A4,4,0,0,0,100,76Z"/><path class="cls-15" d="M66,12H62a1,1,0,0,1-1-1V7a1,1,0,0,1,1-1h4a1,1,0,0,1,1,1v4A1,1,0,0,1,66,12Zm-3-2h2V8H63v2Z"/><path class="cls-15" d="M127,20H1a1,1,0,0,1-1-1V11a1,1,0,0,1,1-1H127a1,1,0,0,1,1,1v8A1,1,0,0,1,127,20ZM2,18H126V12H2Z"/><path class="cls-15" d="M121,16H7a1,1,0,0,1,0-2H121a1,1,0,0,1,0,2Z"/><path class="cls-15" d="M91,122a1.06,1.06,0,0,1-.45-.11l-27-13.5a1,1,0,1,1,.9-1.78l27,13.5a1,1,0,0,1,.44,1.34A1,1,0,0,1,91,122Z"/><path class="cls-15" d="M99,122a1.06,1.06,0,0,1-.45-.11l-35-17.5a1,1,0,1,1,.9-1.78l35,17.5a1,1,0,0,1,.44,1.34A1,1,0,0,1,99,122Z"/><path class="cls-15" d="M99,122H91a1,1,0,0,1,0-2h8a1,1,0,0,1,0,2Z"/><path class="cls-15" d="M37,122a1,1,0,0,1-.89-.55,1,1,0,0,1,.44-1.34l27-13.5a1,1,0,1,1,.9,1.78l-27,13.5A1.06,1.06,0,0,1,37,122Z"/><path class="cls-15" d="M29,122a1,1,0,0,1-.89-.55,1,1,0,0,1,.44-1.34l35-17.5a1,1,0,1,1,.9,1.78l-35,17.5A1.06,1.06,0,0,1,29,122Z"/><path class="cls-15" d="M37,122H29a1,1,0,0,1,0-2h8a1,1,0,0,1,0,2Z"/><path class="cls-15" d="M62,105.5a1,1,0,0,1-1-1V95a1,1,0,0,1,2,0v9.5A1,1,0,0,1,62,105.5Z"/><path class="cls-15" d="M66,105.5a1,1,0,0,1-1-1V95a1,1,0,0,1,2,0v9.5A1,1,0,0,1,66,105.5Z"/><path class="cls-15" d="M66,122a1,1,0,0,1-1-1V108.5a1,1,0,0,1,2,0V121A1,1,0,0,1,66,122Z"/><path class="cls-15" d="M66,122H62a1,1,0,0,1,0-2h4a1,1,0,0,1,0,2Z"/><path class="cls-15" d="M62,122a1,1,0,0,1-1-1V108.5a1,1,0,0,1,2,0V121A1,1,0,0,1,62,122Z"/></svg>