<svg id="Layer_1" data-name="Layer 1" xmlns="http://www.w3.org/2000/svg" xmlns:xlink="http://www.w3.org/1999/xlink" viewBox="0 0 128 128"><defs><style>.cls-1{fill:none;}.cls-2{fill:#5f6c79;}.cls-3{fill:#a34d56;}.cls-4{fill:#f176ad;}.cls-5{fill:#f04c64;}.cls-6{fill:#78c367;}.cls-7{fill:#9780bb;}.cls-8{fill:#008fcf;}.cls-9{fill:#f16056;}.cls-10{fill:#fdbe52;}.cls-11{fill:#00b5d3;}.cls-12{fill:#00b19b;}.cls-13{fill:#f49bc2;}.cls-14{fill:#f37b8c;}.cls-15{fill:#5fabdf;}.cls-16{fill:#b69dcb;}.cls-17{fill:#bd8084;}.cls-18{fill:#39bdb0;}.cls-19{fill:#30c1d8;}.cls-20{fill:#853d45;}.cls-21{fill:#0098b2;}.cls-22{fill:#00ac8a;}.cls-23{fill:#d33f54;}.cls-24{fill:#9cd191;}.cls-25{fill:#0c7ab5;}.cls-26{fill:#8167ad;}.cls-27{fill:#5fa855;}.cls-28{fill:#ffce83;}.cls-29{fill:#cf9d43;}.cls-30{fill:#df5044;}.cls-31{fill:#f58b83;}.cls-32{fill:#c4c4c3;}.cls-33{fill:#4f5662;}.cls-34{fill:#d87268;}.cls-35{fill:#6b3037;}.cls-36{fill:#9cacb6;}.cls-37{fill:#7f8d97;}.cls-38{fill:#3d364a;}.cls-39{clip-path:url(#clip-path);}</style><clipPath id="clip-path"><rect class="cls-1" width="128" height="128"/></clipPath></defs><title>referencias</title><path class="cls-2" d="M5,121v4a2,2,0,0,0,4,0v-4H5"/><polyline class="cls-3" points="1 1 85 1 85 121 1 121 1 1"/><polyline class="cls-4" points="7 7 11 7 11 25 7 25 7 7"/><polyline class="cls-4" points="69 29 73 29 73 49 69 49 69 29"/><polyline class="cls-4" points="77 29 81 29 81 49 77 49 77 29"/><polyline class="cls-5" points="15 5 19 5 19 25 15 25 15 5"/><polyline class="cls-5" points="51 85 55 85 55 97 51 97 51 85"/><polyline class="cls-5" points="33 103 37 103 37 121 33 121 33 103"/><polyline class="cls-6" points="25 103 29 103 29 121 25 121 25 103"/><polyline class="cls-7" points="17 101 21 101 21 121 17 121 17 101"/><polyline class="cls-5" points="19 53 23 53 23 73 19 73 19 53"/><polyline class="cls-8" points="27 57 31 57 31 73 27 73 27 57"/><polyline class="cls-8" points="23 5 31 5 31 25 23 25 23 5"/><polyline class="cls-6" points="39 79 47 79 47 97 39 97 39 79"/><polyline class="cls-8" points="41 103 53 103 53 121 41 121 41 103"/><polyline class="cls-7" points="35 9 43 9 43 25 35 25 35 9"/><polyline class="cls-9" points="27 81 35 81 35 97 27 97 27 81"/><polyline class="cls-9" points="5 105 13 105 13 121 5 121 5 105"/><polyline class="cls-9" points="7 57 15 57 15 73 7 73 7 57"/><polyline class="cls-5" points="47 57 55 57 55 73 47 73 47 57"/><polyline class="cls-10" points="35 53 43 53 43 73 35 73 35 53"/><polyline class="cls-7" points="33 31 41 31 41 49 33 49 33 31"/><polyline class="cls-11" points="73 5 81 5 81 25 73 25 73 5"/><polyline class="cls-12" points="47 9 69 9 69 17 47 17 47 9"/><polyline class="cls-5" points="47 17 69 17 69 25 47 25 47 17"/><polyline class="cls-11" points="59 81 81 81 81 89 59 89 59 81"/><polyline class="cls-8" points="59 89 81 89 81 97 59 97 59 89"/><polyline class="cls-6" points="45 37 65 37 65 49 45 49 45 37"/><polyline class="cls-5" points="7 33 29 33 29 37 7 37 7 33"/><polyline class="cls-12" points="7 37 29 37 29 41 7 41 7 37"/><polyline class="cls-5" points="7 41 29 41 29 45 7 45 7 41"/><polyline class="cls-5" points="59 61 81 61 81 65 59 65 59 61"/><polyline class="cls-7" points="59 65 81 65 81 69 59 69 59 65"/><polyline class="cls-5" points="59 69 81 69 81 73 59 73 59 69"/><polyline class="cls-8" points="7 45 29 45 29 49 7 49 7 45"/><polyline class="cls-5" points="57 105 81 105 81 109 57 109 57 105"/><polyline class="cls-12" points="57 109 81 109 81 113 57 113 57 109"/><polyline class="cls-5" points="57 113 81 113 81 117 57 117 57 113"/><polyline class="cls-10" points="57 117 81 117 81 121 57 121 57 117"/><polyline class="cls-5" points="5 81 23 81 23 85 5 85 5 81"/><polyline class="cls-12" points="5 77 23 77 23 81 5 81 5 77"/><polyline class="cls-10" points="5 85 23 85 23 89 5 89 5 85"/><polyline class="cls-11" points="5 89 23 89 23 93 5 93 5 89"/><polyline class="cls-6" points="5 93 23 93 23 97 5 97 5 93"/><polyline class="cls-13" points="9 25 7 25 7 7 9 7 9 25"/><polyline class="cls-14" points="17 25 15 25 15 5 17 5 17 25"/><polyline class="cls-15" points="25 25 23 25 23 5 25 5 25 25"/><polyline class="cls-16" points="37 25 35 25 35 9 37 9 37 25"/><polyline class="cls-17" points="49 17 47 17 47 17 49 17 49 17"/><polyline class="cls-18" points="49 17 47 17 47 9 49 9 49 17"/><polyline class="cls-14" points="49 25 47 25 47 17 49 17 49 25"/><polyline class="cls-19" points="75 25 73 25 73 5 75 5 75 25"/><polyline class="cls-20" points="81 25 79 25 81 25 81 5 81 5 81 25"/><polyline class="cls-21" points="81 25 79 25 79 5 81 5 81 25"/><polyline class="cls-20" points="69 25 69 25 69 17 67 17 67 17 69 17 69 9 69 9 69 25"/><polyline class="cls-22" points="69 17 67 17 67 9 69 9 69 17"/><polyline class="cls-23" points="69 25 67 25 67 17 69 17 69 25"/><polyline class="cls-24" points="47 49 45 49 45 37 47 37 47 49"/><polyline class="cls-14" points="61 65 59 65 59 61 61 61 61 65"/><polyline class="cls-16" points="61 69 59 69 59 65 61 65 61 69"/><polyline class="cls-14" points="61 73 59 73 59 69 61 69 61 73"/><polyline class="cls-14" points="53 97 51 97 51 85 53 85 53 97"/><polyline class="cls-17" points="61 89 59 89 59 89 61 89 61 89"/><polyline class="cls-19" points="61 89 59 89 59 81 61 81 61 89"/><polyline class="cls-15" points="61 97 59 97 59 89 61 89 61 97"/><polyline class="cls-20" points="81 97 81 97 81 89 79 89 79 89 81 89 81 81 81 81 81 97"/><polyline class="cls-21" points="81 89 79 89 79 81 81 81 81 89"/><polyline class="cls-25" points="81 97 79 97 79 89 81 89 81 97"/><polyline class="cls-20" points="81 73 79 73 81 73 81 69 79 69 81 69 81 65 79 65 81 65 81 61 81 61 81 73"/><polyline class="cls-23" points="81 65 79 65 79 61 81 61 81 65"/><polyline class="cls-26" points="81 69 79 69 79 65 81 65 81 69"/><polyline class="cls-23" points="81 73 79 73 79 69 81 69 81 73"/><polyline class="cls-14" points="49 73 47 73 47 57 49 57 49 73"/><polyline class="cls-23" points="55 73 53 73 53 57 55 57 55 73"/><polyline class="cls-13" points="71 49 69 49 69 29 71 29 71 49"/><polyline class="cls-13" points="79 49 77 49 77 29 79 29 79 49"/><polyline class="cls-20" points="65 49 63 49 65 49 65 37 65 37 65 49"/><polyline class="cls-27" points="65 49 63 49 63 37 65 37 65 49"/><polyline class="cls-20" points="43 25 41 25 43 25 43 9 43 9 43 25"/><polyline class="cls-26" points="43 25 41 25 41 9 43 9 43 25"/><polyline class="cls-16" points="35 49 33 49 33 31 35 31 35 49"/><polyline class="cls-14" points="21 73 19 73 19 53 21 53 21 73"/><polyline class="cls-15" points="29 73 27 73 27 57 29 57 29 73"/><polyline class="cls-28" points="37 73 35 73 35 53 37 53 37 73"/><polyline class="cls-20" points="43 73 41 73 43 73 43 53 43 53 43 73"/><polyline class="cls-29" points="43 73 41 73 41 53 43 53 43 73"/><polyline class="cls-20" points="41 49 39 49 41 49 41 31 41 31 41 49"/><polyline class="cls-26" points="41 49 39 49 39 31 41 31 41 49"/><polyline class="cls-25" points="31 25 29 25 29 5 31 5 31 25"/><polyline class="cls-23" points="29 37 27 37 27 33 29 33 29 37"/><polyline class="cls-22" points="29 41 27 41 27 37 29 37 29 41"/><polyline class="cls-23" points="29 45 27 45 27 41 29 41 29 45"/><polyline class="cls-25" points="29 49 27 49 27 45 29 45 29 49"/><polyline class="cls-30" points="15 73 13 73 13 57 15 57 15 73"/><polyline class="cls-14" points="9 37 7 37 7 33 9 33 9 37"/><polyline class="cls-18" points="9 41 7 41 7 37 9 37 9 41"/><polyline class="cls-14" points="9 45 7 45 7 41 9 41 9 45"/><polyline class="cls-15" points="9 49 7 49 7 45 9 45 9 49"/><polyline class="cls-31" points="9 73 7 73 7 57 9 57 9 73"/><path class="cls-17" d="M7,93H7m0-4H7"/><polyline class="cls-14" points="7 85 5 85 5 81 7 81 7 85"/><polyline class="cls-18" points="7 81 5 81 5 77 7 77 7 81"/><polyline class="cls-28" points="7 89 5 89 5 85 7 85 7 89"/><polyline class="cls-19" points="7 93 5 93 5 89 7 89 7 93"/><polyline class="cls-24" points="7 97 5 97 5 93 7 93 7 97"/><polyline class="cls-31" points="29 97 27 97 27 81 29 81 29 97"/><polyline class="cls-24" points="41 97 39 97 39 79 41 79 41 97"/><polyline class="cls-20" points="35 97 33 97 35 97 35 81 35 81 35 97"/><polyline class="cls-30" points="35 97 33 97 33 81 35 81 35 97"/><polyline class="cls-31" points="5 121 5 121 5 105 7 105 7 121 5 121 5 121"/><polyline class="cls-16" points="19 121 17 121 17 101 19 101 19 121"/><polyline class="cls-24" points="27 121 25 121 25 103 27 103 27 121"/><polyline class="cls-14" points="35 121 33 121 33 103 35 103 35 121"/><polyline class="cls-15" points="43 121 41 121 41 103 43 103 43 121"/><polyline class="cls-17" points="59 121 57 121 57 121 59 121 59 121"/><polyline class="cls-14" points="59 109 57 109 57 105 59 105 59 109"/><polyline class="cls-18" points="59 113 57 113 57 109 59 109 59 113"/><polyline class="cls-14" points="59 117 57 117 57 113 59 113 59 117"/><polyline class="cls-28" points="59 121 57 121 57 117 59 117 59 121"/><polyline class="cls-20" points="81 121 81 121 81 121 79 121 79 121 81 121 81 117 79 117 81 117 81 113 79 113 81 113 81 109 81 105 81 121"/><polyline class="cls-23" points="81 109 79 109 79 105 81 105 81 109"/><polyline class="cls-22" points="81 113 79 113 79 109 81 109 81 113"/><polyline class="cls-23" points="81 117 79 117 79 113 81 113 81 117"/><polyline class="cls-29" points="81 121 79 121 79 117 81 117 81 121"/><polyline class="cls-20" points="53 121 51 121 53 121 53 103 53 103 53 121"/><polyline class="cls-25" points="53 121 51 121 51 103 53 103 53 121"/><polyline class="cls-20" points="13 121 11 121 13 121 13 105 13 105 13 121"/><polyline class="cls-30" points="13 121 11 121 11 105 13 105 13 121"/><polyline class="cls-27" points="47 97 45 97 45 79 47 79 47 97"/><polyline class="cls-20" points="23 97 23 97 23 93 21 93 21 93 23 93 23 89 21 89 21 89 23 89 23 85 21 85 23 85 23 81 23 77 23 77 23 97"/><polyline class="cls-23" points="23 85 21 85 21 81 23 81 23 85"/><polyline class="cls-22" points="23 81 23 81 21 81 21 77 23 77 23 81"/><polyline class="cls-29" points="23 89 21 89 21 85 23 85 23 89"/><polyline class="cls-21" points="23 93 21 93 21 89 23 89 23 93"/><polyline class="cls-27" points="23 97 21 97 21 93 23 93 23 97"/><polyline class="cls-20" points="3 121 1 121 1 1 3 1 3 121"/><polyline class="cls-20" points="85 121 83 121 83 1 85 1 85 121"/><polyline class="cls-32" points="9 123 9 123 9 121 9 121 9 123"/><polyline class="cls-33" points="9 123 5 123 5 121 9 121 9 123"/><polyline class="cls-20" points="9 121 9 121 5 121 5 121 7 121 9 121 9 121"/><polyline class="cls-30" points="9 121 7 121 7 121 9 121 9 121"/><polyline class="cls-34" points="7 121 5 121 5 121 7 121 7 121"/><path class="cls-2" d="M77,121v4a2,2,0,0,0,4,0v-4H77"/><polyline class="cls-32" points="81 123 81 123 81 121 81 121 81 123"/><path class="cls-20" d="M81,121h0m-2,0h0"/><polyline class="cls-35" points="81 121 81 121 81 121 79 121 79 121 81 121 81 121"/><polyline class="cls-33" points="81 123 77 123 77 121 79 121 81 121 81 121 81 121 81 123"/><path class="cls-2" d="M97,125a2,2,0,1,1-2-2,2,2,0,0,1,2,2"/><path class="cls-2" d="M127,125a2,2,0,1,1-2-2,2,2,0,0,1,2,2"/><polyline class="cls-36" points="97 119 93 121 93 123 97 123 99 123 99 119 97 119"/><path class="cls-32" d="M97,125h0a2,2,0,0,0-2-2h2v2m-4,0v-2h2a2,2,0,0,0-2,2"/><path class="cls-33" d="M97,125H93v0a2,2,0,0,1,2-2h0a2,2,0,0,1,2,2"/><polyline class="cls-37" points="97 123 97 123 95 123 93 123 93 123 97 123 97 123"/><polyline class="cls-36" points="123 119 127 121 127 123 123 123 121 123 121 119 123 119"/><path class="cls-32" d="M123,125h0v-2h2a2,2,0,0,0-2,2m4-.06a2,2,0,0,0-2-1.94h2v1.94"/><path class="cls-33" d="M127,125h-4a2,2,0,0,1,2-2h0a2,2,0,0,1,2,1.94V125"/><polyline class="cls-37" points="127 123 125 123 123 123 123 123 123 123 127 123 127 123"/><path class="cls-38" d="M121,128a1,1,0,0,1-1-1V1a1,1,0,0,1,2,0V127a1,1,0,0,1-1,1Z"/><path class="cls-38" d="M99,128a1,1,0,0,1-1-1V1a1,1,0,0,1,2,0V127a1,1,0,0,1-1,1Z"/><path class="cls-38" d="M2,120H84V2H2V120Zm83,2H1a1,1,0,0,1-1-1V1A1,1,0,0,1,1,0H85a1,1,0,0,1,1,1V121a1,1,0,0,1-1,1Z"/><path class="cls-38" d="M95,128a3,3,0,0,1-3-3,1,1,0,0,1,2,0,1,1,0,0,0,2,0,1,1,0,0,1,2,0,3,3,0,0,1-3,3Z"/><path class="cls-38" d="M97,124H93a1,1,0,0,1,0-2h4a1,1,0,0,1,0,2Z"/><path class="cls-38" d="M93,124a1,1,0,0,1-1-1v-2a1,1,0,0,1,2,0v2a1,1,0,0,1-1,1Z"/><path class="cls-38" d="M93,122a1,1,0,0,1-.89-.55,1,1,0,0,1,.44-1.34l4-2a1,1,0,1,1,.9,1.78l-4,2A.93.93,0,0,1,93,122Z"/><path class="cls-38" d="M125,128a3,3,0,0,1-3-3,1,1,0,0,1,2,0,1,1,0,0,0,2,0,1,1,0,0,1,2,0,3,3,0,0,1-3,3Z"/><path class="cls-38" d="M127,124h-4a1,1,0,0,1,0-2h4a1,1,0,0,1,0,2Z"/><g class="cls-39"><path class="cls-38" d="M127,124a1,1,0,0,1-1-1v-2a1,1,0,0,1,2,0v2a1,1,0,0,1-1,1Z"/><path class="cls-38" d="M127,122a1.06,1.06,0,0,1-.45-.11l-4-2a1,1,0,0,1,.9-1.78l4,2a1,1,0,0,1,.44,1.34,1,1,0,0,1-.89.55Z"/></g><path class="cls-38" d="M119,106H101a1,1,0,0,1,0-2h18a1,1,0,0,1,0,2Z"/><path class="cls-38" d="M119,86H101a1,1,0,0,1,0-2h18a1,1,0,0,1,0,2Z"/><path class="cls-38" d="M119,66H101a1,1,0,0,1,0-2h18a1,1,0,0,1,0,2Z"/><path class="cls-38" d="M119,46H101a1,1,0,0,1,0-2h18a1,1,0,0,1,0,2Z"/><path class="cls-38" d="M119,26H101a1,1,0,0,1,0-2h18a1,1,0,0,1,0,2Z"/><path class="cls-38" d="M83,26H3a1,1,0,0,1,0-2H83a1,1,0,0,1,0,2Z"/><path class="cls-38" d="M83,50H3a1,1,0,0,1,0-2H83a1,1,0,0,1,0,2Z"/><path class="cls-38" d="M83,74H3a1,1,0,0,1,0-2H83a1,1,0,0,1,0,2Z"/><path class="cls-38" d="M83,98H3a1,1,0,0,1,0-2H83a1,1,0,0,1,0,2Z"/><path class="cls-38" d="M7,128a3,3,0,0,1-3-3,1,1,0,0,1,2,0,1,1,0,0,0,2,0,1,1,0,0,1,2,0,3,3,0,0,1-3,3Z"/><path class="cls-38" d="M5,126a1,1,0,0,1-1-1v-2a1,1,0,0,1,2,0v2a1,1,0,0,1-1,1Z"/><path class="cls-38" d="M9,126a1,1,0,0,1-1-1v-2a1,1,0,0,1,2,0v2a1,1,0,0,1-1,1Z"/><path class="cls-38" d="M79,128a3,3,0,0,1-3-3,1,1,0,0,1,2,0,1,1,0,0,0,2,0,1,1,0,0,1,2,0,3,3,0,0,1-3,3Z"/><path class="cls-38" d="M77,126a1,1,0,0,1-1-1v-2a1,1,0,0,1,2,0v2a1,1,0,0,1-1,1Z"/><path class="cls-38" d="M81,126a1,1,0,0,1-1-1v-2a1,1,0,0,1,2,0v2a1,1,0,0,1-1,1Z"/><path class="cls-38" d="M11,24a1,1,0,0,1-1-1V8H8V23a1,1,0,0,1-2,0V7A1,1,0,0,1,7,6h4a1,1,0,0,1,1,1V23a1,1,0,0,1-1,1Z"/><path class="cls-38" d="M19,24a1,1,0,0,1-1-1V6H16V23a1,1,0,0,1-2,0V5a1,1,0,0,1,1-1h4a1,1,0,0,1,1,1V23a1,1,0,0,1-1,1Z"/><path class="cls-38" d="M69,24a1,1,0,0,1-1-1V18H48v5a1,1,0,0,1-2,0V17a1,1,0,0,1,1-1H69a1,1,0,0,1,1,1v6a1,1,0,0,1-1,1Z"/><path class="cls-38" d="M69,16a1,1,0,0,1-1-1V10H48v5a1,1,0,0,1-2,0V9a1,1,0,0,1,1-1H69a1,1,0,0,1,1,1v6a1,1,0,0,1-1,1Z"/><path class="cls-38" d="M31,24a1,1,0,0,1-1-1V6H24V23a1,1,0,0,1-2,0V5a1,1,0,0,1,1-1h8a1,1,0,0,1,1,1V23a1,1,0,0,1-1,1Z"/><path class="cls-38" d="M27,22a1,1,0,0,1-1-1V9a1,1,0,0,1,2,0V21a1,1,0,0,1-1,1Z"/><path class="cls-38" d="M43,24a1,1,0,0,1-1-1V10H36V23a1,1,0,0,1-2,0V9a1,1,0,0,1,1-1h8a1,1,0,0,1,1,1V23a1,1,0,0,1-1,1Z"/><path class="cls-38" d="M39,22a1,1,0,0,1-1-1V13a1,1,0,0,1,2,0v8a1,1,0,0,1-1,1Z"/><path class="cls-38" d="M41,48a1,1,0,0,1-1-1V32H34V47a1,1,0,0,1-2,0V31a1,1,0,0,1,1-1h8a1,1,0,0,1,1,1V47a1,1,0,0,1-1,1Z"/><path class="cls-38" d="M37,46a1,1,0,0,1-1-1V35a1,1,0,0,1,2,0V45a1,1,0,0,1-1,1Z"/><path class="cls-38" d="M15,72a1,1,0,0,1-1-1V58H8V71a1,1,0,0,1-2,0V57a1,1,0,0,1,1-1h8a1,1,0,0,1,1,1V71a1,1,0,0,1-1,1Z"/><path class="cls-38" d="M11,70a1,1,0,0,1-1-1V61a1,1,0,0,1,2,0v8a1,1,0,0,1-1,1Z"/><path class="cls-38" d="M35,96a1,1,0,0,1-1-1V82H28V95a1,1,0,0,1-2,0V81a1,1,0,0,1,1-1h8a1,1,0,0,1,1,1V95a1,1,0,0,1-1,1Z"/><path class="cls-38" d="M31,94a1,1,0,0,1-1-1V85a1,1,0,0,1,2,0v8a1,1,0,0,1-1,1Z"/><path class="cls-38" d="M47,96a1,1,0,0,1-1-1V80H40V95a1,1,0,0,1-2,0V79a1,1,0,0,1,1-1h8a1,1,0,0,1,1,1V95a1,1,0,0,1-1,1Z"/><path class="cls-38" d="M43,94a1,1,0,0,1-1-1V83a1,1,0,0,1,2,0V93a1,1,0,0,1-1,1Z"/><path class="cls-38" d="M53,120a1,1,0,0,1-1-1V104H42v15a1,1,0,0,1-2,0V103a1,1,0,0,1,1-1H53a1,1,0,0,1,1,1v16a1,1,0,0,1-1,1Z"/><path class="cls-38" d="M47,118a1,1,0,0,1-1-1V107a1,1,0,0,1,2,0v10a1,1,0,0,1-1,1Z"/><path class="cls-38" d="M23,72a1,1,0,0,1-1-1V54H20V71a1,1,0,0,1-2,0V53a1,1,0,0,1,1-1h4a1,1,0,0,1,1,1V71a1,1,0,0,1-1,1Z"/><path class="cls-38" d="M31,72a1,1,0,0,1-1-1V58H28V71a1,1,0,0,1-2,0V57a1,1,0,0,1,1-1h4a1,1,0,0,1,1,1V71a1,1,0,0,1-1,1Z"/><path class="cls-38" d="M55,96a1,1,0,0,1-1-1V86H52v9a1,1,0,0,1-2,0V85a1,1,0,0,1,1-1h4a1,1,0,0,1,1,1V95a1,1,0,0,1-1,1Z"/><path class="cls-38" d="M43,72a1,1,0,0,1-1-1V54H36V71a1,1,0,0,1-2,0V53a1,1,0,0,1,1-1h8a1,1,0,0,1,1,1V71a1,1,0,0,1-1,1Z"/><path class="cls-38" d="M39,70a1,1,0,0,1-1-1V57a1,1,0,0,1,2,0V69a1,1,0,0,1-1,1Z"/><path class="cls-38" d="M55,72a1,1,0,0,1-1-1V58H48V71a1,1,0,0,1-2,0V57a1,1,0,0,1,1-1h8a1,1,0,0,1,1,1V71a1,1,0,0,1-1,1Z"/><path class="cls-38" d="M51,70a1,1,0,0,1-1-1V61a1,1,0,0,1,2,0v8a1,1,0,0,1-1,1Z"/><path class="cls-38" d="M73,48a1,1,0,0,1-1-1V30H70V47a1,1,0,0,1-2,0V29a1,1,0,0,1,1-1h4a1,1,0,0,1,1,1V47a1,1,0,0,1-1,1Z"/><path class="cls-38" d="M81,48a1,1,0,0,1-1-1V30H78V47a1,1,0,0,1-2,0V29a1,1,0,0,1,1-1h4a1,1,0,0,1,1,1V47a1,1,0,0,1-1,1Z"/><path class="cls-38" d="M13,120a1,1,0,0,1-1-1V106H6v13a1,1,0,0,1-2,0V105a1,1,0,0,1,1-1h8a1,1,0,0,1,1,1v14a1,1,0,0,1-1,1Z"/><path class="cls-38" d="M21,120a1,1,0,0,1-1-1V102H18v17a1,1,0,0,1-2,0V101a1,1,0,0,1,1-1h4a1,1,0,0,1,1,1v18a1,1,0,0,1-1,1Z"/><path class="cls-38" d="M29,120a1,1,0,0,1-1-1V104H26v15a1,1,0,0,1-2,0V103a1,1,0,0,1,1-1h4a1,1,0,0,1,1,1v16a1,1,0,0,1-1,1Z"/><path class="cls-38" d="M37,120a1,1,0,0,1-1-1V104H34v15a1,1,0,0,1-2,0V103a1,1,0,0,1,1-1h4a1,1,0,0,1,1,1v16a1,1,0,0,1-1,1Z"/><path class="cls-38" d="M81,24a1,1,0,0,1-1-1V6H74V23a1,1,0,0,1-2,0V5a1,1,0,0,1,1-1h8a1,1,0,0,1,1,1V23a1,1,0,0,1-1,1Z"/><path class="cls-38" d="M77,22a1,1,0,0,1-1-1V9a1,1,0,0,1,2,0V21a1,1,0,0,1-1,1Z"/><path class="cls-38" d="M65,14H51a1,1,0,0,1,0-2H65a1,1,0,0,1,0,2Z"/><path class="cls-38" d="M65,22H51a1,1,0,0,1,0-2H65a1,1,0,0,1,0,2Z"/><path class="cls-38" d="M81,96a1,1,0,0,1-1-1V90H60v5a1,1,0,0,1-2,0V89a1,1,0,0,1,1-1H81a1,1,0,0,1,1,1v6a1,1,0,0,1-1,1Z"/><path class="cls-38" d="M81,88a1,1,0,0,1-1-1V82H60v5a1,1,0,0,1-2,0V81a1,1,0,0,1,1-1H81a1,1,0,0,1,1,1v6a1,1,0,0,1-1,1Z"/><path class="cls-38" d="M77,86H63a1,1,0,0,1,0-2H77a1,1,0,0,1,0,2Z"/><path class="cls-38" d="M77,94H63a1,1,0,0,1,0-2H77a1,1,0,0,1,0,2Z"/><path class="cls-38" d="M29,48a1,1,0,0,1-1-1V46H8v1a1,1,0,0,1-2,0V45a1,1,0,0,1,1-1H29a1,1,0,0,1,1,1v2a1,1,0,0,1-1,1Z"/><path class="cls-38" d="M29,44a1,1,0,0,1-1-1V42H8v1a1,1,0,0,1-2,0V41a1,1,0,0,1,1-1H29a1,1,0,0,1,1,1v2a1,1,0,0,1-1,1Z"/><path class="cls-38" d="M29,40a1,1,0,0,1-1-1V38H8v1a1,1,0,0,1-2,0V37a1,1,0,0,1,1-1H29a1,1,0,0,1,1,1v2a1,1,0,0,1-1,1Z"/><path class="cls-38" d="M29,36a1,1,0,0,1-1-1V34H8v1a1,1,0,0,1-2,0V33a1,1,0,0,1,1-1H29a1,1,0,0,1,1,1v2a1,1,0,0,1-1,1Z"/><path class="cls-38" d="M65,48a1,1,0,0,1-1-1V38H46v9a1,1,0,0,1-2,0V37a1,1,0,0,1,1-1H65a1,1,0,0,1,1,1V47a1,1,0,0,1-1,1Z"/><path class="cls-38" d="M61,44H49a1,1,0,0,1,0-2H61a1,1,0,0,1,0,2Z"/><path class="cls-38" d="M81,70H59a1,1,0,0,1,0-2H81a1,1,0,0,1,0,2Z"/><path class="cls-38" d="M81,72a1,1,0,0,1-1-1V69a1,1,0,0,1,2,0v2a1,1,0,0,1-1,1Z"/><path class="cls-38" d="M59,72a1,1,0,0,1-1-1V69a1,1,0,0,1,2,0v2a1,1,0,0,1-1,1Z"/><path class="cls-38" d="M81,66H59a1,1,0,0,1,0-2H81a1,1,0,0,1,0,2Z"/><path class="cls-38" d="M81,68a1,1,0,0,1-1-1V65a1,1,0,0,1,2,0v2a1,1,0,0,1-1,1Z"/><path class="cls-38" d="M59,68a1,1,0,0,1-1-1V65a1,1,0,0,1,2,0v2a1,1,0,0,1-1,1Z"/><path class="cls-38" d="M81,62H59a1,1,0,0,1,0-2H81a1,1,0,0,1,0,2Z"/><path class="cls-38" d="M81,64a1,1,0,0,1-1-1V61a1,1,0,0,1,2,0v2a1,1,0,0,1-1,1Z"/><path class="cls-38" d="M59,64a1,1,0,0,1-1-1V61a1,1,0,0,1,2,0v2a1,1,0,0,1-1,1Z"/><path class="cls-38" d="M81,118H57a1,1,0,0,1,0-2H81a1,1,0,0,1,0,2Z"/><path class="cls-38" d="M81,120a1,1,0,0,1-1-1v-2a1,1,0,0,1,2,0v2a1,1,0,0,1-1,1Z"/><path class="cls-38" d="M57,120a1,1,0,0,1-1-1v-2a1,1,0,0,1,2,0v2a1,1,0,0,1-1,1Z"/><path class="cls-38" d="M81,114H57a1,1,0,0,1,0-2H81a1,1,0,0,1,0,2Z"/><path class="cls-38" d="M81,116a1,1,0,0,1-1-1v-2a1,1,0,0,1,2,0v2a1,1,0,0,1-1,1Z"/><path class="cls-38" d="M57,116a1,1,0,0,1-1-1v-2a1,1,0,0,1,2,0v2a1,1,0,0,1-1,1Z"/><path class="cls-38" d="M81,110H57a1,1,0,0,1,0-2H81a1,1,0,0,1,0,2Z"/><path class="cls-38" d="M81,112a1,1,0,0,1-1-1v-2a1,1,0,0,1,2,0v2a1,1,0,0,1-1,1Z"/><path class="cls-38" d="M57,112a1,1,0,0,1-1-1v-2a1,1,0,0,1,2,0v2a1,1,0,0,1-1,1Z"/><path class="cls-38" d="M81,106H57a1,1,0,0,1,0-2H81a1,1,0,0,1,0,2Z"/><path class="cls-38" d="M81,108a1,1,0,0,1-1-1v-2a1,1,0,0,1,2,0v2a1,1,0,0,1-1,1Z"/><path class="cls-38" d="M57,108a1,1,0,0,1-1-1v-2a1,1,0,0,1,2,0v2a1,1,0,0,1-1,1Z"/><path class="cls-38" d="M23,94H5a1,1,0,0,1,0-2H23a1,1,0,0,1,0,2Z"/><path class="cls-38" d="M23,96a1,1,0,0,1-1-1V93a1,1,0,0,1,2,0v2a1,1,0,0,1-1,1Z"/><path class="cls-38" d="M5,96a1,1,0,0,1-1-1V93a1,1,0,0,1,2,0v2a1,1,0,0,1-1,1Z"/><path class="cls-38" d="M23,90H5a1,1,0,0,1,0-2H23a1,1,0,0,1,0,2Z"/><path class="cls-38" d="M23,92a1,1,0,0,1-1-1V89a1,1,0,0,1,2,0v2a1,1,0,0,1-1,1Z"/><path class="cls-38" d="M5,92a1,1,0,0,1-1-1V89a1,1,0,0,1,2,0v2a1,1,0,0,1-1,1Z"/><path class="cls-38" d="M23,86H5a1,1,0,0,1,0-2H23a1,1,0,0,1,0,2Z"/><path class="cls-38" d="M23,88a1,1,0,0,1-1-1V85a1,1,0,0,1,2,0v2a1,1,0,0,1-1,1Z"/><path class="cls-38" d="M5,88a1,1,0,0,1-1-1V85a1,1,0,0,1,2,0v2a1,1,0,0,1-1,1Z"/><path class="cls-38" d="M23,82H5a1,1,0,0,1,0-2H23a1,1,0,0,1,0,2Z"/><path class="cls-38" d="M23,84a1,1,0,0,1-1-1V81a1,1,0,0,1,2,0v2a1,1,0,0,1-1,1Z"/><path class="cls-38" d="M5,84a1,1,0,0,1-1-1V81a1,1,0,0,1,2,0v2a1,1,0,0,1-1,1Z"/><path class="cls-38" d="M23,78H5a1,1,0,0,1,0-2H23a1,1,0,0,1,0,2Z"/><path class="cls-38" d="M23,80a1,1,0,0,1-1-1V77a1,1,0,0,1,2,0v2a1,1,0,0,1-1,1Z"/><path class="cls-38" d="M5,80a1,1,0,0,1-1-1V77a1,1,0,0,1,2,0v2a1,1,0,0,1-1,1Z"/><path class="cls-38" d="M9,118a1,1,0,0,1-1-1v-8a1,1,0,0,1,2,0v8a1,1,0,0,1-1,1Z"/></svg>