<svg id="Layer_1" data-name="Layer 1" xmlns="http://www.w3.org/2000/svg" viewBox="0 0 128 128"><defs><style>.cls-1{fill:#dbdee3;}.cls-2{fill:#fff;}.cls-3{fill:#f04c64;}.cls-4{fill:#f37b8c;}.cls-5{fill:#afb4b8;}.cls-6{fill:#d33f54;}.cls-7{fill:#9cacb6;}.cls-8{fill:#5f6c79;}.cls-9{fill:#00b5d3;}.cls-10{fill:#8a97a0;}.cls-11{fill:#30c1d8;}.cls-12{fill:#d16472;}.cls-13{fill:#fdbe52;}.cls-14{fill:#ffce83;}.cls-15{fill:#c9cfd3;}.cls-16{fill:#e4e6e9;}.cls-17{fill:#3d364a;}</style></defs><title>video-aula</title><polyline class="cls-1" points="1 20 127 20 127 112 1 112 1 20"/><path class="cls-2" d="M5,18a2,2,0,0,1,2-2H3a2,2,0,0,0-2,2v94H5V18"/><path class="cls-3" d="M127,20H1V18a2,2,0,0,1,2-2H125a2,2,0,0,1,2,2v2"/><path class="cls-4" d="M5,20H1V18a2,2,0,0,1,2-2H7a2,2,0,0,0-2,2v2"/><polyline class="cls-5" points="127 112 123 112 123 20 127 20 127 112"/><path class="cls-6" d="M127,20h-4V18a2,2,0,0,0-2-2h4a2,2,0,0,1,2,2v2"/><polyline class="cls-7" points="11 92 73 92 73 96 11 96 11 92"/><polyline class="cls-8" points="73 92 117 92 117 96 73 96 73 92"/><polyline class="cls-9" points="7 26 121 26 121 92 7 92 7 26"/><polyline class="cls-8" points="91 56 121 26 121 92 43 92 84.97 49.97 91 56"/><polyline class="cls-10" points="95 56 93 54 121 26 121 30 95 56"/><path class="cls-10" d="M47,92H43L61.23,73.75A15.77,15.77,0,0,0,64,74h0c.34,0,.68,0,1,0L47,92"/><polyline class="cls-11" points="86.97 51.98 84.97 49.97 86.97 51.98"/><path class="cls-10" d="M79,60q0-.5,0-1h0a15.16,15.16,0,0,0-.26-2.79L85,50l2,2-8,8"/><path class="cls-3" d="M79,59A15,15,0,1,1,64,44,15,15,0,0,1,79,59"/><path class="cls-4" d="M64,74a15,15,0,0,1,0-30h0a14.71,14.71,0,0,0-2,.15,14.77,14.77,0,0,1,2,.41,15,15,0,0,0,0,28.88,14.77,14.77,0,0,1-2,.41A14.71,14.71,0,0,0,64,74"/><path class="cls-6" d="M64,74a14.71,14.71,0,0,0,2-.15,14.77,14.77,0,0,1-2-.41,15,15,0,0,0,0-28.88,14.77,14.77,0,0,1,2-.41A14.71,14.71,0,0,0,64,44a15,15,0,0,1,0,30"/><path class="cls-12" d="M64,74h0a14.71,14.71,0,0,1-2-.15,14.77,14.77,0,0,0,2-.41,14.77,14.77,0,0,0,2,.41A14.71,14.71,0,0,1,64,74h0m0-29.44a14.77,14.77,0,0,0-2-.41A14.71,14.71,0,0,1,64,44h0a14.71,14.71,0,0,1,2,.15,14.77,14.77,0,0,0-2,.41"/><polygon class="cls-13" points="60 53 70 59 60 65 60 53 60 53"/><path class="cls-1" d="M77,34h8a2,2,0,0,1,0,4H73a4,4,0,1,1,4-4Z"/><path class="cls-2" d="M71,34a4,4,0,0,1,3-3.86A4.09,4.09,0,0,0,73,30a4,4,0,0,0,0,8h2a4,4,0,0,1-4-4Z"/><path class="cls-13" d="M7,26v8.44A6,6,0,0,0,15.44,26H7"/><path class="cls-14" d="M11,36a6,6,0,0,1-4-1.56v-.81A5.77,5.77,0,0,0,9,34a6,6,0,0,0,6-6,5.77,5.77,0,0,0-.37-2h.81A6,6,0,0,1,11,36"/><polyline class="cls-15" points="73 94 11 94 11 92 73 92 73 94"/><polyline class="cls-10" points="117 94 73 94 73 92 117 92 117 94"/><path class="cls-3" d="M75,94a2,2,0,1,1-2-2,2,2,0,0,1,2,2Z"/><polygon class="cls-8" points="7 92 11 92 11 96 7 96 7 92 7 92"/><polygon class="cls-8" points="117 92 121 92 121 96 117 96 117 92 117 92"/><path class="cls-3" d="M35,102a2,2,0,0,1,0,4H9a2,2,0,0,1,0-4H35"/><path class="cls-16" d="M7,104H7m30,0h0"/><path class="cls-4" d="M36.69,105A2,2,0,0,0,35,104H9a2,2,0,0,0-1.69,1A1.93,1.93,0,0,1,7,104H7a2,2,0,0,1,2-2H35a2,2,0,0,1,2,2h0a1.93,1.93,0,0,1-.31,1"/><path class="cls-17" d="M5.06,19a1,1,0,0,1-1-1,1,1,0,0,1,1-1h0a1,1,0,0,1,0,2Z"/><path class="cls-17" d="M9.06,19a1,1,0,0,1-1-1,1,1,0,0,1,1-1h0a1,1,0,1,1,0,2Z"/><path class="cls-17" d="M13.06,19a1,1,0,0,1-1-1,1,1,0,0,1,1-1h0a1,1,0,1,1,0,2Z"/><path class="cls-17" d="M2,19H126V18a1,1,0,0,0-1-1H3a1,1,0,0,0-1,1v1Zm125,2H1a1,1,0,0,1-1-1V18a3,3,0,0,1,3-3H125a3,3,0,0,1,3,3v2a1,1,0,0,1-1,1Z"/><path class="cls-17" d="M2,111H126V21H2v90Zm125,2H1a1,1,0,0,1-1-1V20a1,1,0,0,1,1-1H127a1,1,0,0,1,1,1v92a1,1,0,0,1-1,1Z"/><path class="cls-17" d="M8,95H120V27H8V95Zm113,2H7a1,1,0,0,1-1-1V26a1,1,0,0,1,1-1H121a1,1,0,0,1,1,1V96a1,1,0,0,1-1,1Z"/><path class="cls-17" d="M121,93H7a1,1,0,0,1,0-2H121a1,1,0,0,1,0,2Z"/><path class="cls-17" d="M11,97a1,1,0,0,1-1-1V92a1,1,0,0,1,2,0v4a1,1,0,0,1-1,1Z"/><path class="cls-17" d="M117,97a1,1,0,0,1-1-1V92a1,1,0,0,1,2,0v4a1,1,0,0,1-1,1Z"/><path class="cls-17" d="M73,93a1,1,0,1,0,1,1,1,1,0,0,0-1-1Zm0,4a3,3,0,1,1,3-3,3,3,0,0,1-3,3Z"/><path class="cls-17" d="M64,45A14,14,0,1,0,78,59,14,14,0,0,0,64,45Zm0,30A16,16,0,1,1,80,59,16,16,0,0,1,64,75Z"/><path class="cls-17" d="M61,54.77v8.46L68.06,59,61,54.77ZM60,66a1,1,0,0,1-.49-.13A1,1,0,0,1,59,65V53a1,1,0,0,1,1.51-.86l10,6a1,1,0,0,1,0,1.72l-10,6A1,1,0,0,1,60,66Z"/><path class="cls-17" d="M11,37a1,1,0,0,1,0-2,5,5,0,0,0,5-5,1,1,0,0,1,2,0,7,7,0,0,1-7,7Z"/><path class="cls-17" d="M11,51a1,1,0,0,1-1-1V40a1,1,0,0,1,2,0V50a1,1,0,0,1-1,1Z"/><path class="cls-17" d="M21,48.32a1,1,0,0,1-.87-.5l-5-8.66a1,1,0,0,1,1.74-1l5,8.66a1,1,0,0,1-.87,1.5Z"/><path class="cls-17" d="M28.32,41a1,1,0,0,1-.5-.13l-8.66-5a1,1,0,1,1,1-1.74l8.66,5a1,1,0,0,1-.5,1.87Z"/><path class="cls-17" d="M31,31H21a1,1,0,0,1,0-2H31a1,1,0,0,1,0,2Z"/><path class="cls-17" d="M91,57a1,1,0,0,1-.71-.29,1,1,0,0,1,0-1.42l26-26a1,1,0,0,1,1.42,1.42l-26,26A1,1,0,0,1,91,57Z"/><path class="cls-17" d="M91,57a1,1,0,0,1-.71-.29l-6-6a1,1,0,1,1,1.41-1.41l6,6a1,1,0,0,1,0,1.42A1,1,0,0,1,91,57Z"/><path class="cls-17" d="M47,89a1,1,0,0,1-.71-.29,1,1,0,0,1,0-1.42L58,75.51a1,1,0,0,1,1.41,1.41L47.65,88.71A1,1,0,0,1,47,89Z"/><path class="cls-17" d="M81.21,54.73a1,1,0,0,1-.7-1.7l3.76-3.76a1,1,0,0,1,1.41,1.41l-3.76,3.76a1,1,0,0,1-.71.29Z"/><path class="cls-17" d="M17,89a1,1,0,0,1-1-1V76a1,1,0,0,1,2,0V88a1,1,0,0,1-1,1Z"/><path class="cls-17" d="M19,79a1,1,0,0,1-.71-.29l-2-2a1,1,0,0,1,1.42-1.42l2,2a1,1,0,0,1,0,1.42A1,1,0,0,1,19,79Z"/><path class="cls-17" d="M15,79a1,1,0,0,1-.71-.29,1,1,0,0,1,0-1.42l2-2a1,1,0,1,1,1.42,1.42l-2,2A1,1,0,0,1,15,79Z"/><path class="cls-17" d="M19,83a1,1,0,0,1-.71-.29l-2-2a1,1,0,0,1,1.42-1.42l2,2a1,1,0,0,1,0,1.42A1,1,0,0,1,19,83Z"/><path class="cls-17" d="M15,83a1,1,0,0,1-.71-.29,1,1,0,0,1,0-1.42l2-2a1,1,0,1,1,1.42,1.42l-2,2A1,1,0,0,1,15,83Z"/><path class="cls-17" d="M33,89a1,1,0,0,1-1-1V76a1,1,0,0,1,2,0V88a1,1,0,0,1-1,1Z"/><path class="cls-17" d="M35,79a1,1,0,0,1-.71-.29l-2-2a1,1,0,0,1,1.42-1.42l2,2a1,1,0,0,1,0,1.42A1,1,0,0,1,35,79Z"/><path class="cls-17" d="M31,79a1,1,0,0,1-.71-.29,1,1,0,0,1,0-1.42l2-2a1,1,0,1,1,1.42,1.42l-2,2A1,1,0,0,1,31,79Z"/><path class="cls-17" d="M35,83a1,1,0,0,1-.71-.29l-2-2a1,1,0,0,1,1.42-1.42l2,2a1,1,0,0,1,0,1.42A1,1,0,0,1,35,83Z"/><path class="cls-17" d="M31,83a1,1,0,0,1-.71-.29,1,1,0,0,1,0-1.42l2-2a1,1,0,1,1,1.42,1.42l-2,2A1,1,0,0,1,31,83Z"/><path class="cls-17" d="M25,89a1,1,0,0,1-1-1V72a1,1,0,0,1,2,0V88a1,1,0,0,1-1,1Z"/><path class="cls-17" d="M27,75a1,1,0,0,1-.71-.29l-2-2a1,1,0,0,1,1.42-1.42l2,2a1,1,0,0,1,0,1.42A1,1,0,0,1,27,75Z"/><path class="cls-17" d="M23,75a1,1,0,0,1-.71-.29,1,1,0,0,1,0-1.42l2-2a1,1,0,1,1,1.42,1.42l-2,2A1,1,0,0,1,23,75Z"/><path class="cls-17" d="M27,79a1,1,0,0,1-.71-.29l-2-2a1,1,0,0,1,1.42-1.42l2,2a1,1,0,0,1,0,1.42A1,1,0,0,1,27,79Z"/><path class="cls-17" d="M23,79a1,1,0,0,1-.71-.29,1,1,0,0,1,0-1.42l2-2a1,1,0,1,1,1.42,1.42l-2,2A1,1,0,0,1,23,79Z"/><path class="cls-17" d="M27,83a1,1,0,0,1-.71-.29l-2-2a1,1,0,0,1,1.42-1.42l2,2a1,1,0,0,1,0,1.42A1,1,0,0,1,27,83Z"/><path class="cls-17" d="M23,83a1,1,0,0,1-.71-.29,1,1,0,0,1,0-1.42l2-2a1,1,0,1,1,1.42,1.42l-2,2A1,1,0,0,1,23,83Z"/><path class="cls-17" d="M85,39a1,1,0,0,1,0-2,1,1,0,0,0,0-2,1,1,0,0,1,0-2,3,3,0,0,1,0,6Z"/><path class="cls-17" d="M85,39H73a1,1,0,0,1,0-2H85a1,1,0,0,1,0,2Z"/><path class="cls-17" d="M85,35H77a1,1,0,0,1,0-2h8a1,1,0,0,1,0,2Z"/><path class="cls-17" d="M73,39a5,5,0,1,1,5-5,1,1,0,0,1-2,0,3,3,0,1,0-3,3,1,1,0,0,1,0,2Z"/><path class="cls-17" d="M9,107a3,3,0,0,1,0-6,1,1,0,0,1,0,2,1,1,0,0,0,0,2,1,1,0,0,1,0,2Z"/><path class="cls-17" d="M35,107a1,1,0,0,1,0-2,1,1,0,0,0,0-2,1,1,0,0,1,0-2,3,3,0,0,1,0,6Z"/><path class="cls-17" d="M35,103H9a1,1,0,0,1,0-2H35a1,1,0,0,1,0,2Z"/><path class="cls-17" d="M35,107H9a1,1,0,0,1,0-2H35a1,1,0,0,1,0,2Z"/><path class="cls-17" d="M99.59,106.41a1,1,0,0,1-.71-.29,1,1,0,0,1,0-1.41l2.83-2.83a1,1,0,0,1,1.41,1.41l-2.83,2.83a1,1,0,0,1-.7.29Z"/><path class="cls-17" d="M102.41,106.41a1,1,0,0,1-.7-.29l-2.83-2.83a1,1,0,0,1,1.41-1.41l2.83,2.83a1,1,0,0,1,0,1.41,1,1,0,0,1-.71.29Z"/><path class="cls-17" d="M93.59,106.41a1,1,0,0,1-.71-.29,1,1,0,0,1,0-1.41l2.83-2.83a1,1,0,0,1,1.41,1.41l-2.83,2.83a1,1,0,0,1-.7.29Z"/><path class="cls-17" d="M96.41,106.41a1,1,0,0,1-.7-.29l-2.83-2.83a1,1,0,0,1,1.41-1.41l2.83,2.83a1,1,0,0,1,0,1.41,1,1,0,0,1-.71.29Z"/><path class="cls-17" d="M105.59,106.41a1,1,0,0,1-.71-.29,1,1,0,0,1,0-1.41l2.83-2.83a1,1,0,0,1,1.41,1.41l-2.83,2.83a1,1,0,0,1-.7.29Z"/><path class="cls-17" d="M108.41,106.41a1,1,0,0,1-.7-.29l-2.83-2.83a1,1,0,0,1,1.41-1.41l2.83,2.83a1,1,0,0,1,0,1.41,1,1,0,0,1-.71.29Z"/><path class="cls-17" d="M111.59,106.41a1,1,0,0,1-.71-.29,1,1,0,0,1,0-1.41l2.83-2.83a1,1,0,0,1,1.41,1.41l-2.83,2.83a1,1,0,0,1-.7.29Z"/><path class="cls-17" d="M114.41,106.41a1,1,0,0,1-.7-.29l-2.83-2.83a1,1,0,0,1,1.41-1.41l2.83,2.83a1,1,0,0,1,0,1.41,1,1,0,0,1-.71.29Z"/><path class="cls-17" d="M117.59,106.41a1,1,0,0,1-.71-.29,1,1,0,0,1,0-1.41l2.83-2.83a1,1,0,0,1,1.41,1.41l-2.83,2.83a1,1,0,0,1-.7.29Z"/><path class="cls-17" d="M120.41,106.41a1,1,0,0,1-.7-.29l-2.83-2.83a1,1,0,0,1,1.41-1.41l2.83,2.83a1,1,0,0,1,0,1.41,1,1,0,0,1-.71.29Z"/></svg>