<svg id="Layer_1" data-name="Layer 1" xmlns="http://www.w3.org/2000/svg" xmlns:xlink="http://www.w3.org/1999/xlink" viewBox="0 0 128 128"><defs><style>.cls-1{fill:none;}.cls-2{fill:#00b19b;}.cls-3{fill:#5ac3b7;}.cls-4{fill:#00ac8a;}.cls-5{fill:#2ab2a0;}.cls-6{fill:#5f6c79;}.cls-7{fill:#fff;}.cls-8{fill:#00b8a7;}.cls-9{fill:#7accc1;}.cls-10{fill:#7b8993;}.cls-11{fill:#c4c4c3;}.cls-12{fill:#00896d;}.cls-13{fill:#4f5662;}.cls-14{fill:#00af95;}.cls-15{fill:#666d77;}.cls-16{fill:#9cacb6;}.cls-17{fill:#a7b0b6;}.cls-18{fill:#c9cfd3;}.cls-19{fill:#7f8d97;}.cls-20{fill:#869196;}.cls-21{fill:#a0a9ae;}.cls-22{fill:#aeb9c1;}.cls-23{fill:#6f7982;}.cls-24{fill:#008fcf;}.cls-25{fill:#99a3ab;}.cls-26{fill:#75b4e3;}.cls-27{fill:#0c7ab5;}.cls-28{fill:#5e96b9;}.cls-29{fill:#bfc7ce;}.cls-30{fill:#39bdb0;}.cls-31{fill:#8a97a0;}.cls-32{fill:#e7e7eb;}.cls-33{fill:#d9dadc;}.cls-34{fill:#7c868c;}.cls-35{fill:#3d364a;}.cls-36{clip-path:url(#clip-path);}</style><clipPath id="clip-path"><rect class="cls-1" x="19" width="90" height="128"/></clipPath></defs><title>web-conferencia</title><path class="cls-2" d="M106,43A42,42,0,1,1,64,1a42,42,0,0,1,42,42"/><path class="cls-3" d="M63.9,85h-.11A42,42,0,0,1,41.26,7.68l-.51.37c-1,.63-1.86,1.3-2.75,2v3.59A41.94,41.94,0,0,0,64,84.76c-.66.06-1.33.11-2,.14.63,0,1.26.09,1.9.1M42,7.25v0A41.76,41.76,0,0,1,56,1.76h0A41.62,41.62,0,0,0,42,7.25"/><path class="cls-4" d="M64.21,85H64.1c.64,0,1.27-.07,1.9-.1-.67,0-1.34-.08-2-.14A41.94,41.94,0,0,0,90,13.64V10.05c-.89-.7-1.8-1.37-2.74-2l-.52-.37A42,42,0,0,1,64.21,85M86,7.25A41.62,41.62,0,0,0,72,1.76h0A41.76,41.76,0,0,1,86,7.21v0"/><path class="cls-5" d="M64.1,85h-.2c-.64,0-1.27-.07-1.9-.1.67,0,1.34-.08,2-.14s1.33.11,2,.14c-.63,0-1.26.09-1.9.1"/><path class="cls-6" d="M64,1a41.79,41.79,0,0,0-26,9.05V51a26,26,0,0,0,52,0V10.05A41.79,41.79,0,0,0,64,1"/><path class="cls-7" d="M41.26,7.68,42,7.14v.07l-.74.47"/><path class="cls-8" d="M64,77A26,26,0,0,1,38,51h0A26,26,0,0,0,63.88,77H64M41.26,7.68h0L42,7.21h0l-.74.47"/><path class="cls-9" d="M40.75,8.05l.51-.37L42,7.21v0l-1.25.8"/><path class="cls-10" d="M63.88,77A26,26,0,0,1,38,51V10.05l2.75-2L42,7.25V51A26,26,0,0,0,64,76.67c-.66.1-1.33.18-2,.23.62,0,1.25.09,1.88.1"/><path class="cls-11" d="M86.74,7.68,86,7.21V7.14l.74.54"/><path class="cls-4" d="M64,77h.12A26,26,0,0,0,90,51V13.64h0V51A26,26,0,0,1,64,77M86.74,7.68,86,7.21h0l.74.47h0"/><path class="cls-12" d="M90,13.64h0v0M87.26,8.05,86,7.25v0l.74.47.52.37"/><path class="cls-13" d="M64.12,77c.63,0,1.26-.06,1.88-.1-.67-.05-1.34-.13-2-.23A26,26,0,0,0,86,51V7.25l1.26.8,2.74,2V51A26,26,0,0,1,64.12,77"/><path class="cls-14" d="M64,77h0"/><path class="cls-15" d="M64,77h-.12c-.63,0-1.26-.06-1.88-.1.67-.05,1.34-.13,2-.23.66.1,1.33.18,2,.23-.62,0-1.25.09-1.88.1H64"/><path class="cls-16" d="M64,25A18,18,0,1,1,46,43,18,18,0,0,1,64,25"/><path class="cls-17" d="M64,61A18,18,0,0,1,51.76,29.8,18,18,0,0,0,63.89,61H64"/><path class="cls-18" d="M63.89,61A18,18,0,0,1,64,25h0c-.34,0-.67,0-1,.05.34,0,.67,0,1,.08a18,18,0,0,0,0,35.73c-.33,0-.66.07-1,.09l.89,0"/><path class="cls-13" d="M64,61h.11A18,18,0,0,0,82,43h0A18,18,0,0,1,64,61"/><path class="cls-19" d="M64.11,61,65,61c-.34,0-.67-.05-1-.09a18,18,0,0,0,0-35.73c.33,0,.66-.06,1-.08-.33,0-.66-.05-1-.05a18,18,0,0,1,.11,36"/><path class="cls-20" d="M64,61h0"/><path class="cls-21" d="M64,61h-.11L63,61c.34,0,.67-.05,1-.09s.66.07,1,.09l-.89,0H64m0-35.87c-.33,0-.66-.06-1-.08.33,0,.66-.05,1-.05h0c.34,0,.67,0,1,.05-.34,0-.67,0-1,.08"/><path class="cls-6" d="M78,43A14,14,0,1,1,64,29,14,14,0,0,1,78,43"/><path class="cls-19" d="M64,57h0m-.24,0a14,14,0,0,1-9.66-4.1A14,14,0,0,0,63.76,57M54.1,52.9h0m0,0h0M50,43.4h0m0-.07v0m0-.1v0"/><path class="cls-13" d="M64,57h-.24a14,14,0,0,1-9.66-4.1h0l0,0h0A13.92,13.92,0,0,1,50,43.4h0V43h0A14,14,0,0,1,64,29h0c-.34,0-.67,0-1,.05.34,0,.67.06,1,.1a14,14,0,0,0,0,27.69c-.33,0-.66.08-1,.11.33,0,.66,0,1,0"/><path class="cls-22" d="M64,57h0A14,14,0,0,0,78,43h0A14,14,0,0,1,64,57"/><path class="cls-10" d="M64,57c.34,0,.67,0,1,0-.34,0-.67-.06-1-.11a14,14,0,0,0,0-27.69c.33,0,.66-.08,1-.1-.33,0-.66-.05-1-.05a14,14,0,0,1,0,28"/><path class="cls-23" d="M64,57h0c-.34,0-.67,0-1,0,.34,0,.67-.06,1-.11s.66.08,1,.11c-.33,0-.66,0-1,0h0m0-27.85c-.33,0-.66-.08-1-.1.33,0,.66-.05,1-.05h0c.34,0,.67,0,1,.05-.34,0-.67.06-1,.1"/><path class="cls-24" d="M73,43a9,9,0,1,1-9-9,9,9,0,0,1,9,9"/><path class="cls-25" d="M64,52h0m0-18h0"/><path class="cls-26" d="M64,52a9,9,0,0,1-9-8.63c0-.12,0-.25,0-.37a9,9,0,0,1,9-9,8.67,8.67,0,0,0-2,.24A9.14,9.14,0,0,1,64,35,9,9,0,0,0,64,51a8.68,8.68,0,0,1-2,.72A9.26,9.26,0,0,0,64,52m0-18h0"/><path class="cls-13" d="M64,52h0m0-18h0"/><path class="cls-27" d="M64,52h0m0,0a9.26,9.26,0,0,0,2-.24A8.68,8.68,0,0,1,64,51,9,9,0,0,0,64,35a9.14,9.14,0,0,1,2-.71A8.67,8.67,0,0,0,64,34a9,9,0,0,1,0,18"/><path class="cls-28" d="M64,52h0a9.26,9.26,0,0,1-2-.24A8.68,8.68,0,0,0,64,51a8.68,8.68,0,0,0,2,.72A9.26,9.26,0,0,1,64,52h0m0-17a9.14,9.14,0,0,0-2-.71A8.67,8.67,0,0,1,64,34h0a8.67,8.67,0,0,1,2,.24A9.14,9.14,0,0,0,64,35"/><polyline class="cls-29" points="60 85 68 85 68 103 60 103 60 85"/><polyline class="cls-11" points="68 86.8 68 85 68 85 68 86.8 68 86.8"/><path class="cls-25" d="M64,87c-.67,0-1.34,0-2,0h0c-.46,0-.91,0-1.36-.09l-.64,0V85h8v1.8l-.58,0c-.47,0-.94.07-1.42.09h0c-.66,0-1.33,0-2,0"/><path class="cls-16" d="M68,5H60v6h8V5m4,10H56V1.76a42.49,42.49,0,0,1,16,0V15"/><path class="cls-7" d="M56.16,1.73,58,1.38v0c-.62.09-1.23.19-1.84.31"/><path class="cls-18" d="M58,15H56V1.76l.16,0c.61-.12,1.22-.22,1.84-.31V15"/><path class="cls-11" d="M71.74,1.71c-.58-.11-1.16-.21-1.74-.29v0l1.74.33"/><path class="cls-19" d="M72,15H70V1.42c.58.08,1.16.18,1.74.29l.26.05V15"/><polyline class="cls-6" points="60 5 68 5 68 11 60 11 60 5"/><polyline class="cls-10" points="62 11 60 11 60 5 62 5 62 11"/><polyline class="cls-13" points="68 11 68 11 68 5 68 5 68 11"/><polyline class="cls-19" points="68 11 66 11 68 11 68 11 68 5 68 5 68 11"/><polyline class="cls-13" points="68 11 66 11 66 5 68 5 68 11"/><polyline class="cls-2" points="54 103 74 103 74 107 54 107 54 103"/><path class="cls-6" d="M54,107H78a2,2,0,0,1,2,2v6h22a6,6,0,0,1,0,12H26a6,6,0,0,1,0-12H48v-6a2,2,0,0,1,2-2h4"/><path class="cls-7" d="M30,127H26a6,6,0,0,1-6-6h0a6,6,0,0,0,6,6h4"/><path class="cls-10" d="M30,127H26a6,6,0,0,1,0-12h4a6,6,0,0,0,0,12"/><path class="cls-7" d="M48,115h0v-6a2,2,0,0,1,2-2h0a2,2,0,0,0-2,2v6"/><path class="cls-10" d="M52,115H48v-6a2,2,0,0,1,2-2h4a2,2,0,0,0-2,2v6"/><path class="cls-13" d="M102,127H98a6,6,0,0,0,0-12h4a6,6,0,0,1,.08,12H102"/><path class="cls-13" d="M80,115H76v-6a2,2,0,0,0-2-2h4a2,2,0,0,1,2,2v6"/><polyline class="cls-30" points="58 107 54 107 54 107 54 103 58 103 58 107"/><polyline class="cls-31" points="58 107 54 107 54 107 54 107 54 107 54 107 58 107 58 107"/><polyline class="cls-11" points="74 107 74 107 74 107 74 103 74 103 74 107"/><polyline class="cls-4" points="74 107 70 107 70 103 74 103 74 107"/><polyline class="cls-13" points="74 107 70 107 70 107 74 107 74 107 74 107 74 107 74 107 74 107"/><polyline class="cls-11" points="68 103 60 103 60 103 68 103 68 101 68 103"/><polyline class="cls-25" points="68 103 60 103 60 101 68 101 68 103"/><path class="cls-32" d="M62,101H60V86.8l.64,0L62,87v14"/><path class="cls-33" d="M62,87l-1.36-.1c.45,0,.9.07,1.36.09h0"/><polyline class="cls-11" points="68 101 68 101 68 86.8 68 86.8 68 101"/><path class="cls-25" d="M68,101H66V87l1.42-.1.58,0V101"/><path class="cls-34" d="M66,87h0c.48,0,1,0,1.42-.09L66,87"/><path class="cls-35" d="M102,128H26a7,7,0,0,1,0-14,1,1,0,0,1,0,2,5,5,0,0,0,0,10h76a5,5,0,0,0,0-10,1,1,0,0,1,0-2,7,7,0,0,1,0,14Z"/><path class="cls-35" d="M48,116a1,1,0,0,1-1-1v-6a1,1,0,0,1,2,0v6a1,1,0,0,1-1,1Z"/><path class="cls-35" d="M80,116a1,1,0,0,1-1-1v-6a1,1,0,0,1,2,0v6a1,1,0,0,1-1,1Z"/><path class="cls-35" d="M74,104H54a1,1,0,0,1,0-2H74a1,1,0,0,1,0,2Z"/><path class="cls-35" d="M60,102a1,1,0,0,1-1-1V87a1,1,0,0,1,2,0v14a1,1,0,0,1-1,1Z"/><path class="cls-35" d="M68,102a1,1,0,0,1-1-1V87a1,1,0,0,1,2,0v14a1,1,0,0,1-1,1Z"/><path class="cls-35" d="M64,86A43,43,0,0,1,33.14,13a1,1,0,0,1,1.44,1.39,41,41,0,1,0,58.71-.13,1,1,0,1,1,1.43-1.4A43,43,0,0,1,64,86Z"/><g class="cls-36"><path class="cls-35" d="M90,11a1,1,0,0,1-.62-.22A40.22,40.22,0,0,0,75.72,3.7a1,1,0,1,1,.57-1.92A42.35,42.35,0,0,1,90.62,9.23,1,1,0,0,1,90,11Z"/><path class="cls-35" d="M72,2.76l-.19,0a41.65,41.65,0,0,0-15.62,0,1,1,0,0,1-.38-2,44,44,0,0,1,16.38,0,1,1,0,0,1-.19,2Z"/></g><path class="cls-35" d="M38,11a1,1,0,0,1-.62-1.79A42.74,42.74,0,0,1,51.71,1.78a1,1,0,1,1,.58,1.92,40.47,40.47,0,0,0-13.67,7.1A1,1,0,0,1,38,11Z"/><path class="cls-35" d="M54,116H26a1,1,0,0,1,0-2H54a1,1,0,0,1,0,2Z"/><path class="cls-35" d="M102,116H74a1,1,0,0,1,0-2h28a1,1,0,0,1,0,2Z"/><path class="cls-35" d="M48,110a1,1,0,0,1-1-1,3,3,0,0,1,3-3,1,1,0,0,1,0,2,1,1,0,0,0-1,1,1,1,0,0,1-1,1Z"/><path class="cls-35" d="M80,110a1,1,0,0,1-1-1,1,1,0,0,0-1-1,1,1,0,0,1,0-2,3,3,0,0,1,3,3,1,1,0,0,1-1,1Z"/><path class="cls-35" d="M78,108H50a1,1,0,0,1,0-2H78a1,1,0,0,1,0,2Z"/><path class="cls-35" d="M44,114a1,1,0,0,1-1-1v-2a1,1,0,0,1,2,0v2a1,1,0,0,1-1,1Z"/><path class="cls-35" d="M84,114a1,1,0,0,1-1-1v-2a1,1,0,0,1,2,0v2a1,1,0,0,1-1,1Z"/><path class="cls-35" d="M38,54a1,1,0,0,1-1-1V10a1,1,0,1,1,2,0V53a1,1,0,0,1-1,1Z"/><path class="cls-35" d="M90,54a1,1,0,0,1-1-1V10a1,1,0,1,1,2,0V53a1,1,0,0,1-1,1Z"/><path class="cls-35" d="M64,78C49.62,78,37,66.32,37,53a1,1,0,0,1,2,0c0,12.25,11.68,23,25,23S89,65.25,89,53a1,1,0,0,1,2,0c0,13.32-12.62,25-27,25Z"/><path class="cls-35" d="M64,26A17,17,0,1,0,81,43,17,17,0,0,0,64,26Zm0,36A19,19,0,1,1,83,43,19,19,0,0,1,64,62Z"/><path class="cls-35" d="M64,30A13,13,0,1,0,77,43,13,13,0,0,0,64,30Zm0,28A15,15,0,1,1,79,43,15,15,0,0,1,64,58Z"/><path class="cls-35" d="M64,35a8,8,0,1,0,8,8,8,8,0,0,0-8-8Zm0,18A10,10,0,1,1,74,43,10,10,0,0,1,64,53Z"/><path class="cls-35" d="M56,16a1,1,0,0,1-1-1V1.76a1,1,0,1,1,2,0V15a1,1,0,0,1-1,1Z"/><path class="cls-35" d="M72,16H56a1,1,0,0,1,0-2H72a1,1,0,0,1,0,2Z"/><path class="cls-35" d="M72,16a1,1,0,0,1-1-1V1.76a1,1,0,0,1,2,0V15a1,1,0,0,1-1,1Z"/><path class="cls-35" d="M61,10h6V6H61v4Zm7,2H60a1,1,0,0,1-1-1V5a1,1,0,0,1,1-1h8a1,1,0,0,1,1,1v6a1,1,0,0,1-1,1Z"/><path class="cls-35" d="M54,108a1,1,0,0,1-1-1v-4a1,1,0,0,1,2,0v4a1,1,0,0,1-1,1Z"/><path class="cls-35" d="M74,108a1,1,0,0,1-1-1v-4a1,1,0,0,1,2,0v4a1,1,0,0,1-1,1Z"/></svg>